<svg version="1.1" xmlns="http://www.w3.org/2000/svg" xmlns:xlink="http://www.w3.org/1999/xlink" width="512.01201" height="262.20123" viewBox="0,0,512.01201,262.20123"><g transform="translate(18.74099,-173.49349)"><g data-paper-data="{&quot;isPaintingLayer&quot;:true}" fill-rule="nonzero" stroke="none" stroke-width="0" stroke-linecap="butt" stroke-linejoin="miter" stroke-miterlimit="10" stroke-dasharray="" stroke-dashoffset="0" style="mix-blend-mode: normal"><path d="M182.77102,266.36137l5,-26l240,15v11z" fill="#ea48ff"/><path d="M10.77102,304.86136l91,-65h87v147z" fill="#00c4ff"/><path d="M-14.23649,435.69471v-171.17117c0,0 92.60895,52.60627 175.0465,79.97333c28.98144,9.62106 56.70577,49.1558 78.70726,49.1558c23.48128,0 53.48114,-40.43875 84.57077,-51.13842c80.90181,-27.84282 169.18298,-77.99071 169.18298,-77.99071v171.17118z" fill="#8ae200"/><path d="M-18.74099,211.03102v-37.53753c0,0 16.72969,0 28,0c17.17329,0 65.01201,34 65.01201,34v15.53753c0,0 -40.18268,-12 -57.01201,-12c-13.37319,0 -36,0 -36,0z" fill="#8ae200"/></g></g></svg>