<svg version="1.1" xmlns="http://www.w3.org/2000/svg" xmlns:xlink="http://www.w3.org/1999/xlink" width="700.05979" height="522.52287" viewBox="0,0,700.05979,522.52287"><defs><radialGradient cx="150.48044" cy="164.23371" r="260.5105" gradientUnits="userSpaceOnUse" id="color-1"><stop offset="0" stop-color="#c5f7ff"/><stop offset="1" stop-color="#c5f7ff" stop-opacity="0"/></radialGradient><linearGradient x1="45.40724" y1="14.23705" x2="60.45176" y2="96.20575" gradientUnits="userSpaceOnUse" id="color-2"><stop offset="0" stop-color="#257ea5"/><stop offset="1" stop-color="#b5097a"/></linearGradient><linearGradient x1="7.44908" y1="23.04866" x2="14.59261" y2="61.96967" gradientUnits="userSpaceOnUse" id="color-3"><stop offset="0" stop-color="#95e9ec"/><stop offset="1" stop-color="#95e9ec" stop-opacity="0"/></linearGradient><linearGradient x1="18.2426" y1="20.34594" x2="18.32272" y2="20.78229" gradientUnits="userSpaceOnUse" id="color-4"><stop offset="0" stop-color="#95e9ec"/><stop offset="1" stop-color="#95e9ec" stop-opacity="0"/></linearGradient><linearGradient x1="37.4728" y1="17.64807" x2="44.63476" y2="56.66907" gradientUnits="userSpaceOnUse" id="color-5"><stop offset="0" stop-color="#95e9ec"/><stop offset="1" stop-color="#95e9ec" stop-opacity="0"/></linearGradient><linearGradient x1="41.52348" y1="16.43559" x2="53.01807" y2="14.32587" gradientUnits="userSpaceOnUse" id="color-6"><stop offset="0" stop-color="#95e9ec"/><stop offset="1" stop-color="#95e9ec" stop-opacity="0"/></linearGradient><linearGradient x1="48.85949" y1="43.7728" x2="49.63209" y2="47.98237" gradientUnits="userSpaceOnUse" id="color-7"><stop offset="0" stop-color="#474849"/><stop offset="1" stop-color="#222326"/></linearGradient><linearGradient x1="57.01207" y1="41.9952" x2="57.78472" y2="46.20476" gradientUnits="userSpaceOnUse" id="color-8"><stop offset="0" stop-color="#474849"/><stop offset="1" stop-color="#222326"/></linearGradient><linearGradient x1="69.07403" y1="11.59236" x2="76.83651" y2="53.88519" gradientUnits="userSpaceOnUse" id="color-9"><stop offset="0" stop-color="#95e9ec"/><stop offset="1" stop-color="#95e9ec" stop-opacity="0"/></linearGradient><linearGradient x1="68.94869" y1="11.33918" x2="80.01815" y2="9.30749" gradientUnits="userSpaceOnUse" id="color-10"><stop offset="0" stop-color="#95e9ec"/><stop offset="1" stop-color="#95e9ec" stop-opacity="0"/></linearGradient><linearGradient x1="92.64488" y1="7.21752" x2="100.4074" y2="49.51035" gradientUnits="userSpaceOnUse" id="color-11"><stop offset="0" stop-color="#95e9ec"/><stop offset="1" stop-color="#95e9ec" stop-opacity="0"/></linearGradient><linearGradient x1="92.5195" y1="6.96433" x2="103.58891" y2="4.93263" gradientUnits="userSpaceOnUse" id="color-12"><stop offset="0" stop-color="#95e9ec"/><stop offset="1" stop-color="#95e9ec" stop-opacity="0"/></linearGradient><linearGradient x1="30.76075" y1="83.4432" x2="33.45049" y2="98.0978" gradientUnits="userSpaceOnUse" id="color-13"><stop offset="0" stop-color="#f875bc"/><stop offset="1" stop-color="#f875bc" stop-opacity="0"/></linearGradient><linearGradient x1="49.32192" y1="81.04724" x2="55.1839" y2="79.97132" gradientUnits="userSpaceOnUse" id="color-14"><stop offset="0" stop-color="#f875bc"/><stop offset="1" stop-color="#f875bc" stop-opacity="0"/></linearGradient><linearGradient x1="66.95964" y1="77.8909" x2="72.82164" y2="76.81498" gradientUnits="userSpaceOnUse" id="color-15"><stop offset="0" stop-color="#f875bc"/><stop offset="1" stop-color="#f875bc" stop-opacity="0"/></linearGradient><linearGradient x1="48.83137" y1="81.69167" x2="51.78781" y2="97.79958" gradientUnits="userSpaceOnUse" id="color-16"><stop offset="0" stop-color="#f875bc"/><stop offset="1" stop-color="#f875bc" stop-opacity="0"/></linearGradient><linearGradient x1="66.48647" y1="78.35433" x2="69.44295" y2="94.46225" gradientUnits="userSpaceOnUse" id="color-17"><stop offset="0" stop-color="#f875bc"/><stop offset="1" stop-color="#f875bc" stop-opacity="0"/></linearGradient><linearGradient x1="89.9423" y1="87.8271" x2="92.3843" y2="101.13196" gradientUnits="userSpaceOnUse" id="color-18"><stop offset="0" stop-color="#f875bc"/><stop offset="1" stop-color="#f875bc" stop-opacity="0"/></linearGradient><linearGradient x1="78.4728" y1="75.72322" x2="85.84017" y2="74.37102" gradientUnits="userSpaceOnUse" id="color-19"><stop offset="0" stop-color="#f875bc"/><stop offset="1" stop-color="#f875bc" stop-opacity="0"/></linearGradient><linearGradient x1="96.74023" y1="72.45047" x2="104.41134" y2="71.04251" gradientUnits="userSpaceOnUse" id="color-20"><stop offset="0" stop-color="#f875bc"/><stop offset="1" stop-color="#f875bc" stop-opacity="0"/></linearGradient><linearGradient x1="111.88374" y1="91.48654" x2="120.17791" y2="89.96421" gradientUnits="userSpaceOnUse" id="color-21"><stop offset="0" stop-color="#f875bc"/><stop offset="1" stop-color="#f875bc" stop-opacity="0"/></linearGradient><linearGradient x1="111.27817" y1="91.57994" x2="111.94358" y2="91.95201" gradientUnits="userSpaceOnUse" id="color-22"><stop offset="0" stop-color="#f875bc"/><stop offset="1" stop-color="#f875bc" stop-opacity="0"/></linearGradient><linearGradient x1="459.97388" y1="3.96175" x2="459.97388" y2="32.10015" gradientUnits="userSpaceOnUse" id="color-23"><stop offset="0" stop-color="#fffe00"/><stop offset="1" stop-color="#ff9e00"/></linearGradient></defs><g transform="translate(110.0299,72.75243)"><g data-paper-data="{&quot;isPaintingLayer&quot;:true}" fill-rule="nonzero" stroke-linecap="butt" stroke-linejoin="miter" stroke-miterlimit="10" stroke-dasharray="" stroke-dashoffset="0" style="mix-blend-mode: normal"><path d="M-18.07822,371.1917v-424.92492h608.10811v424.92492z" fill="#00aaff" stroke="none" stroke-width="0"/><path d="M-2.56729,365.4392v-278.03729c0,0 80.52968,118.99385 98.50133,90.09009c23.05868,-37.08521 111.58252,-122.43795 127.97315,-10.83601c3.96743,27.0138 67.37255,9.70328 85.40712,-11.20627c98.31792,-113.99127 213.64393,-68.04781 213.64393,-68.04781v278.03729z" fill="#3385ff" stroke="none" stroke-width="0"/><path d="M410.99113,164.23371c0,130.88384 -116.63454,236.98615 -260.51051,236.98615c-143.87598,0 -260.51051,-106.10232 -260.51051,-236.98615c0,-130.88384 116.63454,-236.98614 260.51051,-236.98614c143.87599,0 260.51051,106.10232 260.51051,236.98615z" fill="url(#color-1)" stroke="none" stroke-width="0"/><path d="M48.28438,449.77042v-198.73478h110.79468v198.73479z" fill="#ffa617" stroke="none" stroke-width="NaN"/><path d="M40.77687,286.10677v-35.07112h125.8097v35.07112c0,0 -1.07396,13.51351 -64.31383,13.51351c-61.26876,0 -61.49588,-13.51351 -61.49588,-13.51351z" fill="#ffb842" stroke="none" stroke-width="NaN"/><path d="M166.58656,251.12389c0,9.22336 -28.16345,16.7004 -62.90485,16.7004c-34.7414,0 -62.90484,-7.47704 -62.90484,-16.7004c0,-9.22337 28.16345,-16.70041 62.90485,-16.70041c34.7414,0 62.90485,7.47704 62.90485,16.70041z" fill="#ffcf8a" stroke="none" stroke-width="0"/><g><path d="M22.93632,91.41281l4.13152,-10.29271l-20.38148,-59.38082l25.96755,-4.96977l34.02234,29.7945l0.77811,-35.97966l15.47948,11.30444l8.34935,-16.01839l25.34388,58.49687l5.35729,4.79214l-9.85113,6.96151l9.96837,13.11876l-8.60788,8.42432l-4.63133,-1.93085l-12.87442,-9.57395l-4.38962,15.77164l-16.93099,-12.75702l-9.20289,13.87438l-12.17771,-9.98319l-4.21243,16.47249l-18.75727,-3.70122z" fill="url(#color-2)" stroke="none" stroke-width="0"/><path d="M18.06016,84.63232c-0.34163,-0.29474 -0.33636,-0.15986 -0.51349,-1.08029c-1.66532,-8.65317 -10.37357,-53.92108 -11.36446,-59.46494c-0.19463,-1.08885 -0.40444,-1.22124 -0.0243,-1.83065c0.38015,-0.60941 0.94639,-0.63089 1.64198,-0.76268c2.45174,-0.46455 16.85274,-3.29649 22.21226,-4.23682c0.54595,-0.09577 1.45892,-0.17795 1.8736,0.12677c0.53034,0.38969 0.5076,1.26794 0.66986,2.01266c0.57066,2.6194 1.47876,7.01879 1.83305,10.01969c0.05785,0.49004 -9.44093,1.8242 -12.50231,2.44494c-0.3221,0.06531 -0.33699,0.43624 -0.50377,0.47619c-0.0645,0.01543 -0.05141,0.27206 0.03973,0.86116c0.16146,1.04373 0.56795,3.13117 1.22224,6.77028c0.01406,0.07825 0.11381,0.69825 0.63079,1.02827c0.34192,0.21826 1.22977,-0.17128 1.22977,-0.17128l8.72582,-1.67869c0,0 1.1775,-0.0326 1.36549,0.01529c0.71075,0.18107 0.3957,0.58359 0.68809,1.28231c0.45795,1.09446 1.57637,8.68712 1.57637,8.68712c0,0 0.16675,1.0753 -0.21093,1.64238c-0.066,0.09909 -0.76065,0.89383 -0.76065,0.89383l-8.105,1.47675c0,0 -1.46848,0.32858 -1.55278,0.4385c-0.08216,0.10712 -0.02589,1.29387 -0.02589,1.29387l4.53038,25.80382l0.08958,1.45732l-1.04056,0.64469c0,0 -9.29341,1.70573 -10.82663,1.98713c-0.58019,0.10649 -0.5566,0.15712 -0.89824,-0.13761z" fill="#30d8de" stroke="#07b0bb" stroke-width="1.25"/><path d="M14.19988,62.04175l-7.1436,-38.921l0.78541,-0.14416l7.14361,38.921z" fill="url(#color-3)" stroke="none" stroke-width="0"/><path d="M8.02524,22.67229l-0.08009,-0.43633l20.59497,-3.78003l0.08008,0.43633z" fill="url(#color-4)" stroke="none" stroke-width="0"/><path d="M7.81428,23.13559c-0.22166,0.26176 -0.50746,0.38412 -0.63835,0.27328c-0.13088,-0.11081 -0.05728,-0.41289 0.16439,-0.67464c0.22166,-0.26176 0.50748,-0.38412 0.63836,-0.27328c0.13088,0.11081 0.05727,0.41289 -0.1644,0.67465z" fill="#f9f8f8" stroke="none" stroke-width="0"/><g><path d="M40.42677,80.04429c-0.23165,-0.24755 -0.40671,-0.00722 -0.41024,-0.7079c-0.02367,-4.72848 -0.3463,-55.12416 -0.32251,-62.80309c0.00196,-0.63453 0.48055,-1.06444 0.48055,-1.06444l14.20663,-2.6075c0,0 0.64444,0.10462 1.09957,1.30232c3.65637,9.62189 19.86861,53.87945 21.43892,58.07214c0.23747,0.63403 0.1716,0.51228 -0.06382,0.99885c-0.23539,0.48656 -0.73628,0.65493 -0.73628,0.65493c0,0 -6.22104,1.05918 -10.6832,1.89319c-1.52547,0.28514 -5.05107,-9.45715 -6.00668,-10.53556c-0.2682,-0.30268 -0.60266,-0.21923 -1.20728,-0.23426c-0.71519,-0.01778 -2.12112,0.26791 -2.12112,0.26791c0,0 -1.43091,0.19397 -1.84825,0.38092c-0.65286,0.29244 -1.15125,0.51182 -1.25766,0.83247c-0.33571,1.01152 -0.46001,7.13169 -0.89864,10.27606c-0.17048,1.22203 -0.26013,1.55198 -0.61979,1.61921c-0.3113,0.05818 -0.70598,0.37852 -1.03042,0.43918c-2.69268,0.50347 -9.21001,1.81136 -9.21001,1.81136c0,0 -0.57814,-0.34823 -0.80981,-0.59577z" fill="#30d8de" stroke="#07b0bb" stroke-width="1.25"/><path d="M62.72125,40.91468c0.98104,5.34503 -2.66003,10.49227 -8.13251,11.49669c-5.4725,1.00443 -10.70412,-2.51432 -11.68515,-7.85934c-0.98103,-5.34502 2.66003,-10.49227 8.13252,-11.49669c5.4725,-1.00443 10.70411,2.51431 11.68514,7.85934z" fill="#ffffff" stroke="none" stroke-width="0"/><path d="M46.53607,50.78276c0,0 -3.1721,-2.97277 -3.6122,-6.46469c-0.38835,-3.08116 0.01543,-4.6 1.18613,-6.63716c0.88623,-1.54214 2.78957,-3.83623 6.95309,-4.60798c4.05068,-0.75084 5.30881,0.31763 6.23448,0.80148c3.56688,1.86436 4.7037,4.68743 5.11318,5.89024c1.0687,6.38548 -1.0959,8.06707 -1.0959,8.06707c0,0 2.25607,-5.90049 -0.80461,-9.89344c-0.75346,-0.98294 -2.85534,-4.7081 -9.22244,-3.6307c-5.88447,0.99574 -7.09493,5.27096 -7.37175,6.86308c-0.79821,4.59084 2.62008,9.6121 2.62008,9.6121z" fill="#e6e6e6" stroke="none" stroke-width="0"/><path d="M46.27285,51.71387c0,0 2.26883,1.09753 4.61322,1.58062c1.43791,0.2963 2.99541,0.14967 3.80668,0.00077c0.81973,-0.15046 2.47509,-0.68138 3.75239,-1.57405c1.99545,-1.39455 3.58392,-3.31617 3.58392,-3.31617c0,0 -1.28463,2.10842 -3.25914,3.68229c-1.25339,0.99907 -3.17909,1.66844 -3.96612,1.81289c-0.77327,0.14193 -2.72956,0.24361 -4.07288,-0.11324c-2.46912,-0.6559 -4.45805,-2.07314 -4.45805,-2.07314z" fill="#96e8ec" stroke="none" stroke-width="0"/><path d="M40.70238,57.39082l0.09776,-40.35345l0.60497,-0.11103l-0.06266,39.40896z" fill="url(#color-5)" stroke="none" stroke-width="0"/><path d="M41.56977,16.68764l-0.09253,-0.50414l11.49456,-2.10973l0.09253,0.50414z" fill="url(#color-6)" stroke="none" stroke-width="0"/><path d="M41.3647,16.86557c-0.22167,0.26176 -0.50747,0.38411 -0.63834,0.27327c-0.13088,-0.11081 -0.05727,-0.41288 0.16439,-0.67462c0.22167,-0.26176 0.50746,-0.38412 0.63833,-0.27328c0.13088,0.11081 0.05727,0.41288 -0.16439,0.67464z" fill="#f9f8f8" stroke="none" stroke-width="0"/><g><path d="M50.37489,45.61354c0.47561,2.03182 -0.01655,2.19853 -0.63773,2.34394c-0.6212,0.1454 -1.09117,0.20326 -1.61183,-1.81735c-0.48868,-1.8965 0.01653,-2.19853 0.63773,-2.34396c0.6212,-0.1454 1.1362,-0.21445 1.61182,1.81736z" fill="url(#color-7)" stroke="#000000" stroke-width="0.5"/><path d="M48.61347,44.42259c0.02555,0.13923 -0.0666,0.2728 -0.20582,0.29836c-0.13923,0.02555 -0.27281,-0.06659 -0.29836,-0.20582c-0.02555,-0.13923 0.0666,-0.2728 0.20582,-0.29836c0.13923,-0.02555 0.27281,0.06659 0.29836,0.20582z" fill="#d1d1d1" stroke="none" stroke-width="0"/><path d="M58.52749,43.83595c0.47561,2.03182 -0.01654,2.19853 -0.63773,2.34396c-0.6212,0.1454 -1.09117,0.20324 -1.61183,-1.81736c-0.48868,-1.8965 0.01653,-2.19853 0.63772,-2.34395c0.6212,-0.1454 1.13621,-0.21445 1.61182,1.81737z" fill="url(#color-8)" stroke="#000000" stroke-width="0.5"/><path d="M56.76603,42.64501c0.02555,0.13923 -0.0666,0.2728 -0.20582,0.29836c-0.13923,0.02555 -0.27281,-0.06659 -0.29836,-0.20582c-0.02555,-0.13923 0.06659,-0.27281 0.20582,-0.29836c0.13923,-0.02555 0.27281,0.06659 0.29836,0.20582z" fill="#d1d1d1" stroke="none" stroke-width="0"/></g><path d="M42.0781,44.38029c-0.41882,-3.32289 0.01662,-4.96089 1.27918,-7.15789c0.95576,-1.66313 3.00843,-4.13719 7.4986,-4.96948c4.36849,-0.80974 5.72532,0.34257 6.72359,0.86436c3.84672,2.01064 5.07272,5.05517 5.51431,6.35235c1.15255,6.88646 -1.77575,8.74213 -1.77575,8.74213c0,0 3.02694,-6.40556 -0.2739,-10.71178c-0.81257,-1.06007 -3.07937,-5.07749 -9.94598,-3.91553c-6.34613,1.07387 -7.65156,5.68449 -7.95009,7.40153c-0.86082,4.95101 3.09495,9.64833 3.09495,9.64833c0,0 -3.69026,-2.48814 -4.16491,-6.25403z" fill="#18c0ca" stroke="none" stroke-width="0"/></g><g><path d="M79.50498,73.25444c0,0 -0.25408,-0.05139 -0.36794,-0.66452c-1.37554,-7.40784 -10.4066,-56.04553 -11.29083,-60.86314c-0.13872,-0.75578 -0.21073,-0.54745 0.06274,-0.98726c0.27345,-0.43981 0.33075,-0.42661 0.87899,-0.52723c1.48771,-0.27305 11.4556,-2.08356 11.4556,-2.08356c0,0 0.90543,-0.12617 0.97702,0.04562c0.03182,0.07633 0.35701,1.03336 0.35701,1.03336l8.68994,47.91151c0,0 0.20846,1.20915 0.30559,1.29704c0.18327,0.16583 1.05163,0.05474 1.05163,0.05474l5.65402,-1.05588c0,0 0.97125,-0.32213 1.11758,0.15388c0.05594,0.18201 0.69468,0.86682 0.69468,0.86682l1.62238,9.21419l0.08349,1.33067l-1.18888,0.89503c0,0 -16.79149,3.02654 -19.23234,3.46648c-0.57392,0.10344 -0.87065,-0.08764 -0.87065,-0.08764z" fill="#30d8de" stroke="#07b0bb" stroke-width="1.25"/><path d="M76.45486,53.95525l-7.76248,-42.29283l0.76341,-0.14011l7.76248,42.29285z" fill="url(#color-9)" stroke="none" stroke-width="0"/><path d="M69.01166,11.68271l-0.1261,-0.68707l11.06942,-2.03169l0.1261,0.68707z" fill="url(#color-10)" stroke="none" stroke-width="0"/><path d="M69.19486,11.5378c-0.16312,0.24511 -0.40236,0.3726 -0.53435,0.28477c-0.13197,-0.08784 -0.10674,-0.35773 0.05639,-0.60284c0.16312,-0.24511 0.40237,-0.37261 0.53435,-0.28477c0.13197,0.08784 0.10674,0.35774 -0.05639,0.60285z" fill="#f9f8f8" stroke="none" stroke-width="0"/></g><g><path d="M103.07574,68.87958c0,0 -0.25409,-0.05139 -0.36795,-0.66452c-1.37554,-7.40783 -10.4066,-56.04554 -11.29083,-60.86314c-0.13872,-0.75578 -0.21075,-0.54744 0.06273,-0.98725c0.27345,-0.43981 0.33075,-0.42663 0.87898,-0.52725c1.48771,-0.27306 11.4556,-2.08356 11.4556,-2.08356c0,0 0.90543,-0.12617 0.97703,0.04561c0.03182,0.07633 0.357,1.03336 0.357,1.03336l8.68993,47.91151c0,0 0.20847,1.20915 0.3056,1.29704c0.18327,0.16583 1.05161,0.05473 1.05161,0.05473l5.65402,-1.05588c0,0 0.97125,-0.32213 1.11759,0.15389c0.05594,0.18201 0.69469,0.86682 0.69469,0.86682l1.62237,9.21419l0.0835,1.33067l-1.18888,0.89502c0,0 -16.79148,3.02655 -19.23235,3.46649c-0.57392,0.10344 -0.87063,-0.08764 -0.87063,-0.08764z" fill="#30d8de" stroke="#07b0bb" stroke-width="1.25"/><path d="M100.02567,49.58041l-7.76248,-42.29283l0.76342,-0.14011l7.76247,42.29284z" fill="url(#color-11)" stroke="none" stroke-width="0"/><path d="M92.58254,7.30787l-0.1261,-0.68707l11.06942,-2.03169l0.12611,0.68706z" fill="url(#color-12)" stroke="none" stroke-width="0"/><path d="M92.76574,7.16293c-0.16312,0.24511 -0.40236,0.37261 -0.53435,0.28478c-0.13197,-0.08784 -0.10674,-0.35773 0.05639,-0.60285c0.16312,-0.2451 0.40237,-0.3726 0.53435,-0.28476c0.13197,0.08784 0.10674,0.35774 -0.05638,0.60284z" fill="#f9f8f8" stroke="none" stroke-width="0"/></g><path d="M46.85648,93.71952c0.31521,0.2861 0.38317,1.15033 0.38317,1.15033l2.30939,13.3067c0,0 0.16774,1.17394 -1.1292,1.70925c-0.88364,0.90633 -10.53715,4.97347 -17.21605,3.52517c-6.09437,-1.32153 -9.26312,-7.9166 -10.0221,-12.05182c-1.59077,-8.66707 3.11804,-16.17594 10.21694,-18.09704c6.34362,-1.71671 9.61447,-1.45329 12.28536,0.99406c0.44013,0.4033 0.47781,1.32748 0.47781,1.32748c0,0 -1.08341,4.4972 -1.71332,5.00204c-0.45665,0.36597 -1.30473,0.56738 -1.30473,0.56738c0,0 -3.84725,-1.13855 -6.65519,-0.409c-2.6873,0.69819 -4.33531,3.24181 -4.55927,4.26762c-0.80557,3.68989 1.14311,8.32578 2.76597,9.49202c3.06691,2.20397 7.74276,0.39202 7.85068,0.37762c0.18292,-0.0244 -0.20808,-2.32446 -0.20808,-2.32446c0,0 0.08987,-0.66886 -0.20993,-0.93022c-0.28794,-0.25104 -0.9961,-0.22294 -0.9961,-0.22294l-2.18129,0.42484c0,0 -1.16714,0.15267 -1.28108,0.01174c-0.38285,-0.47352 -1.08649,-5.15776 -1.08649,-5.15776c0,0 0.01329,-0.61275 0.17954,-0.85142c0.19796,-0.28418 1.01635,-0.26915 1.01635,-0.26915l9.88292,-1.99548c0,0 0.87949,-0.13302 1.1947,0.15307z" fill="#f73ca3" stroke="#e91c88" stroke-width="1.25"/><path d="M21.58195,100.27615c0,0 -0.21346,-3.34831 -0.0641,-4.64592c0.0825,-0.71673 0.50941,-3.14564 1.59308,-5.14421c1.32312,-2.44016 3.50398,-4.54345 5.71674,-5.91211c3.03468,-1.87704 7.85036,-2.07846 9.3544,-1.97627c3.22628,0.21923 5.14019,2.44287 5.14019,2.44287c0,0 -1.26011,-2.56566 -8.33964,-1.45446c-1.02996,0.16166 -3.72041,0.54303 -5.98218,1.89805c-2.10284,1.25979 -3.81165,3.34443 -4.3674,4.33847c-2.37287,4.24426 -3.05105,10.45359 -3.05105,10.45359z" fill="url(#color-13)" stroke="none" stroke-width="0"/><path d="M27.75654,86.52533c-0.30442,0.2091 -0.51718,0.41055 -0.64587,0.22321c-0.12868,-0.18734 0.0138,-0.50871 0.31822,-0.71781c0.30442,-0.2091 0.65551,-0.22675 0.78421,-0.03941c0.12868,0.18734 -0.15214,0.32493 -0.45656,0.534z" fill="#f9f8f8" stroke="none" stroke-width="0"/><path d="M26.17558,87.2901c0.28578,0.22218 -0.08128,0.49562 -0.45679,0.9588c-0.37553,0.46318 -1.28627,1.47468 -1.28627,1.47468c0,0 0.54298,-1.19281 0.91851,-1.65601c0.37553,-0.46318 0.69379,-0.87917 0.82455,-0.7775z" fill="#f9f8f8" stroke="none" stroke-width="0"/><g><path d="M55.59637,107.1095c-0.29418,-0.09486 -2.68488,-1.83674 -3.69652,-5.28024c-2.29877,-7.82471 -3.89979,-19.86217 -3.89979,-19.86217c0,0 0.10489,-1.03642 0.72494,-1.32287c1.5767,-0.72845 4.97214,-1.21955 6.07181,-1.31246c1.08129,-0.09135 1.43029,0.60787 1.43029,0.60787l2.17291,12.18068c0,0 1.22386,8.56228 6.60104,7.747c4.9636,-0.75254 2.88381,-9.6232 2.88381,-9.6232l-2.27958,-11.97954c0,0 0.04438,-0.73112 0.89104,-0.97897c0.92563,-0.27096 4.49164,-1.15729 6.31643,-1.21187c1.05335,-0.0315 1.00336,1.15503 1.00336,1.15503c0,0 3.03291,14.68898 3.73149,19.25128c0.37981,2.48044 -0.25317,4.55603 -0.93564,5.72863c-0.67662,1.16259 -1.17989,4.44792 -9.89032,6.25105c-7.77433,1.60934 -9.93785,-0.96729 -11.12529,-1.35025z" fill="#f73ca3" stroke="#e91c88" stroke-width="1.25"/><path d="M49.37484,81.33568l-0.10589,-0.57689l5.86198,-1.07592l0.10589,0.5769z" fill="url(#color-14)" stroke="none" stroke-width="0"/><path d="M67.01255,78.17935l-0.10588,-0.57689l5.86198,-1.07592l0.10589,0.57689z" fill="url(#color-15)" stroke="none" stroke-width="0"/><path d="M51.44431,97.86263l-2.95647,-16.10792l0.68705,-0.1261l2.47668,15.64359z" fill="url(#color-16)" stroke="none" stroke-width="0"/><path d="M49.17928,81.5755c-0.26192,0.26038 -0.43503,0.49679 -0.59527,0.33561c-0.16025,-0.16117 -0.07782,-0.50292 0.1841,-0.76329c0.26192,-0.26038 0.60414,-0.34081 0.76436,-0.17965c0.16025,0.16117 -0.0913,0.34696 -0.35321,0.60735z" fill="#f9f8f8" stroke="none" stroke-width="0"/><path d="M69.09938,94.52531l-2.95647,-16.10792l0.68705,-0.12611l2.47671,15.64358z" fill="url(#color-17)" stroke="none" stroke-width="0"/><path d="M66.78207,78.38345c-0.26192,0.26038 -0.43504,0.49679 -0.59527,0.33561c-0.16025,-0.16117 -0.07783,-0.50292 0.1841,-0.76329c0.26192,-0.26038 0.60414,-0.3408 0.76437,-0.17964c0.16025,0.16117 -0.0913,0.34695 -0.35321,0.60734z" fill="#f9f8f8" stroke="none" stroke-width="0"/></g><g><path d="M92.3193,102.2122c-0.25341,-0.39041 -0.64261,-0.69902 -0.64261,-0.69902l-2.47409,-13.57308l-11.1522,-11.81811c0,0 -0.81643,-0.47762 -0.2845,-0.57703c0.21236,-0.0397 0.86894,-0.61326 0.86894,-0.61326l6.49489,-1.1724c0,0 0.64958,-0.0455 0.88604,0.03187c0.41697,0.13648 1.39802,0.71569 1.39802,0.71569l5.0928,5.44593l3.0554,-6.86275c0,0 0.44849,-0.77525 0.68309,-1.01908c0.21792,-0.22651 1.02422,-0.45929 1.02422,-0.45929l6.30343,-1.15765c0,0 1.0964,-0.08 1.28654,0.08785c0.20064,0.17713 -0.11249,0.94855 -0.11249,0.94855l-6.33756,14.84649l2.40348,13.42204c0,0 -0.06814,0.67627 -0.20986,0.95402c-0.14906,0.29218 -0.6636,0.75798 -0.6636,0.75798l-6.63711,1.14945c0,0 -0.87137,-0.23652 -0.98282,-0.40821z" fill="#f73ca3" stroke="#e91c88" stroke-width="1.25"/><path d="M92.15267,101.17447l-2.44199,-13.30486l0.46316,-0.085l2.10367,12.91066z" fill="url(#color-18)" stroke="none" stroke-width="0"/><path d="M78.42726,76.35171c0,0 -0.29304,-0.83521 -0.00732,-0.91693c0.28571,-0.08173 7.36735,-1.35221 7.36735,-1.35221l0.10589,0.57689c0,0 -6.22398,1.06283 -7.08308,1.23894c-0.18891,0.03873 -0.38281,0.45329 -0.38281,0.45329z" fill="url(#color-19)" stroke="none" stroke-width="0"/><path d="M78.94212,75.88037c-0.33527,0.15489 -0.57889,0.31768 -0.67421,0.11137c-0.09533,-0.2063 0.09917,-0.49915 0.43444,-0.65405c0.33527,-0.15489 0.68433,-0.11322 0.77965,0.09311c0.09533,0.2063 -0.20463,0.29469 -0.53989,0.44957z" fill="#f9f8f8" stroke="none" stroke-width="0"/><path d="M96.6882,73.08013c0,0 -0.17856,-0.21503 -0.21765,-0.41765c-0.04456,-0.23099 0.05813,-0.45576 0.21675,-0.50048c0.29771,-0.08393 7.67108,-1.40796 7.67108,-1.40796l0.10589,0.57689c0,0 -6.47998,1.10982 -7.37465,1.29246c-0.19673,0.04017 -0.4014,0.4567 -0.4014,0.4567z" fill="url(#color-20)" stroke="none" stroke-width="0"/><path d="M97.13081,72.51475c-0.33527,0.15489 -0.57889,0.31769 -0.67421,0.11137c-0.09533,-0.2063 0.09918,-0.49916 0.43444,-0.65405c0.33527,-0.15489 0.68434,-0.11322 0.77965,0.0931c0.09533,0.2063 -0.20463,0.29469 -0.5399,0.44957z" fill="#f9f8f8" stroke="none" stroke-width="0"/></g><g><path d="M112.73881,70.09616c-0.17166,0.05342 -0.29785,0.13228 -0.33954,-0.05215c-0.04169,-0.18444 0.06368,-0.37726 0.23534,-0.43067c0.17166,-0.05342 0.34463,0.0528 0.38632,0.23722c0.04169,0.18444 -0.11048,0.19217 -0.28214,0.2456z" fill="#f9f8f8" stroke="none" stroke-width="0"/><path d="M127.79172,92.04314c-0.80436,2.46368 -2.20025,3.99737 -6.3718,4.95465c-5.06925,1.1633 -9.57991,1.14779 -12.14663,-1.55954c-0.42992,-0.45349 1.58192,-4.33483 1.58192,-4.33483c0,0 0.46793,-0.71703 0.82636,-0.96527c0.3821,-0.26462 1.53857,-0.02118 1.53857,-0.02118c0,0 6.68731,2.02711 6.71076,-1.26417c0.01667,-2.33736 -7.16382,-2.82843 -10.58456,-5.22181c-1.01883,-0.71284 -2.15318,-3.76105 -2.18148,-3.91522c-1.46896,-8.00343 3.92911,-10.81829 8.93546,-11.701c3.43542,-0.60573 5.99484,-0.05773 7.62426,1.36375c0.92144,0.80384 -0.86977,4.40448 -1.86475,5.41602c-0.22697,0.23073 -1.63444,-0.13985 -1.63444,-0.13985c0,0 -5.23362,-0.44622 -5.50701,0.87207c-0.50312,2.42621 7.2185,3.08743 11.11659,6.32196c3.32431,2.7584 2.85182,7.45282 1.95672,10.19442z" fill="#f73ca3" stroke="#e91c88" stroke-width="1.25"/><path d="M111.9459,91.18981l-0.19571,-0.43066c0,0 0.24882,-0.22066 0.47674,-0.26249c0.7117,-0.13062 2.22028,0.47581 3.65928,0.55317c0.66683,0.03584 1.69067,0.09675 2.53078,-0.21154c0.97288,-0.35701 1.72058,-1.09367 1.72058,-1.09367c0,0 -0.88865,1.11617 -1.82268,1.42507c-0.7285,0.24092 -1.72999,0.3804 -2.31081,0.40469c-0.75371,0.03153 -2.32165,-0.51887 -3.27117,-0.64307c-0.44,-0.05756 -0.78704,0.25851 -0.78704,0.25851z" fill="url(#color-21)" stroke="none" stroke-width="0"/><path d="M110.2935,93.85686c0,0 0.40603,-1.10326 0.63466,-1.60358c0.19661,-0.43024 0.6556,-1.21993 0.6556,-1.21993l0.39222,0.09002z" fill="url(#color-22)" stroke="none" stroke-width="0"/><path d="M111.78094,70.11676c0.19219,0.30676 -0.2464,0.43765 -0.75806,0.74385c-0.51166,0.30621 -1.61634,1.15914 -1.61634,1.15914c0,0 0.82146,-1.14943 1.33312,-1.45563c0.51166,-0.30621 0.95334,-0.58771 1.04128,-0.44734z" fill="#f9f8f8" stroke="none" stroke-width="0"/><path d="M112.25322,90.97132c-0.23614,0.17859 -0.39918,0.3477 -0.50908,0.20237c-0.1099,-0.14534 -0.00754,-0.4079 0.2286,-0.58649c0.23614,-0.17859 0.51668,-0.20554 0.62658,-0.06022c0.1099,0.14534 -0.10995,0.26578 -0.34611,0.44435z" fill="#f9f8f8" stroke="none" stroke-width="0"/></g><text transform="translate(37.67862,125.21786) rotate(-10.40044) scale(0.24661,0.24661)" font-size="40" xml:space="preserve" fill="#ffffff" fill-rule="nonzero" stroke="none" stroke-width="1" stroke-linecap="butt" stroke-linejoin="miter" stroke-miterlimit="10" stroke-dasharray="" stroke-dashoffset="0" font-family="Marker" font-weight="normal" text-anchor="start" style="mix-blend-mode: normal"><tspan x="0" dy="0">-Scratch Edition-</tspan></text></g><path d="M235.87505,37.11453c-10.03357,-2.28387 -8.05893,-16.35443 -7.68361,-32.4283c0.33038,-14.14779 -2.2285,-30.50186 7.68361,-32.62252c10.15235,-2.17206 74.39582,-1.50804 138.17478,-1.50096c63.52368,0.00706 126.58638,-0.65156 135.28496,1.50096c10.15857,2.51376 7.65355,17.70581 7.4918,32.81226c-0.16034,14.9737 2.10967,29.86322 -7.4918,32.23854c-9.797,2.42368 -72.84575,1.8728 -136.09776,1.86394c-63.34059,-0.00889 -126.88495,0.52081 -137.36198,-1.86394z" fill="#262626" stroke="#000000" stroke-width="3.5"/><path d="M446.32413,17.97389c0.03131,-5.79237 -0.21119,-12.48803 0.72817,-13.35627c0.96213,-0.88928 7.0504,-0.61742 13.09465,-0.61452c6.02006,0.00289 11.99643,-0.26676 12.82078,0.61452c0.96271,1.02918 0.72532,7.24909 0.70999,13.43395c-0.01519,6.13051 0.19993,12.22656 -0.70999,13.19906c-0.92845,0.9923 -6.9035,0.76676 -12.89781,0.76313c-6.00271,-0.00364 -11.88267,0.46989 -13.01762,-0.76313c-1.15079,-1.25023 -0.76373,-6.6958 -0.72817,-13.27674z" fill="url(#color-23)" stroke="#000000" stroke-width="2.5"/><g fill="#000000" stroke="none" stroke-width="0.5"><path d="M461.21276,17.84986v-0.37122c0,-0.30935 0,-0.61869 0,-0.92804c0,0 0,-0.92804 0.92804,-0.92804c0.92804,0 0.92804,0.92804 0.92804,0.92804c0,0.30935 0,0.98991 0,1.29926c0,0 0,0.92804 -0.92804,0.92804c-0.92804,0 -0.92804,-0.92804 -0.92804,-0.92804z" data-paper-data="{&quot;index&quot;:null}"/><path d="M458.70133,16.96731c-0.92804,0 -0.92804,-0.92804 -0.92804,-0.92804l0.01802,-0.36762c0.06187,-0.30935 0.12374,-0.61869 0.18561,-0.92804c0,0 0.182,-0.91003 1.09202,-0.72802c0.91003,0.182 0.72802,1.09202 0.72802,1.09202c-0.06187,0.30935 -0.12374,0.61869 -0.18561,0.92804l0.01802,0.0036c0,0 0,0.92804 -0.92804,0.92804z" data-paper-data="{&quot;index&quot;:null}"/><path d="M453.04183,15.98749c0.96757,-0.25263 1.22018,0.71494 1.22018,0.71494l-0.01955,0.04331c2.03806,3.79091 7.65844,4.47276 11.31204,2.86274c0,0 0.91633,-0.40043 1.31676,0.51589c0.40043,0.91633 -0.51589,1.31676 -0.51589,1.31676c-4.64857,2.01674 -11.26857,0.95352 -13.86773,-3.73589l-0.16077,-0.49757c0,0 -0.25263,-0.96757 0.71494,-1.22018z" data-paper-data="{&quot;index&quot;:null}"/></g><text transform="translate(143,25.49476) scale(0.42822,0.42822)" font-size="40" xml:space="preserve" fill="#ffffff" fill-rule="nonzero" stroke="none" stroke-width="1" stroke-linecap="butt" stroke-linejoin="miter" stroke-miterlimit="10" stroke-dasharray="" stroke-dashoffset="0" font-family="Sans Serif" font-weight="normal" text-anchor="start" style="mix-blend-mode: normal"><tspan x="0" dy="0">Mute</tspan></text><text transform="translate(130,56.49476) scale(0.42822,0.42822)" font-size="40" xml:space="preserve" fill="#ffffff" fill-rule="nonzero" stroke="none" stroke-width="1" stroke-linecap="butt" stroke-linejoin="miter" stroke-miterlimit="10" stroke-dasharray="" stroke-dashoffset="0" font-family="Sans Serif" font-weight="normal" text-anchor="start" style="mix-blend-mode: normal"><tspan x="0" dy="0">Mobile</tspan></text></g></g></svg>