<svg version="1.1" xmlns="http://www.w3.org/2000/svg" xmlns:xlink="http://www.w3.org/1999/xlink" width="149.16667" height="139.16667" viewBox="0,0,149.16667,139.16667"><g transform="translate(-165.41667,-110.41666)"><g data-paper-data="{&quot;isPaintingLayer&quot;:true}" fill-rule="nonzero" stroke-linecap="butt" stroke-linejoin="miter" stroke-miterlimit="10" stroke-dasharray="" stroke-dashoffset="0" style="mix-blend-mode: normal"><path d="M204.90177,210.31942c-2.57757,-2.13956 -2.0703,-15.321 -1.97388,-30.37916c0.08487,-13.2538 -0.57249,-28.57445 1.97388,-30.56111c2.60808,-2.0348 19.11188,-1.41275 35.49635,-1.40611c16.31889,0.00661 32.51935,-0.61039 34.75397,1.40611c2.60968,2.35492 1.96615,16.58699 1.9246,30.73886c-0.04119,14.02751 0.54196,27.97617 -1.9246,30.2014c-2.5168,2.27053 -18.71368,1.75446 -34.96278,1.74615c-16.27185,-0.00833 -32.59606,0.4879 -35.28755,-1.74615z" fill="#f7229d" stroke="#000000" stroke-width="10"/><path d="M165.41667,249.58333v-139.16667h149.16667v139.16667z" fill="none" stroke="none" stroke-width="NaN"/><path d="M221.83336,146.65478c0,-6.67344 8.13349,-12.08333 18.16666,-12.08333c10.03318,0 18.16667,5.40989 18.16667,12.08333c0,6.67344 -8.13349,12.08333 -18.16667,12.08333c-10.03317,0 -18.16666,-5.40989 -18.16666,-12.08333z" fill="#ffe100" stroke="#000000" stroke-width="2"/><path d="M221.83335,146.65479c0,-6.67344 8.13349,-12.08333 18.16667,-12.08333c10.03317,0 18.16667,5.40989 18.16667,12.08333c0,6.67344 -8.13349,12.08333 -18.16667,12.08333c-10.03317,0 -18.16667,-5.40989 -18.16667,-12.08333z" fill="#ffe100" stroke="#000000" stroke-width="5"/><path d="M221.83337,146.65479c0,-6.67344 8.13349,-12.08333 18.16666,-12.08333c10.03318,0 18.16667,5.40989 18.16667,12.08333c0,6.67344 -8.13349,12.08333 -18.16667,12.08333c-10.03317,0 -18.16666,-5.40989 -18.16666,-12.08333z" fill="#ffe100" stroke="none" stroke-width="2.5"/><path d="M221.83336,146.6548c0,-6.67344 8.13349,-12.08333 18.16667,-12.08333c10.03317,0 18.16667,5.40989 18.16667,12.08333c0,6.67344 -8.13349,12.08333 -18.16667,12.08333c-10.03317,0 -18.16667,-5.40989 -18.16667,-12.08333z" fill="#0098ff" stroke="none" stroke-width="0"/><path d="M204.90177,210.31942c-2.57757,-2.13956 -2.0703,-15.321 -1.97388,-30.37916c0.08487,-13.2538 -0.57249,-28.57445 1.97388,-30.56111c2.60808,-2.0348 19.11188,-1.41275 35.49635,-1.40611c16.31889,0.00661 32.51935,-0.61039 34.75397,1.40611c2.60968,2.35492 1.96615,16.58699 1.9246,30.73886c-0.04119,14.02751 0.54196,27.97617 -1.9246,30.2014c-2.5168,2.27053 -18.71368,1.75446 -34.96278,1.74615c-16.27185,-0.00833 -32.59606,0.4879 -35.28755,-1.74615z" fill="#ff2500" stroke="#ffffff" stroke-width="5"/><path d="M238.55542,137.92212c-2.00123,-0.09401 -1.86991,-1.9695 -1.84547,-3.09553c-1.28644,-0.41302 -2.17612,-1.13107 -2.27245,-2.32643c0.00341,-0.45242 0.10067,-0.88802 0.22407,-1.31895c-0.15905,-0.00063 -0.31713,-0.0009 -0.47407,-0.0009c-1.81426,-0.00126 -4.29979,0.07978 -5.84746,-0.57482c-2.39993,-1.01507 -2.39294,-5.26509 0.42327,-6.16986c4.11668,-1.32258 7.47597,1.48012 8.7597,3.21558c0.07283,0.08255 0.11342,0.16573 0.13604,0.23282c0.02222,0.06445 0.03887,0.1464 0.02846,0.23497v0.71492c-0.00072,0.35524 -0.06057,0.70051 -0.14617,1.04101c0.77059,0.06567 1.5449,0.14335 2.36619,0.21697c1.17256,0.10512 2.41745,0.06951 3.51145,0.33843c0.04987,0.01225 2.49935,0.78984 2.69864,0.86804c2.15126,0.84417 3.53585,2.71854 0.58641,3.70267c-0.83172,0.27752 -1.89945,0.13676 -2.84909,0.20557c-0.90718,0.06573 -1.87991,0.11637 -2.84351,0.11947c0.08391,1.30873 -0.35291,2.69486 -2.45601,2.59607z" fill="#ffe100" stroke="#000000" stroke-width="5"/><path d="M238.55541,137.92212c-2.00123,-0.09401 -1.86992,-1.9695 -1.84547,-3.09553c-1.28643,-0.41302 -2.17612,-1.13106 -2.27245,-2.32643c0.00342,-0.45242 0.10066,-0.88802 0.22407,-1.31895c-0.15905,-0.00063 -0.31713,-0.0009 -0.47407,-0.0009c-1.81426,-0.00126 -4.29979,0.07978 -5.84746,-0.57483c-2.39993,-1.01508 -2.39294,-5.26509 0.42327,-6.16986c4.11668,-1.32258 7.47597,1.48012 8.7597,3.21557c0.07284,0.08255 0.11342,0.16574 0.13604,0.23282c0.02222,0.06445 0.03887,0.1464 0.02846,0.23497v0.71492c-0.00072,0.35524 -0.06056,0.70051 -0.14617,1.04101c0.7706,0.06566 1.54489,0.14334 2.36619,0.21697c1.17256,0.10512 2.41745,0.0695 3.51145,0.33843c0.04986,0.01226 2.49935,0.78984 2.69863,0.86804c2.15126,0.84417 3.53585,2.71854 0.58641,3.70268c-0.83172,0.27752 -1.89945,0.13676 -2.84909,0.20557c-0.90719,0.06573 -1.87991,0.11637 -2.84351,0.11947c0.08391,1.30873 -0.35291,2.69486 -2.45601,2.59607z" fill="#ffe100" stroke="none" stroke-width="0.5"/><path d="M242.71486,174.19038c0,0 0.00526,12.43601 0.00526,18.08404c0,1.47949 -1.19953,2.67874 -2.67874,2.67874c-1.47949,0 -2.67853,-1.19926 -2.67853,-2.67874c0,-4.73524 -0.00553,-18.0695 -0.00553,-18.0695c0,0 -0.90595,0.89521 -5.03554,5.02507c-1.04623,1.04618 -2.7421,1.04618 -3.78806,0c-1.04596,-1.04672 -1.04623,-2.74237 0,-3.78833c3.34824,-3.34873 9.61048,-9.61027 9.61048,-9.61027c1.04623,-1.04596 2.74232,-1.04596 3.78806,0c0,0 5.40376,5.40354 9.53362,9.53335c1.04672,1.04672 1.04672,2.74259 0,3.78833c-1.04601,1.04623 -2.74237,1.04623 -3.78757,0c-3.34976,-3.34878 -4.96345,-4.96269 -4.96345,-4.96269z" fill="#ffffff" stroke="#000000" stroke-width="0"/></g></g></svg>