<svg version="1.1" xmlns="http://www.w3.org/2000/svg" xmlns:xlink="http://www.w3.org/1999/xlink" width="88.34685" height="88.34685" viewBox="0,0,88.34685,88.34685"><g transform="translate(-195.82659,-135.82659)"><g data-paper-data="{&quot;isPaintingLayer&quot;:true}" fill-rule="nonzero" stroke-width="0" stroke-linecap="butt" stroke-linejoin="miter" stroke-miterlimit="10" stroke-dasharray="" stroke-dashoffset="0" style="mix-blend-mode: normal"><path d="M195.8266,224.17344v-88.34685h88.34685v88.34685z" fill="none" stroke="#000000"/><path d="M215.28264,213.51087l-3.89302,-63.58604c0,0 5.5281,-2.03086 8.32038,-2.72893c0.81611,-0.20403 28.46792,-5.98947 36.41564,3.08359c3.52239,4.02114 10.68407,8.04042 8.64601,21.0832c-1.41234,9.0384 -11.53203,15.54587 -11.53203,15.54587l-9.55818,-9.70228c0,0 8.8354,-6.53746 -0.10139,-17.97775c-6.0678,-4.30719 -14.33413,-1.18223 -14.33413,-1.18223l1.60881,56.76226z" fill="#f23030" stroke="none"/><path d="M228.90826,193.07249l-0.32441,-11.35465c0,0 7.5421,-0.43343 10.2477,-1.42732c2.58801,-0.9507 5.64881,-3.43896 5.64881,-3.43896l9.40814,9.73256c0,0 -8.87525,3.48767 -13.14143,4.54036c-4.04923,0.99916 -11.83881,1.94801 -11.83881,1.94801z" fill="#f23030" stroke="none"/><path d="M250.88391,212.66069l-10.09526,-21.94392l13.18462,-4.90456l14.63712,21.29509z" fill="#f23030" stroke="none"/></g></g></svg>