<svg version="1.1" xmlns="http://www.w3.org/2000/svg" xmlns:xlink="http://www.w3.org/1999/xlink" width="533" height="377" viewBox="0,0,533,377"><defs><linearGradient x1="280.31705" y1="205.20784" x2="280.31705" y2="221.43127" gradientUnits="userSpaceOnUse" id="color-1"><stop offset="0" stop-color="#ff4af6"/><stop offset="1" stop-color="#b692ff"/></linearGradient><linearGradient x1="340.05905" y1="205.2313" x2="340.05905" y2="221.45473" gradientUnits="userSpaceOnUse" id="color-2"><stop offset="0" stop-color="#ff4af6"/><stop offset="1" stop-color="#b692ff"/></linearGradient><linearGradient x1="469.97034" y1="206.25006" x2="469.97034" y2="222.47349" gradientUnits="userSpaceOnUse" id="color-3"><stop offset="0" stop-color="#ff4af6"/><stop offset="1" stop-color="#b692ff"/></linearGradient><linearGradient x1="399.7776" y1="205.2313" x2="399.7776" y2="221.45473" gradientUnits="userSpaceOnUse" id="color-4"><stop offset="0" stop-color="#ff4af6"/><stop offset="1" stop-color="#b692ff"/></linearGradient><linearGradient x1="291.81006" y1="327.67777" x2="291.81006" y2="343.9012" gradientUnits="userSpaceOnUse" id="color-5"><stop offset="0" stop-color="#ff4af6"/><stop offset="1" stop-color="#b692ff"/></linearGradient></defs><g transform="translate(26.5,8.5)"><g data-paper-data="{&quot;isPaintingLayer&quot;:true}" fill-rule="nonzero" stroke="none" stroke-width="0" stroke-linecap="butt" stroke-linejoin="miter" stroke-miterlimit="10" stroke-dasharray="" stroke-dashoffset="0" style="mix-blend-mode: normal"><path d="M-26.5,368.5v-377h533v377z" fill="none"/><path d="M265.70999,218.81459v-10.99007c0,0 1.7899,-1.57001 3.49044,-1.57001c1.22462,0 3.60966,1.45953 6.45329,1.29719c1.38473,-0.07906 2.8782,-0.61286 4.39937,-0.57642c1.5451,0.03702 3.11878,-0.40091 4.63612,-0.28981c1.87942,0.13761 3.6724,0.83797 5.21757,1.01124c2.96487,0.33248 5.01734,0.65116 5.01734,0.65116v10.46673c0,0 -4.90581,5.23337 -8.3008,5.23337c-1.55298,0 -3.94778,-2.00642 -6.57019,-1.88266c-1.45133,0.06849 -2.79639,1.03728 -4.28304,0.87519c-1.06501,-0.11612 -2.28837,2.12733 -3.27981,1.85578c-0.13948,-0.0382 -6.78028,-6.08168 -6.78028,-6.08168z" fill="url(#color-1)"/><path d="M325.45198,218.83805v-10.99007c0,0 1.7899,-1.57001 3.49045,-1.57001c1.22463,0 3.60965,1.45953 6.45328,1.29719c1.38473,-0.07906 2.87819,-0.61286 4.39937,-0.57642c1.5451,0.03702 3.11878,-0.40091 4.63612,-0.28981c1.87941,0.13761 3.67239,0.83797 5.21756,1.01124c2.96487,0.33248 5.01735,0.65116 5.01735,0.65116v10.46673c0,0 -4.90582,5.23337 -8.3008,5.23337c-1.55298,0 -3.94777,-2.00642 -6.57019,-1.88266c-1.45133,0.06849 -2.79639,1.03728 -4.28305,0.87519c-1.06502,-0.11612 -2.28837,2.12733 -3.27981,1.85578c-0.13948,-0.0382 -6.78028,-6.08168 -6.78028,-6.08168z" fill="url(#color-2)"/><path d="M446.90315,219.85681v-10.99007c0,0 2.82658,-1.57001 5.51204,-1.57001c1.9339,0 5.7003,1.45953 10.1909,1.29719c2.18673,-0.07906 4.54519,-0.61286 6.9474,-0.57642c2.43998,0.03702 4.92512,-0.40091 7.32127,-0.28981c2.96794,0.13761 5.79937,0.83797 8.23948,1.01124c4.68206,0.33248 7.92329,0.65116 7.92329,0.65116v10.46673c0,0 -7.74717,5.23337 -13.10846,5.23337c-2.45244,0 -6.23425,-2.00642 -10.37552,-1.88266c-2.29191,0.06849 -4.416,1.03728 -6.7637,0.87519c-1.68185,-0.11612 -3.61375,2.12733 -5.17941,1.85578c-0.22026,-0.0382 -10.70729,-6.08168 -10.70729,-6.08168z" fill="url(#color-3)"/><path d="M385.17053,218.83805v-10.99007c0,0 1.7899,-1.57001 3.49045,-1.57001c1.22463,0 3.60965,1.45953 6.45328,1.29719c1.38473,-0.07906 2.87819,-0.61286 4.39937,-0.57642c1.5451,0.03702 3.11878,-0.40091 4.63612,-0.28981c1.87941,0.13761 3.67239,0.83797 5.21756,1.01124c2.96487,0.33248 5.01735,0.65116 5.01735,0.65116v10.46673c0,0 -4.90582,5.23337 -8.3008,5.23337c-1.55298,0 -3.94777,-2.00642 -6.57019,-1.88266c-1.45133,0.06849 -2.79639,1.03728 -4.28305,0.87519c-1.06502,-0.11612 -2.28837,2.12733 -3.27981,1.85578c-0.13948,-0.0382 -6.78028,-6.08168 -6.78028,-6.08168z" fill="url(#color-4)"/><path d="M136.36671,341.28452v-10.99007c0,0 19.04749,-1.57001 37.14415,-1.57001c13.03209,0 38.41264,1.45953 68.67356,1.29719c14.73581,-0.07906 30.6287,-0.61286 46.81656,-0.57642c16.44242,0.03702 33.18897,-0.40091 49.33597,-0.28981c20.00003,0.13761 39.08029,0.83797 55.52346,1.01124c31.55111,0.33248 53.39289,0.65116 53.39289,0.65116v10.46673c0,0 -52.20603,5.23337 -88.33422,5.23337c-16.52627,0 -42.01079,-2.00642 -69.91767,-1.88266c-15.44455,0.06849 -29.75821,1.03728 -45.57873,0.87519c-11.33357,-0.11612 -24.35204,2.12733 -34.9026,1.85578c-1.4843,-0.0382 -72.15338,-6.08168 -72.15338,-6.08168z" fill="url(#color-5)"/></g></g></svg>