<svg version="1.1" xmlns="http://www.w3.org/2000/svg" xmlns:xlink="http://www.w3.org/1999/xlink" width="88.34685" height="88.34685" viewBox="0,0,88.34685,88.34685"><g transform="translate(-195.82659,-135.82659)"><g data-paper-data="{&quot;isPaintingLayer&quot;:true}" fill-rule="nonzero" stroke-width="0" stroke-linecap="butt" stroke-linejoin="miter" stroke-miterlimit="10" stroke-dasharray="" stroke-dashoffset="0" style="mix-blend-mode: normal"><path d="M195.8266,224.17344v-88.34685h88.34685v88.34685z" fill="none" stroke="#000000"/><path d="M210.66669,180.75001c0,-17.0748 12.50853,-30.91667 29.58333,-30.91667c17.0748,0 29.08333,13.84186 29.08333,30.91667c0,17.0748 -12.00853,29.41667 -29.08333,29.41667c-17.0748,0 -29.58333,-12.34186 -29.58333,-29.41667zM239.49998,194.50001c8.28427,0 13,-5.04906 13,-13.33333c0,-8.28427 -4.71573,-14.66667 -13,-14.66667c-8.28427,0 -12.16667,5.54906 -12.16667,13.83333c0,8.28427 3.8824,14.16667 12.16667,14.16667z" fill="#f23030" stroke="none"/></g></g></svg>