<svg version="1.1" xmlns="http://www.w3.org/2000/svg" xmlns:xlink="http://www.w3.org/1999/xlink" width="88.34685" height="88.34685" viewBox="0,0,88.34685,88.34685"><g transform="translate(-195.82666,-135.82664)"><g data-paper-data="{&quot;isPaintingLayer&quot;:true}" fill-rule="nonzero" stroke-width="0" stroke-linecap="butt" stroke-linejoin="miter" stroke-miterlimit="10" stroke-dasharray="" stroke-dashoffset="0" style="mix-blend-mode: normal"><path d="M195.82667,224.17349v-88.34685h88.34685v88.34685z" fill="none" stroke="#000000"/><path d="M252.63056,151.57558l3.06016,14.35275c0,0 -13.6611,-7.03734 -20.27353,-1.74908c-6.61243,5.28826 -3.81473,7.75917 -3.81473,7.75917c0,0 28.39186,-0.04079 30.57633,11.08764c2.72451,13.87963 -11.49519,23.64924 -23.81422,25.28288c-7.40862,0.98248 -15.19595,-4.16182 -15.19595,-4.16182c0,0 25.47646,-7.54979 25.21706,-14.26612c-0.13165,-3.40857 -10.66843,-7.48984 -15.58953,-3.38286c-1.45538,1.21462 -3.57955,4.74621 -1.68463,9.2664c1.34517,3.20878 10.04379,1.77915 10.04379,1.77915c0,0 -5.00118,3.98074 -8.17168,5.18483c-2.6614,1.01073 -9.59272,1.56172 -9.59272,1.56172c0,0 -5.73498,-9.48356 -5.90061,-20.97048c-0.16564,-11.48692 2.22051,-18.39792 5.27848,-22.1728c8.30295,-10.24949 29.8618,-9.57138 29.8618,-9.57138z" data-paper-data="{&quot;index&quot;:null}" fill="#f23030" stroke="none"/></g></g></svg>