<svg version="1.1" xmlns="http://www.w3.org/2000/svg" xmlns:xlink="http://www.w3.org/1999/xlink" width="523.49718" height="473.25054" viewBox="0,0,523.49718,473.25054"><defs><radialGradient cx="98.29719" cy="186.7309" r="253" gradientUnits="userSpaceOnUse" id="color-1"><stop offset="0" stop-color="#00d8ff"/><stop offset="1" stop-color="#0091ff"/></radialGradient><linearGradient x1="53.94075" y1="10.72377" x2="53.94075" y2="92.06097" gradientUnits="userSpaceOnUse" id="color-2"><stop offset="0" stop-color="#257ea5"/><stop offset="1" stop-color="#b5097a"/></linearGradient><linearGradient x1="53.94075" y1="10.72377" x2="53.94075" y2="92.06097" gradientUnits="userSpaceOnUse" id="color-3"><stop offset="0" stop-color="#257ea5"/><stop offset="1" stop-color="#b5097a"/></linearGradient><linearGradient x1="15.95001" y1="12.49463" x2="15.95001" y2="51.11579" gradientUnits="userSpaceOnUse" id="color-4"><stop offset="0" stop-color="#95e9ec"/><stop offset="1" stop-color="#95e9ec" stop-opacity="0"/></linearGradient><linearGradient x1="26.78752" y1="11.80187" x2="26.78752" y2="12.23485" gradientUnits="userSpaceOnUse" id="color-5"><stop offset="0" stop-color="#95e9ec"/><stop offset="1" stop-color="#95e9ec" stop-opacity="0"/></linearGradient><linearGradient x1="45.72302" y1="12.60023" x2="45.72302" y2="51.32059" gradientUnits="userSpaceOnUse" id="color-6"><stop offset="0" stop-color="#95e9ec"/><stop offset="1" stop-color="#95e9ec" stop-opacity="0"/></linearGradient><linearGradient x1="49.82514" y1="12.15" x2="61.23117" y2="12.15" gradientUnits="userSpaceOnUse" id="color-7"><stop offset="0" stop-color="#95e9ec"/><stop offset="1" stop-color="#95e9ec" stop-opacity="0"/></linearGradient><linearGradient x1="52.05078" y1="39.68507" x2="52.05078" y2="43.86222" gradientUnits="userSpaceOnUse" id="color-8"><stop offset="0" stop-color="#474849"/><stop offset="1" stop-color="#222326"/></linearGradient><linearGradient x1="60.19013" y1="39.41508" x2="60.19013" y2="43.59222" gradientUnits="userSpaceOnUse" id="color-9"><stop offset="0" stop-color="#474849"/><stop offset="1" stop-color="#222326"/></linearGradient><linearGradient x1="77.12591" y1="12.35489" x2="77.12591" y2="54.32189" gradientUnits="userSpaceOnUse" id="color-10"><stop offset="0" stop-color="#95e9ec"/><stop offset="1" stop-color="#95e9ec" stop-opacity="0"/></linearGradient><linearGradient x1="77.05011" y1="12.08975" x2="88.03427" y2="12.08975" gradientUnits="userSpaceOnUse" id="color-11"><stop offset="0" stop-color="#95e9ec"/><stop offset="1" stop-color="#95e9ec" stop-opacity="0"/></linearGradient><linearGradient x1="100.52365" y1="12.30822" x2="100.52365" y2="54.27521" gradientUnits="userSpaceOnUse" id="color-12"><stop offset="0" stop-color="#95e9ec"/><stop offset="1" stop-color="#95e9ec" stop-opacity="0"/></linearGradient><linearGradient x1="100.44791" y1="12.04306" x2="111.43204" y2="12.04306" gradientUnits="userSpaceOnUse" id="color-13"><stop offset="0" stop-color="#95e9ec"/><stop offset="1" stop-color="#95e9ec" stop-opacity="0"/></linearGradient><linearGradient x1="27.6872" y1="74.57814" x2="27.6872" y2="89.11983" gradientUnits="userSpaceOnUse" id="color-14"><stop offset="0" stop-color="#f875bc"/><stop offset="1" stop-color="#f875bc" stop-opacity="0"/></linearGradient><linearGradient x1="45.92727" y1="75.54842" x2="51.74408" y2="75.54842" gradientUnits="userSpaceOnUse" id="color-15"><stop offset="0" stop-color="#f875bc"/><stop offset="1" stop-color="#f875bc" stop-opacity="0"/></linearGradient><linearGradient x1="63.41489" y1="75.62612" x2="69.23171" y2="75.62612" gradientUnits="userSpaceOnUse" id="color-16"><stop offset="0" stop-color="#f875bc"/><stop offset="1" stop-color="#f875bc" stop-opacity="0"/></linearGradient><linearGradient x1="45.34282" y1="76.08061" x2="45.34282" y2="92.06445" gradientUnits="userSpaceOnUse" id="color-17"><stop offset="0" stop-color="#f875bc"/><stop offset="1" stop-color="#f875bc" stop-opacity="0"/></linearGradient><linearGradient x1="62.87897" y1="75.98761" x2="62.87897" y2="91.97144" gradientUnits="userSpaceOnUse" id="color-18"><stop offset="0" stop-color="#f875bc"/><stop offset="1" stop-color="#f875bc" stop-opacity="0"/></linearGradient><linearGradient x1="83.72654" y1="89.2138" x2="83.72654" y2="102.41615" gradientUnits="userSpaceOnUse" id="color-19"><stop offset="0" stop-color="#f875bc"/><stop offset="1" stop-color="#f875bc" stop-opacity="0"/></linearGradient><linearGradient x1="74.84899" y1="75.57376" x2="82.15953" y2="75.57376" gradientUnits="userSpaceOnUse" id="color-20"><stop offset="0" stop-color="#f875bc"/><stop offset="1" stop-color="#f875bc" stop-opacity="0"/></linearGradient><linearGradient x1="92.96151" y1="75.65062" x2="100.57349" y2="75.65062" gradientUnits="userSpaceOnUse" id="color-21"><stop offset="0" stop-color="#f875bc"/><stop offset="1" stop-color="#f875bc" stop-opacity="0"/></linearGradient><linearGradient x1="104.14462" y1="96.59259" x2="112.3749" y2="96.59259" gradientUnits="userSpaceOnUse" id="color-22"><stop offset="0" stop-color="#f875bc"/><stop offset="1" stop-color="#f875bc" stop-opacity="0"/></linearGradient><linearGradient x1="103.54683" y1="96.57557" x2="104.12006" y2="97.04998" gradientUnits="userSpaceOnUse" id="color-23"><stop offset="0" stop-color="#f875bc"/><stop offset="1" stop-color="#f875bc" stop-opacity="0"/></linearGradient></defs><g transform="translate(13,19.9891)"><g data-paper-data="{&quot;isPaintingLayer&quot;:true}" fill-rule="nonzero" stroke-linecap="butt" stroke-linejoin="miter" stroke-miterlimit="10" stroke-dasharray="" stroke-dashoffset="0" style="mix-blend-mode: normal"><path d="M-13,369.00002v-378h506v378z" fill="url(#color-1)" stroke="#07b0bb" stroke-width="0"/><path d="M218.71453,38.88094l16,-46.5l272,-8.5l-0.5,59.5z" fill="#262626" stroke-opacity="0.58065" stroke="#ffffff" stroke-width="7.5"/><path d="M218.71452,38.88094l16,-46.5l272,-8.5l-0.5,59.5z" fill="#262626" stroke="#000000" stroke-width="0"/><text transform="translate(168.5,318.61978) scale(0.37614,0.37614)" font-size="40" xml:space="preserve" fill="#ffffff" fill-rule="nonzero" stroke="none" stroke-width="1" stroke-linecap="butt" stroke-linejoin="miter" stroke-miterlimit="10" stroke-dasharray="" stroke-dashoffset="0" font-family="Sans Serif" font-weight="normal" text-anchor="start" style="mix-blend-mode: normal"><tspan x="0" dy="0">Mutear</tspan></text><text transform="translate(171.5,340.4948) scale(0.30322,0.30322)" font-size="40" xml:space="preserve" fill="#ffffff" fill-rule="nonzero" stroke="none" stroke-width="1" stroke-linecap="butt" stroke-linejoin="miter" stroke-miterlimit="10" stroke-dasharray="" stroke-dashoffset="0" font-family="Sans Serif" font-weight="normal" text-anchor="start" style="mix-blend-mode: normal"><tspan x="0" dy="0">Control </tspan><tspan x="0" dy="48px">  Táctil</tspan></text><path d="M48.28438,453.26143v-198.73478h110.79468v198.73479z" fill="#ffa617" stroke="none" stroke-width="NaN"/><path d="M40.77687,289.59776v-35.07112h125.8097v35.07112c0,0 -1.07396,13.51351 -64.31383,13.51351c-61.26876,0 -61.49588,-13.51351 -61.49588,-13.51351z" fill="#ffb842" stroke="none" stroke-width="NaN"/><path d="M166.58656,254.6149c0,9.22336 -28.16345,16.7004 -62.90485,16.7004c-34.7414,0 -62.90484,-7.47704 -62.90484,-16.7004c0,-9.22337 28.16345,-16.70041 62.90485,-16.70041c34.7414,0 62.90485,7.47704 62.90485,16.70041z" fill="#ffcf8a" stroke="none" stroke-width="0"/><g><path d="M18.77191,80.85001l5.77957,-9.15262c0,0 -9.69024,-60.34847 -9.10293,-60.59411c0.44354,-0.1855 25.38438,0.22349 25.38438,0.22349l27.82944,34.17692c0,0 3.98539,-21.21031 7.08628,-34.40184c0.06965,-0.29634 12.86789,13.57914 12.86789,13.57914c0,0 6.03631,-8.48975 10.83733,-13.90589c0.32712,-0.36904 14.02238,60.61988 14.02238,60.61988l4.29844,5.54416l-10.68324,4.94706l7.2578,14.3498l-9.74748,6.57036l-4.10568,-2.66953l-10.67205,-11.45896c0,0 -6.76379,14.60336 -6.99268,14.36669c-3.63942,-3.76315 -14.00535,-15.2293 -14.00535,-15.2293l-11.27893,11.69733l-9.93112,-11.72905l-7.02988,14.3165l-17.27026,-6.1037z" fill="url(#color-2)" stroke="#ffffff" stroke-width="6.25"/><path d="M14.98306,72.35438c-0.07402,-8.60008 -0.45773,-53.58968 -0.43215,-59.08614c0.00501,-1.07954 -0.17307,-1.2436 0.29922,-1.76163c0.4723,-0.51802 1.01965,-0.43889 1.71061,-0.44284c2.43541,-0.01397 16.75873,-0.19518 22.06931,-0.15356c0.54097,0.00425 1.43185,0.08622 1.77623,0.45181c0.44044,0.46753 0.26388,1.30661 0.28843,2.0501c0.08629,2.61505 0.1829,6.99828 -0.00574,9.94145c-0.03081,0.48062 -9.38431,0.08775 -12.43247,0.14423c-0.32071,0.00595 -0.40037,0.35939 -0.5675,0.36836c-0.06464,0.00345 -0.09728,0.25211 -0.11359,0.83367c-0.02891,1.03039 -0.00648,3.10585 -0.01957,6.71454c-0.00029,0.0776 -0.01377,0.69035 0.42436,1.09824c0.28976,0.26976 1.2107,0.05225 1.2107,0.05225l8.67218,-0.07406c0,0 1.13609,0.17617 1.30812,0.25527c0.65039,0.29906 0.27704,0.62994 0.43461,1.3522c0.24678,1.13132 -0.01736,8.61702 -0.01736,8.61702c0,0 -0.02938,1.06162 -0.49186,1.53945c-0.0808,0.08349 -0.88768,0.72402 -0.88768,0.72402l-8.04066,-0.01042c0,0 -1.46756,0.05669 -1.56786,0.14737c-0.09774,0.08836 -0.25282,1.23749 -0.25282,1.23749l-0.19745,25.56878l-0.17077,1.41474l-1.11248,0.43554c0,0 -9.22181,0 -10.74322,0c-0.57572,0 -0.562,0.05276 -0.83803,-0.29036c0,0 -0.29469,-0.21271 -0.30255,-1.12749z" fill="#30d8de" stroke="#ffffff" stroke-width="7.5"/><path d="M37.56504,72.79493c-0.17876,-0.27845 -0.38916,-0.0786 -0.26909,-0.75183c0.81039,-4.54332 9.38,-52.97785 10.7558,-60.34511c0.11368,-0.60878 0.64885,-0.93715 0.64885,-0.93715h14.09719c0,0 0.60021,0.21398 0.82608,1.4439c1.81466,9.88082 9.57991,55.22267 10.34862,59.52414c0.11625,0.65048 0.07447,0.52201 -0.23725,0.94761c-0.3117,0.4256 -0.82219,0.49898 -0.82219,0.49898c0,0 -6.15855,-0.07932 -10.58898,-0.0649c-1.51463,0.00495 -3.18254,-9.96841 -3.90987,-11.17202c-0.20414,-0.33782 -0.5399,-0.31665 -1.11767,-0.4376c-0.68342,-0.14307 -2.08338,-0.11654 -2.08338,-0.11654c0,0 -1.40778,-0.06592 -1.84135,0.04002c-0.67824,0.1657 -1.19532,0.28849 -1.35397,0.57755c-0.50049,0.91186 -1.69814,6.76507 -2.67322,9.70625c-0.37896,1.14306 -0.52316,1.44399 -0.88026,1.44517c-0.30909,0.00101 -0.74441,0.23898 -1.06655,0.24004c-2.67357,0.00888 -9.16036,0.11611 -9.16036,0.11611c0,0 -0.49363,-0.43616 -0.67242,-0.7146z" fill="#30d8de" stroke="#ffffff" stroke-width="7.5"/><path d="M76.27472,73.38568c0,0 -0.23485,-0.0941 -0.23613,-0.70275c-0.01526,-7.35357 -0.11513,-55.63488 -0.11513,-60.41537c0,-0.74995 -0.10584,-0.56266 0.23417,-0.93667c0.34,-0.37402 0.39267,-0.35125 0.93668,-0.35125c1.47625,0 11.364,0.01825 11.364,0.01825c0,0 0.8914,0.03841 0.92986,0.21593c0.0171,0.07888 0.16065,1.05488 0.16065,1.05488l-0.09964,47.5241c0,0 -0.01293,1.19746 0.06483,1.29895c0.14672,0.19149 0.99988,0.23783 0.99988,0.23783l5.61365,-0.01741c0,0 0.98911,-0.1381 1.04572,0.34463c0.02164,0.18458 0.51414,0.9545 0.51414,0.9545l-0.06605,9.13107l-0.15431,1.2921l-1.29897,0.64972c0,0 -16.65237,-0.05318 -19.07299,-0.06091c-0.56916,-0.00181 -0.82034,-0.23753 -0.82034,-0.23753z" fill="#30d8de" stroke="#ffffff" stroke-width="7.5"/><path d="M99.67245,73.33898c0,0 -0.23485,-0.0941 -0.23613,-0.70274c-0.01526,-7.35357 -0.11513,-55.63488 -0.11513,-60.41537c0,-0.74995 -0.10585,-0.56265 0.23416,-0.93667c0.34,-0.37402 0.39267,-0.35127 0.93667,-0.35127c1.47625,0 11.364,0.01826 11.364,0.01826c0,0 0.89141,0.0384 0.92987,0.21593c0.0171,0.07888 0.16064,1.05489 0.16064,1.05489l-0.09965,47.5241c0,0 -0.01292,1.19746 0.06484,1.29895c0.14672,0.19149 0.99986,0.23783 0.99986,0.23783l5.61365,-0.01741c0,0 0.98911,-0.1381 1.04572,0.34463c0.02164,0.18458 0.51416,0.9545 0.51416,0.9545l-0.06606,9.13108l-0.1543,1.2921l-1.29897,0.64971c0,0 -16.65236,-0.05317 -19.07301,-0.0609c-0.56916,-0.00181 -0.82032,-0.23754 -0.82032,-0.23754z" fill="#30d8de" stroke="#ffffff" stroke-width="7.5"/><path d="M41.49297,88.45067l-0.12761,13.18077c0,0 -0.04581,1.15648 -1.38514,1.44185c-1.00794,0.71435 -10.9915,2.91775 -17.14779,0.35068c-5.6175,-2.34239 -7.49736,-9.23169 -7.49736,-13.33505c0,-8.6003 5.84325,-14.97883 12.99638,-15.57223c6.39207,-0.53028 9.48554,0.29889 11.61828,3.11883c0.35144,0.4647 0.22478,1.35851 0.22478,1.35851c0,0 -1.8324,4.12623 -2.52604,4.49987c-0.50284,0.27085 -1.35245,0.31477 -1.35245,0.31477c0,0 -3.4926,-1.77081 -6.31664,-1.56521c-2.70271,0.19675 -4.7329,2.34816 -5.12862,3.29342c-1.42344,3.40019 -0.3696,8.19381 0.98279,9.59927c2.55579,2.65608 7.36365,1.74054 7.46978,1.74573c0.1799,0.00881 0.2098,-2.26804 0.2098,-2.26804c0,0 0.20411,-0.62625 -0.03762,-0.92996c-0.23217,-0.29172 -0.91692,-0.38952 -0.91692,-0.38952l-2.1688,0.0235c0,0 -1.14731,-0.05908 -1.23185,-0.21445c-0.28409,-0.52201 -0.13424,-5.14266 -0.13424,-5.14266c0,0 0.12073,-0.58588 0.32236,-0.7857c0.2401,-0.23793 1.02308,-0.0793 1.02308,-0.0793l9.83876,-0.17429c0,0 0.86771,0.02727 1.1199,0.35744z" fill="#f73ca3" stroke="#ffffff" stroke-width="7.5"/><path d="M47.35854,101.67261c-0.26568,-0.14289 -2.25374,-2.23625 -2.61816,-5.72011c-0.82807,-7.91642 -0.24409,-19.75395 -0.24409,-19.75395c0,0 0.2833,-0.97643 0.929,-1.14217c1.64191,-0.42149 4.98792,-0.29466 6.05992,-0.19009c1.05409,0.10282 1.26592,0.83553 1.26592,0.83553l-0.06025,12.07578c0,0 -0.33375,8.43506 4.97176,8.59984c4.89744,0.15213 4.46387,-8.72976 4.46387,-8.72976l-0.07761,-11.90149c0,0 0.17142,-0.69403 1.02785,-0.78278c0.9363,-0.09702 4.51569,-0.31956 6.27704,-0.05044c1.01672,0.15535 0.75968,1.28556 0.75968,1.28556c0,0 0.32338,14.63517 0.19015,19.13787c-0.07243,2.44804 -1.04577,4.32899 -1.90751,5.3344c-0.85437,0.99682 -1.91633,4.06192 -10.59566,4.25814c-7.74657,0.17512 -9.36948,-2.67952 -10.4419,-3.25636z" fill="#f73ca3" stroke="#ffffff" stroke-width="7.5"/><path d="M82.98009,102.65743l0.01644,-13.46549l-8.62338,-13.3098c0,0 -0.69958,-0.60234 -0.17144,-0.60406c0.21085,-0.00069 0.94221,-0.4356 0.94221,-0.4356l6.44138,0.0189c0,0 0.63159,0.07078 0.84494,0.18672c0.37623,0.20448 1.21595,0.93335 1.21595,0.93335l3.92935,6.12517l4.14221,-6.0496c0,0 0.56711,-0.66519 0.83529,-0.85792c0.24911,-0.17904 1.06413,-0.26045 1.06413,-0.26045l6.25499,-0.00068c0,0 1.06658,0.11638 1.21954,0.31101c0.16139,0.20538 -0.27511,0.89074 -0.27511,0.89074l-8.69962,13.13537l-0.05761,13.30806c0,0 -0.18456,0.63718 -0.36955,0.87884c-0.19458,0.25422 -0.77058,0.61071 -0.77058,0.61071l-6.57386,-0.06598c0,0 -0.79481,-0.38058 -0.87155,-0.56503z" fill="#f73ca3" stroke="#ffffff" stroke-width="7.5"/><path d="M119.31757,99.92977c-1.20624,2.22331 -2.81645,3.44964 -6.98963,3.63359c-5.07123,0.22355 -9.39854,-0.58608 -11.38547,-3.63723c-0.33281,-0.51108 2.28234,-3.88253 2.28234,-3.88253c0,0 0.57553,-0.60588 0.96334,-0.78102c0.41341,-0.18669 1.48069,0.25075 1.48069,0.25075c0,0 6.06238,3.1242 6.66479,-0.03117c0.42782,-2.24083 -6.3786,-3.97739 -9.24068,-6.87764c-0.85244,-0.8638 -1.4043,-3.98983 -1.4043,-4.1428c0,-7.94177 5.67786,-9.69283 10.63927,-9.65811c3.40457,0.02383 5.76496,1.00083 7.07869,2.65248c0.74291,0.93402 -1.61098,4.07487 -2.74435,4.8706c-0.25853,0.18151 -1.54435,-0.42223 -1.54435,-0.42223c0,0 -4.94542,-1.35048 -5.44015,-0.13314c-0.91046,2.24043 6.38547,4.23565 9.55756,8.02747c2.70519,3.23367 1.4245,7.65686 0.0822,10.13097z" fill="#f73ca3" stroke="#ffffff" stroke-width="7.5"/><path d="M18.77191,80.85002l5.77957,-9.15262l-9.10293,-60.59411l25.13299,-0.1117l28.08084,34.51212l7.08628,-34.40184l12.86789,13.57914l10.83733,-13.90589l14.02238,60.61987l4.29844,5.54416l-10.68324,4.94705l7.2578,14.34981l-9.74748,6.57036l-4.10568,-2.66954l-10.67205,-11.45895l-6.99268,14.36669l-14.00535,-15.2293l-11.27893,11.69733l-9.93112,-11.72906l-6.94607,15.0707l-17.35406,-6.85788z" fill="url(#color-3)" stroke="none" stroke-width="0"/><path d="M15.28565,73.48189c-0.27601,-0.34312 -0.29472,-0.21271 -0.30259,-1.12749c-0.07402,-8.60008 -0.45773,-53.58968 -0.43215,-59.08614c0.00501,-1.07954 -0.17307,-1.2436 0.29922,-1.76163c0.4723,-0.51802 1.01965,-0.43889 1.71061,-0.44284c2.43541,-0.01397 16.75873,-0.19518 22.06931,-0.15356c0.54097,0.00425 1.43185,0.08622 1.77623,0.45181c0.44044,0.46753 0.26388,1.30661 0.28843,2.0501c0.08629,2.61505 0.1829,6.99828 -0.00574,9.94145c-0.03081,0.48062 -9.38431,0.08775 -12.43247,0.14423c-0.32071,0.00595 -0.40037,0.35939 -0.5675,0.36836c-0.06464,0.00345 -0.09728,0.25211 -0.11359,0.83367c-0.02891,1.03039 -0.00648,3.10585 -0.01957,6.71454c-0.00029,0.0776 -0.01377,0.69035 0.42436,1.09824c0.28976,0.26976 1.2107,0.05225 1.2107,0.05225l8.67218,-0.07406c0,0 1.13609,0.17617 1.30812,0.25527c0.65039,0.29906 0.27704,0.62994 0.43461,1.3522c0.24678,1.13132 -0.01736,8.61702 -0.01736,8.61702c0,0 -0.02938,1.06162 -0.49186,1.53945c-0.0808,0.08349 -0.88768,0.72402 -0.88768,0.72402l-8.04066,-0.01042c0,0 -1.46756,0.05669 -1.56786,0.14737c-0.09774,0.08836 -0.25282,1.23749 -0.25282,1.23749l-0.19745,25.56878l-0.17077,1.41474l-1.11248,0.43554c0,0 -9.22181,0 -10.74322,0c-0.57572,0 -0.562,0.05276 -0.83803,-0.29036z" fill="#30d8de" stroke="#07b0bb" stroke-width="1.25"/><path d="M15.56032,51.11579v-38.62114h0.77935v38.62114z" fill="url(#color-4)" stroke="none" stroke-width="0"/><path d="M16.5694,12.23485v-0.43297h20.4363v0.43297z" fill="url(#color-5)" stroke="none" stroke-width="0"/><path d="M16.28527,12.64243c-0.2589,0.21223 -0.55481,0.27933 -0.66094,0.14986c-0.10612,-0.12944 0.01776,-0.40644 0.27667,-0.61866c0.25891,-0.21223 0.55483,-0.27932 0.66094,-0.14986c0.10611,0.12944 -0.01777,0.40644 -0.27667,0.61866z" fill="#f9f8f8" stroke="none" stroke-width="0"/><path d="M37.56504,73.01838c-0.17876,-0.27845 -0.38916,-0.0786 -0.26909,-0.75183c0.81039,-4.54331 9.38,-52.97786 10.7558,-60.34511c0.11368,-0.60878 0.64885,-0.93715 0.64885,-0.93715h14.09719c0,0 0.60021,0.21397 0.82608,1.4439c1.81466,9.88082 9.57991,55.22267 10.34862,59.52414c0.11625,0.65048 0.07447,0.522 -0.23725,0.9476c-0.3117,0.4256 -0.82219,0.49899 -0.82219,0.49899c0,0 -6.15855,-0.07933 -10.58898,-0.06491c-1.51463,0.00495 -3.18254,-9.96841 -3.90987,-11.17202c-0.20414,-0.33782 -0.5399,-0.31665 -1.11767,-0.4376c-0.68342,-0.14307 -2.08338,-0.11654 -2.08338,-0.11654c0,0 -1.40778,-0.06592 -1.84135,0.04002c-0.67824,0.1657 -1.19532,0.28849 -1.35397,0.57755c-0.50049,0.91186 -1.69814,6.76506 -2.67322,9.70625c-0.37896,1.14306 -0.52316,1.44399 -0.88026,1.44517c-0.30909,0.00101 -0.74441,0.23898 -1.06655,0.24004c-2.67357,0.00888 -9.16036,0.11611 -9.16036,0.11611c0,0 -0.49363,-0.43616 -0.67242,-0.7146z" fill="#30d8de" stroke="#07b0bb" stroke-width="1.25"/><path d="M65.86107,39.38373c0,5.30384 -4.40216,9.60345 -9.83249,9.60345c-5.43033,0 -9.8325,-4.29963 -9.8325,-9.60345c0,-5.30384 4.40217,-9.60345 9.8325,-9.60345c5.43034,0 9.83249,4.29961 9.83249,9.60345z" fill="#ffffff" stroke="none" stroke-width="0"/><path d="M48.58531,46.00498c0,0 -2.5213,-3.41263 -2.32854,-6.84226c0.17007,-3.0262 0.82529,-4.41309 2.30805,-6.16241c1.12246,-1.32424 3.35379,-3.19111 7.48657,-3.19837c4.02076,-0.00709 5.04026,1.24029 5.84361,1.86786c3.09557,2.41816 3.68947,5.32848 3.87062,6.55527c-0.09916,6.31809 -2.47337,7.55096 -2.47337,7.55096c0,0 3.20534,-5.26672 0.97075,-9.63905c-0.5501,-1.07633 -1.91148,-5.02266 -8.21345,-5.11024c-5.82429,-0.08093 -7.73954,3.80982 -8.28579,5.28942c-1.57511,4.26637 0.8216,9.68884 0.8216,9.68884z" fill="#e6e6e6" stroke="none" stroke-width="0"/><path d="M48.16859,46.85243c0,0 1.98461,1.45333 4.15,2.33014c1.32813,0.53779 2.8491,0.67144 3.65411,0.67144c0.81341,0 2.49604,-0.21801 3.87947,-0.84987c2.16125,-0.98712 4.02469,-2.55193 4.02469,-2.55193c0,0 -1.60469,1.79765 -3.77743,2.9606c-1.37922,0.73822 -3.34576,1.0415 -4.12672,1.0415c-0.76732,0 -2.66317,-0.24706 -3.88983,-0.82631c-2.25468,-1.06468 -3.91427,-2.7756 -3.91427,-2.7756z" fill="#96e8ec" stroke="none" stroke-width="0"/><path d="M41.82096,51.32059l7.2038,-38.72036h0.60031l-7.00368,37.81989z" fill="url(#color-6)" stroke="none" stroke-width="0"/><path d="M49.82514,12.4001v-0.50026h11.406v0.50026z" fill="url(#color-7)" stroke="none" stroke-width="0"/><path d="M49.59694,12.53478c-0.2589,0.21223 -0.55482,0.27933 -0.66092,0.14987c-0.10612,-0.12944 0.01777,-0.40644 0.27667,-0.61865c0.2589,-0.21223 0.55482,-0.27933 0.66092,-0.14987c0.10612,0.12944 -0.01777,0.40644 -0.27667,0.61867z" fill="#f9f8f8" stroke="none" stroke-width="0"/><path d="M53.18118,41.71912c0.09857,2.03426 -0.40325,2.10759 -1.02517,2.13772c-0.62194,0.03012 -1.08329,0.00286 -1.22709,-2.02858c-0.13497,-1.90666 0.40323,-2.10758 1.02518,-2.13773c0.62194,-0.03012 1.1285,-0.00568 1.22707,2.02857z" fill="url(#color-8)" stroke="#000000" stroke-width="0.5"/><path d="M51.70012,40.2655c0,0.13815 -0.112,0.25015 -0.25015,0.25015c-0.13815,0 -0.25015,-0.112 -0.25015,-0.25015c0,-0.13815 0.112,-0.25014 0.25015,-0.25014c0.13815,0 0.25015,0.11199 0.25015,0.25014z" fill="#d1d1d1" stroke="none" stroke-width="0"/><path d="M61.32054,41.44912c0.09857,2.03426 -0.40323,2.10759 -1.02518,2.13774c-0.62194,0.03012 -1.08328,0.00285 -1.22708,-2.02858c-0.13497,-1.90666 0.40322,-2.10758 1.02516,-2.13773c0.62194,-0.03012 1.1285,-0.00567 1.22708,2.02859z" fill="url(#color-9)" stroke="#000000" stroke-width="0.5"/><path d="M59.83947,39.99551c0,0.13815 -0.112,0.25015 -0.25015,0.25015c-0.13815,0 -0.25015,-0.112 -0.25015,-0.25015c0,-0.13815 0.112,-0.25015 0.25015,-0.25015c0.13815,0 0.25015,0.11199 0.25015,0.25015z" fill="#d1d1d1" stroke="none" stroke-width="0"/><path d="M45.43395,39.07341c0.18342,-3.26362 0.89003,-4.75931 2.48911,-6.64588c1.21052,-1.42814 3.6169,-3.44147 8.07392,-3.44931c4.33624,-0.00762 5.4357,1.3376 6.30206,2.01439c3.33842,2.60788 3.97892,5.74653 4.17428,7.06957c-0.10694,6.81378 -3.24493,8.0792 -3.24493,8.0792c0,0 4.03434,-5.61574 1.6244,-10.33111c-0.59326,-1.1608 -2.06145,-5.41674 -8.85783,-5.51114c-6.28122,-0.08726 -8.34673,4.10872 -8.93584,5.7044c-1.69868,4.60108 1.27106,9.80729 1.27106,9.80729c0,0 -3.1041,-3.0387 -2.89623,-6.73741z" fill="#18c0ca" stroke="none" stroke-width="0"/><path d="M76.27472,73.38568c0,0 -0.23485,-0.0941 -0.23613,-0.70275c-0.01526,-7.35357 -0.11513,-55.63488 -0.11513,-60.41537c0,-0.74995 -0.10584,-0.56266 0.23417,-0.93667c0.34,-0.37402 0.39267,-0.35125 0.93668,-0.35125c1.47625,0 11.364,0.01825 11.364,0.01825c0,0 0.8914,0.03841 0.92986,0.21593c0.0171,0.07888 0.16065,1.05488 0.16065,1.05488l-0.09964,47.5241c0,0 -0.01293,1.19746 0.06483,1.29895c0.14672,0.19149 0.99988,0.23783 0.99988,0.23783l5.61365,-0.01741c0,0 0.98911,-0.1381 1.04572,0.34463c0.02164,0.18458 0.51414,0.9545 0.51414,0.9545l-0.06605,9.13107l-0.15431,1.2921l-1.29897,0.64972c0,0 -16.65237,-0.05318 -19.07299,-0.06091c-0.56916,-0.00181 -0.82034,-0.23753 -0.82034,-0.23753z" fill="#30d8de" stroke="#07b0bb" stroke-width="1.25"/><path d="M76.74711,54.32189v-41.967h0.75753v41.96702z" fill="url(#color-10)" stroke="none" stroke-width="0"/><path d="M77.05011,12.43064v-0.68178h10.98414v0.68178z" fill="url(#color-11)" stroke="none" stroke-width="0"/><path d="M77.25153,12.32382c-0.19977,0.20655 -0.4519,0.28678 -0.56312,0.17922c-0.11121,-0.10756 -0.03944,-0.36222 0.16035,-0.56876c0.19977,-0.20655 0.4519,-0.2868 0.56312,-0.17923c0.11121,0.10756 0.03944,0.36223 -0.16035,0.56878z" fill="#f9f8f8" stroke="none" stroke-width="0"/><path d="M99.67245,73.33898c0,0 -0.23485,-0.0941 -0.23613,-0.70274c-0.01526,-7.35357 -0.11513,-55.63488 -0.11513,-60.41537c0,-0.74995 -0.10585,-0.56265 0.23416,-0.93667c0.34,-0.37402 0.39267,-0.35127 0.93667,-0.35127c1.47625,0 11.364,0.01826 11.364,0.01826c0,0 0.89141,0.0384 0.92987,0.21593c0.0171,0.07888 0.16064,1.05489 0.16064,1.05489l-0.09965,47.5241c0,0 -0.01292,1.19746 0.06484,1.29895c0.14672,0.19149 0.99986,0.23783 0.99986,0.23783l5.61365,-0.01741c0,0 0.98911,-0.1381 1.04572,0.34463c0.02164,0.18458 0.51416,0.9545 0.51416,0.9545l-0.06606,9.13108l-0.1543,1.2921l-1.29897,0.64971c0,0 -16.65236,-0.05317 -19.07301,-0.0609c-0.56916,-0.00181 -0.82032,-0.23754 -0.82032,-0.23754z" fill="#30d8de" stroke="#07b0bb" stroke-width="1.25"/><path d="M100.14487,54.27521v-41.96699h0.75753v41.967z" fill="url(#color-12)" stroke="none" stroke-width="0"/><path d="M100.44791,12.38396v-0.68177h10.98415v0.68178z" fill="url(#color-13)" stroke="none" stroke-width="0"/><path d="M100.64928,12.27711c-0.19976,0.20655 -0.4519,0.28679 -0.56312,0.17923c-0.11121,-0.10756 -0.03944,-0.36221 0.16035,-0.56877c0.19976,-0.20655 0.45191,-0.2868 0.56312,-0.17922c0.11121,0.10756 0.03943,0.36222 -0.16034,0.56876z" fill="#f9f8f8" stroke="none" stroke-width="0"/><path d="M41.32782,87.2789c0.25218,0.33017 0.16515,1.17177 0.16515,1.17177l-0.12761,13.18077c0,0 -0.04581,1.15648 -1.38514,1.44185c-1.00794,0.71435 -10.9915,2.91775 -17.14779,0.35068c-5.6175,-2.34239 -7.49736,-9.23169 -7.49736,-13.33505c0,-8.6003 5.84325,-14.97883 12.99638,-15.57223c6.39207,-0.53028 9.48554,0.29889 11.61828,3.11883c0.35144,0.4647 0.22478,1.35851 0.22478,1.35851c0,0 -1.8324,4.12623 -2.52604,4.49987c-0.50284,0.27085 -1.35245,0.31477 -1.35245,0.31477c0,0 -3.4926,-1.77081 -6.31664,-1.56521c-2.70271,0.19675 -4.7329,2.34816 -5.12862,3.29342c-1.42344,3.40019 -0.3696,8.19381 0.98279,9.59927c2.55579,2.65608 7.36365,1.74054 7.46978,1.74573c0.1799,0.00881 0.2098,-2.26804 0.2098,-2.26804c0,0 0.20411,-0.62625 -0.03762,-0.92996c-0.23217,-0.29172 -0.91692,-0.38952 -0.91692,-0.38952l-2.1688,0.0235c0,0 -1.14731,-0.05908 -1.23185,-0.21445c-0.28409,-0.52201 -0.13424,-5.14266 -0.13424,-5.14266c0,0 0.12073,-0.58588 0.32236,-0.7857c0.2401,-0.23793 1.02308,-0.0793 1.02308,-0.0793l9.83876,-0.17429c0,0 0.86771,0.02727 1.1199,0.35744z" fill="#f73ca3" stroke="#e91c88" stroke-width="1.25"/><path d="M15.91012,89.11983c0,0 0.38503,-3.25185 0.75704,-4.47118c0.20547,-0.67349 1.04325,-2.92992 2.43566,-4.65753c1.70007,-2.10932 4.16419,-3.74415 6.52949,-4.66814c3.24388,-1.26719 7.90222,-0.61207 9.32802,-0.24896c3.05847,0.7789 4.50396,3.25071 4.50396,3.25071c0,0 -0.7576,-2.68494 -7.74943,-2.86559c-1.0172,-0.02629 -3.66711,-0.13422 -6.07706,0.76803c-2.2406,0.83885 -4.24828,2.53893 -4.95692,3.39525c-3.02566,3.65623 -4.77072,9.49743 -4.77072,9.49743z" fill="url(#color-14)" stroke="none" stroke-width="0"/><path d="M24.26023,77.00754c-0.32907,0.1471 -0.56881,0.30299 -0.65934,0.10047c-0.09051,-0.20252 0.10287,-0.48591 0.43194,-0.633c0.32907,-0.1471 0.66922,-0.10217 0.75975,0.10034c0.09051,0.20252 -0.2033,0.28512 -0.53235,0.43218z" fill="#f9f8f8" stroke="none" stroke-width="0"/><path d="M22.60783,77.46312c0.23519,0.26364 -0.16534,0.46144 -0.60743,0.83992c-0.44211,0.37847 -1.49459,1.18901 -1.49459,1.18901c0,0 0.7314,-1.04937 1.17351,-1.42786c0.44211,-0.37847 0.82091,-0.72172 0.92852,-0.60108z" fill="#f9f8f8" stroke="none" stroke-width="0"/><path d="M47.35854,101.67261c-0.26568,-0.14289 -2.25374,-2.23625 -2.61816,-5.72011c-0.82807,-7.91642 -0.24409,-19.75395 -0.24409,-19.75395c0,0 0.2833,-0.97643 0.929,-1.14217c1.64191,-0.42149 4.98792,-0.29466 6.05992,-0.19009c1.05409,0.10282 1.26592,0.83553 1.26592,0.83553l-0.06025,12.07578c0,0 -0.33375,8.43506 4.97176,8.59984c4.89744,0.15213 4.46387,-8.72976 4.46387,-8.72976l-0.07761,-11.90149c0,0 0.17142,-0.69403 1.02785,-0.78278c0.9363,-0.09702 4.51569,-0.31956 6.27704,-0.05044c1.01672,0.15535 0.75968,1.28556 0.75968,1.28556c0,0 0.32338,14.63517 0.19015,19.13787c-0.07243,2.44804 -1.04577,4.32899 -1.90751,5.3344c-0.85437,0.99682 -1.91633,4.06192 -10.59566,4.25814c-7.74657,0.17512 -9.36948,-2.67952 -10.4419,-3.25636z" fill="#f73ca3" stroke="#e91c88" stroke-width="1.25"/><path d="M45.92727,75.83464v-0.57245h5.81682v0.57245z" fill="url(#color-15)" stroke="none" stroke-width="0"/><path d="M63.41489,75.91235v-0.57245h5.81682v0.57245z" fill="url(#color-16)" stroke="none" stroke-width="0"/><path d="M45.00193,92.06445v-15.98383h0.68176l-0.37877,15.45355z" fill="url(#color-17)" stroke="none" stroke-width="0"/><path d="M45.69729,76.03042c-0.29731,0.20382 -0.50515,0.40025 -0.63056,0.21729c-0.12543,-0.18295 0.0139,-0.4965 0.31121,-0.7003c0.29731,-0.20382 0.64,-0.22071 0.76541,-0.03777c0.12543,0.18295 -0.14877,0.31697 -0.44607,0.52079z" fill="#f9f8f8" stroke="none" stroke-width="0"/><path d="M62.53806,91.97144v-15.98383h0.68176l-0.37874,15.45355z" fill="url(#color-18)" stroke="none" stroke-width="0"/><path d="M63.15768,76.06766c-0.29731,0.20382 -0.50515,0.40025 -0.63056,0.21729c-0.12543,-0.18295 0.01389,-0.49649 0.31121,-0.70029c0.29731,-0.20382 0.64,-0.22071 0.76542,-0.03777c0.12543,0.18295 -0.14878,0.31697 -0.44608,0.52079z" fill="#f9f8f8" stroke="none" stroke-width="0"/><path d="M83.4738,103.44168c-0.17447,-0.41942 -0.49371,-0.78425 -0.49371,-0.78425l0.01644,-13.46549l-8.62338,-13.3098c0,0 -0.69958,-0.60234 -0.17144,-0.60406c0.21085,-0.00069 0.94221,-0.4356 0.94221,-0.4356l6.44138,0.0189c0,0 0.63159,0.07078 0.84494,0.18672c0.37623,0.20448 1.21595,0.93335 1.21595,0.93335l3.92935,6.12517l4.14221,-6.0496c0,0 0.56711,-0.66519 0.83529,-0.85792c0.24911,-0.17904 1.06413,-0.26045 1.06413,-0.26045l6.25499,-0.00068c0,0 1.06658,0.11638 1.21954,0.31101c0.16139,0.20538 -0.27511,0.89074 -0.27511,0.89074l-8.69962,13.13537l-0.05761,13.30806c0,0 -0.18456,0.63718 -0.36955,0.87884c-0.19458,0.25422 -0.77058,0.61071 -0.77058,0.61071l-6.57386,-0.06598c0,0 -0.79481,-0.38058 -0.87155,-0.56503z" fill="#f73ca3" stroke="#e91c88" stroke-width="1.25"/><path d="M83.49671,102.41615v-13.20235h0.45959l-0.25533,12.76433z" fill="url(#color-19)" stroke="none" stroke-width="0"/><path d="M74.69446,76.16903c0,0 -0.13415,-0.8534 0.15453,-0.88151c0.28867,-0.02811 7.31059,0 7.31059,0v0.57245c0,0 -6.16201,-0.07635 -7.01774,-0.05866c-0.18818,0.00389 -0.44736,0.36768 -0.44736,0.36768z" fill="url(#color-20)" stroke="none" stroke-width="0"/><path d="M75.27175,75.80728c-0.34914,0.08962 -0.61168,0.20297 -0.66684,-0.01189c-0.05517,-0.21483 0.18314,-0.46169 0.53229,-0.55132c0.34914,-0.08962 0.67688,0.01189 0.73202,0.22675c0.05517,0.21483 -0.24836,0.24683 -0.59748,0.33644z" fill="#f9f8f8" stroke="none" stroke-width="0"/><path d="M92.80061,76.2459c0,0 -0.13352,-0.23788 -0.13535,-0.43927c-0.00208,-0.2296 0.13609,-0.42727 0.29624,-0.44224c0.30058,-0.02811 7.61198,0 7.61198,0v0.57245c0,0 -6.41605,-0.07634 -7.30706,-0.05865c-0.19593,0.00389 -0.4658,0.36769 -0.4658,0.36769z" fill="url(#color-21)" stroke="none" stroke-width="0"/><path d="M93.32513,75.78114c-0.34914,0.08962 -0.61168,0.20297 -0.66684,-0.01188c-0.05517,-0.21483 0.18315,-0.4617 0.53228,-0.55132c0.34914,-0.08962 0.67689,0.01188 0.73203,0.22674c0.05517,0.21483 -0.24835,0.24683 -0.59748,0.33644z" fill="#f9f8f8" stroke="none" stroke-width="0"/><path d="M108.73427,76.20941c-0.1742,0.02103 -0.30924,0.0745 -0.31676,-0.1099c-0.00753,-0.1844 0.12761,-0.35093 0.30181,-0.37195c0.1742,-0.02103 0.32153,0.1114 0.32906,0.29578c0.00753,0.1844 -0.13992,0.16501 -0.31412,0.18606z" fill="#f9f8f8" stroke="none" stroke-width="0"/><path d="M119.31757,99.92977c-1.20624,2.22331 -2.81645,3.44964 -6.98963,3.63359c-5.07123,0.22355 -9.39854,-0.58608 -11.38547,-3.63723c-0.33281,-0.51108 2.28234,-3.88253 2.28234,-3.88253c0,0 0.57553,-0.60588 0.96334,-0.78102c0.41341,-0.18669 1.48069,0.25075 1.48069,0.25075c0,0 6.06238,3.1242 6.66479,-0.03117c0.42782,-2.24083 -6.3786,-3.97739 -9.24068,-6.87764c-0.85244,-0.8638 -1.4043,-3.98983 -1.4043,-4.1428c0,-7.94177 5.67786,-9.69283 10.63927,-9.65811c3.40457,0.02383 5.76496,1.00083 7.07869,2.65248c0.74291,0.93402 -1.61098,4.07487 -2.74435,4.8706c-0.25853,0.18151 -1.54435,-0.42223 -1.54435,-0.42223c0,0 -4.94542,-1.35048 -5.44015,-0.13314c-0.91046,2.24043 6.38547,4.23565 9.55756,8.02747c2.70519,3.23367 1.4245,7.65686 0.0822,10.13097z" fill="#f73ca3" stroke="#e91c88" stroke-width="1.25"/><path d="M104.25658,96.31871l-0.11199,-0.44791c0,0 0.27774,-0.16797 0.5039,-0.16797c0.70622,0 2.04754,0.84795 3.41529,1.17576c0.63381,0.15189 1.60592,0.39077 2.46672,0.24283c0.99682,-0.17131 1.84438,-0.74672 1.84438,-0.74672c0,0 -1.04973,0.9149 -2.00079,1.04687c-0.74178,0.10292 -1.72773,0.06036 -2.28958,-0.01866c-0.72908,-0.10253 -2.13726,-0.90713 -3.02688,-1.19367c-0.41224,-0.13278 -0.80107,0.10949 -0.80107,0.10949z" fill="url(#color-22)" stroke="none" stroke-width="0"/><path d="M102.20042,98.58781c0,0 0.58415,-0.98753 0.89178,-1.42755c0.26454,-0.37837 0.8443,-1.05558 0.8443,-1.05558l0.36065,0.15552z" fill="url(#color-23)" stroke="none" stroke-width="0"/><path d="M107.81111,76.0604c0.13044,0.32834 -0.31364,0.37671 -0.85877,0.58051c-0.54513,0.2038 -1.75585,0.82793 -1.75585,0.82793c0,0 0.9911,-0.95867 1.53621,-1.16246c0.54513,-0.20379 1.01872,-0.3962 1.07841,-0.24596z" fill="#f9f8f8" stroke="none" stroke-width="0"/><path d="M104.59009,96.16311c-0.25816,0.12983 -0.44446,0.26345 -0.52435,0.10457c-0.0799,-0.15888 0.06463,-0.3929 0.32278,-0.52274c0.25816,-0.12983 0.5322,-0.10628 0.61209,0.05259c0.0799,0.15888 -0.15237,0.23576 -0.41054,0.36557z" fill="#f9f8f8" stroke="none" stroke-width="0"/></g><g><path d="M445.32415,21.97391c0.03131,-5.79237 -0.21119,-12.48803 0.72817,-13.35627c0.96213,-0.88928 7.0504,-0.61742 13.09465,-0.61452c6.02006,0.00289 11.99643,-0.26676 12.82078,0.61452c0.96271,1.02918 0.72532,7.24909 0.70999,13.43395c-0.01519,6.13051 0.19993,12.22656 -0.70999,13.19906c-0.92845,0.9923 -6.9035,0.76676 -12.89781,0.76313c-6.00271,-0.00364 -11.88267,0.46989 -13.01762,-0.76313c-1.15079,-1.25023 -0.76373,-6.6958 -0.72817,-13.27674z" fill="#f73ca3" stroke="#a11a80" stroke-width="1"/><path d="M454.5455,15.6543c1.58038,-0.93916 8.01499,-0.96366 10.22769,0.54987c3.16149,2.16251 3.00919,7.14681 1.01146,10.04503c-0.75683,1.09798 -1.89884,1.7363 -2.98383,2.45466c-3.83549,1.51917 -10.85443,0.17811 -12.13936,-4.40684c-0.22962,-0.81934 -0.37622,-3.31689 0.4735,-5.14098c0.88925,-1.90895 2.79526,-3.1361 3.41054,-3.50174z" data-paper-data="{&quot;index&quot;:null}" fill="#ffffff" stroke="none" stroke-width="0.5"/><path d="M456.32231,24.8553c-0.97682,0 -0.97682,-0.97682 -0.97682,-0.97682c0,-0.32561 0,-1.04194 0,-1.36755c0,0 0,-0.97682 0.97682,-0.97682c0.97682,0 0.97682,0.97682 0.97682,0.97682c0,0.32561 0,0.65121 0,0.97682v0.39073c0,0 0,0.97682 -0.97682,0.97682z" data-paper-data="{&quot;index&quot;:null}" fill="#000000" stroke="none" stroke-width="0.5"/><path d="M461.82232,24.8553c-0.97683,0 -0.97683,-0.97682 -0.97683,-0.97682c0,-0.32561 0,-1.04194 0,-1.36755c0,0 0,-0.97682 0.97683,-0.97682c0.97683,0 0.97683,0.97682 0.97683,0.97682c0,0.32561 0,0.65122 0,0.97683v0.39073c0,0 0,0.97682 -0.97683,0.97682z" data-paper-data="{&quot;index&quot;:null}" fill="#000000" stroke="none" stroke-width="0.5"/></g></g></g></svg>