<svg version="1.1" xmlns="http://www.w3.org/2000/svg" xmlns:xlink="http://www.w3.org/1999/xlink" width="522.5" height="435.03985" viewBox="0,0,522.5,435.03985"><defs><linearGradient x1="240" y1="-12" x2="240" y2="372" gradientUnits="userSpaceOnUse" id="color-1"><stop offset="0" stop-color="#6142ff"/><stop offset="1" stop-color="#281d6f"/></linearGradient></defs><g transform="translate(20.75,12)"><g data-paper-data="{&quot;isPaintingLayer&quot;:true}" fill-rule="nonzero" stroke-linejoin="miter" stroke-miterlimit="10" stroke-dasharray="" stroke-dashoffset="0" style="mix-blend-mode: normal"><path d="M-11,372v-384h502v384z" fill="url(#color-1)" stroke="none" stroke-width="0" stroke-linecap="butt"/><path d="M175.5,264c0,-35.62236 28.87764,-64.5 64.5,-64.5c35.62237,0 64.5,28.87764 64.5,64.5c0,35.62237 -28.87763,64.5 -64.5,64.5c-35.62236,0 -64.5,-28.87763 -64.5,-64.5z" fill="#f7f6ff" stroke="none" stroke-width="0" stroke-linecap="butt"/><path d="M203.52924,423.03984v-130.83678h72.94153v130.83679z" fill="#ffa617" stroke="none" stroke-width="NaN" stroke-linecap="butt"/><path d="M198.58668,315.29209v-23.08903h82.82665v23.08903c0,0 -0.70704,8.8966 -42.34092,8.8966c-40.33621,0 -40.48573,-8.8966 -40.48573,-8.8966z" fill="#ffb842" stroke="none" stroke-width="NaN" stroke-linecap="butt"/><path d="M281.41332,292.26115c0,6.07219 -18.54137,10.99469 -41.41332,10.99469c-22.87195,0 -41.41332,-4.9225 -41.41332,-10.99469c0,-6.07219 18.54137,-10.99469 41.41332,-10.99469c22.87195,0 41.41332,4.9225 41.41332,10.99469z" fill="#ffcf8a" stroke="none" stroke-width="0" stroke-linecap="butt"/><path d="M255.84587,257.49301c0.64732,5.68547 0.92347,7.80661 0.25108,12.76233c-0.67239,4.95572 -2.11191,7.43159 -3.16919,8.74497c-2.3588,2.93015 -12.74686,4.96115 -20.12765,3.92063c-3.9803,-0.56112 -7.34974,-1.6165 -8.393,-5.1147c-1.04326,-3.49821 -1.89192,-17.49718 -0.91262,-26.08846c0.15516,-7.29097 2.73126,-14.38082 11.057,-16.94051c1.01954,-0.31345 2.09026,-0.34841 3.44031,-0.50031c14.98419,-1.68599 17.07262,16.3526 17.85407,23.21605z" fill="#00c3ff" stroke="#000000" stroke-width="4" stroke-linecap="butt"/><path d="M230.42727,237.19513c-1.5129,0.78531 -1.64777,1.35768 -2.97048,0.36938c-1.54315,-1.03731 -3.57703,-2.97223 -4.04732,-4.73846c-0.28142,-1.05691 -0.76418,-3.42598 1.25358,-2.72592c1.17256,0.40682 1.67639,0.7209 2.40605,0.93025c0.84532,0.36579 2.63657,1.21176 3.53291,0.73305c0.43203,-0.23073 0.28248,-1.30832 0.32783,-1.68854c0.20666,-1.73282 1.26409,-5.21267 3.60565,-3.70542c1.00569,0.89098 2.01755,2.80353 3.25935,3.35558c0.19011,0.08451 1.46542,-0.37489 2.52036,-1.15233c1.10069,-0.81114 1.82301,-2.63325 2.94645,-3.42199c0.71025,-0.49865 0.67473,-0.25579 0.9363,-0.09985c0.40804,0.24325 0.4068,2.51283 0.3641,2.92929c-0.17556,1.71236 -0.25617,5.31693 -1.59157,6.65898c-0.68296,0.68637 -2.19711,0.12037 -3.0198,0.10329c-3.28617,0.13801 -6.14306,0.69802 -9.52341,2.45268z" fill="#ffdc00" stroke="#000000" stroke-width="4" stroke-linecap="butt"/><path d="M230.42727,237.19513c-1.5129,0.78531 -1.64777,1.35768 -2.97048,0.36938c-1.54316,-1.03731 -3.57703,-2.97223 -4.04733,-4.73846c-0.28142,-1.05691 -0.76417,-3.42599 1.25359,-2.72593c1.17256,0.40682 1.67639,0.7209 2.40605,0.93025c0.84532,0.36579 2.63657,1.21176 3.53291,0.73305c0.43203,-0.23073 0.28249,-1.30832 0.32783,-1.68854c0.20667,-1.73281 1.26409,-5.21267 3.60565,-3.70542c1.00569,0.89098 2.01754,2.80354 3.25935,3.35558c0.19011,0.08452 1.46542,-0.37489 2.52036,-1.15233c1.10068,-0.81114 1.82302,-2.63325 2.94645,-3.42199c0.71025,-0.49865 0.67474,-0.25578 0.9363,-0.09985c0.40805,0.24326 0.4068,2.51283 0.3641,2.92929c-0.17556,1.71236 -0.25618,5.31693 -1.59157,6.65899c-0.68296,0.68637 -2.1971,0.12037 -3.0198,0.10329c-3.28618,0.13801 -6.14306,0.69802 -9.52341,2.45268z" fill="#ffdc00" stroke="none" stroke-width="0.5" stroke-linecap="butt"/><path d="M-3.25,146.5l-6,-67.5l500,-16l-11.5,56z" fill="#00b6ff" stroke="#ffffff" stroke-width="2.5" stroke-linecap="butt"/><text transform="translate(79.46622,126.63131) rotate(-3.33702) scale(0.87435,0.87435)" font-size="40" xml:space="preserve" fill="#ffffff" fill-rule="nonzero" stroke="#000000" stroke-width="21" stroke-linecap="butt" stroke-linejoin="miter" stroke-miterlimit="10" stroke-dasharray="" stroke-dashoffset="0" font-family="Handwriting" font-weight="normal" text-anchor="start" style="mix-blend-mode: normal"><tspan x="0" dy="0">C A L I F I C A S T E</tspan></text><text transform="translate(76.96622,124.13131) rotate(-3.33702) scale(0.87435,0.87435)" font-size="40" xml:space="preserve" fill="#ffffff" fill-rule="nonzero" stroke="#ff429e" stroke-width="21" stroke-linecap="butt" stroke-linejoin="miter" stroke-miterlimit="10" stroke-dasharray="" stroke-dashoffset="0" font-family="Handwriting" font-weight="normal" text-anchor="start" style="mix-blend-mode: normal"><tspan x="0" dy="0">C A L I F I C A S T E </tspan></text><path d="M374.81468,106.76256c0.12464,0.30012 0.22216,0.60557 0.28874,0.90964c0.85785,3.91799 -2.80147,5.60427 -5.50565,6.28269c-5.53115,1.38765 -10.61232,-1.76514 -13.55289,-6.06814c0,0 -1.24506,-1.8676 0.39392,-3.2433c-0.48626,-0.94528 -0.58941,-2.171 -0.05958,-3.74183c0.80106,-2.37496 8.1399,-2.05028 9.42955,-1.8637c3.30444,0.47807 8.15235,2.93876 9.02368,6.50273c0.09929,0.40614 0.07236,0.81368 -0.01775,1.22192z" fill="#ff429e" stroke="none" stroke-width="0.5" stroke-linecap="butt"/><text transform="translate(76.96622,124.13131) rotate(-3.33702) scale(0.87435,0.87435)" font-size="40" xml:space="preserve" fill="#ffffff" fill-rule="nonzero" stroke="#ffffff" stroke-width="6" stroke-linecap="butt" stroke-linejoin="miter" stroke-miterlimit="10" stroke-dasharray="" stroke-dashoffset="0" font-family="Handwriting" font-weight="normal" text-anchor="start" style="mix-blend-mode: normal"><tspan x="0" dy="0">C A L I F I C A S T E</tspan></text><path d="M61.25,77l-67,4" fill="none" stroke="#ff429e" stroke-width="30" stroke-linecap="round"/><path d="M36.75,93l-47,3" fill="none" stroke="#000000" stroke-width="20" stroke-linecap="round"/><path d="M405.25,119.5l75,-5.5" fill="none" stroke="#ff429e" stroke-width="30" stroke-linecap="round"/><path d="M442.75,129l49,-3.5" fill="none" stroke="#000000" stroke-width="20" stroke-linecap="round"/><path d="M232.61254,284.01988l1.50912,-3.20215c1.06368,-0.10317 2.51365,-0.38964 2.77093,0.03599c0.21301,0.10684 0.8709,3.95048 0.8709,3.95048c0.39142,0.55317 0.76876,1.11625 1.1425,1.68153c0.44553,3.74358 -1.86449,4.36689 -5.1048,4.34751c-1.37649,-0.00823 -3.9355,-0.12321 -4.6249,-1.60712c-0.8806,-1.89544 3.43625,-5.20623 3.43625,-5.20623z" data-paper-data="{&quot;index&quot;:null}" fill="#00ade2" stroke="#000000" stroke-width="4" stroke-linecap="butt"/><path d="M247.22693,290.45411c-3.23316,0.21618 -5.57677,-0.26565 -5.35948,-4.02938c0.3387,-0.58693 0.68115,-1.17191 1.03824,-1.74783c0,0 0.42319,-3.8765 0.62932,-3.99608c0.23096,-0.44047 1.69565,-0.2426 2.76363,-0.20425l1.70084,3.10456c0,0 4.0181,2.12246 3.74617,4.54169c-0.27193,2.41923 -3.14527,2.23946 -4.51872,2.33129z" fill="#00ade2" stroke="#000000" stroke-width="4" stroke-linecap="butt"/><path d="M250.25232,265.6283c-1.65121,-1.48106 -5.5901,-0.33418 -4.77199,-3.55396c0.50481,-1.98676 -0.04268,-0.87434 1.82203,-4.28243c1.15728,-2.11515 -2.82301,-8.93995 3.89267,-3.96104c6.71568,4.97892 14.24567,6.38366 16.2546,8.52548c2.00893,2.14183 3.33636,3.2485 3.71921,4.68227c0.69919,1.78767 1.33073,6.81646 -1.17493,7.37774c-0.71325,-0.16691 -0.74454,-0.15882 -1.13824,-0.59224c0.11956,0.64893 -0.26315,1.07217 -0.58127,1.3474c-2.15289,1.86273 -3.08938,-0.49707 -3.69996,-2.04857c-0.28218,-0.72583 -0.50227,-1.88348 -1.78584,-2.28328c-1.28357,-0.39979 -2.91045,0.73384 -3.35217,0.75684c-1.75186,-0.81018 -0.83888,-3.06329 -0.25121,-4.88163c0.22048,-0.6822 -8.93289,-1.08657 -8.93289,-1.08657z" data-paper-data="{&quot;index&quot;:null}" fill="#00ade2" stroke="#000000" stroke-width="4" stroke-linecap="butt"/><path d="M220.57212,267.13162c0.69385,1.78053 1.73809,3.9759 0.03703,4.88795c-0.44231,0.00309 -2.13319,-1.03265 -3.39096,-0.55789c-1.25777,0.47477 -1.40923,1.64338 -1.64812,2.38459c-0.51805,1.58479 -1.31379,3.9957 -3.57275,2.26314c-0.33379,-0.25601 -0.74077,-0.65595 -0.65968,-1.31079c-0.36749,0.45586 -0.39919,0.44964 -1.10136,0.65831c-2.53438,-0.41258 -2.20042,-5.46986 -1.60784,-7.29564c0.29765,-1.45385 1.55753,-2.63685 3.43669,-4.89338c1.87916,-2.25653 9.31324,-4.10277 15.7237,-9.46895c6.41047,-5.36618 2.83945,1.68141 4.11942,3.72465c2.06239,3.29223 1.45027,2.21403 2.07132,4.16757c1.00652,3.16594 -2.99314,2.25328 -4.55416,3.82912c0,0 -9.11361,0.94331 -8.8533,1.61133z" fill="#00ade2" stroke="#000000" stroke-width="4" stroke-linecap="butt"/><path d="M233.77272,241.1201c2.02235,-1.2018 10.25644,-1.23315 13.08794,0.70364c4.04562,2.76727 3.85073,9.14547 1.29432,12.8542c-0.96848,1.40504 -2.42987,2.22187 -3.81828,3.14113c-4.90811,1.94402 -13.88996,0.22792 -15.53423,-5.63925c-0.29383,-1.04847 -0.48143,-4.24449 0.60592,-6.57869c1.13793,-2.4428 3.57698,-4.01314 4.36432,-4.48103z" fill="#ffffff" stroke="#000000" stroke-width="4" stroke-linecap="butt"/><path d="M236.04644,252.67113c-1.25,0 -1.25,-1.25 -1.25,-1.25c0,-0.41667 0,-1.33333 0,-1.75c0,0 0,-1.25 1.25,-1.25c1.25,0 1.25,1.25 1.25,1.25c0,0.41667 0,0.83333 0,1.25v0.5c0,0 0,1.25 -1.25,1.25z" fill="#000000" stroke="#000000" stroke-width="4" stroke-linecap="butt"/><path d="M244.04644,252.42113c-1.25,0 -1.25,-1.25 -1.25,-1.25l0.02427,-0.00485c-0.08333,-0.41667 -0.16667,-0.83333 -0.25,-1.25c0,0 -0.24515,-1.22573 0.98058,-1.47087c1.22573,-0.24515 1.47087,0.98058 1.47087,0.98058c0.08333,0.41667 0.16667,0.83333 0.25,1.25l0.02427,0.49515c0,0 0,1.25 -1.25,1.25z" fill="#000000" stroke="#000000" stroke-width="4" stroke-linecap="butt"/><path d="M232.61255,284.01988l1.50912,-3.20215c1.06368,-0.10317 2.51365,-0.38964 2.77093,0.03599c0.21301,0.10684 0.8709,3.95048 0.8709,3.95048c0.39142,0.55317 0.76876,1.11625 1.1425,1.68153c0.44553,3.74358 -1.86449,4.36689 -5.1048,4.34751c-1.37649,-0.00823 -3.9355,-0.12321 -4.6249,-1.60712c-0.8806,-1.89544 3.43625,-5.20623 3.43625,-5.20623z" data-paper-data="{&quot;index&quot;:null}" fill="#00ade2" stroke="none" stroke-width="0.5" stroke-linecap="butt"/><path d="M251.74568,288.56901c-0.59798,1.52305 -3.14529,1.79327 -4.51874,1.8851c-3.23316,0.21618 -5.57677,-0.26565 -5.35948,-4.02938c0.3387,-0.58693 0.68115,-1.17191 1.03824,-1.74783c0,0 0.42319,-3.8765 0.62932,-3.99608c0.23096,-0.44047 1.69565,-0.2426 2.76363,-0.20425l1.70084,3.10456c0,0 4.50999,3.04244 3.74617,4.98788z" fill="#00ade2" stroke="none" stroke-width="0.5" stroke-linecap="butt"/><path d="M250.25233,265.6283c-1.65121,-1.48106 -5.5901,-0.33418 -4.77199,-3.55396c0.50481,-1.98676 -0.04268,-0.87434 1.82203,-4.28243c1.15728,-2.11515 -2.82301,-8.93995 3.89267,-3.96104c6.71568,4.97892 14.24567,6.38366 16.2546,8.52548c2.00893,2.14183 3.33636,3.2485 3.71921,4.68227c0.69919,1.78767 1.33073,6.81646 -1.17493,7.37774c-0.71325,-0.16691 -0.74454,-0.15882 -1.13824,-0.59224c0.11956,0.64893 -0.26315,1.07217 -0.58127,1.3474c-2.15289,1.86273 -3.08938,-0.49707 -3.69996,-2.04857c-0.28218,-0.72583 -0.50227,-1.88348 -1.78584,-2.28328c-1.28357,-0.39979 -2.91045,0.73384 -3.35217,0.75684c-1.75186,-0.81018 -0.83888,-3.06329 -0.25121,-4.88163c0.22048,-0.6822 -8.93289,-1.08657 -8.93289,-1.08657z" data-paper-data="{&quot;index&quot;:null}" fill="#00ade2" stroke="none" stroke-width="0.5" stroke-linecap="butt"/><path d="M220.57213,267.13162c0.69385,1.78053 1.73809,3.9759 0.03703,4.88795c-0.44231,0.00309 -2.13319,-1.03265 -3.39096,-0.55789c-1.25777,0.47477 -1.40923,1.64338 -1.64812,2.38459c-0.51805,1.58479 -1.31379,3.9957 -3.57275,2.26314c-0.33379,-0.25601 -0.74077,-0.65595 -0.65968,-1.31079c-0.36749,0.45586 -0.39919,0.44964 -1.10136,0.65831c-2.53438,-0.41258 -2.20042,-5.46986 -1.60784,-7.29564c0.29765,-1.45385 1.55753,-2.63685 3.43669,-4.89338c1.87916,-2.25653 9.31324,-4.10277 15.7237,-9.46895c6.41047,-5.36618 2.83945,1.68141 4.11942,3.72465c2.06239,3.29223 1.45027,2.21403 2.07132,4.16757c1.00652,3.16594 -2.99314,2.25328 -4.55416,3.82912c0,0 -9.11361,0.94331 -8.8533,1.61133z" fill="#00ade2" stroke="none" stroke-width="0.5" stroke-linecap="butt"/><path d="M237.9918,234.27697c15.13245,-0.71147 17.05864,16.22972 17.85408,23.21604c0.64732,5.68547 0.92347,7.80661 0.25108,12.76233c-0.67239,4.95572 -2.11191,7.43159 -3.16919,8.74497c-2.3588,2.93015 -12.74686,4.96115 -20.12765,3.92063c-3.9803,-0.56112 -7.34974,-1.6165 -8.393,-5.1147c-1.04326,-3.49821 -1.89192,-17.49718 -0.91262,-26.08846c0.15516,-7.29097 2.73126,-14.38082 11.057,-16.94051c1.01954,-0.31345 2.27423,-0.39532 3.44031,-0.50031z" fill="#00c3ff" stroke="none" stroke-width="0.5" stroke-linecap="butt"/><path d="M233.77273,241.1201c2.02235,-1.2018 10.25644,-1.23315 13.08794,0.70364c4.04562,2.76727 3.85073,9.14547 1.29432,12.8542c-0.96848,1.40504 -2.42987,2.22187 -3.81828,3.14113c-4.90811,1.94402 -13.88996,0.22792 -15.53423,-5.63925c-0.29383,-1.04847 -0.48143,-4.24449 0.60592,-6.57869c1.13793,-2.4428 3.57698,-4.01314 4.36432,-4.48103z" fill="#ffffff" stroke="none" stroke-width="0.5" stroke-linecap="butt"/><path d="M236.04645,252.67113c-1.25,0 -1.25,-1.25 -1.25,-1.25c0,-0.41667 0,-1.33333 0,-1.75c0,0 0,-1.25 1.25,-1.25c1.25,0 1.25,1.25 1.25,1.25c0,0.41667 0,0.83333 0,1.25v0.5c0,0 0,1.25 -1.25,1.25z" fill="#000000" stroke="none" stroke-width="0.5" stroke-linecap="butt"/><path d="M244.04645,252.42113c-1.25,0 -1.25,-1.25 -1.25,-1.25l0.02427,-0.00485c-0.08333,-0.41667 -0.16667,-0.83333 -0.25,-1.25c0,0 -0.24515,-1.22573 0.98058,-1.47087c1.22573,-0.24515 1.47087,0.98058 1.47087,0.98058c0.08333,0.41667 0.16667,0.83333 0.25,1.25l0.02427,0.49515c0,0 0,1.25 -1.25,1.25z" fill="#000000" stroke="none" stroke-width="0.5" stroke-linecap="butt"/><path d="M228.1003,234.90016c-0.08877,-0.40459 0.16726,-0.80454 0.57185,-0.8933c0.40459,-0.08877 0.80454,0.16726 0.8933,0.57185c0.08877,0.40459 -0.16726,0.80454 -0.57185,0.8933c-0.40459,0.08877 -0.80454,-0.16726 -0.8933,-0.57185z" fill="#ff9f00" stroke="none" stroke-width="0.5" stroke-linecap="butt"/><path d="M233.6275,232.56133c-0.08877,-0.40459 0.16726,-0.80454 0.57185,-0.8933c0.40459,-0.08877 0.80454,0.16726 0.8933,0.57185c0.08877,0.40459 -0.16726,0.80454 -0.57185,0.8933c-0.40459,0.08877 -0.80454,-0.16726 -0.8933,-0.57185z" fill="#ff9f00" stroke="none" stroke-width="0.5" stroke-linecap="butt"/><path d="M239.29026,232.24033c-0.08877,-0.40459 0.16726,-0.80454 0.57185,-0.8933c0.40459,-0.08877 0.80454,0.16726 0.8933,0.57185c0.08877,0.40459 -0.16726,0.80454 -0.57185,0.8933c-0.40459,0.08877 -0.80454,-0.16726 -0.8933,-0.57185z" fill="#ff9f00" stroke="none" stroke-width="0.5" stroke-linecap="butt"/></g></g></svg>