<svg version="1.1" xmlns="http://www.w3.org/2000/svg" xmlns:xlink="http://www.w3.org/1999/xlink" width="89.83333" height="89.83333" viewBox="0,0,89.83333,89.83333"><g transform="translate(-195.08334,-135.08334)"><g data-paper-data="{&quot;isPaintingLayer&quot;:true}" fill-rule="nonzero" stroke-linecap="butt" stroke-linejoin="miter" stroke-miterlimit="10" stroke-dasharray="" stroke-dashoffset="0" style="mix-blend-mode: normal"><path d="M195.08334,224.91667v-89.83333h89.83333v89.83333z" fill="none" stroke="none" stroke-width="0"/><path d="M230.53118,200.80509c-2.32046,-2.26175 -3.52729,-4.32772 -0.58114,-6.67998c0.66304,-0.13997 1.32711,-0.27585 1.99424,-0.39479c0,0 3.1676,-2.27436 3.39427,-2.20083c0.48206,-0.12233 1.31315,1.09987 1.99796,1.9203l-1.17437,3.33947c0,0 0.74822,5.61166 -1.20979,6.34266c0,0 -3.43544,-1.36603 -4.42117,-2.32683z" fill="#00ade2" stroke="#006280" stroke-width="4"/><path d="M248.83944,203.44161c-0.74036,1.45915 -3.30182,1.48547 -4.67777,1.44603c-3.23905,-0.09282 -5.5261,-0.79573 -4.95123,-4.52164c0.39308,-0.55199 0.78969,-1.10169 1.20003,-1.64097c0,0 0.79057,-3.81855 1.00716,-3.91795c0.27187,-0.41646 1.71105,-0.07996 2.77052,0.05996l1.39734,3.25247c0,0 4.19963,3.45826 3.25395,5.32208z" fill="#00ade2" stroke="#006280" stroke-width="4"/><path d="M250.418,179.06041c-1.64869,-1.48386 -5.58952,-0.34368 -4.76594,-3.56206c0.50818,-1.9859 -0.0412,-0.87441 1.8293,-4.27933c1.16088,-2.11318 -2.80782,-8.94473 3.89939,-3.95443c6.70721,4.99031 14.23481,6.40785 16.24009,8.55309c2.00529,2.14523 3.33084,3.25416 3.71124,4.68858c0.69614,1.78885 1.31914,6.81871 -1.18746,7.37573c-0.71297,-0.16812 -0.74427,-0.16009 -1.13724,-0.59417c0.11845,0.64912 -0.26497,1.07172 -0.58355,1.34641c-2.15606,1.85907 -3.08854,-0.50232 -3.69648,-2.05485c-0.28094,-0.72631 -0.49907,-1.88433 -1.78196,-2.28631c-1.28289,-0.40196 -2.91169,0.7289 -3.35345,0.75114c-1.75048,-0.81315 -0.83367,-3.06471 -0.24291,-4.88205c0.22164,-0.68182 -8.93103,-1.10175 -8.93103,-1.10175z" data-paper-data="{&quot;index&quot;:null}" fill="#00ade2" stroke="#006280" stroke-width="4"/><path d="M220.32555,180.49366c0.36064,1.87661 0.99094,4.22454 -0.84694,4.81416c-0.43559,-0.0769 -1.91145,-1.40116 -3.23431,-1.16152c-1.32287,0.23965 -1.68302,1.36164 -2.05193,2.04747c-0.79593,1.46507 -2.01427,3.69248 -3.92293,1.5802c-0.28202,-0.31212 -0.61003,-0.77902 -0.41192,-1.40843c-0.44382,0.38194 -0.47388,0.37009 -1.2022,0.44843c-2.41809,-0.86381 -1.17565,-5.77746 -0.26288,-7.46608c0.5555,-1.37612 2.00842,-2.31196 4.26445,-4.19172c2.25602,-1.87977 9.90135,-2.35211 17.17605,-6.4714c7.2747,-4.11931 2.48882,2.16687 3.37847,4.40779c1.43345,3.61073 1.02626,2.43968 1.28404,4.47328c0.41778,3.29572 -3.35108,1.67526 -5.17117,2.94303c0,0 -9.13402,-0.71925 -8.99873,-0.0152z" fill="#00ade2" stroke="#006280" stroke-width="4"/><path d="M238.218,148.05088c15.13245,-0.71147 17.05864,16.22972 17.85408,23.21604c0.64732,5.68547 0.92347,7.80661 0.25108,12.76233c-0.67239,4.95572 -2.11191,7.43159 -3.16919,8.74497c-2.3588,2.93015 -12.74686,4.96115 -20.12765,3.92063c-3.9803,-0.56112 -7.34974,-1.6165 -8.393,-5.1147c-1.04326,-3.49821 -1.89192,-17.49718 -0.91262,-26.08846c0.15516,-7.29097 2.73126,-14.38082 11.057,-16.94051c1.01954,-0.31345 2.27423,-0.39532 3.44031,-0.50031z" fill="#00c3ff" stroke="#006280" stroke-width="4"/><path d="M233.99893,155.22734c2.02235,-1.2018 10.25644,-1.23315 13.08794,0.70364c4.04562,2.76727 3.85073,9.14547 1.29432,12.8542c-0.96848,1.40504 -2.42987,2.22187 -3.81828,3.14113c-4.90811,1.94402 -13.88996,0.22792 -15.53423,-5.63925c-0.29383,-1.04847 -0.48143,-4.24449 0.60592,-6.57869c1.13793,-2.4428 3.57698,-4.01314 4.36432,-4.48103z" fill="#ffffff" stroke="#000000" stroke-width="4"/><path d="M237.60598,166.61171c-1.25,0 -1.25,-1.25 -1.25,-1.25c0,-0.41667 0,-1.33333 0,-1.75c0,0 0,-1.25 1.25,-1.25c1.25,0 1.25,1.25 1.25,1.25c0,0.41667 0,0.83333 0,1.25v0.5c0,0 0,1.25 -1.25,1.25z" fill="#000000" stroke="#000000" stroke-width="4"/><path d="M245.60598,166.36171c-1.25,0 -1.25,-1.25 -1.25,-1.25l0.02427,-0.00485c-0.08333,-0.41667 -0.16667,-0.83333 -0.25,-1.25c0,0 -0.24515,-1.22573 0.98058,-1.47087c1.22573,-0.24515 1.47087,0.98058 1.47087,0.98058c0.08333,0.41667 0.16667,0.83333 0.25,1.25l0.02427,0.49515c0,0 0,1.25 -1.25,1.25z" fill="#000000" stroke="#000000" stroke-width="4"/><path d="M230.53118,200.80509c-2.32046,-2.26175 -3.52729,-4.32772 -0.58114,-6.67998c0.66304,-0.13997 1.32711,-0.27585 1.99424,-0.39479c0,0 3.1676,-2.27436 3.39427,-2.20083c0.48206,-0.12233 1.31315,1.09987 1.99796,1.9203l-1.17437,3.33947c0,0 0.74822,5.38856 -1.20979,6.11956c0,0 -3.43544,-1.14293 -4.42117,-2.10373z" fill="#00ade2" stroke="none" stroke-width="0.5"/><path d="M248.83944,203.44161c-0.74036,1.45915 -3.30182,1.48547 -4.67777,1.44603c-3.23905,-0.09282 -5.5261,-0.79573 -4.95123,-4.52164c0.39308,-0.55199 0.78969,-1.10169 1.20003,-1.64097c0,0 0.79057,-3.81855 1.00716,-3.91795c0.27187,-0.41646 1.71105,-0.07996 2.77052,0.05996l1.39734,3.25247c0,0 4.19963,3.45826 3.25395,5.32208z" fill="#00ade2" stroke="none" stroke-width="0.5"/><path d="M250.418,179.06041c-1.64869,-1.48386 -5.58952,-0.34368 -4.76594,-3.56206c0.50818,-1.9859 -0.0412,-0.87441 1.8293,-4.27933c1.16088,-2.11318 -2.80782,-8.94473 3.89939,-3.95443c6.70721,4.99031 14.23481,6.40785 16.24009,8.55309c2.00529,2.14523 3.33084,3.25416 3.71124,4.68858c0.69614,1.78885 1.31914,6.81871 -1.18746,7.37573c-0.71297,-0.16812 -0.74427,-0.16009 -1.13724,-0.59417c0.11845,0.64912 -0.26497,1.07172 -0.58355,1.34641c-2.15606,1.85907 -3.08854,-0.50232 -3.69648,-2.05485c-0.28094,-0.72631 -0.49907,-1.88433 -1.78196,-2.28631c-1.28289,-0.40196 -2.91169,0.7289 -3.35345,0.75114c-1.75048,-0.81315 -0.83367,-3.06471 -0.24291,-4.88205c0.22164,-0.68182 -8.93103,-1.10175 -8.93103,-1.10175z" data-paper-data="{&quot;index&quot;:null}" fill="#00ade2" stroke="none" stroke-width="0.5"/><path d="M220.32555,180.49366c0.36064,1.87661 0.99094,4.22454 -0.84694,4.81416c-0.43559,-0.0769 -1.91145,-1.40116 -3.23431,-1.16152c-1.32287,0.23965 -1.68302,1.36164 -2.05193,2.04747c-0.79593,1.46507 -2.01427,3.69248 -3.92293,1.5802c-0.28202,-0.31212 -0.61003,-0.77902 -0.41192,-1.40843c-0.44382,0.38194 -0.47388,0.37009 -1.2022,0.44843c-2.41809,-0.86381 -1.17565,-5.77746 -0.26288,-7.46608c0.5555,-1.37612 2.00842,-2.31196 4.26445,-4.19172c2.25602,-1.87977 9.90135,-2.35211 17.17605,-6.4714c7.2747,-4.11931 2.48882,2.16687 3.37847,4.40779c1.43345,3.61073 1.02626,2.43968 1.28404,4.47328c0.41778,3.29572 -3.35108,1.67526 -5.17117,2.94303c0,0 -9.13402,-0.71925 -8.99873,-0.0152z" fill="#00ade2" stroke="none" stroke-width="0.5"/><path d="M238.218,148.05088c15.13245,-0.71147 17.05864,16.22972 17.85408,23.21604c0.64732,5.68547 0.92347,7.80661 0.25108,12.76233c-0.67239,4.95572 -2.11191,7.43159 -3.16919,8.74497c-2.3588,2.93015 -12.74686,4.96115 -20.12765,3.92063c-3.9803,-0.56112 -7.34974,-1.6165 -8.393,-5.1147c-1.04326,-3.49821 -1.89192,-17.49718 -0.91262,-26.08846c0.15516,-7.29097 2.73126,-14.38082 11.057,-16.94051c1.01954,-0.31345 2.27423,-0.39532 3.44031,-0.50031z" fill="#00c3ff" stroke="none" stroke-width="0.5"/><path d="M233.99893,155.22734c2.02235,-1.2018 10.25644,-1.23315 13.08794,0.70364c4.04562,2.76727 3.85073,9.14547 1.29432,12.8542c-0.96848,1.40504 -2.42987,2.22187 -3.81828,3.14113c-4.90811,1.94402 -13.88996,0.22792 -15.53423,-5.63925c-0.29383,-1.04847 -0.48143,-4.24449 0.60592,-6.57869c1.13793,-2.4428 3.57698,-4.01314 4.36432,-4.48103z" fill="#ffffff" stroke="none" stroke-width="0.5"/><path d="M237.60598,166.61171c-1.25,0 -1.25,-1.25 -1.25,-1.25c0,-0.41667 0,-1.33333 0,-1.75c0,0 0,-1.25 1.25,-1.25c1.25,0 1.25,1.25 1.25,1.25c0,0.41667 0,0.83333 0,1.25v0.5c0,0 0,1.25 -1.25,1.25z" fill="#000000" stroke="none" stroke-width="0.5"/><path d="M245.60598,166.36171c-1.25,0 -1.25,-1.25 -1.25,-1.25l0.02427,-0.00485c-0.08333,-0.41667 -0.16667,-0.83333 -0.25,-1.25c0,0 -0.24515,-1.22573 0.98058,-1.47087c1.22573,-0.24515 1.47087,0.98058 1.47087,0.98058c0.08333,0.41667 0.16667,0.83333 0.25,1.25l0.02427,0.49515c0,0 0,1.25 -1.25,1.25z" fill="#000000" stroke="none" stroke-width="0.5"/></g></g></svg>