<svg version="1.1" xmlns="http://www.w3.org/2000/svg" xmlns:xlink="http://www.w3.org/1999/xlink" width="700.05976" height="473.97229" viewBox="0,0,700.05976,473.97229"><defs><radialGradient cx="150.48048" cy="164.2337" r="260.5105" gradientUnits="userSpaceOnUse" id="color-1"><stop offset="0" stop-color="#c5f7ff"/><stop offset="1" stop-color="#c5f7ff" stop-opacity="0"/></radialGradient><linearGradient x1="168.00013" y1="90.65817" x2="168.00013" y2="343.34193" gradientUnits="userSpaceOnUse" id="color-2"><stop offset="0" stop-color="#03b9ff"/><stop offset="1" stop-color="#a8e6ff"/></linearGradient><radialGradient cx="137.30856" cy="252.39574" r="25.72072" gradientUnits="userSpaceOnUse" id="color-3"><stop offset="0" stop-color="#f7f7f7"/><stop offset="1" stop-color="#f7f7f7" stop-opacity="0"/></radialGradient><radialGradient cx="171.60444" cy="271.30861" r="25.72071" gradientUnits="userSpaceOnUse" id="color-4"><stop offset="0" stop-color="#f7f7f7"/><stop offset="1" stop-color="#f7f7f7" stop-opacity="0"/></radialGradient><radialGradient cx="118.39579" cy="286.69149" r="25.72072" gradientUnits="userSpaceOnUse" id="color-5"><stop offset="0" stop-color="#f7f7f7"/><stop offset="1" stop-color="#f7f7f7" stop-opacity="0"/></radialGradient><radialGradient cx="152.69144" cy="305.60436" r="25.72071" gradientUnits="userSpaceOnUse" id="color-6"><stop offset="0" stop-color="#f7f7f7"/><stop offset="1" stop-color="#f7f7f7" stop-opacity="0"/></radialGradient><radialGradient cx="145" cy="279.00005" r="10.92823" gradientUnits="userSpaceOnUse" id="color-7"><stop offset="0" stop-color="#f7f7f7"/><stop offset="1" stop-color="#f7f7f7" stop-opacity="0"/></radialGradient><radialGradient cx="137.30856" cy="252.39574" r="25.72072" gradientUnits="userSpaceOnUse" id="color-8"><stop offset="0" stop-color="#f7f7f7"/><stop offset="1" stop-color="#f7f7f7" stop-opacity="0"/></radialGradient><radialGradient cx="171.60444" cy="271.30861" r="25.72071" gradientUnits="userSpaceOnUse" id="color-9"><stop offset="0" stop-color="#f7f7f7"/><stop offset="1" stop-color="#f7f7f7" stop-opacity="0"/></radialGradient><radialGradient cx="118.39579" cy="286.69149" r="25.72072" gradientUnits="userSpaceOnUse" id="color-10"><stop offset="0" stop-color="#f7f7f7"/><stop offset="1" stop-color="#f7f7f7" stop-opacity="0"/></radialGradient><radialGradient cx="152.69144" cy="305.60436" r="25.72071" gradientUnits="userSpaceOnUse" id="color-11"><stop offset="0" stop-color="#f7f7f7"/><stop offset="1" stop-color="#f7f7f7" stop-opacity="0"/></radialGradient><radialGradient cx="145" cy="279.00005" r="10.92823" gradientUnits="userSpaceOnUse" id="color-12"><stop offset="0" stop-color="#f7f7f7"/><stop offset="1" stop-color="#f7f7f7" stop-opacity="0"/></radialGradient><radialGradient cx="145" cy="279.00005" r="6.15277" gradientUnits="userSpaceOnUse" id="color-13"><stop offset="0" stop-color="#f7f7f7"/><stop offset="1" stop-color="#f7f7f7" stop-opacity="0"/></radialGradient><radialGradient cx="122.94852" cy="262.24665" r="25.72072" gradientUnits="userSpaceOnUse" id="color-14"><stop offset="0" stop-color="#f7f7f7"/><stop offset="1" stop-color="#f7f7f7" stop-opacity="0"/></radialGradient><radialGradient cx="161.7534" cy="256.94845" r="25.72072" gradientUnits="userSpaceOnUse" id="color-15"><stop offset="0" stop-color="#f7f7f7"/><stop offset="1" stop-color="#f7f7f7" stop-opacity="0"/></radialGradient><radialGradient cx="128.24669" cy="301.05163" r="25.72072" gradientUnits="userSpaceOnUse" id="color-16"><stop offset="0" stop-color="#f7f7f7"/><stop offset="1" stop-color="#f7f7f7" stop-opacity="0"/></radialGradient><radialGradient cx="167.05167" cy="295.75336" r="25.72072" gradientUnits="userSpaceOnUse" id="color-17"><stop offset="0" stop-color="#f7f7f7"/><stop offset="1" stop-color="#f7f7f7" stop-opacity="0"/></radialGradient><radialGradient cx="145" cy="279.00005" r="10.92822" gradientUnits="userSpaceOnUse" id="color-18"><stop offset="0" stop-color="#f7f7f7"/><stop offset="1" stop-color="#f7f7f7" stop-opacity="0"/></radialGradient><radialGradient cx="122.94852" cy="262.24665" r="25.72072" gradientUnits="userSpaceOnUse" id="color-19"><stop offset="0" stop-color="#f7f7f7"/><stop offset="1" stop-color="#f7f7f7" stop-opacity="0"/></radialGradient><radialGradient cx="161.7534" cy="256.94845" r="25.72072" gradientUnits="userSpaceOnUse" id="color-20"><stop offset="0" stop-color="#f7f7f7"/><stop offset="1" stop-color="#f7f7f7" stop-opacity="0"/></radialGradient><radialGradient cx="128.24669" cy="301.05163" r="25.72072" gradientUnits="userSpaceOnUse" id="color-21"><stop offset="0" stop-color="#f7f7f7"/><stop offset="1" stop-color="#f7f7f7" stop-opacity="0"/></radialGradient><radialGradient cx="167.05167" cy="295.75336" r="25.72072" gradientUnits="userSpaceOnUse" id="color-22"><stop offset="0" stop-color="#f7f7f7"/><stop offset="1" stop-color="#f7f7f7" stop-opacity="0"/></radialGradient><radialGradient cx="145" cy="279.00005" r="10.92822" gradientUnits="userSpaceOnUse" id="color-23"><stop offset="0" stop-color="#f7f7f7"/><stop offset="1" stop-color="#f7f7f7" stop-opacity="0"/></radialGradient><radialGradient cx="145" cy="279.00005" r="6.15277" gradientUnits="userSpaceOnUse" id="color-24"><stop offset="0" stop-color="#f7f7f7"/><stop offset="1" stop-color="#f7f7f7" stop-opacity="0"/></radialGradient></defs><g transform="translate(110.02983,72.75244)"><g data-paper-data="{&quot;isPaintingLayer&quot;:true}" fill-rule="nonzero" stroke-linecap="butt" stroke-linejoin="miter" stroke-miterlimit="10" stroke-dasharray="" stroke-dashoffset="0" style="mix-blend-mode: normal"><path d="M-18.07818,372.19176v-424.92492h608.10811v424.92492z" fill="#00aaff" stroke="none" stroke-width="0"/><path d="M-2.56724,365.43925v-278.03729c0,0 80.52968,118.99385 98.50133,90.09009c23.05868,-37.08521 111.58252,-122.43795 127.97315,-10.83601c3.96743,27.0138 67.37255,9.70328 85.40712,-11.20627c98.31792,-113.99127 213.64393,-68.04781 213.64393,-68.04781v278.03729z" fill="#3385ff" stroke="none" stroke-width="0"/><path d="M410.9912,164.2337c0,130.88384 -116.63454,236.98615 -260.51051,236.98615c-143.87598,0 -260.51051,-106.10232 -260.51051,-236.98615c0,-130.88384 116.63454,-236.98614 260.51051,-236.98614c143.87599,0 260.51051,106.10232 260.51051,236.98615z" fill="url(#color-1)" stroke="none" stroke-width="0"/><path d="M29.01481,336.25359c-10.2069,-8.41538 -8.19816,-60.26117 -7.81634,-119.48853c0.33609,-52.13036 -2.267,-112.39018 7.81634,-120.20419c10.32773,-8.00337 75.68104,-5.55667 140.56181,-5.53058c64.62108,0.02601 128.77321,-2.40079 137.62206,5.53058c10.33406,9.26245 7.78577,65.2406 7.62122,120.9033c-0.16311,55.17356 2.14612,110.037 -7.62122,118.78933c-9.96625,8.93054 -74.10419,6.90071 -138.4489,6.86804c-64.43482,-0.03276 -129.07694,1.91904 -139.73496,-6.86804z" fill="url(#color-2)" stroke="#000000" stroke-width="12.5"/><path d="M-1.94659,66.98281v-50.27582c0,0 285.33373,-0.26407 291.42407,0c4.67347,0.20263 20.10022,50.22043 14.82859,50.27582c-5.17289,0.05435 -306.25266,0 -306.25266,0z" data-paper-data="{&quot;index&quot;:null}" fill="#000000" stroke="#000000" stroke-width="2.5"/><path d="M-2.82553,64.05294v-50.27582c0,0 282.11093,-0.26407 288.20127,0c4.67347,0.20263 20.10022,50.22043 14.82859,50.27582c-5.17289,0.05435 -303.02986,0 -303.02986,0z" data-paper-data="{&quot;index&quot;:null}" fill="#ff00ad" stroke="#ffffff" stroke-width="1.5"/><text transform="translate(19.98478,49.09978) scale(0.70008,0.70008)" font-size="40" xml:space="preserve" data-paper-data="{&quot;index&quot;:null}" fill="#ca008a" fill-rule="nonzero" stroke="#ca008a" stroke-width="7" stroke-linecap="butt" stroke-linejoin="miter" stroke-miterlimit="10" stroke-dasharray="" stroke-dashoffset="0" font-family="Handwriting" font-weight="normal" text-anchor="start" style="mix-blend-mode: normal"><tspan x="0" dy="0">SALTOS DE ARENA</tspan></text><text transform="translate(22.9848,45.58526) scale(0.68578,0.68578)" font-size="40" xml:space="preserve" data-paper-data="{&quot;index&quot;:null}" fill="#ffffff" fill-rule="nonzero" stroke="#ffffff" stroke-width="7" stroke-linecap="butt" stroke-linejoin="miter" stroke-miterlimit="10" stroke-dasharray="" stroke-dashoffset="0" font-family="Handwriting" font-weight="normal" text-anchor="start" style="mix-blend-mode: normal"><tspan x="0" dy="0">SALTOS DE ARENA</tspan></text><path d="M378.06168,160.53725c-2.82288,-0.95529 -2.26733,-6.84063 -2.16173,-13.56391c0.09295,-5.91765 -0.62697,-12.75813 2.16173,-13.64515c2.85629,-0.90851 20.93076,-0.63077 38.87453,-0.62781c17.87195,0.00296 35.6142,-0.27253 38.06149,0.62781c2.85805,1.05144 2.15328,7.40588 2.10777,13.72451c-0.04511,6.2631 0.59354,12.49101 -2.10777,13.48455c-2.75632,1.01377 -20.49465,0.78334 -38.29016,0.77963c-17.82044,-0.00372 -35.69821,0.21785 -38.64585,-0.77963z" fill="#007e91" stroke="#000000" stroke-width="0"/><path d="M373.06168,155.53725c-2.82287,-0.95528 -2.26733,-6.84063 -2.16173,-13.56391c0.09295,-5.91765 -0.62697,-12.75813 2.16173,-13.64515c2.85629,-0.90851 20.93075,-0.63077 38.87452,-0.62781c17.87195,0.00295 35.61421,-0.27253 38.06149,0.62781c2.85804,1.05144 2.15327,7.40588 2.10777,13.72451c-0.04511,6.26311 0.59354,12.49101 -2.10777,13.48454c-2.75632,1.01376 -20.49465,0.78334 -38.29017,0.77964c-17.82044,-0.00372 -35.69821,0.21784 -38.64585,-0.77964z" fill="#29f376" stroke="#000000" stroke-width="0"/><text transform="translate(377.00017,147.25) scale(0.40037,0.34832)" font-size="40" xml:space="preserve" fill="#ffffff" fill-rule="nonzero" stroke="#ffffff" stroke-width="1" stroke-linecap="butt" stroke-linejoin="miter" stroke-miterlimit="10" stroke-dasharray="" stroke-dashoffset="0" font-family="Sans Serif" font-weight="normal" text-anchor="start" style="mix-blend-mode: normal"><tspan x="0" dy="0">CARRERA</tspan></text><text transform="translate(339.48486,185.01764) scale(0.33192,0.33192)" font-size="40" xml:space="preserve" data-paper-data="{&quot;index&quot;:null}" fill="#007e91" fill-rule="nonzero" stroke="#007e91" stroke-width="7" stroke-linecap="butt" stroke-linejoin="miter" stroke-miterlimit="10" stroke-dasharray="" stroke-dashoffset="0" font-family="Handwriting" font-weight="normal" text-anchor="start" style="mix-blend-mode: normal"><tspan x="0" dy="0">COMO JUGAR</tspan></text><text transform="translate(340.48486,182.51764) scale(0.33192,0.33192)" font-size="40" xml:space="preserve" data-paper-data="{&quot;index&quot;:null}" fill="#ffffff" fill-rule="nonzero" stroke="#ffffff" stroke-width="7" stroke-linecap="butt" stroke-linejoin="miter" stroke-miterlimit="10" stroke-dasharray="" stroke-dashoffset="0" font-family="Handwriting" font-weight="normal" text-anchor="start" style="mix-blend-mode: normal"><tspan x="0" dy="0">COMO JUGAR</tspan></text><text transform="translate(340.25017,208.48751) scale(0.30625,0.30625)" font-size="40" xml:space="preserve" fill="#007e91" fill-rule="nonzero" stroke="none" stroke-width="1" stroke-linecap="butt" stroke-linejoin="miter" stroke-miterlimit="10" stroke-dasharray="" stroke-dashoffset="0" font-family="Sans Serif" font-weight="normal" text-anchor="start" style="mix-blend-mode: normal"><tspan x="0" dy="0">Saltea los obstáculos</tspan><tspan x="0" dy="48px">y llega hasta la meta</tspan><tspan x="0" dy="48px">para clasificarte al</tspan><tspan x="0" dy="48px">siguiente nivel</tspan></text><text transform="translate(339.25017,207.48751) scale(0.30625,0.30625)" font-size="40" xml:space="preserve" fill="#ffffff" fill-rule="nonzero" stroke="none" stroke-width="1" stroke-linecap="butt" stroke-linejoin="miter" stroke-miterlimit="10" stroke-dasharray="" stroke-dashoffset="0" font-family="Sans Serif" font-weight="normal" text-anchor="start" style="mix-blend-mode: normal"><tspan x="0" dy="0">Saltea los obstáculos</tspan><tspan x="0" dy="48px">y llega hasta la meta</tspan><tspan x="0" dy="48px">para clasificarte al</tspan><tspan x="0" dy="48px">siguiente nivel</tspan></text><g><path d="M92.68013,192.10559c-1.54381,1.24064 -4.38245,-0.00676 -5.88059,-0.73592c-3.52671,-1.71647 -5.69926,-3.63153 -3.20841,-7.45508c0.70869,-0.41302 1.42009,-0.82173 2.14147,-1.21214c0,0 2.77494,-3.81825 3.06338,-3.81997c0.50742,-0.32392 1.92729,0.76444 3.02625,1.44676l-0.07938,4.28412c0,0 2.90925,5.90753 0.93728,7.49224z" fill="#00ade2" stroke="#000000" stroke-width="6.5"/><path d="M111.05186,187.16452c-0.47287,1.92326 -3.48555,2.65647 -5.11858,2.98716c-3.84421,0.7785 -6.73328,0.57673 -7.0769,-3.97361c0.31212,-0.75853 0.62902,-1.51535 0.96496,-2.26364c0,0 -0.11472,-4.7187 0.11338,-4.89527c0.20636,-0.56552 1.99536,-0.56332 3.28281,-0.68879l2.53904,3.45154c0,0 5.89929,2.92595 5.29528,5.38259z" fill="#00ade2" stroke="#000000" stroke-width="6.5"/><path d="M109.56882,163.63234c-2.39222,-1.21892 -6.64313,1.34787 -6.68762,-2.67303c-0.02747,-2.48108 -0.32189,-1.00951 0.79933,-5.57623c0.69586,-2.83423 -6.08305,-9.57967 3.32149,-5.84435c9.40455,3.73533 18.6499,3.03638 21.66612,4.91696c3.01622,1.88059 4.91326,2.76225 5.80706,4.32036c1.37394,1.87369 3.6769,7.55983 0.92042,8.99578c-0.88626,0.02661 -0.92034,0.0458 -1.51571,-0.33873c0.34171,0.72191 0.02567,1.33606 -0.26086,1.75696c-1.93901,2.84863 -3.76851,0.37948 -4.96534,-1.2455c-0.55585,-0.76129 -1.1734,-2.04703 -2.79924,-2.11545c-1.62584,-0.06841 -3.17631,1.76372 -3.68588,1.92801c-2.30129,-0.40282 -1.93413,-3.32245 -1.81228,-5.63228c0.04573,-0.86661 -10.78748,1.50752 -10.78748,1.50752z" data-paper-data="{&quot;index&quot;:null}" fill="#00ade2" stroke="#000000" stroke-width="6.5"/><path d="M72.90025,162.8048c0.83986,2.1552 2.10383,4.81254 0.04482,5.91651c-0.53539,0.00374 -2.58207,-1.24995 -4.10451,-0.67528c-1.52243,0.57468 -1.70577,1.98919 -1.99493,2.88637c-0.62707,1.91827 -1.59025,4.8365 -4.32455,2.73938c-0.40402,-0.30988 -0.89665,-0.79398 -0.7985,-1.58662c-0.44482,0.55178 -0.48319,0.54425 -1.33311,0.79683c-3.06768,-0.49939 -2.66345,-6.62087 -1.94618,-8.83084c0.36028,-1.75979 1.88528,-3.19172 4.15987,-5.92308c2.27459,-2.73136 11.27299,-4.9661 19.03239,-11.46146c7.75941,-6.49537 3.43695,2.03522 4.98626,4.50842c2.49637,3.985 1.75545,2.67991 2.50718,5.04454c1.21832,3.83214 -3.62297,2.72743 -5.51247,4.63488c0,0 -11.03136,1.14181 -10.71628,1.9504z" fill="#00ade2" stroke="#000000" stroke-width="6.5"/><path d="M115.59656,151.54146c0.78353,6.88184 1.11779,9.44933 0.30392,15.44787c-0.81388,5.99854 -2.55631,8.9954 -3.83608,10.58514c-2.85515,3.54673 -15.42914,6.00511 -24.36305,4.74564c-4.81786,-0.67919 -8.89631,-1.95666 -10.15911,-6.19097c-1.26279,-4.23433 -2.29003,-21.17905 -1.10466,-31.57817c0.18781,-8.82519 3.306,-17.40693 13.38369,-20.50526c0.73429,-0.22576 2.52357,-0.51455 4.16424,-0.60559c17.32629,-0.96151 20.64822,19.6449 21.61105,28.10133z" fill="#00c3ff" stroke="#000000" stroke-width="6.5"/><path d="M92.68017,192.10559c-1.54381,1.24064 -4.38245,-0.00676 -5.88059,-0.73592c-3.52671,-1.71647 -5.69926,-3.63153 -3.20842,-7.45508c0.70869,-0.41302 1.4201,-0.82173 2.14148,-1.21214c0,0 2.77494,-3.81825 3.06338,-3.81997c0.50742,-0.32392 1.92729,0.76444 3.02625,1.44676l-0.07938,4.28412c0,0 2.90925,5.90753 0.93729,7.49224z" fill="#00ade2" stroke="none" stroke-width="0.5"/><path d="M111.05189,187.16452c-0.47287,1.92326 -3.48555,2.65647 -5.11858,2.98716c-3.84421,0.7785 -6.73328,0.57673 -7.0769,-3.97361c0.31212,-0.75853 0.62902,-1.51535 0.96496,-2.26364c0,0 -0.11472,-4.7187 0.11338,-4.89527c0.20636,-0.56552 1.99536,-0.56332 3.28281,-0.68879l2.53904,3.45154c0,0 5.89929,2.92595 5.29528,5.38259z" fill="#00ade2" stroke="none" stroke-width="0.5"/><path d="M109.56882,163.63234c-2.39222,-1.21892 -6.64313,1.34787 -6.68762,-2.67303c-0.02747,-2.48108 -0.32189,-1.00951 0.79933,-5.57623c0.69586,-2.83423 -6.08305,-9.57967 3.32149,-5.84435c9.40455,3.73533 18.6499,3.03638 21.66612,4.91696c3.01622,1.88059 4.91325,2.76225 5.80706,4.32036c1.37394,1.87369 3.67691,7.55983 0.92042,8.99578c-0.88626,0.02661 -0.92035,0.0458 -1.51572,-0.33873c0.34171,0.72191 0.02568,1.33606 -0.26085,1.75696c-1.93901,2.84863 -3.76851,0.37948 -4.96534,-1.2455c-0.55585,-0.76129 -1.1734,-2.04703 -2.79924,-2.11545c-1.62584,-0.06841 -3.17631,1.76372 -3.68588,1.92801c-2.30129,-0.40282 -1.93413,-3.32245 -1.81228,-5.63228c0.04573,-0.86661 -10.78748,1.50752 -10.78748,1.50752z" data-paper-data="{&quot;index&quot;:null}" fill="#00ade2" stroke="none" stroke-width="0.5"/><path d="M72.90025,162.8048c0.83986,2.1552 2.10383,4.81254 0.04482,5.91651c-0.53539,0.00374 -2.58208,-1.24995 -4.10451,-0.67528c-1.52243,0.57468 -1.70577,1.98919 -1.99492,2.88637c-0.62707,1.91827 -1.59025,4.8365 -4.32455,2.73938c-0.40402,-0.30988 -0.89665,-0.79398 -0.7985,-1.58662c-0.44482,0.55178 -0.48319,0.54425 -1.33311,0.79683c-3.06768,-0.49939 -2.66345,-6.62087 -1.94618,-8.83084c0.36028,-1.75979 1.88528,-3.19172 4.15986,-5.92308c2.27459,-2.73136 11.273,-4.9661 19.03239,-11.46146c7.75941,-6.49537 3.43695,2.03522 4.98626,4.50842c2.49637,3.985 1.75545,2.67991 2.50718,5.04454c1.21832,3.83214 -3.62297,2.72743 -5.51247,4.63488c0,0 -11.03136,1.14181 -10.71628,1.9504z" fill="#00ade2" stroke="none" stroke-width="0.5"/><path d="M93.98549,123.44014c18.31673,-0.86118 20.64824,19.64489 21.61107,28.10132c0.78353,6.88184 1.11779,9.44933 0.30392,15.44787c-0.81388,5.99854 -2.55631,8.9954 -3.83608,10.58515c-2.85515,3.54673 -15.42914,6.00511 -24.36305,4.74564c-4.81786,-0.67919 -8.89631,-1.95666 -10.15911,-6.19097c-1.26279,-4.23433 -2.29003,-21.17905 -1.10466,-31.57817c0.18781,-8.82519 3.306,-17.40693 13.38369,-20.50526c1.23408,-0.3794 2.7528,-0.47851 4.16424,-0.60559z" fill="#00c3ff" stroke="none" stroke-width="0.5"/><path d="M88.87862,131.72323c2.44791,-1.45469 12.41467,-1.49264 15.842,0.8517c4.89692,3.34958 4.66103,11.06992 1.56668,15.55907c-1.17227,1.7007 -2.94118,2.68941 -4.62175,3.80211c-5.94091,2.3531 -16.81278,0.27588 -18.80305,-6.8259c-0.35566,-1.26909 -0.58273,-5.13765 0.73342,-7.96303c1.37738,-2.95683 4.32967,-4.85761 5.28269,-5.42396z" fill="#ffffff" stroke="none" stroke-width="0.5"/><path d="M93.24472,145.90667c-1.51303,0 -1.51303,-1.51303 -1.51303,-1.51303c0,-0.50435 0,-1.61389 0,-2.11825c0,0 0,-1.51304 1.51303,-1.51304c1.51303,0 1.51304,1.51304 1.51304,1.51304c0,0.50435 0,1.00868 0,1.51303v0.60522c0,0 -0.00001,1.51303 -1.51304,1.51303z" fill="#000000" stroke="none" stroke-width="0.5"/><path d="M102.92813,145.60405c-1.51303,0 -1.51303,-1.51303 -1.51303,-1.51303l0.02937,-0.00587c-0.10086,-0.50435 -0.20174,-1.00868 -0.3026,-1.51303c0,0 -0.29674,-1.48366 1.18692,-1.78039c1.48365,-0.29674 1.78038,1.18692 1.78038,1.18692c0.10086,0.50435 0.20175,1.00868 0.30261,1.51303l0.02937,0.59935c0,0 0,1.51303 -1.51303,1.51303z" fill="#000000" stroke="none" stroke-width="0.5"/></g><g><g stroke-width="0"><path d="M144.75466,283.47767c-3.61295,0.34958 0.46102,2.28356 -1.80843,-4.40346c-3.62196,-10.67223 -24.48425,-27.42686 -25.69151,-39.91918c-0.50716,-5.24792 7.29156,-11.16522 10.10891,-12.12139c2.86154,-0.97116 13.75262,-1.0177 16.64423,3.56557c6.73232,10.67091 -0.46511,36.44955 3.13296,47.05145c0,0 2.18931,5.38426 -2.38617,5.82701z" fill="url(#color-3)" stroke="#000000"/><path d="M140.52247,278.75462c-0.34957,-3.61295 -2.28356,0.46102 4.40345,-1.80843c10.67224,-3.62196 27.42686,-24.48425 39.91919,-25.69151c5.24792,-0.50716 11.16522,7.29156 12.12139,10.10891c0.97116,2.86154 1.0177,13.75262 -3.56557,16.64423c-10.67091,6.73232 -36.44955,-0.46511 -47.05145,3.13296c0,0 -5.38426,2.18932 -5.827,-2.38617z" fill="url(#color-4)" stroke="#000000"/><path d="M149.47762,279.24541c0.34957,3.61295 2.28356,-0.46102 -4.40345,1.80843c-10.67223,3.62196 -27.42686,24.48425 -39.91919,25.69151c-5.24792,0.50716 -11.16522,-7.29156 -12.12138,-10.10891c-0.97115,-2.86154 -1.0177,-13.75262 3.56557,-16.64423c10.67091,-6.73232 36.44955,0.46511 47.05145,-3.13296c0,0 5.38426,-2.18932 5.827,2.38617z" fill="url(#color-5)" stroke="#000000"/><path d="M145.24543,274.52243c3.61295,-0.34958 -0.46102,-2.28356 1.80843,4.40346c3.62196,10.67224 24.48425,27.42686 25.69151,39.91919c0.50716,5.24792 -7.29157,11.16522 -10.10891,12.12138c-2.86154,0.97116 -13.75262,1.0177 -16.64423,-3.56557c-6.73232,-10.67091 0.46511,-36.44955 -3.13296,-47.05145c0,0 -2.18931,-5.38426 2.38617,-5.82701z" fill="url(#color-6)" stroke="#000000"/><path d="M149.83328,269.20081c5.41195,2.66931 7.63528,9.22047 4.96597,14.63242c-2.66932,5.41195 -9.22047,7.63528 -14.63242,4.96596c-5.41195,-2.66931 -7.63528,-9.22047 -4.96597,-14.63242c2.66932,-5.41195 9.22047,-7.63528 14.63242,-4.96596z" fill="url(#color-7)" stroke="#000000"/><path d="M144.75466,283.47767c-3.61295,0.34958 0.46102,2.28356 -1.80843,-4.40346c-3.62196,-10.67223 -24.48425,-27.42686 -25.69151,-39.91918c-0.50716,-5.24792 7.29156,-11.16522 10.10891,-12.12139c2.86154,-0.97116 13.75262,-1.0177 16.64423,3.56557c6.73232,10.67091 -0.46511,36.44955 3.13296,47.05145c0,0 2.18931,5.38426 -2.38617,5.82701z" fill="url(#color-8)" stroke="none"/><path d="M140.52247,278.75462c-0.34957,-3.61295 -2.28356,0.46102 4.40345,-1.80843c10.67224,-3.62196 27.42686,-24.48425 39.91919,-25.69151c5.24792,-0.50716 11.16522,7.29156 12.12139,10.10891c0.97116,2.86154 1.0177,13.75262 -3.56557,16.64423c-10.67091,6.73232 -36.44955,-0.46511 -47.05145,3.13296c0,0 -5.38426,2.18932 -5.827,-2.38617z" fill="url(#color-9)" stroke="none"/><path d="M149.47762,279.24541c0.34957,3.61295 2.28356,-0.46102 -4.40345,1.80843c-10.67223,3.62196 -27.42686,24.48425 -39.91919,25.69151c-5.24792,0.50716 -11.16522,-7.29156 -12.12138,-10.10891c-0.97115,-2.86154 -1.0177,-13.75262 3.56557,-16.64423c10.67091,-6.73232 36.44955,0.46511 47.05145,-3.13296c0,0 5.38426,-2.18932 5.827,2.38617z" fill="url(#color-10)" stroke="none"/><path d="M145.24543,274.52243c3.61295,-0.34958 -0.46102,-2.28356 1.80843,4.40346c3.62196,10.67224 24.48425,27.42686 25.69151,39.91919c0.50716,5.24792 -7.29157,11.16522 -10.10891,12.12138c-2.86154,0.97116 -13.75262,1.0177 -16.64423,-3.56557c-6.73232,-10.67091 0.46511,-36.44955 -3.13296,-47.05145c0,0 -2.18931,-5.38426 2.38617,-5.82701z" fill="url(#color-11)" stroke="none"/><path d="M149.83328,269.20081c5.41195,2.66931 7.63528,9.22047 4.96597,14.63242c-2.66932,5.41195 -9.22047,7.63528 -14.63242,4.96596c-5.41195,-2.66931 -7.63528,-9.22047 -4.96597,-14.63242c2.66932,-5.41195 9.22047,-7.63528 14.63242,-4.96596z" fill="url(#color-12)" stroke="none"/><path d="M143.02283,273.1742c3.21752,-1.09197 6.71106,0.63114 7.80302,3.84866c1.09196,3.21753 -0.63114,6.71105 -3.84866,7.80302c-3.21752,1.09197 -6.71106,-0.63114 -7.80302,-3.84866c-1.09196,-3.21753 0.63114,-6.71105 3.84866,-7.80302z" fill="url(#color-13)" stroke="#e0f2ff"/></g><g stroke-width="0"><path d="M147.47591,282.73886c-2.69,2.43713 1.73299,1.55691 -4.07943,-2.45338c-9.2764,-6.40027 -36.01542,-7.38926 -44.44097,-16.69118c-3.5395,-3.90766 -0.81479,-13.31034 0.87481,-15.75921c1.7161,-2.48728 10.4262,-9.02578 15.482,-7.0747c11.77105,4.54255 21.38447,29.52102 30.59972,35.87912c0,0 4.97048,3.01292 1.56387,6.09935z" fill="url(#color-14)" stroke="#000000"/><path d="M141.26119,281.47596c-2.43713,-2.69 -1.55691,1.73299 2.45338,-4.07943c6.40027,-9.2764 7.38926,-36.01542 16.69118,-44.44097c3.90766,-3.5395 13.31034,-0.81479 15.75921,0.87481c2.48728,1.7161 9.02578,10.4262 7.0747,15.482c-4.54255,11.77105 -29.52102,21.38447 -35.87912,30.59972c0,0 -3.01292,4.97048 -6.09935,1.56387z" fill="url(#color-15)" stroke="#000000"/><path d="M148.7389,276.52414c2.43713,2.69 1.55691,-1.73299 -2.45338,4.07943c-6.40027,9.2764 -7.38926,36.01542 -16.69118,44.44097c-3.90766,3.5395 -13.31034,0.81479 -15.75921,-0.87481c-2.48728,-1.7161 -9.02578,-10.4262 -7.0747,-15.482c4.54255,-11.77105 29.52102,-21.38447 35.87912,-30.59972c0,0 3.01292,-4.97048 6.09935,-1.56387z" fill="url(#color-16)" stroke="#000000"/><path d="M142.52409,275.26115c2.69,-2.43713 -1.73299,-1.55691 4.07943,2.45338c9.2764,6.40027 36.01542,7.38926 44.44097,16.69118c3.5395,3.90766 0.81479,13.31034 -0.87481,15.75921c-1.7161,2.48728 -10.4262,9.02578 -15.482,7.0747c-11.77105,-4.54255 -21.38447,-29.52102 -30.59972,-35.87912c0,0 -4.97048,-3.01292 -1.56387,-6.09935z" fill="url(#color-17)" stroke="#000000"/><path d="M143.02839,268.25309c5.93537,-1.08893 11.62969,2.83988 12.71863,8.77525c1.08893,5.93537 -2.83988,11.62969 -8.77525,12.71863c-5.93537,1.08893 -11.62969,-2.83988 -12.71863,-8.77525c-1.08893,-5.93537 2.83988,-11.62969 8.77525,-12.71863z" fill="url(#color-18)" stroke="#000000"/><path d="M147.47591,282.73886c-2.69,2.43713 1.73299,1.55691 -4.07943,-2.45338c-9.2764,-6.40027 -36.01542,-7.38926 -44.44097,-16.69118c-3.5395,-3.90766 -0.81479,-13.31034 0.87481,-15.75921c1.7161,-2.48728 10.4262,-9.02578 15.482,-7.0747c11.77105,4.54255 21.38447,29.52102 30.59972,35.87912c0,0 4.97048,3.01292 1.56387,6.09935z" fill="url(#color-19)" stroke="none"/><path d="M141.26119,281.47596c-2.43713,-2.69 -1.55691,1.73299 2.45338,-4.07943c6.40027,-9.2764 7.38926,-36.01542 16.69118,-44.44097c3.90766,-3.5395 13.31034,-0.81479 15.75921,0.87481c2.48728,1.7161 9.02578,10.4262 7.0747,15.482c-4.54255,11.77105 -29.52102,21.38447 -35.87912,30.59972c0,0 -3.01292,4.97048 -6.09935,1.56387z" fill="url(#color-20)" stroke="none"/><path d="M148.7389,276.52414c2.43713,2.69 1.55691,-1.73299 -2.45338,4.07943c-6.40027,9.2764 -7.38926,36.01542 -16.69118,44.44097c-3.90766,3.5395 -13.31034,0.81479 -15.75921,-0.87481c-2.48728,-1.7161 -9.02578,-10.4262 -7.0747,-15.482c4.54255,-11.77105 29.52102,-21.38447 35.87912,-30.59972c0,0 3.01292,-4.97048 6.09935,-1.56387z" fill="url(#color-21)" stroke="none"/><path d="M142.52409,275.26115c2.69,-2.43713 -1.73299,-1.55691 4.07943,2.45338c9.2764,6.40027 36.01542,7.38926 44.44097,16.69118c3.5395,3.90766 0.81479,13.31034 -0.87481,15.75921c-1.7161,2.48728 -10.4262,9.02578 -15.482,7.0747c-11.77105,-4.54255 -21.38447,-29.52102 -30.59972,-35.87912c0,0 -4.97048,-3.01292 -1.56387,-6.09935z" fill="url(#color-22)" stroke="none"/><path d="M143.02839,268.25309c5.93537,-1.08893 11.62969,2.83988 12.71863,8.77525c1.08893,5.93537 -2.83988,11.62969 -8.77525,12.71863c-5.93537,1.08893 -11.62969,-2.83988 -12.71863,-8.77525c-1.08893,-5.93537 2.83988,-11.62969 8.77525,-12.71863z" fill="url(#color-23)" stroke="none"/><path d="M139.93625,275.50622c1.92959,-2.7967 5.761,-3.49963 8.5577,-1.57004c2.7967,1.92959 3.49963,5.761 1.57004,8.5577c-1.92959,2.7967 -5.761,3.49963 -8.5577,1.57004c-2.7967,-1.92959 -3.49963,-5.761 -1.57004,-8.5577z" fill="url(#color-24)" stroke="#e0f2ff"/></g><g><path d="M148.53564,281.75846c-1.77622,3.16555 2.13787,0.92558 -4.64756,-1.03004c-10.82931,-3.12111 -36.49688,4.43722 -47.4414,-1.70551c-4.5977,-2.58051 -5.0018,-12.36168 -4.17786,-15.22049c0.83686,-2.90366 7.01804,-11.87087 12.43177,-11.62733c12.6044,0.56701 29.6563,21.19647 40.41422,24.29702c0,0 5.67023,1.27746 3.42084,5.28636z" fill="#f7229d" stroke="#000000" stroke-width="4"/><path d="M142.24167,282.5356c-3.16555,-1.77622 -0.92559,2.13788 1.03004,-4.64756c3.12111,-10.8293 -4.43722,-36.49689 1.70552,-47.4414c2.58051,-4.5977 12.36168,-5.0018 15.22049,-4.17786c2.90365,0.83686 11.87087,7.01804 11.62733,12.43177c-0.56701,12.6044 -21.19646,29.6563 -24.29701,40.41422c0,0 -1.27746,5.67023 -5.28636,3.42084z" fill="#f7229d" stroke="#000000" stroke-width="4"/><path d="M147.75842,275.46441c3.16555,1.77622 0.92559,-2.13788 -1.03004,4.64756c-3.12111,10.8293 4.43722,36.49688 -1.70552,47.4414c-2.58051,4.5977 -12.36168,5.0018 -15.22049,4.17787c-2.90366,-0.83686 -11.87087,-7.01804 -11.62733,-12.43177c0.56701,-12.6044 21.19647,-29.65629 24.29702,-40.41422c0,0 1.27746,-5.67023 5.28636,-3.42084z" fill="#f7229d" stroke="#000000" stroke-width="4"/><path d="M141.46445,276.24163c1.77622,-3.16555 -2.13787,-0.92558 4.64756,1.03004c10.82931,3.12111 36.49688,-4.43722 47.4414,1.70551c4.5977,2.58051 5.0018,12.36168 4.17786,15.22049c-0.83686,2.90366 -7.01804,11.87087 -12.43177,11.62733c-12.6044,-0.56701 -29.65629,-21.19647 -40.41422,-24.29702c0,0 -5.67023,-1.27746 -3.42084,-5.28636z" fill="#f7229d" stroke="#000000" stroke-width="4"/><path d="M139.7158,269.43649c5.28179,-2.91841 11.92936,-1.00252 14.84777,4.27927c2.91841,5.28179 1.00251,11.92936 -4.27927,14.84777c-5.28179,2.91841 -11.92936,1.00252 -14.84777,-4.27927c-2.91841,-5.28179 -1.00251,-11.92936 4.27927,-14.84777z" fill="#becdd8" stroke="#000000" stroke-width="4"/><path d="M148.53564,281.75846c-1.77622,3.16555 2.13787,0.92558 -4.64756,-1.03004c-10.82931,-3.12111 -36.49688,4.43722 -47.4414,-1.70551c-4.5977,-2.58051 -5.0018,-12.36168 -4.17786,-15.22049c0.83686,-2.90366 7.01804,-11.87087 12.43177,-11.62733c12.6044,0.56701 29.6563,21.19647 40.41422,24.29702c0,0 5.67023,1.27746 3.42084,5.28636z" fill="#f7229d" stroke="none" stroke-width="0"/><path d="M142.24167,282.5356c-3.16555,-1.77622 -0.92559,2.13788 1.03004,-4.64756c3.12111,-10.8293 -4.43722,-36.49689 1.70552,-47.4414c2.58051,-4.5977 12.36168,-5.0018 15.22049,-4.17786c2.90365,0.83686 11.87087,7.01804 11.62733,12.43177c-0.56701,12.6044 -21.19646,29.6563 -24.29701,40.41422c0,0 -1.27746,5.67023 -5.28636,3.42084z" fill="#f7229d" stroke="none" stroke-width="0"/><path d="M147.75842,275.46441c3.16555,1.77622 0.92559,-2.13788 -1.03004,4.64756c-3.12111,10.8293 4.43722,36.49688 -1.70552,47.4414c-2.58051,4.5977 -12.36168,5.0018 -15.22049,4.17787c-2.90366,-0.83686 -11.87087,-7.01804 -11.62733,-12.43177c0.56701,-12.6044 21.19647,-29.65629 24.29702,-40.41422c0,0 1.27746,-5.67023 5.28636,-3.42084z" fill="#f7229d" stroke="none" stroke-width="0"/><path d="M141.46445,276.24163c1.77622,-3.16555 -2.13787,-0.92558 4.64756,1.03004c10.82931,3.12111 36.49688,-4.43722 47.4414,1.70551c4.5977,2.58051 5.0018,12.36168 4.17786,15.22049c-0.83686,2.90366 -7.01804,11.87087 -12.43177,11.62733c-12.6044,-0.56701 -29.65629,-21.19647 -40.41422,-24.29702c0,0 -5.67023,-1.27746 -3.42084,-5.28636z" fill="#f7229d" stroke="none" stroke-width="0"/><path d="M139.7158,269.43649c5.28179,-2.91841 11.92936,-1.00252 14.84777,4.27927c2.91841,5.28179 1.00251,11.92936 -4.27927,14.84777c-5.28179,2.91841 -11.92936,1.00252 -14.84777,-4.27927c-2.91841,-5.28179 -1.00251,-11.92936 4.27927,-14.84777z" fill="#becdd8" stroke="none" stroke-width="0"/><path d="M139.0885,277.29625c0.94097,-3.26488 4.35047,-5.14878 7.61535,-4.20781c3.26488,0.94097 5.14877,4.35048 4.2078,7.61536c-0.94097,3.26488 -4.35047,5.14878 -7.61535,4.20781c-3.26488,-0.94097 -5.14877,-4.35048 -4.2078,-7.61536z" fill="none" stroke="#e0f2ff" stroke-width="2.5"/></g></g><path d="M242.50008,208.00005h69.08053c-0.05423,0.96641 -0.08054,1.96166 -0.08054,3c0,5 0,10 0,15c0,2.13316 0.46887,4.29225 0.12913,6.39818c-0.408,2.52904 -1.08562,5.04045 -1.12913,7.60182c-0.07047,4.14895 0.92563,9.37557 0.12913,13.39818c-0.87434,4.41566 -2.45208,8.8568 -3.0542,13.37999c-0.1289,0.96834 0.42371,1.97516 0.19259,2.9243c-0.22821,0.93717 -1.14207,1.57755 -1.50631,2.47069c-0.68902,1.68957 -1.08805,3.48334 -1.63208,5.22501c0,4.4044 -1.06692,7.9765 -1.12913,12.60182c-0.03138,2.33312 0,4.66667 0,7c0,1.37096 0.58363,2.79859 0.18044,4.10892c-1.41616,4.60229 -3.38105,8.78768 -4.10551,13.66924c-0.11417,0.76929 0.3001,1.57778 0.10551,2.33076c-0.44914,1.73796 -1.64762,3.23987 -2,5c-0.33884,1.69248 -0.39434,3.45171 -0.25103,5.17765c-0.191,0.11724 -0.35322,0.28165 -0.43592,0.45612c-0.18042,0.38062 0.73328,0.8884 0.43544,1.18624c-0.29784,0.29784 -0.82506,-0.65215 -1.18624,-0.43544c-1.46715,0.88029 -2.60391,2.2256 -3.81376,3.43544c-0.04931,0.04931 -0.10954,0.12419 -0.15897,0.20393c-1.22429,0.03399 -2.44485,0.21083 -3.6678,0.29621c-1,0.66667 -1.86094,1.61662 -3,2c-1.24567,0.41926 -2.70588,-0.14898 -3.92899,0.33212c-0.5746,0.22602 -0.97634,0.7202 -1.36729,1.22665c-1.90606,-0.11361 -3.86466,-0.06083 -5.70372,0.44123c-1.15942,0.31652 -1.85176,1.64504 -3,2c-0.74865,0.23144 -1.54622,-0.44965 -2.32399,-0.35416c-2.53448,0.31118 -4.87027,1.58329 -7.37999,2.0542c-3.50929,0.65846 -7.65064,-0.14068 -11.42615,-0.15079c-1.6665,-1.24271 -3.73336,-1.97833 -5.97203,-1.97833c-0.68493,0 -1.35378,0.06886 -2,0.20004z" fill="#ffdc00" stroke="#736400" stroke-width="10"/><path d="M242.50011,345.00005v-137h75c0,0 -4.43953,96.92973 -5.35803,116.9836c-0.31793,6.94151 -3.64197,11.0164 -3.64197,11.0164c0,0 -4.1441,3.62123 -9.98875,4.12946c-12.13702,1.05539 -56.01125,4.87054 -56.01125,4.87054z" fill="#ffdc00" stroke="none" stroke-width="0"/><path d="M29.01481,336.25359c-10.2069,-8.41538 -8.19816,-60.26117 -7.81634,-119.48853c0.33609,-52.13036 -2.267,-112.39018 7.81634,-120.20419c10.32773,-8.00337 75.68104,-5.55667 140.56181,-5.53058c64.62108,0.02601 128.77321,-2.40079 137.62206,5.53058c10.33406,9.26245 7.78577,65.2406 7.62122,120.9033c-0.16311,55.17356 2.14612,110.037 -7.62122,118.78933c-9.96625,8.93054 -74.10419,6.90071 -138.4489,6.86804c-64.43482,-0.03276 -129.07694,1.91904 -139.73496,-6.86804z" fill="none" stroke="#ffffff" stroke-width="5"/></g></g></svg>