<svg version="1.1" xmlns="http://www.w3.org/2000/svg" xmlns:xlink="http://www.w3.org/1999/xlink" width="533" height="374.71" viewBox="0,0,533,374.71"><defs><linearGradient x1="240" y1="302.05576" x2="240" y2="333.05576" gradientUnits="userSpaceOnUse" id="color-1"><stop offset="0" stop-color="#ff4af6"/><stop offset="1" stop-color="#b692ff"/></linearGradient><linearGradient x1="148.5" y1="230.29271" x2="148.5" y2="242.12002" gradientUnits="userSpaceOnUse" id="color-2"><stop offset="0" stop-color="#ff4af6"/><stop offset="1" stop-color="#b692ff"/></linearGradient><linearGradient x1="238.5" y1="205.29271" x2="238.5" y2="217.12002" gradientUnits="userSpaceOnUse" id="color-3"><stop offset="0" stop-color="#ff4af6"/><stop offset="1" stop-color="#b692ff"/></linearGradient><linearGradient x1="314.5" y1="242.29271" x2="314.5" y2="254.12002" gradientUnits="userSpaceOnUse" id="color-4"><stop offset="0" stop-color="#ff4af6"/><stop offset="1" stop-color="#b692ff"/></linearGradient><linearGradient x1="246.5" y1="62.86795" x2="246.5" y2="79.09138" gradientUnits="userSpaceOnUse" id="color-5"><stop offset="0" stop-color="#ff4af6"/><stop offset="1" stop-color="#b692ff"/></linearGradient></defs><g transform="translate(26.5,-63.91462)"><g data-paper-data="{&quot;isPaintingLayer&quot;:true}" fill-rule="nonzero" stroke="none" stroke-width="0" stroke-linecap="butt" stroke-linejoin="miter" stroke-miterlimit="10" stroke-dasharray="" stroke-dashoffset="0" style="mix-blend-mode: normal"><path d="M-26.5,438.62462v-238h533v238z" fill="none"/><path d="M-9,328.05576v-21c0,0 30.51155,-3 59.5,-3c20.87559,0 61.5322,2.7889 110.00627,2.47869c23.60478,-0.15106 49.06328,-1.17107 74.99407,-1.10144c26.33857,0.07073 53.1644,-0.76607 79.02984,-0.55378c32.03755,0.26295 62.60169,1.6012 88.94147,1.93229c50.54078,0.6353 85.52835,1.24424 85.52835,1.24424v20c0,0 -83.6272,10 -141.5,10c-26.47302,0 -67.29594,-3.83389 -111.99913,-3.59742c-24.74013,0.13087 -47.66873,1.98206 -73.01112,1.67233c-18.15482,-0.22188 -39.00879,4.06494 -55.90945,3.54606c-2.37761,-0.073 -115.5803,-11.62097 -115.5803,-11.62097z" fill="url(#color-1)"/><path d="M117,240.21239v-8.01205c0,0 3.85989,-1.14458 7.52711,-1.14458c2.64089,0 7.78419,1.06404 13.91646,0.94568c2.98615,-0.05763 6.2068,-0.44679 9.4872,-0.42023c3.33199,0.02699 6.72562,-0.29228 9.99775,-0.21128c4.05294,0.10032 7.91949,0.6109 11.25163,0.73722c6.39371,0.24238 10.81985,0.47471 10.81985,0.47471v7.63052c0,0 -10.57934,3.81526 -17.9006,3.81526c-3.349,0 -8.51334,-1.46273 -14.16856,-1.37251c-3.12978,0.04993 -6.03038,0.75621 -9.23635,0.63804c-2.29669,-0.08465 -4.93485,1.55088 -7.07288,1.35291c-0.30078,-0.02785 -14.6216,-4.4337 -14.6216,-4.4337z" fill="url(#color-2)"/><path d="M207,215.21239v-8.01204c0,0 3.85989,-1.14458 7.52711,-1.14458c2.64089,0 7.7842,1.06404 13.91646,0.94568c2.98614,-0.05764 6.2068,-0.4468 9.4872,-0.42023c3.33199,0.02698 6.72562,-0.29227 9.99775,-0.21128c4.05294,0.10032 7.91949,0.6109 11.25164,0.73722c6.39371,0.24238 10.81985,0.47471 10.81985,0.47471v7.63052c0,0 -10.57934,3.81526 -17.9006,3.81526c-3.349,0 -8.51334,-1.46273 -14.16856,-1.37251c-3.12977,0.04993 -6.03039,0.75621 -9.23635,0.63804c-2.29669,-0.08465 -4.93484,1.55088 -7.07288,1.35291c-0.30078,-0.02785 -14.6216,-4.4337 -14.6216,-4.4337z" fill="url(#color-3)"/><path d="M283,252.21239v-8.01204c0,0 3.85989,-1.14458 7.52711,-1.14458c2.64089,0 7.7842,1.06404 13.91646,0.94568c2.98614,-0.05764 6.2068,-0.4468 9.4872,-0.42023c3.33199,0.02698 6.72562,-0.29227 9.99775,-0.21128c4.05294,0.10032 7.9195,0.6109 11.25164,0.73722c6.39371,0.24238 10.81985,0.47471 10.81985,0.47471v7.63052c0,0 -10.57934,3.81526 -17.9006,3.81526c-3.349,0 -8.51334,-1.46273 -14.16856,-1.37251c-3.12977,0.04993 -6.03039,0.75621 -9.23635,0.63804c-2.29669,-0.08465 -4.93484,1.55088 -7.07288,1.35291c-0.30078,-0.02785 -14.6216,-4.4337 -14.6216,-4.4337z" fill="url(#color-4)"/><path d="M-3,76.4747v-10.99007c0,0 30.57282,-1.57001 59.61948,-1.57001c20.91751,0 61.65575,1.45953 110.22716,1.29719c23.65218,-0.07906 49.16181,-0.61286 75.14466,-0.57642c26.39145,0.03702 53.27115,-0.40091 79.18853,-0.28981c32.10188,0.13761 62.7274,0.83797 89.12007,1.01124c50.64227,0.33248 85.70009,0.65116 85.70009,0.65116v10.46673c0,0 -83.79512,5.23337 -141.78413,5.23337c-26.52618,0 -67.43108,-2.00642 -112.22403,-1.88266c-24.78981,0.06849 -47.76444,1.03728 -73.15773,0.87519c-18.19128,-0.11612 -39.08712,2.12733 -56.02172,1.85578c-2.38239,-0.0382 -115.81239,-6.08168 -115.81239,-6.08168z" fill="url(#color-5)"/></g></g></svg>