<svg version="1.1" xmlns="http://www.w3.org/2000/svg" xmlns:xlink="http://www.w3.org/1999/xlink" width="167.71706" height="89.7386" viewBox="0,0,167.71706,89.7386"><g transform="translate(-156.03561,-23.48935)"><g data-paper-data="{&quot;isPaintingLayer&quot;:true}" fill-rule="nonzero" stroke-linecap="butt" stroke-linejoin="miter" stroke-miterlimit="10" stroke-dasharray="" stroke-dashoffset="0" style="mix-blend-mode: normal"><path d="M165.44961,105.27256c-5.47489,-2.63499 -4.39741,-18.8687 -4.19261,-37.41371c0.18027,-16.32282 -1.216,-35.1911 4.19261,-37.63779c5.5397,-2.50598 40.59459,-1.73988 75.39601,-1.73171c34.66213,0.00814 69.07272,-0.75172 73.81916,1.73171c5.5431,2.90022 4.17621,20.42784 4.08795,37.8567c-0.08749,17.2757 1.15116,34.45428 -4.08795,37.19478c-5.3458,2.79629 -39.74878,2.16072 -74.26267,2.15049c-34.56222,-0.01026 -69.23564,0.60088 -74.9525,-2.15049z" fill="#262626" stroke="#30d8de" stroke-width="10"/><path d="M165.76802,105.27256c-5.47489,-2.63499 -4.39741,-18.8687 -4.19261,-37.4137c0.18027,-16.32282 -1.216,-35.1911 4.19261,-37.63779c5.5397,-2.50598 40.59459,-1.73988 75.39601,-1.73171c34.66213,0.00814 69.07272,-0.75173 73.81916,1.73171c5.5431,2.90022 4.17621,20.42784 4.08795,37.85669c-0.08749,17.2757 1.15116,34.45428 -4.08795,37.19478c-5.3458,2.79629 -39.74878,2.16072 -74.26267,2.15049c-34.56223,-0.01026 -69.23564,0.60088 -74.9525,-2.15049z" fill="#ffffff" stroke="#f73ca3" stroke-width="5"/><text transform="translate(181.71618,50.41539) scale(0.43606,0.43606)" font-size="40" xml:space="preserve" fill="#ff0000" fill-rule="nonzero" stroke="none" stroke-width="1" stroke-linecap="butt" stroke-linejoin="miter" stroke-miterlimit="10" stroke-dasharray="" stroke-dashoffset="0" font-family="Sans Serif" font-weight="normal" text-anchor="start" style="mix-blend-mode: normal"><tspan x="0" dy="0">ADVERTENCIA</tspan></text><text transform="translate(182.7827,64.04269) scale(0.21375,0.21375)" font-size="40" xml:space="preserve" fill="#000000" fill-rule="nonzero" stroke="none" stroke-width="1" stroke-linecap="butt" stroke-linejoin="miter" stroke-miterlimit="10" stroke-dasharray="" stroke-dashoffset="0" font-family="Sans Serif" font-weight="normal" text-anchor="start" style="mix-blend-mode: normal"><tspan x="0" dy="0">Serás expulsado pronto por</tspan><tspan x="0" dy="46.150000000000006px">inactividad, presiona alguna</tspan><tspan x="0" dy="46.150000000000006px">tecla o la pantalla del juego</tspan><tspan x="0" dy="46.150000000000006px">para evitarlo.</tspan></text></g></g></svg>