<svg version="1.1" xmlns="http://www.w3.org/2000/svg" xmlns:xlink="http://www.w3.org/1999/xlink" width="149.16667" height="139.16667" viewBox="0,0,149.16667,139.16667"><g transform="translate(-165.41667,-110.41666)"><g data-paper-data="{&quot;isPaintingLayer&quot;:true}" fill-rule="nonzero" stroke-linecap="butt" stroke-linejoin="miter" stroke-miterlimit="10" stroke-dasharray="" stroke-dashoffset="0" style="mix-blend-mode: normal"><path d="M202.92789,179.94026c0.08487,-13.2538 -0.57249,-28.57445 1.97388,-30.56111c2.60808,-2.0348 19.11188,-1.41275 35.49635,-1.40611c16.31889,0.00661 32.51935,-0.61039 34.75397,1.40611c2.60968,2.35492 1.96615,16.58699 1.9246,30.73886c-0.04119,14.02751 0.54196,27.97617 -1.9246,30.2014c-2.5168,2.27053 -18.71368,1.75446 -34.96278,1.74615c-16.27185,-0.00833 -33.63889,-0.18103 -35.28755,-1.74615c-2.1929,-2.08178 -2.07029,-15.32099 -1.97387,-30.37915z" fill="#f7229d" stroke="#000000" stroke-width="10"/><path d="M165.41667,249.58333v-139.16667h149.16667v139.16667z" fill="none" stroke="none" stroke-width="NaN"/><path d="M221.83336,146.65478c0,-6.67344 8.13349,-12.08333 18.16666,-12.08333c10.03318,0 18.16667,5.40989 18.16667,12.08333c0,6.67344 -8.13349,12.08333 -18.16667,12.08333c-10.03317,0 -18.16666,-5.40989 -18.16666,-12.08333z" fill="#ffe100" stroke="#000000" stroke-width="2"/><path d="M221.83335,146.65479c0,-6.67344 8.13349,-12.08333 18.16667,-12.08333c10.03317,0 18.16667,5.40989 18.16667,12.08333c0,6.67344 -8.13349,12.08333 -18.16667,12.08333c-10.03317,0 -18.16667,-5.40989 -18.16667,-12.08333z" fill="#ffe100" stroke="#000000" stroke-width="5"/><path d="M221.83337,146.65479c0,-6.67344 8.13349,-12.08333 18.16666,-12.08333c10.03318,0 18.16667,5.40989 18.16667,12.08333c0,6.67344 -8.13349,12.08333 -18.16667,12.08333c-10.03317,0 -18.16666,-5.40989 -18.16666,-12.08333z" fill="#ffe100" stroke="none" stroke-width="2.5"/><path d="M221.83336,146.6548c0,-6.67344 8.13349,-12.08333 18.16667,-12.08333c10.03317,0 18.16667,5.40989 18.16667,12.08333c0,6.67344 -8.13349,12.08333 -18.16667,12.08333c-10.03317,0 -18.16667,-5.40989 -18.16667,-12.08333z" fill="#0098ff" stroke="none" stroke-width="0"/><path d="M204.90177,210.31942c-2.57757,-2.13956 -2.0703,-15.321 -1.97388,-30.37916c0.08487,-13.2538 -0.57249,-28.57445 1.97388,-30.56111c2.60808,-2.0348 19.11188,-1.41275 35.49635,-1.40611c16.31889,0.00661 32.51935,-0.61039 34.75397,1.40611c2.60968,2.35492 1.96615,16.58699 1.9246,30.73886c-0.04119,14.02751 0.54196,27.97617 -1.9246,30.2014c-2.5168,2.27053 -18.71368,1.75446 -34.96278,1.74615c-16.27185,-0.00833 -32.59606,0.4879 -35.28755,-1.74615z" fill="#ff2500" stroke="#ffffff" stroke-width="5"/><path d="M239.17892,136.79786c-2.1031,0.08451 -2.53992,-1.10124 -2.45601,-2.22078c-0.9636,-0.00265 -1.93633,-0.04597 -2.84351,-0.1022c-0.94964,-0.05887 -2.01737,0.06155 -2.84909,-0.17586c-2.94944,-0.84187 -1.56485,-2.44528 0.58641,-3.16741c0.19929,-0.0669 2.64877,-0.73207 2.69864,-0.74255c1.094,-0.23005 2.33889,-0.19959 3.51145,-0.28951c0.82129,-0.06298 1.5956,-0.12943 2.36619,-0.18561c-0.0856,-0.29127 -0.14545,-0.58663 -0.14617,-0.89052v-0.61157c-0.01041,-0.07576 0.00624,-0.14587 0.02846,-0.201c0.02262,-0.05739 0.06321,-0.12855 0.13604,-0.19916c1.28373,-1.48458 4.64302,-3.88211 8.7597,-2.75073c2.81621,0.77398 2.8232,4.40961 0.42327,5.27794c-1.54767,0.55998 -4.0332,0.49065 -5.84746,0.49173c-0.15694,0 -0.31502,0.00023 -0.47407,0.00077c0.1234,0.36863 0.22066,0.74127 0.22407,1.12828c-0.09633,1.02256 -0.98601,1.6368 -2.27245,1.99012c0.02444,0.96325 0.15576,2.56762 -1.84547,2.64804z" data-paper-data="{&quot;index&quot;:null}" fill="#ffe100" stroke="#000000" stroke-width="5"/><path d="M239.17894,136.79784c-2.1031,0.08451 -2.53992,-1.10124 -2.45601,-2.22078c-0.9636,-0.00265 -1.93632,-0.04597 -2.84351,-0.1022c-0.94964,-0.05886 -2.01737,0.06155 -2.84909,-0.17585c-2.94944,-0.84187 -1.56485,-2.44528 0.58641,-3.16742c0.19928,-0.0669 2.64877,-0.73206 2.69863,-0.74255c1.094,-0.23005 2.33889,-0.19958 3.51145,-0.2895c0.8213,-0.06299 1.59559,-0.12943 2.36619,-0.18561c-0.08561,-0.29127 -0.14545,-0.58663 -0.14617,-0.89052v-0.61157c-0.01041,-0.07576 0.00624,-0.14587 0.02846,-0.201c0.02262,-0.05738 0.0632,-0.12855 0.13604,-0.19916c1.28373,-1.48457 4.64302,-3.88211 8.7597,-2.75073c2.81621,0.77398 2.8232,4.4096 0.42327,5.27794c-1.54767,0.55998 -4.0332,0.49065 -5.84746,0.49173c-0.15694,0 -0.31502,0.00023 -0.47407,0.00077c0.12341,0.36863 0.22065,0.74127 0.22407,1.12828c-0.09633,1.02256 -0.98602,1.6368 -2.27245,1.99012c0.02445,0.96325 0.15576,2.56762 -1.84547,2.64804z" data-paper-data="{&quot;index&quot;:null}" fill="#ffe100" stroke="none" stroke-width="0.5"/><path d="M234.19038,177.28522c0,0 12.43601,-0.00526 18.08404,-0.00526c1.47949,0 2.67874,1.19953 2.67874,2.67874c0,1.47949 -1.19926,2.67853 -2.67874,2.67853c-4.73524,0 -18.0695,0.00553 -18.0695,0.00553c0,0 0.89521,0.90595 5.02507,5.03554c1.04618,1.04623 1.04618,2.7421 0,3.78806c-1.04672,1.04596 -2.74237,1.04623 -3.78833,0c-3.34873,-3.34824 -9.61027,-9.61048 -9.61027,-9.61048c-1.04596,-1.04623 -1.04596,-2.74232 0,-3.78806c0,0 5.40354,-5.40376 9.53335,-9.53362c1.04672,-1.04672 2.74259,-1.04672 3.78833,0c1.04623,1.04601 1.04623,2.74237 0,3.78757c-3.34878,3.34976 -4.96269,4.96345 -4.96269,4.96345z" fill="#ffffff" stroke="#000000" stroke-width="0"/></g></g></svg>