<svg version="1.1" xmlns="http://www.w3.org/2000/svg" xmlns:xlink="http://www.w3.org/1999/xlink" width="89.83333" height="89.83333" viewBox="0,0,89.83333,89.83333"><g transform="translate(-195.08339,-135.08335)"><g data-paper-data="{&quot;isPaintingLayer&quot;:true}" fill-rule="nonzero" stroke-linecap="butt" stroke-linejoin="miter" stroke-miterlimit="10" stroke-dasharray="" stroke-dashoffset="0" style="mix-blend-mode: normal"><path d="M195.08339,224.91668v-89.83333h89.83333v89.83333z" fill="none" stroke="none" stroke-width="0"/><path d="M239.53123,197.13844c-2.32046,-2.26175 -3.52729,-4.32772 -0.58114,-6.67998c0.66304,-0.13997 1.32711,-0.27585 1.99424,-0.39479c0,0 3.1676,-2.27436 3.39427,-2.20083c0.48206,-0.12233 1.31315,1.09987 1.99796,1.9203l-1.17437,3.33947c0,0 0.74822,5.38856 -1.20979,6.11956c0,0 -3.43544,-1.14293 -4.42117,-2.10373z" fill="#00ade2" stroke="#006280" stroke-width="4"/><path d="M241.34702,201.8738c-1.14355,1.17028 -3.59521,0.4279 -4.89613,-0.022c-3.06242,-1.05907 -5.03378,-2.41495 -3.36894,-5.79743c0.54041,-0.40885 1.08351,-0.81446 1.63658,-1.20601c0,0 1.8984,-3.40623 2.13482,-3.43617c0.38416,-0.31587 1.6564,0.43639 2.62526,0.88733l0.35861,3.52172c0,0 2.97049,4.5577 1.5098,6.05254z" fill="#00ade2" stroke="#006280" stroke-width="4"/><path d="M249.81379,176.86813c-1.14452,-1.90002 -5.24658,-1.95816 -3.52057,-4.79667c1.06501,-1.75151 0.21549,-0.84844 2.99731,-3.56021c1.72647,-1.683 -0.07841,-9.37475 4.88278,-2.64597c4.96118,6.72879 11.74862,10.27912 13.04146,12.91574c1.29284,2.63662 2.23755,4.08379 2.18329,5.56681c0.14445,1.91409 -0.72587,6.9071 -3.28598,6.70923c-0.63299,-0.36866 -0.66528,-0.3701 -0.91464,-0.89988c-0.07592,0.65546 -0.56588,0.94793 -0.95069,1.11782c-2.60434,1.14981 -2.80797,-1.38084 -2.93692,-3.04316c-0.05702,-0.77666 0.0719,-1.94798 -1.03809,-2.70646c-1.10999,-0.75847 -2.9977,-0.15155 -3.42677,-0.25905c-1.4374,-1.28812 0.09593,-3.17462 1.1908,-4.74082c0.41077,-0.5876 -8.22197,-3.65737 -8.22197,-3.65737z" data-paper-data="{&quot;index&quot;:null}" fill="#00ade2" stroke="#006280" stroke-width="4"/><path d="M221.03225,178.75681c0.87349,1.69963 2.13821,3.77581 0.54011,4.85816c-0.43965,0.04862 -2.22818,-0.80753 -3.43038,-0.20579c-1.2022,0.60175 -1.23253,1.77974 -1.39384,2.54162c-0.35212,1.62971 -0.89541,4.10974 -3.32075,2.61897c-0.35837,-0.22027 -0.80438,-0.57619 -0.79114,-1.2359c-0.31859,0.49127 -0.35077,0.48835 -1.02773,0.76821c-2.5634,-0.14945 -2.7519,-5.21423 -2.35046,-7.09132c0.14638,-1.47677 1.27776,-2.7832 2.9146,-5.22122c1.63683,-2.43802 8.84132,-5.03987 14.6652,-11.03756c5.82388,-5.99769 2.99748,1.38012 4.48102,3.28072c2.3904,3.06238 1.67052,2.05294 2.48941,3.93215c1.32714,3.04548 -2.74522,2.54949 -4.13571,4.27766c0,0 -8.96806,1.87666 -8.64036,2.51431z" fill="#00ade2" stroke="#006280" stroke-width="4"/><path d="M238.21805,145.21756c15.13245,-0.71147 17.05864,16.22972 17.85408,23.21604c0.64732,5.68547 0.92347,7.80661 0.25108,12.76233c-0.67239,4.95572 -2.11191,7.43159 -3.16919,8.74497c-2.3588,2.93015 -12.74686,4.96115 -20.12765,3.92063c-3.9803,-0.56112 -7.34974,-1.6165 -8.393,-5.1147c-1.04326,-3.49821 -1.89192,-17.49718 -0.91262,-26.08846c0.15516,-7.29097 2.73126,-14.38082 11.057,-16.94051c1.01954,-0.31345 2.27423,-0.39532 3.44031,-0.50031z" fill="#00c3ff" stroke="#006280" stroke-width="4"/><path d="M233.99898,152.56069c2.02235,-1.2018 10.25644,-1.23315 13.08794,0.70364c4.04562,2.76727 3.85073,9.14547 1.29432,12.8542c-0.96848,1.40504 -2.42987,2.22187 -3.81828,3.14113c-4.90811,1.94402 -13.88996,0.22792 -15.53423,-5.63925c-0.29383,-1.04847 -0.48143,-4.24449 0.60592,-6.57869c1.13793,-2.4428 3.57698,-4.01314 4.36432,-4.48103z" fill="#ffffff" stroke="#000000" stroke-width="4"/><path d="M237.60603,163.77838c-1.25,0 -1.25,-1.25 -1.25,-1.25c0,-0.41667 0,-1.33333 0,-1.75c0,0 0,-1.25 1.25,-1.25c1.25,0 1.25,1.25 1.25,1.25c0,0.41667 0,0.83333 0,1.25v0.5c0,0 0,1.25 -1.25,1.25z" fill="#000000" stroke="#000000" stroke-width="4"/><path d="M245.60603,163.52838c-1.25,0 -1.25,-1.25 -1.25,-1.25l0.02427,-0.00485c-0.08333,-0.41667 -0.16667,-0.83333 -0.25,-1.25c0,0 -0.24515,-1.22573 0.98058,-1.47087c1.22573,-0.24515 1.47087,0.98058 1.47087,0.98058c0.08333,0.41667 0.16667,0.83333 0.25,1.25l0.02427,0.49515c0,0 0,1.25 -1.25,1.25z" fill="#000000" stroke="#000000" stroke-width="4"/><path d="M243.95241,199.24218c-1.53289,0.57229 -3.43545,-1.14294 -4.42118,-2.10374c-2.32046,-2.26175 -3.52729,-4.32772 -0.58114,-6.67998c0.66304,-0.13997 1.32711,-0.27585 1.99424,-0.39479c0,0 3.1676,-2.27436 3.39427,-2.20083c0.48206,-0.12233 1.31315,1.09987 1.99796,1.9203l-1.17437,3.33947c0,0 0.74822,5.38856 -1.20979,6.11956z" fill="#00ade2" stroke="none" stroke-width="0.5"/><path d="M241.34702,201.8738c-1.14355,1.17028 -3.59521,0.4279 -4.89613,-0.022c-3.06242,-1.05907 -5.03378,-2.41495 -3.36894,-5.79743c0.54041,-0.40885 1.08351,-0.81446 1.63658,-1.20601c0,0 1.8984,-3.40623 2.13482,-3.43617c0.38416,-0.31587 1.6564,0.43639 2.62526,0.88733l0.35861,3.52172c0,0 2.97049,4.5577 1.5098,6.05254z" fill="#00ade2" stroke="none" stroke-width="0.5"/><path d="M249.81379,176.86813c-1.14452,-1.90002 -5.24658,-1.95816 -3.52057,-4.79667c1.06501,-1.75151 0.21549,-0.84844 2.99731,-3.56021c1.72647,-1.683 -0.07841,-9.37475 4.88278,-2.64597c4.96118,6.72879 11.74862,10.27912 13.04146,12.91574c1.29284,2.63662 2.23755,4.08379 2.18329,5.56681c0.14445,1.91409 -0.72587,6.9071 -3.28598,6.70923c-0.63299,-0.36866 -0.66528,-0.3701 -0.91464,-0.89988c-0.07592,0.65546 -0.56588,0.94793 -0.95069,1.11782c-2.60434,1.14981 -2.80797,-1.38084 -2.93692,-3.04316c-0.05702,-0.77666 0.0719,-1.94798 -1.03809,-2.70646c-1.10999,-0.75847 -2.9977,-0.15155 -3.42677,-0.25905c-1.4374,-1.28812 0.09593,-3.17462 1.1908,-4.74082c0.41077,-0.5876 -8.22197,-3.65737 -8.22197,-3.65737z" data-paper-data="{&quot;index&quot;:null}" fill="#00ade2" stroke="none" stroke-width="0.5"/><path d="M221.03225,178.75681c0.87349,1.69963 2.13821,3.77581 0.54011,4.85816c-0.43965,0.04862 -2.22818,-0.80753 -3.43038,-0.20579c-1.2022,0.60175 -1.23253,1.77974 -1.39384,2.54162c-0.35212,1.62971 -0.89541,4.10974 -3.32075,2.61897c-0.35837,-0.22027 -0.80438,-0.57619 -0.79114,-1.2359c-0.31859,0.49127 -0.35077,0.48835 -1.02773,0.76821c-2.5634,-0.14945 -2.7519,-5.21423 -2.35046,-7.09132c0.14638,-1.47677 1.27776,-2.7832 2.9146,-5.22122c1.63683,-2.43802 8.84132,-5.03987 14.6652,-11.03756c5.82388,-5.99769 2.99748,1.38012 4.48102,3.28072c2.3904,3.06238 1.67052,2.05294 2.48941,3.93215c1.32714,3.04548 -2.74522,2.54949 -4.13571,4.27766c0,0 -8.96806,1.87666 -8.64036,2.51431z" fill="#00ade2" stroke="none" stroke-width="0.5"/><path d="M238.21805,145.21756c15.13245,-0.71147 17.05864,16.22972 17.85408,23.21604c0.64732,5.68547 0.92347,7.80661 0.25108,12.76233c-0.67239,4.95572 -2.11191,7.43159 -3.16919,8.74497c-2.3588,2.93015 -12.74686,4.96115 -20.12765,3.92063c-3.9803,-0.56112 -7.34974,-1.6165 -8.393,-5.1147c-1.04326,-3.49821 -1.89192,-17.49718 -0.91262,-26.08846c0.15516,-7.29097 2.73126,-14.38082 11.057,-16.94051c1.01954,-0.31345 2.27423,-0.39532 3.44031,-0.50031z" fill="#00c3ff" stroke="none" stroke-width="0.5"/><path d="M233.99898,152.56069c2.02235,-1.2018 10.25644,-1.23315 13.08794,0.70364c4.04562,2.76727 3.85073,9.14547 1.29432,12.8542c-0.96848,1.40504 -2.42987,2.22187 -3.81828,3.14113c-4.90811,1.94402 -13.88996,0.22792 -15.53423,-5.63925c-0.29383,-1.04847 -0.48143,-4.24449 0.60592,-6.57869c1.13793,-2.4428 3.57698,-4.01314 4.36432,-4.48103z" fill="#ffffff" stroke="none" stroke-width="0.5"/><path d="M237.60603,163.77839c-1.25,0 -1.25,-1.25 -1.25,-1.25c0,-0.41667 0,-1.33333 0,-1.75c0,0 0,-1.25 1.25,-1.25c1.25,0 1.25,1.25 1.25,1.25c0,0.41667 0,0.83333 0,1.25v0.5c0,0 0,1.25 -1.25,1.25z" fill="#000000" stroke="none" stroke-width="0.5"/><path d="M245.60603,163.52839c-1.25,0 -1.25,-1.25 -1.25,-1.25l0.02427,-0.00485c-0.08333,-0.41667 -0.16667,-0.83333 -0.25,-1.25c0,0 -0.24515,-1.22573 0.98058,-1.47087c1.22573,-0.24515 1.47087,0.98058 1.47087,0.98058c0.08333,0.41667 0.16667,0.83333 0.25,1.25l0.02427,0.49515c0,0 0,1.25 -1.25,1.25z" fill="#000000" stroke="none" stroke-width="0.5"/></g></g></svg>