<svg version="1.1" xmlns="http://www.w3.org/2000/svg" xmlns:xlink="http://www.w3.org/1999/xlink" width="505.18627" height="378.38751" viewBox="0,0,505.18627,378.38751"><g transform="translate(8.68807,13.73909)"><g data-paper-data="{&quot;isPaintingLayer&quot;:true}" fill-rule="nonzero" stroke="none" stroke-width="0" stroke-linecap="butt" stroke-linejoin="miter" stroke-miterlimit="10" stroke-dasharray="" stroke-dashoffset="0" style="mix-blend-mode: normal"><path d="M-8.68807,288.25777v-296h32v296z" fill="#ffdc00"/><path d="M-4.91495,364.64842v-85h494v85z" fill="#8ae200"/><path d="M129.31193,225.25777c0,0 -5.38771,-18.24205 4,-34c9.38771,-15.75795 23.98248,-16.96506 24,-13c0.04445,10.06368 0,47 0,47z" fill="#8ae200"/><path d="M200.65817,217.40402v-39.31832c0,0 82.41457,-137.23808 165.65165,-137.003c1.99866,0.00564 130.18838,0.06008 130.18838,0.06008l-2.60579,176.26125c0,0 -14.52838,-79.53412 -52.36214,-79.57958c-37.83375,-0.04546 -106.79345,79.38834 -106.79345,79.38834l-134.07865,0.19124z" fill="#8ae200"/><path d="M464.07364,49.32397v-63.06306h31.53153v63.06306z" fill="#8ae200"/></g></g></svg>