<svg version="1.1" xmlns="http://www.w3.org/2000/svg" xmlns:xlink="http://www.w3.org/1999/xlink" width="149.16667" height="139.16667" viewBox="0,0,149.16667,139.16667"><g transform="translate(-165.41669,-110.41666)"><g data-paper-data="{&quot;isPaintingLayer&quot;:true}" fill-rule="nonzero" stroke-linecap="butt" stroke-linejoin="miter" stroke-miterlimit="10" stroke-dasharray="" stroke-dashoffset="0" style="mix-blend-mode: normal"><path d="M204.90182,210.31944c-2.57757,-2.13956 -2.0703,-15.321 -1.97388,-30.37916c0.08487,-13.2538 -0.57249,-28.57445 1.97388,-30.56111c2.60808,-2.0348 19.11188,-1.41275 35.49635,-1.40611c16.31889,0.00661 32.51935,-0.61039 34.75397,1.40611c2.60968,2.35492 1.96615,16.58699 1.9246,30.73886c-0.04119,14.02751 0.54196,27.97617 -1.9246,30.2014c-2.5168,2.27053 -18.71368,1.75446 -34.96278,1.74615c-16.27185,-0.00833 -32.59606,0.4879 -35.28755,-1.74615z" fill="#f7229d" stroke="#000000" stroke-width="10"/><path d="M165.41669,249.58333v-139.16667h149.16667v139.16667z" fill="none" stroke="none" stroke-width="NaN"/><path d="M221.83341,146.65479c0,-6.67344 8.13349,-12.08333 18.16666,-12.08333c10.03318,0 18.16667,5.40989 18.16667,12.08333c0,6.67344 -8.13349,12.08333 -18.16667,12.08333c-10.03317,0 -18.16666,-5.40989 -18.16666,-12.08333z" fill="#ffe100" stroke="#000000" stroke-width="2"/><path d="M221.83341,146.65479c0,-6.67344 8.13349,-12.08333 18.16667,-12.08333c10.03317,0 18.16667,5.40989 18.16667,12.08333c0,6.67344 -8.13349,12.08333 -18.16667,12.08333c-10.03317,0 -18.16667,-5.40989 -18.16667,-12.08333z" fill="#ffe100" stroke="#000000" stroke-width="5"/><path d="M221.83341,146.65479c0,-6.67344 8.13349,-12.08333 18.16666,-12.08333c10.03318,0 18.16667,5.40989 18.16667,12.08333c0,6.67344 -8.13349,12.08333 -18.16667,12.08333c-10.03317,0 -18.16666,-5.40989 -18.16666,-12.08333z" fill="#ffe100" stroke="none" stroke-width="2.5"/><path d="M221.83341,146.65481c0,-6.67344 8.13349,-12.08333 18.16667,-12.08333c10.03317,0 18.16667,5.40989 18.16667,12.08333c0,6.67344 -8.13349,12.08333 -18.16667,12.08333c-10.03317,0 -18.16667,-5.40989 -18.16667,-12.08333z" fill="#0098ff" stroke="none" stroke-width="0"/><path d="M204.90182,210.31944c-2.57757,-2.13956 -2.0703,-15.321 -1.97388,-30.37916c0.08487,-13.2538 -0.57249,-28.57445 1.97388,-30.56111c2.60808,-2.0348 19.11188,-1.41275 35.49635,-1.40611c16.31889,0.00661 32.51935,-0.61039 34.75397,1.40611c2.60968,2.35492 1.96615,16.58699 1.9246,30.73886c-0.04119,14.02751 0.54196,27.97617 -1.9246,30.2014c-2.5168,2.27053 -18.71368,1.75446 -34.96278,1.74615c-16.27185,-0.00833 -32.59606,0.4879 -35.28755,-1.74615z" fill="#ff2500" stroke="#ffffff" stroke-width="5"/><path d="M234.82706,129.90855c-1.6501,-0.96521 -2.80896,-1.99409 -1.91216,-2.9652c1.33842,-1.44934 7.60936,-1.64771 9.3445,-0.3595c1.62371,1.20551 0.01712,2.24469 -1.29959,3.25874c1.36096,0.8457 2.14822,1.87725 2.8953,2.89756c-0.672,0.57345 -0.93613,1.3364 -2.016,1.72035c-0.29383,0.10448 -0.76932,0.16747 -1.35157,0.19533c0.31282,0.47407 0.67191,0.92455 1.02905,1.32855c0,0 0.80115,0.91702 -1.01866,1.32074c-1.81981,0.40371 -2.62097,-0.51331 -2.62097,-0.51331c-0.61381,-0.70986 -1.20639,-1.51334 -1.63942,-2.34819c-1.47041,-0.18429 -2.74392,-0.46433 -3.14695,-0.78272c-1.8368,-1.45102 0.49112,-2.55449 1.7365,-3.75235z" fill="#ffe100" stroke="#000000" stroke-width="5"/><path d="M234.82706,129.90855c-1.6501,-0.96521 -2.80896,-1.99409 -1.91216,-2.9652c1.33842,-1.44934 7.60936,-1.64771 9.3445,-0.3595c1.62371,1.20551 0.01712,2.24469 -1.29959,3.25874c1.36096,0.8457 2.14822,1.87725 2.8953,2.89756c-0.672,0.57345 -0.93613,1.3364 -2.016,1.72035c-0.29383,0.10448 -0.76932,0.16747 -1.35157,0.19533c0.31282,0.47407 0.67191,0.92455 1.02905,1.32855c0,0 0.80115,0.91702 -1.01866,1.32074c-1.81981,0.40371 -2.62097,-0.51331 -2.62097,-0.51331c-0.61381,-0.70986 -1.20639,-1.51334 -1.63942,-2.34819c-1.47041,-0.18429 -2.74392,-0.46433 -3.14695,-0.78272c-1.8368,-1.45102 0.49112,-2.55449 1.7365,-3.75235z" fill="#ffe100" stroke="none" stroke-width="0.5"/><path d="M234.1904,177.28521c0,0 12.43601,-0.00526 18.08404,-0.00526c1.47949,0 2.67874,1.19953 2.67874,2.67874c0,1.47949 -1.19926,2.67853 -2.67874,2.67853c-4.73524,0 -18.0695,0.00553 -18.0695,0.00553c0,0 0.89521,0.90595 5.02507,5.03554c1.04618,1.04623 1.04618,2.7421 0,3.78806c-1.04672,1.04596 -2.74237,1.04623 -3.78833,0c-3.34873,-3.34824 -9.61027,-9.61048 -9.61027,-9.61048c-1.04596,-1.04623 -1.04596,-2.74232 0,-3.78806c0,0 5.40354,-5.40376 9.53335,-9.53362c1.04672,-1.04672 2.74259,-1.04672 3.78833,0c1.04623,1.04601 1.04623,2.74237 0,3.78757c-3.34878,3.34976 -4.96269,4.96345 -4.96269,4.96345z" fill="#ffffff" stroke="#000000" stroke-width="0"/></g></g></svg>