<svg version="1.1" xmlns="http://www.w3.org/2000/svg" xmlns:xlink="http://www.w3.org/1999/xlink" width="533" height="377" viewBox="0,0,533,377"><defs><linearGradient x1="329.39886" y1="339.05683" x2="329.39886" y2="354.47389" gradientUnits="userSpaceOnUse" id="color-1"><stop offset="0" stop-color="#ff4af6"/><stop offset="1" stop-color="#b692ff"/></linearGradient></defs><g transform="translate(26.5,8.5)"><g data-paper-data="{&quot;isPaintingLayer&quot;:true}" fill-rule="nonzero" stroke="none" stroke-width="0" stroke-linecap="butt" stroke-linejoin="miter" stroke-miterlimit="10" stroke-dasharray="" stroke-dashoffset="0" style="mix-blend-mode: normal"><path d="M-26.5,368.5v-377h533v377z" fill="none"/><path d="M173.8492,341.54347c0,0 19.06052,-1.49198 37.16953,-1.49198c13.04102,0 38.43892,1.38699 68.72052,1.23272c14.74589,-0.07513 30.64962,-0.5824 46.84858,-0.54777c16.45366,0.03519 33.2117,-0.38098 49.36973,-0.27541c20.0137,0.13076 39.10703,0.79632 55.56142,0.96098c31.57267,0.31596 53.42938,0.61879 53.42938,0.61879v9.94648c0,0 -52.24176,4.97325 -88.39462,4.97325c-16.53757,0 -42.0395,-1.90669 -69.9655,-1.78908c-15.45512,0.06509 -29.77854,0.98572 -45.60989,0.83169c-11.34133,-0.11034 -24.3687,2.02159 -34.92647,1.76354c-1.48534,-0.0363 -20.2888,-1.24898 -47.86939,-7.44606c-27.58059,-6.19708 -24.33329,-8.77715 -24.33329,-8.77715z" fill="url(#color-1)"/></g></g></svg>