<svg version="1.1" xmlns="http://www.w3.org/2000/svg" xmlns:xlink="http://www.w3.org/1999/xlink" width="89.83333" height="89.83333" viewBox="0,0,89.83333,89.83333"><g transform="translate(-195.0834,-135.08336)"><g data-paper-data="{&quot;isPaintingLayer&quot;:true}" fill-rule="nonzero" stroke-linecap="butt" stroke-linejoin="miter" stroke-miterlimit="10" stroke-dasharray="" stroke-dashoffset="0" style="mix-blend-mode: normal"><path d="M195.08341,224.91669v-89.83333h89.83333v89.83333z" fill="none" stroke="none" stroke-width="0"/><path d="M253.64188,192.0331c-1.27543,1.02496 -3.62058,-0.00559 -4.85828,-0.60799c-2.91361,-1.41807 -4.70847,-3.00021 -2.65065,-6.15905c0.58548,-0.34122 1.17322,-0.67888 1.76919,-1.00141c0,0 2.29253,-3.15447 2.53083,-3.15589c0.41921,-0.26761 1.59224,0.63155 2.50015,1.19525l-0.06558,3.53934c0,0 2.40349,4.88054 0.77434,6.18975z" data-paper-data="{&quot;index&quot;:null}" fill="#00ade2" stroke="#006280" stroke-width="4"/><path d="M253.64188,192.0331c-1.27543,1.02496 -3.62058,-0.00559 -4.85828,-0.60799c-2.91361,-1.41807 -4.70847,-3.00021 -2.65065,-6.15905c0.58548,-0.34122 1.17322,-0.67888 1.76919,-1.00141c0,0 2.29253,-3.15447 2.53083,-3.15589c0.41921,-0.26761 1.59224,0.63155 2.50015,1.19525l-0.06558,3.53934c0,0 2.40349,4.88054 0.77434,6.18975z" data-paper-data="{&quot;index&quot;:null}" fill="#00ade2" stroke="none" stroke-width="0.5"/><path d="M229.09467,186.19766l-0.06558,-3.53934c0.90791,-0.5637 2.08094,-1.46286 2.50015,-1.19525c0.2383,0.00142 2.53083,3.15589 2.53083,3.15589c0.59597,0.32253 1.18371,0.66019 1.76919,1.00141c2.05782,3.15884 0.26296,4.74098 -2.65065,6.15905c-1.2377,0.6024 -3.58285,1.63295 -4.85828,0.60799c-1.62915,-1.30921 0.77434,-6.18975 0.77434,-6.18975z" data-paper-data="{&quot;index&quot;:null}" fill="#00ade2" stroke="#006280" stroke-width="4"/><path d="M234.34381,153.60584c2.02235,-1.2018 10.25644,-1.23315 13.08794,0.70364c4.04562,2.76727 3.85073,9.14547 1.29432,12.8542c-0.96848,1.40504 -2.42987,2.22187 -3.81828,3.14113c-4.90811,1.94402 -13.88996,0.22792 -15.53423,-5.63925c-0.29383,-1.04847 -0.48143,-4.24449 0.60592,-6.57869c1.13793,-2.4428 3.57698,-4.01314 4.36432,-4.48103z" fill="#ffffff" stroke="#000000" stroke-width="4"/><path d="M237.95089,164.32356c-1.25,0 -1.25,-1.25 -1.25,-1.25c0,-0.41667 0,-1.33333 0,-1.75c0,0 0,-1.25 1.25,-1.25c1.25,0 1.25,1.25 1.25,1.25c0,0.41667 0,0.83333 0,1.25v0.5c0,0 0,1.25 -1.25,1.25z" fill="#000000" stroke="#000000" stroke-width="4"/><path d="M245.95089,163.40688c-1.25,0 -1.25,-1.25 -1.25,-1.25l0.02427,-0.00485c-0.08333,-0.41667 -0.16667,-0.83333 -0.25,-1.25c0,0 -0.24515,-1.22573 0.98058,-1.47087c1.22573,-0.24515 1.47087,0.98058 1.47087,0.98058c0.08333,0.41667 0.16667,0.83333 0.25,1.25l0.02427,0.49515c0,0 0,1.25 -1.25,1.25z" fill="#000000" stroke="#000000" stroke-width="4"/><path d="M229.09467,186.19766l-0.06558,-3.53934c0.90791,-0.5637 2.08094,-1.46286 2.50015,-1.19525c0.2383,0.00142 2.53083,3.15589 2.53083,3.15589c0.59597,0.32253 1.18371,0.66019 1.76919,1.00141c2.05782,3.15884 0.26296,4.74098 -2.65065,6.15905c-1.2377,0.6024 -3.58285,1.63295 -4.85828,0.60799c-1.62915,-1.30921 0.77434,-6.18975 0.77434,-6.18975z" data-paper-data="{&quot;index&quot;:null}" fill="#00ade2" stroke="none" stroke-width="0.5"/><path d="M253.63535,175.84093c-1.784,-0.70781 -4.63813,1.40286 -4.93826,-1.45597c-0.1852,-1.76403 -0.29651,-0.69701 0.1966,-4.02215c0.30602,-2.06367 -4.96911,-6.412 1.97379,-4.38137c6.94291,2.03063 13.47645,0.91588 15.74875,2.05297c2.2723,1.13709 3.68134,1.63794 4.42153,2.68723c1.10298,1.24183 3.12172,5.13507 1.25571,6.34113c-0.62901,0.07811 -0.65198,0.09405 -1.1014,-0.13989c0.2914,0.49099 0.10748,0.9492 -0.06835,1.2679c-1.18986,2.15692 -2.65682,0.5217 -3.61715,-0.55494c-0.44645,-0.50472 -0.97182,-1.37859 -2.13355,-1.31873c-1.16174,0.05986 -2.14292,1.46738 -2.49463,1.61832c-1.66479,-0.13305 -1.59841,-2.23555 -1.6659,-3.88767c-0.02532,-0.61984 -7.57714,1.7932 -7.57714,1.7932z" data-paper-data="{&quot;index&quot;:null}" fill="#00ade2" stroke="#006280" stroke-width="4"/><path d="M253.63535,175.84093c-1.784,-0.70781 -4.63813,1.40286 -4.93826,-1.45597c-0.1852,-1.76403 -0.29651,-0.69701 0.1966,-4.02215c0.30602,-2.06367 -4.96911,-6.412 1.97379,-4.38137c6.94291,2.03063 13.47645,0.91588 15.74875,2.05297c2.2723,1.13709 3.68134,1.63794 4.42153,2.68723c1.10298,1.24183 3.12172,5.13507 1.25571,6.34113c-0.62901,0.07811 -0.65198,0.09405 -1.1014,-0.13989c0.2914,0.49099 0.10748,0.9492 -0.06835,1.2679c-1.18986,2.15692 -2.65682,0.5217 -3.61715,-0.55494c-0.44645,-0.50472 -0.97182,-1.37859 -2.13355,-1.31873c-1.16174,0.05986 -2.14292,1.46738 -2.49463,1.61832c-1.66479,-0.13305 -1.59841,-2.23555 -1.6659,-3.88767c-0.02532,-0.61984 -7.57714,1.7932 -7.57714,1.7932z" data-paper-data="{&quot;index&quot;:null}" fill="#00ade2" stroke="none" stroke-width="0.5"/><path d="M218.12969,176.816c0.132,1.57367 0.4443,3.55826 -1.1176,3.88181c-0.3512,-0.10133 -1.44799,-1.31879 -2.55603,-1.23773c-1.10804,0.08106 -1.50226,0.97151 -1.86547,1.50278c-0.78236,1.13419 -1.97859,2.85785 -3.36202,0.95494c-0.20442,-0.28118 -0.43306,-0.69358 -0.21514,-1.19344c-0.39816,0.27498 -0.42182,0.26262 -1.02717,0.2632c-1.91138,-0.9216 -0.4601,-4.85054 0.43787,-6.15821c0.577,-1.08216 1.85289,-1.72392 3.87138,-3.07102c2.01849,-1.3471 8.34234,-1.06564 14.68102,-3.81352c6.33869,-2.74787 1.8554,1.99859 2.39017,3.91795c0.8617,3.09263 0.62965,2.09466 0.66337,3.78833c0.05467,2.74481 -2.90043,1.08313 -4.50712,1.9655c0,0 -7.4428,-1.39101 -7.39328,-0.8006z" fill="#00ade2" stroke="#006280" stroke-width="4"/><path d="M218.12969,176.816c0.132,1.57367 0.4443,3.55826 -1.1176,3.88181c-0.3512,-0.10133 -1.44799,-1.31879 -2.55603,-1.23773c-1.10804,0.08106 -1.50226,0.97151 -1.86547,1.50278c-0.78236,1.13419 -1.97859,2.85785 -3.36202,0.95494c-0.20442,-0.28118 -0.43306,-0.69358 -0.21514,-1.19344c-0.39816,0.27498 -0.42182,0.26262 -1.02717,0.2632c-1.91138,-0.9216 -0.4601,-4.85054 0.43787,-6.15821c0.577,-1.08216 1.85289,-1.72392 3.87138,-3.07102c2.01849,-1.3471 8.34234,-1.06564 14.68102,-3.81352c6.33869,-2.74787 1.8554,1.99859 2.39017,3.91795c0.8617,3.09263 0.62965,2.09466 0.66337,3.78833c0.05467,2.74481 -2.90043,1.08313 -4.50712,1.9655c0,0 -7.4428,-1.39101 -7.39328,-0.8006z" fill="#00ade2" stroke="none" stroke-width="0.5"/><path d="M256.41695,165.31385c0.64732,4.54605 0.92347,6.24209 0.25108,10.20464c-0.67239,3.96255 -2.11191,5.94223 -3.16919,6.9924c-2.3588,2.34292 -12.74686,3.96689 -20.12765,3.1349c-3.9803,-0.44867 -7.34974,-1.29254 -8.393,-4.08967c-1.04326,-2.79714 -1.89192,-13.99058 -0.91262,-20.86009c0.15516,-5.82979 2.73126,-11.49877 11.057,-13.54547c1.01954,-0.25063 2.27387,-0.31935 3.44031,-0.40004c14.10565,-0.97588 17.05863,12.97714 17.85407,18.56334z" fill="#00c3ff" stroke="#006280" stroke-width="4"/><path d="M238.56291,146.75051c15.13245,-0.56888 17.05864,12.97713 17.85408,18.56333c0.64732,4.54605 0.92347,6.24209 0.25108,10.20464c-0.67239,3.96255 -2.11191,5.94223 -3.16919,6.9924c-2.3588,2.34292 -12.74686,3.96689 -20.12765,3.1349c-3.9803,-0.44867 -7.34974,-1.29254 -8.393,-4.08967c-1.04326,-2.79714 -1.89192,-13.99058 -0.91262,-20.86009c0.15516,-5.82979 2.73126,-11.49877 11.057,-13.54547c1.01954,-0.25063 2.27423,-0.31609 3.44031,-0.40004z" fill="#00c3ff" stroke="none" stroke-width="0.5"/><path d="M234.34381,155.94744c2.02235,-1.04067 10.25644,-1.06781 13.08794,0.6093c4.04562,2.39624 3.85073,7.91926 1.29432,11.13073c-0.96848,1.21665 -2.42987,1.92397 -3.81828,2.71997c-4.90811,1.68337 -13.88996,0.19736 -15.53423,-4.88315c-0.29383,-0.90789 -0.48143,-3.6754 0.60592,-5.69663c1.13793,-2.11527 3.57698,-3.47507 4.36432,-3.88022z" fill="#ffffff" stroke="none" stroke-width="0.5"/><path d="M237.0585,167.22381c-1.25,0 -1.25,-1.25 -1.25,-1.25c0,-0.41667 0,-1.33333 0,-1.75c0,0 0,-1.25 1.25,-1.25c1.25,0 1.25,1.25 1.25,1.25c0,0.41667 0,0.83333 0,1.25v0.5c0,0 0,1.25 -1.25,1.25z" fill="#000000" stroke="none" stroke-width="0.5"/><path d="M243.92896,166.97694c-1.24128,-0.14738 -1.0939,-1.38866 -1.0939,-1.38866l0.02467,-0.00195c-0.03362,-0.42359 -0.06726,-0.84717 -0.10088,-1.27076c0,0 -0.09892,-1.24608 1.14716,-1.345c1.24608,-0.09892 1.345,1.14716 1.345,1.14716c0.03362,0.42359 0.06726,0.84717 0.10088,1.27076l-0.03428,0.49456c0,0 -0.14738,1.24128 -1.38866,1.0939z" fill="#000000" stroke="none" stroke-width="0.5"/></g></g></svg>