<svg version="1.1" xmlns="http://www.w3.org/2000/svg" xmlns:xlink="http://www.w3.org/1999/xlink" width="89.83333" height="89.83333" viewBox="0,0,89.83333,89.83333"><g transform="translate(-195.08339,-135.08336)"><g data-paper-data="{&quot;isPaintingLayer&quot;:true}" fill-rule="nonzero" stroke-linecap="butt" stroke-linejoin="miter" stroke-miterlimit="10" stroke-dasharray="" stroke-dashoffset="0" style="mix-blend-mode: normal"><path d="M195.0834,224.91669v-89.83333h89.83333v89.83333z" fill="none" stroke="none" stroke-width="0"/><path d="M232.83879,199.96047l1.50912,-3.20215c1.06368,-0.10317 2.51365,-0.38964 2.77093,0.03599c0.21301,0.10684 0.8709,3.95048 0.8709,3.95048c0.39142,0.55317 0.76876,1.11625 1.1425,1.68153c0.44553,3.74358 -1.86449,4.36689 -5.1048,4.34751c-1.37649,-0.00823 -3.9355,-0.12321 -4.6249,-1.60712c-0.8806,-1.89544 3.43625,-5.20623 3.43625,-5.20623z" data-paper-data="{&quot;index&quot;:null}" fill="#00ade2" stroke="#006280" stroke-width="4"/><path d="M247.4532,206.39471c-3.23316,0.21618 -5.57677,-0.26565 -5.35948,-4.02938c0.3387,-0.58693 0.68115,-1.17191 1.03824,-1.74783c0,0 0.42319,-3.8765 0.62932,-3.99608c0.23096,-0.44047 1.69565,-0.2426 2.76363,-0.20425l1.70084,3.10456c0,0 4.0181,2.12246 3.74617,4.54169c-0.27193,2.41923 -3.14527,2.23946 -4.51872,2.33129z" fill="#00ade2" stroke="#006280" stroke-width="4"/><path d="M250.47857,181.5689c-1.65121,-1.48106 -5.5901,-0.33418 -4.77199,-3.55396c0.50481,-1.98676 -0.04268,-0.87434 1.82203,-4.28243c1.15728,-2.11515 -2.82301,-8.93995 3.89267,-3.96104c6.71568,4.97892 14.24567,6.38366 16.2546,8.52548c2.00893,2.14183 3.33636,3.2485 3.71921,4.68227c0.69919,1.78767 1.33073,6.81646 -1.17493,7.37774c-0.71325,-0.16691 -0.74454,-0.15882 -1.13824,-0.59224c0.11956,0.64893 -0.26315,1.07217 -0.58127,1.3474c-2.15289,1.86273 -3.08938,-0.49707 -3.69996,-2.04857c-0.28218,-0.72583 -0.50227,-1.88348 -1.78584,-2.28328c-1.28357,-0.39979 -2.91045,0.73384 -3.35217,0.75684c-1.75186,-0.81018 -0.83888,-3.06329 -0.25121,-4.88163c0.22048,-0.6822 -8.93289,-1.08657 -8.93289,-1.08657z" data-paper-data="{&quot;index&quot;:null}" fill="#00ade2" stroke="#006280" stroke-width="4"/><path d="M220.79839,183.07222c0.69385,1.78053 1.73809,3.9759 0.03703,4.88795c-0.44231,0.00309 -2.13319,-1.03265 -3.39096,-0.55789c-1.25777,0.47477 -1.40923,1.64338 -1.64812,2.38459c-0.51805,1.58479 -1.31379,3.9957 -3.57275,2.26314c-0.33379,-0.25601 -0.74077,-0.65595 -0.65968,-1.31079c-0.36749,0.45586 -0.39919,0.44964 -1.10136,0.65831c-2.53438,-0.41258 -2.20042,-5.46986 -1.60784,-7.29564c0.29765,-1.45385 1.55753,-2.63685 3.43669,-4.89338c1.87916,-2.25653 9.31324,-4.10277 15.7237,-9.46895c6.41047,-5.36618 2.83945,1.68141 4.11942,3.72465c2.06239,3.29223 1.45027,2.21403 2.07132,4.16757c1.00652,3.16594 -2.99314,2.25328 -4.55416,3.82912c0,0 -9.11361,0.94331 -8.8533,1.61133z" fill="#00ade2" stroke="#006280" stroke-width="4"/><path d="M256.07212,173.43361c0.64732,5.68547 0.92347,7.80661 0.25108,12.76233c-0.67239,4.95572 -2.11191,7.43159 -3.16919,8.74497c-2.3588,2.93015 -12.74686,4.96115 -20.12765,3.92063c-3.9803,-0.56112 -7.34974,-1.6165 -8.393,-5.1147c-1.04326,-3.49821 -1.89192,-17.49718 -0.91262,-26.08846c0.15516,-7.29097 2.73126,-14.38082 11.057,-16.94051c1.01954,-0.31345 2.09026,-0.34841 3.44031,-0.50031c14.98419,-1.68599 17.07262,16.3526 17.85407,23.21605z" fill="#00c3ff" stroke="#006280" stroke-width="4"/><path d="M233.99898,157.06069c2.02235,-1.2018 10.25644,-1.23315 13.08794,0.70364c4.04562,2.76727 3.85073,9.14547 1.29432,12.8542c-0.96848,1.40504 -2.42987,2.22187 -3.81828,3.14113c-4.90811,1.94402 -13.88996,0.22792 -15.53423,-5.63925c-0.29383,-1.04847 -0.48143,-4.24449 0.60592,-6.57869c1.13793,-2.4428 3.57698,-4.01314 4.36432,-4.48103z" fill="#ffffff" stroke="#000000" stroke-width="4"/><path d="M236.2727,168.61172c-1.25,0 -1.25,-1.25 -1.25,-1.25c0,-0.41667 0,-1.33333 0,-1.75c0,0 0,-1.25 1.25,-1.25c1.25,0 1.25,1.25 1.25,1.25c0,0.41667 0,0.83333 0,1.25v0.5c0,0 0,1.25 -1.25,1.25z" fill="#000000" stroke="#000000" stroke-width="4"/><path d="M244.2727,168.36172c-1.25,0 -1.25,-1.25 -1.25,-1.25l0.02427,-0.00485c-0.08333,-0.41667 -0.16667,-0.83333 -0.25,-1.25c0,0 -0.24515,-1.22573 0.98058,-1.47087c1.22573,-0.24515 1.47087,0.98058 1.47087,0.98058c0.08333,0.41667 0.16667,0.83333 0.25,1.25l0.02427,0.49515c0,0 0,1.25 -1.25,1.25z" fill="#000000" stroke="#000000" stroke-width="4"/><path d="M232.8388,199.96047l1.50912,-3.20215c1.06368,-0.10317 2.51365,-0.38964 2.77093,0.03599c0.21301,0.10684 0.8709,3.95048 0.8709,3.95048c0.39142,0.55317 0.76876,1.11625 1.1425,1.68153c0.44553,3.74358 -1.86449,4.36689 -5.1048,4.34751c-1.37649,-0.00823 -3.9355,-0.12321 -4.6249,-1.60712c-0.8806,-1.89544 3.43625,-5.20623 3.43625,-5.20623z" data-paper-data="{&quot;index&quot;:null}" fill="#00ade2" stroke="none" stroke-width="0.5"/><path d="M251.97193,204.50961c-0.59798,1.52305 -3.14529,1.79327 -4.51874,1.8851c-3.23316,0.21618 -5.57677,-0.26565 -5.35948,-4.02938c0.3387,-0.58693 0.68115,-1.17191 1.03824,-1.74783c0,0 0.42319,-3.8765 0.62932,-3.99608c0.23096,-0.44047 1.69565,-0.2426 2.76363,-0.20425l1.70084,3.10456c0,0 4.50999,3.04244 3.74617,4.98788z" fill="#00ade2" stroke="none" stroke-width="0.5"/><path d="M250.47858,181.5689c-1.65121,-1.48106 -5.5901,-0.33418 -4.77199,-3.55396c0.50481,-1.98676 -0.04268,-0.87434 1.82203,-4.28243c1.15728,-2.11515 -2.82301,-8.93995 3.89267,-3.96104c6.71568,4.97892 14.24567,6.38366 16.2546,8.52548c2.00893,2.14183 3.33636,3.2485 3.71921,4.68227c0.69919,1.78767 1.33073,6.81646 -1.17493,7.37774c-0.71325,-0.16691 -0.74454,-0.15882 -1.13824,-0.59224c0.11956,0.64893 -0.26315,1.07217 -0.58127,1.3474c-2.15289,1.86273 -3.08938,-0.49707 -3.69996,-2.04857c-0.28218,-0.72583 -0.50227,-1.88348 -1.78584,-2.28328c-1.28357,-0.39979 -2.91045,0.73384 -3.35217,0.75684c-1.75186,-0.81018 -0.83888,-3.06329 -0.25121,-4.88163c0.22048,-0.6822 -8.93289,-1.08657 -8.93289,-1.08657z" data-paper-data="{&quot;index&quot;:null}" fill="#00ade2" stroke="none" stroke-width="0.5"/><path d="M220.7984,183.07222c0.69385,1.78053 1.73809,3.9759 0.03703,4.88795c-0.44231,0.00309 -2.13319,-1.03265 -3.39096,-0.55789c-1.25777,0.47477 -1.40923,1.64338 -1.64812,2.38459c-0.51805,1.58479 -1.31379,3.9957 -3.57275,2.26314c-0.33379,-0.25601 -0.74077,-0.65595 -0.65968,-1.31079c-0.36749,0.45586 -0.39919,0.44964 -1.10136,0.65831c-2.53438,-0.41258 -2.20042,-5.46986 -1.60784,-7.29564c0.29765,-1.45385 1.55753,-2.63685 3.43669,-4.89338c1.87916,-2.25653 9.31324,-4.10277 15.7237,-9.46895c6.41047,-5.36618 2.83945,1.68141 4.11942,3.72465c2.06239,3.29223 1.45027,2.21403 2.07132,4.16757c1.00652,3.16594 -2.99314,2.25328 -4.55416,3.82912c0,0 -9.11361,0.94331 -8.8533,1.61133z" fill="#00ade2" stroke="none" stroke-width="0.5"/><path d="M238.21807,150.21756c15.13245,-0.71147 17.05864,16.22972 17.85408,23.21604c0.64732,5.68547 0.92347,7.80661 0.25108,12.76233c-0.67239,4.95572 -2.11191,7.43159 -3.16919,8.74497c-2.3588,2.93015 -12.74686,4.96115 -20.12765,3.92063c-3.9803,-0.56112 -7.34974,-1.6165 -8.393,-5.1147c-1.04326,-3.49821 -1.89192,-17.49718 -0.91262,-26.08846c0.15516,-7.29097 2.73126,-14.38082 11.057,-16.94051c1.01954,-0.31345 2.27423,-0.39532 3.44031,-0.50031z" fill="#00c3ff" stroke="none" stroke-width="0.5"/><path d="M233.99898,157.06069c2.02235,-1.2018 10.25644,-1.23315 13.08794,0.70364c4.04562,2.76727 3.85073,9.14547 1.29432,12.8542c-0.96848,1.40504 -2.42987,2.22187 -3.81828,3.14113c-4.90811,1.94402 -13.88996,0.22792 -15.53423,-5.63925c-0.29383,-1.04847 -0.48143,-4.24449 0.60592,-6.57869c1.13793,-2.4428 3.57698,-4.01314 4.36432,-4.48103z" fill="#ffffff" stroke="none" stroke-width="0.5"/><path d="M236.2727,168.61172c-1.25,0 -1.25,-1.25 -1.25,-1.25c0,-0.41667 0,-1.33333 0,-1.75c0,0 0,-1.25 1.25,-1.25c1.25,0 1.25,1.25 1.25,1.25c0,0.41667 0,0.83333 0,1.25v0.5c0,0 0,1.25 -1.25,1.25z" fill="#000000" stroke="none" stroke-width="0.5"/><path d="M244.2727,168.36172c-1.25,0 -1.25,-1.25 -1.25,-1.25l0.02427,-0.00485c-0.08333,-0.41667 -0.16667,-0.83333 -0.25,-1.25c0,0 -0.24515,-1.22573 0.98058,-1.47087c1.22573,-0.24515 1.47087,0.98058 1.47087,0.98058c0.08333,0.41667 0.16667,0.83333 0.25,1.25l0.02427,0.49515c0,0 0,1.25 -1.25,1.25z" fill="#000000" stroke="none" stroke-width="0.5"/></g></g></svg>