<svg version="1.1" xmlns="http://www.w3.org/2000/svg" xmlns:xlink="http://www.w3.org/1999/xlink" width="533" height="377" viewBox="0,0,533,377"><defs><linearGradient x1="53.64694" y1="269.25048" x2="53.64694" y2="284.66754" gradientUnits="userSpaceOnUse" id="color-1"><stop offset="0" stop-color="#ff4af6"/><stop offset="1" stop-color="#b692ff"/></linearGradient></defs><g transform="translate(26.5,8.5)"><g data-paper-data="{&quot;isPaintingLayer&quot;:true}" fill-rule="nonzero" stroke="none" stroke-width="0" stroke-linecap="butt" stroke-linejoin="miter" stroke-miterlimit="10" stroke-dasharray="" stroke-dashoffset="0" style="mix-blend-mode: normal"><path d="M-26.5,368.5v-377h533v377z" fill="none"/><path d="M-4.08748,282.18093v-10.44381c0,0 7.07458,-1.49198 13.79599,-1.49198c4.84036,0 14.26714,1.38699 25.50658,1.23272c5.47314,-0.07513 11.37603,-0.5824 17.3885,-0.54777c6.10701,0.03519 12.32698,-0.38098 18.32426,-0.27541c7.42836,0.13076 14.51512,0.79632 20.6224,0.96098c11.71864,0.31596 19.83106,0.61879 19.83106,0.61879v9.94648c0,0 -19.39026,4.97325 -32.8089,4.97325c-6.13815,0 -15.60355,-1.90669 -25.96867,-1.78908c-5.73638,0.06509 -11.05272,0.98572 -16.92875,0.83169c-4.20949,-0.11034 -9.04478,2.02159 -12.96345,1.76354c-0.55131,-0.0363 -26.79905,-5.77939 -26.79905,-5.77939z" fill="url(#color-1)"/></g></g></svg>