<svg version="1.1" xmlns="http://www.w3.org/2000/svg" xmlns:xlink="http://www.w3.org/1999/xlink" width="89.83333" height="89.83333" viewBox="0,0,89.83333,89.83333"><g transform="translate(-195.08334,-135.08333)"><g data-paper-data="{&quot;isPaintingLayer&quot;:true}" fill-rule="nonzero" stroke-linecap="butt" stroke-linejoin="miter" stroke-miterlimit="10" stroke-dasharray="" stroke-dashoffset="0" style="mix-blend-mode: normal"><path d="M195.08335,224.91667v-89.83333h89.83333v89.83333z" fill="none" stroke="none" stroke-width="0"/><path d="M236.81776,209.79644c-1.27543,1.02496 -3.62058,-0.00559 -4.85828,-0.60799c-2.91361,-1.41807 -4.70847,-3.00021 -2.65065,-6.15905c0.58548,-0.34122 1.17322,-0.67888 1.76919,-1.00141c0,0 2.29253,-3.15447 2.53083,-3.15589c0.41921,-0.26761 1.59224,0.63155 2.50015,1.19525l-0.06558,3.53934c0,0 2.40349,4.88054 0.77434,6.18975z" fill="#00ade2" stroke="#006280" stroke-width="4"/><path d="M249.76691,205.84888c-3.17591,0.64316 -5.56273,0.47647 -5.84662,-3.28282c0.25785,-0.62667 0.51967,-1.25191 0.79721,-1.87011c0,0 -0.09478,-3.89838 0.09367,-4.04425c0.17049,-0.46721 1.64848,-0.46539 2.71211,-0.56905l2.09764,2.8515c0,0 4.87372,2.41729 4.37472,4.44686c0,0 -2.8796,2.19466 -4.22873,2.46787z" fill="#00ade2" stroke="#006280" stroke-width="4"/><path d="M251.05813,184.82777c-2.06176,-0.81801 -5.36026,1.62128 -5.70712,-1.68266c-0.21404,-2.03868 -0.34267,-0.80553 0.22721,-4.64837c0.35367,-2.38497 -5.74277,-7.41031 2.2811,-5.06352c8.02388,2.34679 15.57465,1.05848 18.20073,2.3726c2.62608,1.31413 4.2545,1.89296 5.10993,3.10561c1.27471,1.43518 3.60775,5.93457 1.45122,7.3284c-0.72694,0.09027 -0.75349,0.10869 -1.27288,-0.16167c0.33677,0.56743 0.12421,1.09698 -0.07899,1.4653c-1.37511,2.49274 -3.07047,0.60293 -4.18032,-0.64134c-0.51596,-0.5833 -1.12313,-1.59323 -2.46573,-1.52405c-1.34261,0.06918 -2.47656,1.69584 -2.88303,1.87028c-1.92399,-0.15376 -1.84727,-2.58361 -1.92527,-4.49296c-0.02926,-0.71635 -8.75685,2.07239 -8.75685,2.07239z" data-paper-data="{&quot;index&quot;:null}" fill="#00ade2" stroke="#006280" stroke-width="4"/><path d="M220.01172,184.44012c0.15973,1.90426 0.53764,4.30577 -1.35238,4.69729c-0.42498,-0.12262 -1.75218,-1.59584 -3.09299,-1.49775c-1.34081,0.09809 -1.81785,1.1756 -2.25736,1.81848c-0.94672,1.37246 -2.39425,3.45821 -4.0683,1.15555c-0.24736,-0.34025 -0.52403,-0.83929 -0.26034,-1.44415c-0.4818,0.33275 -0.51043,0.31779 -1.24295,0.31849c-2.31292,-1.11521 -0.55675,-5.86952 0.52985,-7.4519c0.69821,-1.30949 2.24214,-2.08608 4.68467,-3.71617c2.44253,-1.63009 10.09487,-1.28951 17.76515,-4.61465c7.6703,-3.32513 2.24517,2.41844 2.89229,4.74102c1.04272,3.74232 0.76193,2.5347 0.80273,4.58417c0.06616,3.32143 -3.50974,1.31067 -5.45396,2.37841c0,0 -9.00635,-1.68323 -8.94643,-0.96879z" fill="#00ade2" stroke="#006280" stroke-width="4"/><path d="M256.41692,175.11752c0.64732,5.68547 0.92347,7.80661 0.25108,12.76233c-0.67239,4.95572 -2.11191,7.43159 -3.16919,8.74497c-2.3588,2.93015 -12.74686,4.96115 -20.12765,3.92063c-3.9803,-0.56112 -7.34974,-1.6165 -8.393,-5.1147c-1.04326,-3.49821 -1.89192,-17.49718 -0.91262,-26.08846c0.15516,-7.29097 2.73126,-14.38082 11.057,-16.94051c1.01954,-0.31345 2.27387,-0.39939 3.44031,-0.50031c14.10565,-1.22047 17.05863,16.22973 17.85407,23.21605z" fill="#00c3ff" stroke="#006280" stroke-width="4"/><path d="M234.34377,158.7446c2.02235,-1.2018 10.25644,-1.23315 13.08794,0.70364c4.04562,2.76727 3.85073,9.14547 1.29432,12.8542c-0.96848,1.40504 -2.42987,2.22187 -3.81828,3.14113c-4.90811,1.94402 -13.88996,0.22792 -15.53423,-5.63925c-0.29383,-1.04847 -0.48143,-4.24449 0.60592,-6.57869c1.13793,-2.4428 3.57698,-4.01314 4.36432,-4.48103z" fill="#ffffff" stroke="#000000" stroke-width="4"/><path d="M237.95083,169.46231c-1.25,0 -1.25,-1.25 -1.25,-1.25c0,-0.41667 0,-1.33333 0,-1.75c0,0 0,-1.25 1.25,-1.25c1.25,0 1.25,1.25 1.25,1.25c0,0.41667 0,0.83333 0,1.25v0.5c0,0 0,1.25 -1.25,1.25z" fill="#000000" stroke="#000000" stroke-width="4"/><path d="M245.95083,168.54564c-1.25,0 -1.25,-1.25 -1.25,-1.25l0.02427,-0.00485c-0.08333,-0.41667 -0.16667,-0.83333 -0.25,-1.25c0,0 -0.24515,-1.22573 0.98058,-1.47087c1.22573,-0.24515 1.47087,0.98058 1.47087,0.98058c0.08333,0.41667 0.16667,0.83333 0.25,1.25l0.02427,0.49515c0,0 0,1.25 -1.25,1.25z" fill="#000000" stroke="#000000" stroke-width="4"/><path d="M236.81776,209.79644c-1.27543,1.02496 -3.62058,-0.00559 -4.85828,-0.60799c-2.91361,-1.41807 -4.70847,-3.00021 -2.65065,-6.15905c0.58548,-0.34122 1.17322,-0.67888 1.76919,-1.00141c0,0 2.29253,-3.15447 2.53083,-3.15589c0.41921,-0.26761 1.59224,0.63155 2.50015,1.19525l-0.06558,3.53934c0,0 2.40349,4.88054 0.77434,6.18975z" fill="#00ade2" stroke="none" stroke-width="0.5"/><path d="M253.99564,203.38102c-0.39066,1.58891 -2.87961,2.19465 -4.22874,2.46786c-3.17591,0.64316 -5.56273,0.47647 -5.84662,-3.28282c0.25785,-0.62667 0.51967,-1.25191 0.79721,-1.87011c0,0 -0.09478,-3.89838 0.09367,-4.04425c0.17049,-0.46721 1.64848,-0.46539 2.71211,-0.56905l2.09764,2.8515c0,0 4.87372,2.41729 4.37472,4.44686z" fill="#00ade2" stroke="none" stroke-width="0.5"/><path d="M251.05813,184.82777c-2.06176,-0.81801 -5.36026,1.62128 -5.70712,-1.68266c-0.21404,-2.03868 -0.34267,-0.80553 0.22721,-4.64837c0.35367,-2.38497 -5.74277,-7.41031 2.2811,-5.06352c8.02388,2.34679 15.57465,1.05848 18.20073,2.3726c2.62608,1.31413 4.2545,1.89296 5.10993,3.10561c1.27471,1.43518 3.60775,5.93457 1.45122,7.3284c-0.72694,0.09027 -0.75349,0.10869 -1.27288,-0.16167c0.33677,0.56743 0.12421,1.09698 -0.07899,1.4653c-1.37511,2.49274 -3.07047,0.60293 -4.18032,-0.64134c-0.51596,-0.5833 -1.12313,-1.59323 -2.46573,-1.52405c-1.34261,0.06918 -2.47656,1.69584 -2.88303,1.87028c-1.92399,-0.15376 -1.84727,-2.58361 -1.92527,-4.49296c-0.02926,-0.71635 -8.75685,2.07239 -8.75685,2.07239z" data-paper-data="{&quot;index&quot;:null}" fill="#00ade2" stroke="none" stroke-width="0.5"/><path d="M220.01172,184.44012c0.15973,1.90426 0.53764,4.30577 -1.35238,4.69729c-0.42498,-0.12262 -1.75218,-1.59584 -3.09299,-1.49775c-1.34081,0.09809 -1.81785,1.1756 -2.25736,1.81848c-0.94672,1.37246 -2.39425,3.45821 -4.0683,1.15555c-0.24736,-0.34025 -0.52403,-0.83929 -0.26034,-1.44415c-0.4818,0.33275 -0.51043,0.31779 -1.24295,0.31849c-2.31292,-1.11521 -0.55675,-5.86952 0.52985,-7.4519c0.69821,-1.30949 2.24214,-2.08608 4.68467,-3.71617c2.44253,-1.63009 10.09487,-1.28951 17.76515,-4.61465c7.6703,-3.32513 2.24517,2.41844 2.89229,4.74102c1.04272,3.74232 0.76193,2.5347 0.80273,4.58417c0.06616,3.32143 -3.50974,1.31067 -5.45396,2.37841c0,0 -9.00635,-1.68323 -8.94643,-0.96879z" fill="#00ade2" stroke="none" stroke-width="0.5"/><path d="M238.56285,151.90147c15.13245,-0.71147 17.05864,16.22972 17.85408,23.21604c0.64732,5.68547 0.92347,7.80661 0.25108,12.76233c-0.67239,4.95572 -2.11191,7.43159 -3.16919,8.74497c-2.3588,2.93015 -12.74686,4.96115 -20.12765,3.92063c-3.9803,-0.56112 -7.34974,-1.6165 -8.393,-5.1147c-1.04326,-3.49821 -1.89192,-17.49718 -0.91262,-26.08846c0.15516,-7.29097 2.73126,-14.38082 11.057,-16.94051c1.01954,-0.31345 2.27423,-0.39532 3.44031,-0.50031z" fill="#00c3ff" stroke="none" stroke-width="0.5"/><path d="M234.34377,158.7446c2.02235,-1.2018 10.25644,-1.23315 13.08794,0.70364c4.04562,2.76727 3.85073,9.14547 1.29432,12.8542c-0.96848,1.40504 -2.42987,2.22187 -3.81828,3.14113c-4.90811,1.94402 -13.88996,0.22792 -15.53423,-5.63925c-0.29383,-1.04847 -0.48143,-4.24449 0.60592,-6.57869c1.13793,-2.4428 3.57698,-4.01314 4.36432,-4.48103z" fill="#ffffff" stroke="none" stroke-width="0.5"/><path d="M237.95083,169.46231c-1.25,0 -1.25,-1.25 -1.25,-1.25c0,-0.41667 0,-1.33333 0,-1.75c0,0 0,-1.25 1.25,-1.25c1.25,0 1.25,1.25 1.25,1.25c0,0.41667 0,0.83333 0,1.25v0.5c0,0 0,1.25 -1.25,1.25z" fill="#000000" stroke="none" stroke-width="0.5"/><path d="M245.95083,168.54564c-1.25,0 -1.25,-1.25 -1.25,-1.25l0.02427,-0.00485c-0.08333,-0.41667 -0.16667,-0.83333 -0.25,-1.25c0,0 -0.24515,-1.22573 0.98058,-1.47087c1.22573,-0.24515 1.47087,0.98058 1.47087,0.98058c0.08333,0.41667 0.16667,0.83333 0.25,1.25l0.02427,0.49515c0,0 0,1.25 -1.25,1.25z" fill="#000000" stroke="none" stroke-width="0.5"/></g></g></svg>