<svg version="1.1" xmlns="http://www.w3.org/2000/svg" xmlns:xlink="http://www.w3.org/1999/xlink" width="638.78039" height="432.48652" viewBox="0,0,638.78039,432.48652"><defs><linearGradient x1="223.00002" y1="-24.99999" x2="223.00002" y2="218.04506" gradientUnits="userSpaceOnUse" id="color-1"><stop offset="0" stop-color="#00b8ff"/><stop offset="1" stop-color="#ffffff"/></linearGradient><linearGradient x1="264.07491" y1="45.75395" x2="264.07491" y2="378.4318" gradientUnits="userSpaceOnUse" id="color-2"><stop offset="0" stop-color="#bdc6ff"/><stop offset="1" stop-color="#9081ff"/></linearGradient><linearGradient x1="241.00008" y1="-32.46246" x2="241.00008" y2="392.46246" gradientUnits="userSpaceOnUse" id="color-3"><stop offset="0" stop-color="#391166"/><stop offset="1" stop-color="#0c4a71"/></linearGradient><linearGradient x1="220.23988" y1="-21.71589" x2="220.23988" y2="221.32915" gradientUnits="userSpaceOnUse" id="color-4"><stop offset="0" stop-color="#00b8ff"/><stop offset="1" stop-color="#ffffff"/></linearGradient><linearGradient x1="244.81478" y1="49.03805" x2="244.81478" y2="381.71589" gradientUnits="userSpaceOnUse" id="color-5"><stop offset="0" stop-color="#bdc6ff"/><stop offset="1" stop-color="#9081ff"/></linearGradient></defs><g transform="translate(69.76013,32.46246)"><g data-paper-data="{&quot;isPaintingLayer&quot;:true}" fill-rule="nonzero" stroke-linecap="butt" stroke-linejoin="miter" stroke-miterlimit="10" stroke-dasharray="" stroke-dashoffset="0" style="mix-blend-mode: normal"><path d="M-50.49998,218.04506v-243.04505h547v243.04505z" fill="url(#color-1)" stroke="none" stroke-width="0"/><path d="M-9.57307,174.09371c1.90645,-3.67298 4.73624,-7.03572 7.1185,-10.22039c1.44847,-1.93636 2.88108,-4.50933 4.63527,-6.16571c2.97065,-2.80502 7.14078,-4.40201 10.08434,-7.32135c1.16286,-1.15329 2.01549,-2.58208 3.02768,-3.86964c2.2919,-2.34667 4.18783,-4.64189 6.09633,-7.31182c1.04837,-1.46664 1.46148,-3.54839 2.98735,-4.50851c0.97783,-0.61528 2.26762,-0.76324 3.41232,-0.60709c0.24247,0.03308 4.31823,2.45791 4.71176,2.69124c4.05017,2.40149 8.42409,7.03436 10.76701,11.1868c0.40207,0.7126 0.45477,1.59204 0.87827,2.29211c0.82422,1.36249 2.33563,2.21185 3.19148,3.5547c0.2774,0.43524 -0.03646,1.58336 0.46834,1.47584c0.5048,-0.10752 -0.24545,-1.02748 -0.17371,-1.53859c0.10636,-0.75776 0.46444,-1.4582 0.69667,-2.1873c2.65916,-6.2146 5.33508,-12.66532 9.72385,-17.84218c1.26463,-1.49172 3.04117,-5.15041 4.94437,-5.86602c3.11527,-1.17136 5.53389,1.23232 7.91669,2.70012c4.55623,2.80665 8.79834,7.41497 14.29065,8.18341c15.87372,-6.4289 30.20774,-16.61387 44.09433,-26.45765c2.00972,-1.42463 4.08213,-3.27299 6.25743,-4.42268c3.66858,-1.93893 8.01167,-2.62868 11.77342,-4.38161c3.4664,-1.61529 7.58117,-3.77427 10.65563,-6.04429c5.27316,-3.89341 9.27483,-9.15107 14.73176,-12.72365c0.62395,-0.75615 0.93875,-1.96776 1.87184,-2.26845c4.37186,-1.40884 7.66214,6.21496 9.65495,9.0353c3.32428,4.70471 4.80043,10.59472 7.29161,15.76861c2.85714,5.93396 6.09493,11.8323 10.02828,17.09794c1.51328,3.01198 3.01941,6.02752 4.52686,9.04242c0.66808,1.33615 0.7774,3.07486 1.90232,4.05781c2.43812,2.13042 5.17378,-1.51725 6.76491,-2.54227c1.73394,-1.11701 2.88393,-1.41546 4.89533,-1.14143c3.1374,0.42742 4.60422,2.20691 6.87558,4.16544c3.91469,3.37552 6.78878,7.14896 9.91256,11.25224c3.50138,3.49332 6.84421,6.85806 10.80768,9.82187c1.19227,0.89156 2.0446,2.45734 3.49888,2.77582c1.47249,0.32247 4.94057,-2.02414 6.20096,-2.60251c1.41959,-0.65143 3.06528,-0.93013 4.27537,-1.91769c1.5999,-1.30568 2.98789,-4.14839 4.21283,-5.82119c2.47068,-3.37404 5.01157,-6.68268 7.57753,-9.9847c7.13465,-9.16844 16.52687,-16.81651 24.95104,-24.77371c4.15318,-3.92296 7.94709,-9.13313 13.03308,-11.76297c1.95249,-0.99553 4.55413,-1.85207 6.05157,-3.54357c1.59009,-1.79615 2.47557,-4.34407 3.91701,-6.26866c3.77675,-5.04268 7.65081,-11.79931 12.50433,-15.83079c4.15871,-3.45436 10.40551,-5.94501 10.82255,-11.97949c2.19452,-2.62373 4.76232,-5.05106 6.87757,-7.71423c2.63768,-3.32094 4.01817,-7.4191 7.27338,-10.28373c2.2083,-1.94333 4.34398,-4.03479 7.55624,-3.43204c4.01117,0.75266 5.95973,3.90491 7.96105,7.00354c2.26209,3.50238 4.49215,7.02533 6.73134,10.54239c5.03629,7.91086 9.98515,15.29065 13.91067,23.83209c1.05217,2.2894 2.51041,3.97746 3.77012,6.1177c0.27485,0.46696 0.05956,1.45654 0.59863,1.51128c0.53907,0.05474 0.52685,-0.95814 0.8902,-1.3601c0.55883,-0.61819 1.2364,-1.11762 1.85467,-1.67637c2.5934,-2.34372 4.41474,-5.15019 7.92838,-5.80881c1.2516,-2.15678 3.63179,-3.4149 6.3324,-2.17603c3.42592,1.5716 6.85942,7.16116 8.26611,10.43428c0.54975,1.27918 1.28308,2.62009 2.44584,3.38593c4.91803,3.23922 10.93415,1.59486 16.42195,2.08969c3.29896,0.29747 6.59715,1.06961 9.90992,1.41577c4.07519,0.42582 8.09938,0.5306 12.109,1.20258c0.41369,0.06933 4.55435,0.32278 4.89629,0.49334c0.43179,0.21538 3.3174,3.275 3.8348,3.73124c0.44784,0.3949 3.90557,2.94801 4.13989,3.2754c0.5082,0.71006 1.16892,3.6282 1.63091,4.59876c2.87485,6.03948 7.69624,11.12323 9.84335,17.50429c2.02502,6.07507 4.19507,12.40269 6.75065,18.26767c1.55426,3.56698 3.46433,7.37037 5.2419,10.82741c0.96401,1.87482 1.8639,2.38313 2.61846,4.44018c0.28067,0.76516 0.14355,1.64829 0.45105,2.40307c1.51921,3.72886 5.14283,6.50362 6.90251,10.16625c4.76973,6.73917 10.53729,13.12359 14.5252,20.37507c1.99645,3.63027 3.26068,7.6762 5.3118,11.29511c2.59108,4.5716 4.96408,8.52327 6.87464,13.46989c0.75332,2.15342 1.35062,4.56034 2.2793,6.64096c1.35654,3.0392 3.61,5.53806 5.13244,8.47762c5.36546,10.35974 10.82101,20.3058 17.08255,30.16333c2.08535,8.15298 5.50323,15.88444 6.09976,24.40618c0.61357,8.76501 0.00331,17.80287 0.00331,26.59087c0,4.84255 0.54486,9.98846 -0.57209,14.71163c-0.1952,0.82545 -0.14927,1.76553 -0.62755,2.46604c-1.92781,2.82358 -6.25003,4.14848 -9.22851,5.33987c-7.74228,3.09691 -15.42667,6.31266 -23.19587,9.34648c-16.32358,6.37425 -33.03889,11.99521 -49.90565,16.73135c-8.798,1.90446 -17.61809,4.01811 -26.5609,5.14441c-4.10683,0.51723 -8.36387,0.37604 -12.43887,0.96124c-4.06573,0.58387 -7.92769,1.83246 -12.04623,2.3494c-17.47439,2.1843 -34.96201,1.69956 -52.55781,1.69957c-17.37218,0 -34.74436,0 -52.11654,0c-17.5,0 -35,0 -52.5,0c-17.33333,0 -34.66667,0 -52,0c-17.5,0 -35,0 -52.5,0c-17,0 -34,0 -51,0c-6.5,0 -13,0 -19.5,0c-3.28647,0 -6.90717,0.41598 -10.16242,-0.0106c-2.47556,-0.32441 -4.83703,-1.51659 -7.29643,-1.94c-4.73444,-0.81508 -9.96565,-0.95632 -14.76401,-1.01893c-3.1815,-0.04589 -6.21058,-0.83138 -9.36576,-1.03362c-5.78979,-0.37111 -11.65489,-0.22441 -17.46428,-0.53843c-8.34048,-0.45084 -16.60301,-1.34215 -24.95648,-1.45379c-9.50251,-1.11027 -18.93148,-1.00463 -28.49063,-1.00463c-3.78016,0 -8.6011,0.7623 -12.28719,-0.03344c-0.72857,-0.15728 -1.27747,-0.81697 -2,-1c-0.7083,-0.17943 -1.53276,0.25515 -2.19116,-0.06171c-0.4393,-0.21142 -3.71585,-3.61437 -4.1108,-4.01779c-3.46256,-9.15713 -8.22008,-19.28208 -9.29209,-29.07131c-0.8134,-7.42774 -0.36656,-15.168 -0.36806,-22.6303c-0.00348,-17.31181 -0.00069,-34.62363 -0.00069,-51.93545c0,-17.5 0,-35 0,-52.5c0,-5.17672 -0.00207,-9.94407 2.45658,-14.6979c1.09658,-2.12024 2.86872,-3.98687 4.11216,-6.03173c1.34662,-2.21455 2.55242,-4.44827 4.70718,-6.0442c4.73535,-3.50725 10.76754,-4.63089 15.93715,-7.16995c1.32263,-0.64961 2.59318,-1.42702 3.96384,-1.96253z" fill="url(#color-2)" stroke="#5041c7" stroke-width="0"/><path d="M-63.05403,392.46246v-424.92492h608.10811v424.92492z" fill="url(#color-3)" stroke="none" stroke-width="0"/><path d="M356.08175,198.03167c0,-0.54551 0.44222,-0.98773 0.98773,-0.98773c0.54551,0 0.98773,0.44222 0.98773,0.98773c0,0.54551 -0.44222,0.98773 -0.98773,0.98773c-0.54551,0 -0.98773,-0.44222 -0.98773,-0.98773z" fill="#c5c9ff" stroke="none" stroke-width="0.5"/><path d="M143.35728,238.92373c-0.54551,0 -0.98773,-0.44222 -0.98773,-0.98773c0,-0.54551 0.44222,-0.98773 0.98773,-0.98773c0.54551,0 0.98773,0.44222 0.98773,0.98773c0,0.54551 -0.44222,0.98773 -0.98773,0.98773z" data-paper-data="{&quot;index&quot;:null}" fill="#c5c9ff" stroke="none" stroke-width="0.5"/><path d="M180.89111,232.4047c-0.54551,0 -0.98773,-0.44222 -0.98773,-0.98773c0,-0.54551 0.44222,-0.98773 0.98773,-0.98773c0.54551,0 0.98773,0.44222 0.98773,0.98773c0,0.54551 -0.44222,0.98773 -0.98773,0.98773z" data-paper-data="{&quot;index&quot;:null}" fill="#c5c9ff" stroke="none" stroke-width="0.5"/><path d="M221.98067,233.39243c-0.54551,0 -0.98773,-0.44222 -0.98773,-0.98773c0,-0.54551 0.44222,-0.98773 0.98773,-0.98773c0.54551,0 0.98773,0.44222 0.98773,0.98773c0,0.54551 -0.44222,0.98773 -0.98773,0.98773z" data-paper-data="{&quot;index&quot;:null}" fill="#c5c9ff" stroke="none" stroke-width="0.5"/><path d="M226.32672,213.24272c-0.54551,0 -0.98773,-0.44222 -0.98773,-0.98773c0,-0.54551 0.44222,-0.98773 0.98773,-0.98773c0.54551,0 0.98773,0.44222 0.98773,0.98773c0,0.54551 -0.44222,0.98773 -0.98773,0.98773z" data-paper-data="{&quot;index&quot;:null}" fill="#c5c9ff" stroke="none" stroke-width="0.5"/><path d="M253.58809,220.35439c-0.54551,0 -0.98773,-0.44222 -0.98773,-0.98773c0,-0.54551 0.44222,-0.98773 0.98773,-0.98773c0.54551,0 0.98773,0.44222 0.98773,0.98773c0,0.54551 -0.44222,0.98773 -0.98773,0.98773z" data-paper-data="{&quot;index&quot;:null}" fill="#c5c9ff" stroke="none" stroke-width="0.5"/><path d="M95.94622,231.81206c-0.54551,0 -0.98773,-0.44222 -0.98773,-0.98773c0,-0.54551 0.44222,-0.98773 0.98773,-0.98773c0.54551,0 0.98773,0.44222 0.98773,0.98773c0,0.54551 -0.44222,0.98773 -0.98773,0.98773z" data-paper-data="{&quot;index&quot;:null}" fill="#c5c9ff" stroke="none" stroke-width="0.5"/><path d="M210.68776,201.19241c0,-0.54551 0.44222,-0.98773 0.98773,-0.98773c0.54551,0 0.98773,0.44222 0.98773,0.98773c0,0.54551 -0.44222,0.98773 -0.98773,0.98773c-0.54551,0 -0.98773,-0.44222 -0.98773,-0.98773z" fill="#c5c9ff" stroke="none" stroke-width="0.5"/><path d="M452.73421,226.21019c-0.54551,0 -0.98773,-0.44222 -0.98773,-0.98773c0,-0.54551 0.44222,-0.98773 0.98773,-0.98773c0.54551,0 0.98773,0.44222 0.98773,0.98773c0,0.54551 -0.44222,0.98773 -0.98773,0.98773z" data-paper-data="{&quot;index&quot;:null}" fill="#c5c9ff" stroke="none" stroke-width="0.5"/><path d="M416.78081,215.5427c-0.54551,0 -0.98773,-0.44222 -0.98773,-0.98773c0,-0.54551 0.44222,-0.98773 0.98773,-0.98773c0.54551,0 0.98773,0.44222 0.98773,0.98773c0,0.54551 -0.44222,0.98773 -0.98773,0.98773z" data-paper-data="{&quot;index&quot;:null}" fill="#c5c9ff" stroke="none" stroke-width="0.5"/><path d="M50.65576,194.80035c0,-0.54551 0.44222,-0.98773 0.98773,-0.98773c0.54551,0 0.98773,0.44222 0.98773,0.98773c0,0.54551 -0.44222,0.98773 -0.98773,0.98773c-0.54551,0 -0.98773,-0.44222 -0.98773,-0.98773z" fill="#c5c9ff" stroke="none" stroke-width="0.5"/><path d="M304.57455,237.27278c-0.54551,0 -0.98773,-0.44222 -0.98773,-0.98773c0,-0.54551 0.44222,-0.98773 0.98773,-0.98773c0.54551,0 0.98773,0.44222 0.98773,0.98773c0,0.54551 -0.44222,0.98773 -0.98773,0.98773z" data-paper-data="{&quot;index&quot;:null}" fill="#c5c9ff" stroke="none" stroke-width="0.5"/><path d="M293.51196,211.19668c-0.54551,0 -0.98773,-0.44222 -0.98773,-0.98773c0,-0.54551 0.44222,-0.98773 0.98773,-0.98773c0.54551,0 0.98773,0.44222 0.98773,0.98773c0,0.54551 -0.44222,0.98773 -0.98773,0.98773z" data-paper-data="{&quot;index&quot;:null}" fill="#c5c9ff" stroke="none" stroke-width="0.5"/><path d="M329.07025,217.51816c-0.54551,0 -0.98773,-0.44222 -0.98773,-0.98773c0,-0.54551 0.44222,-0.98773 0.98773,-0.98773c0.54551,0 0.98773,0.44222 0.98773,0.98773c0,0.54551 -0.44222,0.98773 -0.98773,0.98773z" data-paper-data="{&quot;index&quot;:null}" fill="#c5c9ff" stroke="none" stroke-width="0.5"/><path d="M124.93314,203.09729c0,-0.54551 0.44222,-0.98773 0.98773,-0.98773c0.54551,0 0.98773,0.44222 0.98773,0.98773c0,0.54551 -0.44222,0.98773 -0.98773,0.98773c-0.54551,0 -0.98773,-0.44222 -0.98773,-0.98773z" fill="#c5c9ff" stroke="none" stroke-width="0.5"/><path d="M62.01706,226.70569c-0.54551,0 -0.98773,-0.44222 -0.98773,-0.98773c0,-0.54551 0.44222,-0.98773 0.98773,-0.98773c0.54551,0 0.98773,0.44222 0.98773,0.98773c0,0.54551 -0.44222,0.98773 -0.98773,0.98773z" data-paper-data="{&quot;index&quot;:null}" fill="#c5c9ff" stroke="none" stroke-width="0.5"/><path d="M26.06368,216.0382c-0.5455,0 -0.98773,-0.44222 -0.98773,-0.98773c0,-0.54551 0.44222,-0.98773 0.98773,-0.98773c0.54551,0 0.98773,0.44222 0.98773,0.98773c0,0.54551 -0.44222,0.98773 -0.98773,0.98773z" data-paper-data="{&quot;index&quot;:null}" fill="#c5c9ff" stroke="none" stroke-width="0.5"/><path d="M441.37293,195.29585c0,-0.54551 0.44222,-0.98774 0.98773,-0.98774c0.54551,0 0.98773,0.44223 0.98773,0.98774c0,0.54551 -0.44222,0.98773 -0.98773,0.98773c-0.54551,0 -0.98773,-0.44222 -0.98773,-0.98773z" fill="#c5c9ff" stroke="none" stroke-width="0.5"/><path d="M114.09817,264.07946c-0.54551,0 -0.98773,-0.44222 -0.98773,-0.98773c0,-0.54551 0.44222,-0.98773 0.98773,-0.98773c0.54551,0 0.98773,0.44222 0.98773,0.98773c0,0.54551 -0.44222,0.98773 -0.98773,0.98773z" data-paper-data="{&quot;index&quot;:null}" fill="#c5c9ff" stroke="none" stroke-width="0.5"/><path d="M345.83161,302.99606c0,-0.54551 0.44222,-0.98773 0.98773,-0.98773c0.54551,0 0.98773,0.44222 0.98773,0.98773c0,0.54551 -0.44222,0.98773 -0.98773,0.98773c-0.54551,0 -0.98773,-0.44222 -0.98773,-0.98773z" fill="#c5c9ff" stroke="none" stroke-width="0.5"/><path d="M308.29786,296.47703c0,-0.54551 0.44222,-0.98773 0.98773,-0.98773c0.54551,0 0.98773,0.44222 0.98773,0.98773c0,0.54551 -0.44222,0.98773 -0.98773,0.98773c-0.54551,0 -0.98773,-0.44222 -0.98773,-0.98773z" fill="#c5c9ff" stroke="none" stroke-width="0.5"/><path d="M267.20823,297.46476c0,-0.54551 0.44222,-0.98773 0.98773,-0.98773c0.54551,0 0.98773,0.44222 0.98773,0.98773c0,0.54551 -0.44222,0.98773 -0.98773,0.98773c-0.54551,0 -0.98773,-0.44222 -0.98773,-0.98773z" fill="#c5c9ff" stroke="none" stroke-width="0.5"/><path d="M216.82217,278.30278c-0.54551,0 -0.98773,-0.44222 -0.98773,-0.98773c0,-0.54551 0.44222,-0.98773 0.98773,-0.98773c0.54551,0 0.98773,0.44222 0.98773,0.98773c0,0.54551 -0.44222,0.98773 -0.98773,0.98773z" data-paper-data="{&quot;index&quot;:null}" fill="#c5c9ff" stroke="none" stroke-width="0.5"/><path d="M235.60088,284.42672c0,-0.54551 0.44222,-0.98773 0.98773,-0.98773c0.54551,0 0.98773,0.44222 0.98773,0.98773c0,0.54551 -0.44222,0.98773 -0.98773,0.98773c-0.54551,0 -0.98773,-0.44222 -0.98773,-0.98773z" fill="#c5c9ff" stroke="none" stroke-width="0.5"/><path d="M393.24271,295.88439c0,-0.54551 0.44222,-0.98773 0.98773,-0.98773c0.54551,0 0.98773,0.44222 0.98773,0.98773c0,0.54551 -0.44222,0.98773 -0.98773,0.98773c-0.54551,0 -0.98773,-0.44222 -0.98773,-0.98773z" fill="#c5c9ff" stroke="none" stroke-width="0.5"/><path d="M259.49216,267.2402c-0.54551,0 -0.98773,-0.44222 -0.98773,-0.98773c0,-0.54551 0.44222,-0.98773 0.98773,-0.98773c0.54551,0 0.98773,0.44222 0.98773,0.98773c0,0.54551 -0.44222,0.98773 -0.98773,0.98773z" data-paper-data="{&quot;index&quot;:null}" fill="#c5c9ff" stroke="none" stroke-width="0.5"/><path d="M36.45474,290.28252c0,-0.54551 0.44222,-0.98773 0.98773,-0.98773c0.54551,0 0.98773,0.44222 0.98773,0.98773c0,0.54551 -0.44222,0.98773 -0.98773,0.98773c-0.54551,0 -0.98773,-0.44222 -0.98773,-0.98773z" fill="#c5c9ff" stroke="none" stroke-width="0.5"/><path d="M453.10701,255.31685c-0.54551,0 -0.98773,-0.44222 -0.98773,-0.98773c0,-0.54551 0.44222,-0.98773 0.98773,-0.98773c0.54551,0 0.98773,0.44222 0.98773,0.98773c0,0.54551 -0.44222,0.98773 -0.98773,0.98773z" data-paper-data="{&quot;index&quot;:null}" fill="#c5c9ff" stroke="none" stroke-width="0.5"/><path d="M407.27627,280.60276c-0.54551,0 -0.98773,-0.44222 -0.98773,-0.98773c0,-0.54551 0.44222,-0.98773 0.98773,-0.98773c0.54551,0 0.98773,0.44222 0.98773,0.98773c0,0.54551 -0.44222,0.98773 -0.98773,0.98773z" data-paper-data="{&quot;index&quot;:null}" fill="#c5c9ff" stroke="none" stroke-width="0.5"/><path d="M419.52416,260.84814c-0.54551,0 -0.98773,-0.44222 -0.98773,-0.98773c0,-0.54551 0.44222,-0.98773 0.98773,-0.98773c0.54551,0 0.98773,0.44222 0.98773,0.98773c0,0.54551 -0.44222,0.98773 -0.98773,0.98773z" data-paper-data="{&quot;index&quot;:null}" fill="#c5c9ff" stroke="none" stroke-width="0.5"/><path d="M392.26279,255.31685c-0.54551,0 -0.98773,-0.44222 -0.98773,-0.98773c0,-0.54551 0.44222,-0.98773 0.98773,-0.98773c0.54551,0 0.98773,0.44222 0.98773,0.98773c0,0.54551 -0.44222,0.98773 -0.98773,0.98773z" data-paper-data="{&quot;index&quot;:null}" fill="#c5c9ff" stroke="none" stroke-width="0.5"/><path d="M355.12411,248.20519c-0.54551,0 -0.98773,-0.44222 -0.98773,-0.98773c0,-0.54551 0.44222,-0.98773 0.98773,-0.98773c0.54551,0 0.98773,0.44222 0.98773,0.98773c0,0.54551 -0.44222,0.98773 -0.98773,0.98773z" data-paper-data="{&quot;index&quot;:null}" fill="#c5c9ff" stroke="none" stroke-width="0.5"/><path d="M184.61434,301.34511c0,-0.54551 0.44222,-0.98773 0.98773,-0.98773c0.54551,0 0.98773,0.44222 0.98773,0.98773c0,0.54551 -0.44222,0.98773 -0.98773,0.98773c-0.54551,0 -0.98773,-0.44222 -0.98773,-0.98773z" fill="#c5c9ff" stroke="none" stroke-width="0.5"/><path d="M284.00747,276.25674c-0.54551,0 -0.98773,-0.44222 -0.98773,-0.98773c0,-0.54551 0.44222,-0.98773 0.98773,-0.98773c0.54551,0 0.98773,0.44222 0.98773,0.98773c0,0.54551 -0.44222,0.98773 -0.98773,0.98773z" data-paper-data="{&quot;index&quot;:null}" fill="#c5c9ff" stroke="none" stroke-width="0.5"/><path d="M160.11864,281.59049c0,-0.54551 0.44222,-0.98773 0.98773,-0.98773c0.54551,0 0.98773,0.44222 0.98773,0.98773c0,0.54551 -0.44222,0.98773 -0.98773,0.98773c-0.54551,0 -0.98773,-0.44222 -0.98773,-0.98773z" fill="#c5c9ff" stroke="none" stroke-width="0.5"/><path d="M345.24681,269.14508c-0.54551,0 -0.98773,-0.44222 -0.98773,-0.98773c0,-0.54551 0.44222,-0.98773 0.98773,-0.98773c0.54551,0 0.98773,0.44222 0.98773,0.98773c0,0.54551 -0.44222,0.98773 -0.98773,0.98773z" data-paper-data="{&quot;index&quot;:null}" fill="#c5c9ff" stroke="none" stroke-width="0.5"/><path d="M427.17187,290.77802c0,-0.54551 0.44222,-0.98773 0.98773,-0.98773c0.54551,0 0.98773,0.44222 0.98773,0.98773c0,0.54551 -0.44222,0.98773 -0.98773,0.98773c-0.54551,0 -0.98773,-0.44222 -0.98773,-0.98773z" fill="#c5c9ff" stroke="none" stroke-width="0.5"/><path d="M62.38988,255.81235c-0.5455,0 -0.98773,-0.44222 -0.98773,-0.98773c0,-0.54551 0.44222,-0.98773 0.98773,-0.98773c0.54551,0 0.98773,0.44222 0.98773,0.98773c0,0.54551 -0.44222,0.98773 -0.98773,0.98773z" data-paper-data="{&quot;index&quot;:null}" fill="#c5c9ff" stroke="none" stroke-width="0.5"/><path d="M463.12529,280.11053c0,-0.54551 0.44222,-0.98773 0.98773,-0.98773c0.54551,0 0.98773,0.44222 0.98773,0.98773c0,0.54551 -0.44223,0.98773 -0.98773,0.98773c-0.54551,0 -0.98773,-0.44222 -0.98773,-0.98773z" fill="#c5c9ff" stroke="none" stroke-width="0.5"/><path d="M28.807,261.34364c-0.54551,0 -0.98773,-0.44222 -0.98773,-0.98773c0,-0.54551 0.44222,-0.98774 0.98773,-0.98774c0.54551,0 0.98773,0.44223 0.98773,0.98774c0,0.54551 -0.44222,0.98773 -0.98773,0.98773z" data-paper-data="{&quot;index&quot;:null}" fill="#c5c9ff" stroke="none" stroke-width="0.5"/><path d="M234.60135,243.92975c-0.54551,0 -0.98773,-0.44222 -0.98773,-0.98773c0,-0.54551 0.44222,-0.98773 0.98773,-0.98773c0.54551,0 0.98773,0.44222 0.98773,0.98773c0,0.54551 -0.44222,0.98773 -0.98773,0.98773z" data-paper-data="{&quot;index&quot;:null}" fill="#c5c9ff" stroke="none" stroke-width="0.5"/><path d="M331.56219,83.42206c0,-0.54551 0.44222,-0.98773 0.98773,-0.98773c0.54551,0 0.98773,0.44222 0.98773,0.98773c0,0.54551 -0.44222,0.98773 -0.98773,0.98773c-0.54551,0 -0.98773,-0.44222 -0.98773,-0.98773z" fill="#c5c9ff" stroke="none" stroke-width="0.5"/><path d="M120.3393,124.31412c-0.54551,0 -0.98773,-0.44222 -0.98773,-0.98773c0,-0.54551 0.44222,-0.98773 0.98773,-0.98773c0.54551,0 0.98773,0.44222 0.98773,0.98773c0,0.54551 -0.44222,0.98773 -0.98773,0.98773z" data-paper-data="{&quot;index&quot;:null}" fill="#c5c9ff" stroke="none" stroke-width="0.5"/><path d="M157.87303,117.79509c-0.54551,0 -0.98773,-0.44222 -0.98773,-0.98773c0,-0.54551 0.44222,-0.98773 0.98773,-0.98773c0.54551,0 0.98773,0.44222 0.98773,0.98773c0,0.54551 -0.44222,0.98773 -0.98773,0.98773z" data-paper-data="{&quot;index&quot;:null}" fill="#c5c9ff" stroke="none" stroke-width="0.5"/><path d="M198.96266,118.78282c-0.54551,0 -0.98773,-0.44222 -0.98773,-0.98773c0,-0.54551 0.44222,-0.98773 0.98773,-0.98773c0.54551,0 0.98773,0.44222 0.98773,0.98773c0,0.54551 -0.44222,0.98773 -0.98773,0.98773z" data-paper-data="{&quot;index&quot;:null}" fill="#c5c9ff" stroke="none" stroke-width="0.5"/><path d="M203.30866,98.63311c-0.54551,0 -0.98773,-0.44222 -0.98773,-0.98773c0,-0.54551 0.44222,-0.98773 0.98773,-0.98773c0.54551,0 0.98773,0.44222 0.98773,0.98773c0,0.54551 -0.44222,0.98773 -0.98773,0.98773z" data-paper-data="{&quot;index&quot;:null}" fill="#c5c9ff" stroke="none" stroke-width="0.5"/><path d="M230.57003,105.74478c-0.54551,0 -0.98773,-0.44222 -0.98773,-0.98773c0,-0.54551 0.44222,-0.98773 0.98773,-0.98773c0.54551,0 0.98773,0.44222 0.98773,0.98773c0,0.54551 -0.44222,0.98773 -0.98773,0.98773z" data-paper-data="{&quot;index&quot;:null}" fill="#c5c9ff" stroke="none" stroke-width="0.5"/><path d="M72.92821,117.20245c-0.54551,0 -0.98773,-0.44222 -0.98773,-0.98773c0,-0.54551 0.44222,-0.98773 0.98773,-0.98773c0.54551,0 0.98773,0.44222 0.98773,0.98773c0,0.54551 -0.44222,0.98773 -0.98773,0.98773z" data-paper-data="{&quot;index&quot;:null}" fill="#c5c9ff" stroke="none" stroke-width="0.5"/><path d="M186.16824,86.5828c0,-0.54551 0.44222,-0.98773 0.98773,-0.98773c0.54551,0 0.98773,0.44222 0.98773,0.98773c0,0.54551 -0.44222,0.98773 -0.98773,0.98773c-0.54551,0 -0.98773,-0.44222 -0.98773,-0.98773z" fill="#c5c9ff" stroke="none" stroke-width="0.5"/><path d="M429.71619,111.60058c-0.54551,0 -0.98773,-0.44222 -0.98773,-0.98773c0,-0.54551 0.44222,-0.98773 0.98773,-0.98773c0.54551,0 0.98773,0.44222 0.98773,0.98773c0,0.54551 -0.44222,0.98773 -0.98773,0.98773z" data-paper-data="{&quot;index&quot;:null}" fill="#c5c9ff" stroke="none" stroke-width="0.5"/><path d="M-7.44657,74.65945c0,-0.54551 0.44222,-0.98773 0.98773,-0.98773c0.54551,0 0.98773,0.44222 0.98773,0.98773c0,0.54551 -0.44222,0.98773 -0.98773,0.98773c-0.54551,0 -0.98773,-0.44222 -0.98773,-0.98773z" fill="#c5c9ff" stroke="none" stroke-width="0.5"/><path d="M393.76279,100.93309c-0.54551,0 -0.98773,-0.44222 -0.98773,-0.98773c0,-0.54551 0.44222,-0.98773 0.98773,-0.98773c0.54551,0 0.98773,0.44222 0.98773,0.98773c0,0.54551 -0.44222,0.98773 -0.98773,0.98773z" data-paper-data="{&quot;index&quot;:null}" fill="#c5c9ff" stroke="none" stroke-width="0.5"/><path d="M26.13624,80.19074c0,-0.54551 0.44222,-0.98773 0.98773,-0.98773c0.54551,0 0.98773,0.44222 0.98773,0.98773c0,0.54551 -0.44222,0.98773 -0.98773,0.98773c-0.54551,0 -0.98773,-0.44222 -0.98773,-0.98773z" fill="#c5c9ff" stroke="none" stroke-width="0.5"/><path d="M53.39761,74.65945c0,-0.54551 0.44222,-0.98773 0.98773,-0.98773c0.54551,0 0.98773,0.44222 0.98773,0.98773c0,0.54551 -0.44222,0.98773 -0.98773,0.98773c-0.54551,0 -0.98773,-0.44222 -0.98773,-0.98773z" fill="#c5c9ff" stroke="none" stroke-width="0.5"/><path d="M90.5363,67.54779c0,-0.54551 0.44222,-0.98773 0.98773,-0.98773c0.54551,0 0.98773,0.44222 0.98773,0.98773c0,0.54551 -0.44222,0.98773 -0.98773,0.98773c-0.54551,0 -0.98773,-0.44222 -0.98773,-0.98773z" fill="#c5c9ff" stroke="none" stroke-width="0.5"/><path d="M281.55655,122.66317c-0.54551,0 -0.98773,-0.44222 -0.98773,-0.98773c0,-0.54551 0.44222,-0.98773 0.98773,-0.98773c0.54551,0 0.98773,0.44222 0.98773,0.98773c0,0.54551 -0.44222,0.98773 -0.98773,0.98773z" data-paper-data="{&quot;index&quot;:null}" fill="#c5c9ff" stroke="none" stroke-width="0.5"/><path d="M161.65293,95.59934c0,-0.54551 0.44222,-0.98773 0.98773,-0.98773c0.54551,0 0.98773,0.44222 0.98773,0.98773c0,0.54551 -0.44222,0.98773 -0.98773,0.98773c-0.54551,0 -0.98773,-0.44222 -0.98773,-0.98773z" fill="#c5c9ff" stroke="none" stroke-width="0.5"/><path d="M306.05225,102.90855c-0.54551,0 -0.98773,-0.44222 -0.98773,-0.98773c0,-0.54551 0.44222,-0.98773 0.98773,-0.98773c0.54551,0 0.98773,0.44222 0.98773,0.98773c0,0.54551 -0.44222,0.98773 -0.98773,0.98773z" data-paper-data="{&quot;index&quot;:null}" fill="#c5c9ff" stroke="none" stroke-width="0.5"/><path d="M100.41362,88.48768c0,-0.54551 0.44222,-0.98773 0.98773,-0.98773c0.54551,0 0.98773,0.44222 0.98773,0.98773c0,0.54551 -0.44222,0.98773 -0.98773,0.98773c-0.54551,0 -0.98773,-0.44222 -0.98773,-0.98773z" fill="#c5c9ff" stroke="none" stroke-width="0.5"/><path d="M38.99906,112.09608c-0.54551,0 -0.98773,-0.44222 -0.98773,-0.98773c0,-0.54551 0.44222,-0.98773 0.98773,-0.98773c0.54551,0 0.98773,0.44222 0.98773,0.98773c0,0.54551 -0.44222,0.98773 -0.98773,0.98773z" data-paper-data="{&quot;index&quot;:null}" fill="#c5c9ff" stroke="none" stroke-width="0.5"/><path d="M383.27056,75.15495c0,-0.54551 0.44222,-0.98773 0.98773,-0.98773c0.54551,0 0.98773,0.44222 0.98773,0.98773c0,0.54551 -0.44223,0.98773 -0.98773,0.98773c-0.54551,0 -0.98773,-0.44222 -0.98773,-0.98773z" fill="#c5c9ff" stroke="none" stroke-width="0.5"/><path d="M3.04563,101.42859c-0.5455,0 -0.98773,-0.44222 -0.98773,-0.98773c0,-0.54551 0.44222,-0.98773 0.98773,-0.98773c0.54551,0 0.98773,0.44222 0.98773,0.98773c0,0.54551 -0.44222,0.98773 -0.98773,0.98773z" data-paper-data="{&quot;index&quot;:null}" fill="#c5c9ff" stroke="none" stroke-width="0.5"/><path d="M416.85341,80.68624c0,-0.54551 0.44222,-0.98774 0.98773,-0.98774c0.54551,0 0.98773,0.44223 0.98773,0.98774c0,0.54551 -0.44222,0.98773 -0.98773,0.98773c-0.54551,0 -0.98773,-0.44222 -0.98773,-0.98773z" fill="#c5c9ff" stroke="none" stroke-width="0.5"/><path d="M211.05907,63.27235c0,-0.54551 0.44222,-0.98773 0.98773,-0.98773c0.54551,0 0.98773,0.44222 0.98773,0.98773c0,0.54551 -0.44222,0.98773 -0.98773,0.98773c-0.54551,0 -0.98773,-0.44222 -0.98773,-0.98773z" fill="#c5c9ff" stroke="none" stroke-width="0.5"/><path d="M91.08016,149.46985c-0.54551,0 -0.98773,-0.44222 -0.98773,-0.98773c0,-0.54551 0.44222,-0.98773 0.98773,-0.98773c0.54551,0 0.98773,0.44222 0.98773,0.98773c0,0.54551 -0.44222,0.98773 -0.98773,0.98773z" data-paper-data="{&quot;index&quot;:null}" fill="#c5c9ff" stroke="none" stroke-width="0.5"/><path d="M321.31209,188.38645c0,-0.54551 0.44222,-0.98773 0.98773,-0.98773c0.54551,0 0.98773,0.44222 0.98773,0.98773c0,0.54551 -0.44222,0.98773 -0.98773,0.98773c-0.54551,0 -0.98773,-0.44222 -0.98773,-0.98773z" fill="#c5c9ff" stroke="none" stroke-width="0.5"/><path d="M283.77834,181.86742c0,-0.54551 0.44222,-0.98773 0.98773,-0.98773c0.54551,0 0.98773,0.44222 0.98773,0.98773c0,0.54551 -0.44222,0.98773 -0.98773,0.98773c-0.54551,0 -0.98773,-0.44222 -0.98773,-0.98773z" fill="#c5c9ff" stroke="none" stroke-width="0.5"/><path d="M242.68874,182.85515c0,-0.54551 0.44222,-0.98773 0.98773,-0.98773c0.54551,0 0.98773,0.44222 0.98773,0.98773c0,0.54551 -0.44222,0.98773 -0.98773,0.98773c-0.54551,0 -0.98773,-0.44222 -0.98773,-0.98773z" fill="#c5c9ff" stroke="none" stroke-width="0.5"/><path d="M238.34273,162.70544c0,-0.54551 0.44222,-0.98773 0.98773,-0.98773c0.54551,0 0.98773,0.44222 0.98773,0.98773c0,0.54551 -0.44222,0.98773 -0.98773,0.98773c-0.54551,0 -0.98773,-0.44222 -0.98773,-0.98773z" fill="#c5c9ff" stroke="none" stroke-width="0.5"/><path d="M211.08136,169.81711c0,-0.54551 0.44222,-0.98773 0.98773,-0.98773c0.54551,0 0.98773,0.44222 0.98773,0.98773c0,0.54551 -0.44222,0.98773 -0.98773,0.98773c-0.54551,0 -0.98773,-0.44222 -0.98773,-0.98773z" fill="#c5c9ff" stroke="none" stroke-width="0.5"/><path d="M368.72319,181.27478c0,-0.54551 0.44222,-0.98773 0.98773,-0.98773c0.54551,0 0.98773,0.44222 0.98773,0.98773c0,0.54551 -0.44222,0.98773 -0.98773,0.98773c-0.54551,0 -0.98773,-0.44222 -0.98773,-0.98773z" fill="#c5c9ff" stroke="none" stroke-width="0.5"/><path d="M236.47417,152.63059c-0.54551,0 -0.98773,-0.44222 -0.98773,-0.98773c0,-0.54551 0.44222,-0.98773 0.98773,-0.98773c0.54551,0 0.98773,0.44222 0.98773,0.98773c0,0.54551 -0.44222,0.98773 -0.98773,0.98773z" data-paper-data="{&quot;index&quot;:null}" fill="#c5c9ff" stroke="none" stroke-width="0.5"/><path d="M11.93523,175.67291c0,-0.54551 0.44222,-0.98773 0.98773,-0.98773c0.54551,0 0.98773,0.44222 0.98773,0.98773c0,0.54551 -0.44222,0.98773 -0.98773,0.98773c-0.54551,0 -0.98773,-0.44222 -0.98773,-0.98773z" fill="#c5c9ff" stroke="none" stroke-width="0.5"/><path d="M430.089,140.70724c-0.54551,0 -0.98773,-0.44222 -0.98773,-0.98773c0,-0.54551 0.44222,-0.98773 0.98773,-0.98773c0.54551,0 0.98773,0.44222 0.98773,0.98773c0,0.54551 -0.44222,0.98773 -0.98773,0.98773z" data-paper-data="{&quot;index&quot;:null}" fill="#c5c9ff" stroke="none" stroke-width="0.5"/><path d="M47.88864,165.00542c0,-0.54551 0.44222,-0.98773 0.98773,-0.98773c0.54551,0 0.98773,0.44222 0.98773,0.98773c0,0.54551 -0.44222,0.98773 -0.98773,0.98773c-0.54551,0 -0.98773,-0.44222 -0.98773,-0.98773z" fill="#c5c9ff" stroke="none" stroke-width="0.5"/><path d="M396.50612,146.23853c-0.54551,0 -0.98773,-0.44222 -0.98773,-0.98773c0,-0.54551 0.44222,-0.98773 0.98773,-0.98773c0.54551,0 0.98773,0.44222 0.98773,0.98773c0,0.54551 -0.44222,0.98773 -0.98773,0.98773z" data-paper-data="{&quot;index&quot;:null}" fill="#c5c9ff" stroke="none" stroke-width="0.5"/><path d="M369.24475,140.70724c-0.54551,0 -0.98773,-0.44222 -0.98773,-0.98773c0,-0.54551 0.44222,-0.98773 0.98773,-0.98773c0.54551,0 0.98773,0.44222 0.98773,0.98773c0,0.54551 -0.44222,0.98773 -0.98773,0.98773z" data-paper-data="{&quot;index&quot;:null}" fill="#c5c9ff" stroke="none" stroke-width="0.5"/><path d="M332.10606,133.59558c-0.54551,0 -0.98773,-0.44222 -0.98773,-0.98773c0,-0.54551 0.44222,-0.98773 0.98773,-0.98773c0.54551,0 0.98773,0.44222 0.98773,0.98773c0,0.54551 -0.44222,0.98773 -0.98773,0.98773z" data-paper-data="{&quot;index&quot;:null}" fill="#c5c9ff" stroke="none" stroke-width="0.5"/><path d="M160.09482,186.7355c0,-0.54551 0.44222,-0.98773 0.98773,-0.98773c0.54551,0 0.98773,0.44222 0.98773,0.98773c0,0.54551 -0.44222,0.98773 -0.98773,0.98773c-0.54551,0 -0.98773,-0.44222 -0.98773,-0.98773z" fill="#c5c9ff" stroke="none" stroke-width="0.5"/><path d="M171.15741,160.6594c0,-0.54551 0.44222,-0.98773 0.98773,-0.98773c0.54551,0 0.98773,0.44222 0.98773,0.98773c0,0.54551 -0.44222,0.98773 -0.98773,0.98773c-0.54551,0 -0.98773,-0.44222 -0.98773,-0.98773z" fill="#c5c9ff" stroke="none" stroke-width="0.5"/><path d="M135.59912,166.98088c0,-0.54551 0.44222,-0.98773 0.98773,-0.98773c0.54551,0 0.98773,0.44222 0.98773,0.98773c0,0.54551 -0.44222,0.98773 -0.98773,0.98773c-0.54551,0 -0.98773,-0.44222 -0.98773,-0.98773z" fill="#c5c9ff" stroke="none" stroke-width="0.5"/><path d="M322.22873,154.53547c-0.54551,0 -0.98773,-0.44222 -0.98773,-0.98773c0,-0.54551 0.44222,-0.98773 0.98773,-0.98773c0.54551,0 0.98773,0.44222 0.98773,0.98773c0,0.54551 -0.44222,0.98773 -0.98773,0.98773z" data-paper-data="{&quot;index&quot;:null}" fill="#c5c9ff" stroke="none" stroke-width="0.5"/><path d="M402.65235,176.16841c0,-0.54551 0.44222,-0.98773 0.98773,-0.98773c0.54551,0 0.98773,0.44222 0.98773,0.98773c0,0.54551 -0.44222,0.98773 -0.98773,0.98773c-0.54551,0 -0.98773,-0.44222 -0.98773,-0.98773z" fill="#c5c9ff" stroke="none" stroke-width="0.5"/><path d="M39.37183,141.20274c-0.5455,0 -0.98773,-0.44222 -0.98773,-0.98773c0,-0.54551 0.44222,-0.98773 0.98773,-0.98773c0.54551,0 0.98773,0.44222 0.98773,0.98773c0,0.54551 -0.44222,0.98773 -0.98773,0.98773z" data-paper-data="{&quot;index&quot;:null}" fill="#c5c9ff" stroke="none" stroke-width="0.5"/><path d="M438.60577,165.50092c0,-0.54551 0.44222,-0.98773 0.98773,-0.98773c0.54551,0 0.98773,0.44222 0.98773,0.98773c0,0.54551 -0.44223,0.98773 -0.98773,0.98773c-0.54551,0 -0.98773,-0.44222 -0.98773,-0.98773z" fill="#c5c9ff" stroke="none" stroke-width="0.5"/><path d="M5.78901,146.73403c-0.54551,0 -0.98773,-0.44222 -0.98773,-0.98773c0,-0.54551 0.44222,-0.98774 0.98773,-0.98774c0.54551,0 0.98773,0.44223 0.98773,0.98774c0,0.54551 -0.44222,0.98773 -0.98773,0.98773z" data-paper-data="{&quot;index&quot;:null}" fill="#c5c9ff" stroke="none" stroke-width="0.5"/><path d="M211.58336,129.32014c-0.54551,0 -0.98773,-0.44222 -0.98773,-0.98773c0,-0.54551 0.44222,-0.98773 0.98773,-0.98773c0.54551,0 0.98773,0.44222 0.98773,0.98773c0,0.54551 -0.44222,0.98773 -0.98773,0.98773z" data-paper-data="{&quot;index&quot;:null}" fill="#c5c9ff" stroke="none" stroke-width="0.5"/><path d="M127.33632,353.53334c-0.54551,0 -0.98773,-0.44222 -0.98773,-0.98773c0,-0.54551 0.44222,-0.98773 0.98773,-0.98773c0.54551,0 0.98773,0.44222 0.98773,0.98773c0,0.54551 -0.44222,0.98773 -0.98773,0.98773z" data-paper-data="{&quot;index&quot;:null}" fill="#c5c9ff" stroke="none" stroke-width="0.5"/><path d="M164.87008,347.01431c-0.54551,0 -0.98773,-0.44222 -0.98773,-0.98773c0,-0.54551 0.44222,-0.98773 0.98773,-0.98773c0.54551,0 0.98773,0.44222 0.98773,0.98773c0,0.54551 -0.44222,0.98773 -0.98773,0.98773z" data-paper-data="{&quot;index&quot;:null}" fill="#c5c9ff" stroke="none" stroke-width="0.5"/><path d="M205.95969,348.00204c-0.54551,0 -0.98773,-0.44222 -0.98773,-0.98773c0,-0.54551 0.44222,-0.98773 0.98773,-0.98773c0.54551,0 0.98773,0.44222 0.98773,0.98773c0,0.54551 -0.44222,0.98773 -0.98773,0.98773z" data-paper-data="{&quot;index&quot;:null}" fill="#c5c9ff" stroke="none" stroke-width="0.5"/><path d="M210.30569,327.85233c-0.54551,0 -0.98773,-0.44222 -0.98773,-0.98773c0,-0.54551 0.44222,-0.98773 0.98773,-0.98773c0.54551,0 0.98773,0.44222 0.98773,0.98773c0,0.54551 -0.44222,0.98773 -0.98773,0.98773z" data-paper-data="{&quot;index&quot;:null}" fill="#c5c9ff" stroke="none" stroke-width="0.5"/><path d="M237.56706,334.964c-0.54551,0 -0.98773,-0.44222 -0.98773,-0.98773c0,-0.54551 0.44222,-0.98773 0.98773,-0.98773c0.54551,0 0.98773,0.44222 0.98773,0.98773c0,0.54551 -0.44222,0.98773 -0.98773,0.98773z" data-paper-data="{&quot;index&quot;:null}" fill="#c5c9ff" stroke="none" stroke-width="0.5"/><path d="M79.92521,346.42167c-0.54551,0 -0.98773,-0.44222 -0.98773,-0.98773c0,-0.54551 0.44222,-0.98773 0.98773,-0.98773c0.54551,0 0.98773,0.44222 0.98773,0.98773c0,0.54551 -0.44222,0.98773 -0.98773,0.98773z" data-paper-data="{&quot;index&quot;:null}" fill="#c5c9ff" stroke="none" stroke-width="0.5"/><path d="M436.71319,340.8198c-0.54551,0 -0.98773,-0.44222 -0.98773,-0.98773c0,-0.54551 0.44222,-0.98773 0.98773,-0.98773c0.54551,0 0.98773,0.44222 0.98773,0.98773c0,0.54551 -0.44222,0.98773 -0.98773,0.98773z" data-paper-data="{&quot;index&quot;:null}" fill="#c5c9ff" stroke="none" stroke-width="0.5"/><path d="M400.75979,330.15231c-0.54551,0 -0.98773,-0.44222 -0.98773,-0.98773c0,-0.54551 0.44222,-0.98773 0.98773,-0.98773c0.54551,0 0.98773,0.44222 0.98773,0.98773c0,0.54551 -0.44222,0.98773 -0.98773,0.98773z" data-paper-data="{&quot;index&quot;:null}" fill="#c5c9ff" stroke="none" stroke-width="0.5"/><path d="M288.5535,351.88239c-0.54551,0 -0.98773,-0.44222 -0.98773,-0.98773c0,-0.54551 0.44222,-0.98773 0.98773,-0.98773c0.54551,0 0.98773,0.44222 0.98773,0.98773c0,0.54551 -0.44222,0.98773 -0.98773,0.98773z" data-paper-data="{&quot;index&quot;:null}" fill="#c5c9ff" stroke="none" stroke-width="0.5"/><path d="M277.49093,325.80629c-0.54551,0 -0.98773,-0.44222 -0.98773,-0.98773c0,-0.54551 0.44222,-0.98773 0.98773,-0.98773c0.54551,0 0.98773,0.44222 0.98773,0.98773c0,0.54551 -0.44222,0.98773 -0.98773,0.98773z" data-paper-data="{&quot;index&quot;:null}" fill="#c5c9ff" stroke="none" stroke-width="0.5"/><path d="M313.04922,332.12777c-0.54551,0 -0.98773,-0.44222 -0.98773,-0.98773c0,-0.54551 0.44222,-0.98773 0.98773,-0.98773c0.54551,0 0.98773,0.44222 0.98773,0.98773c0,0.54551 -0.44222,0.98773 -0.98773,0.98773z" data-paper-data="{&quot;index&quot;:null}" fill="#c5c9ff" stroke="none" stroke-width="0.5"/><path d="M108.91209,317.7069c0,-0.54551 0.44222,-0.98773 0.98773,-0.98773c0.54551,0 0.98773,0.44222 0.98773,0.98773c0,0.54551 -0.44222,0.98773 -0.98773,0.98773c-0.54551,0 -0.98773,-0.44222 -0.98773,-0.98773z" fill="#c5c9ff" stroke="none" stroke-width="0.5"/><path d="M45.99602,341.3153c-0.54551,0 -0.98773,-0.44222 -0.98773,-0.98773c0,-0.54551 0.44222,-0.98773 0.98773,-0.98773c0.54551,0 0.98773,0.44222 0.98773,0.98773c0,0.54551 -0.44222,0.98773 -0.98773,0.98773z" data-paper-data="{&quot;index&quot;:null}" fill="#c5c9ff" stroke="none" stroke-width="0.5"/><path d="M10.04262,330.64781c-0.5455,0 -0.98773,-0.44222 -0.98773,-0.98773c0,-0.54551 0.44222,-0.98773 0.98773,-0.98773c0.54551,0 0.98773,0.44222 0.98773,0.98773c0,0.54551 -0.44222,0.98773 -0.98773,0.98773z" data-paper-data="{&quot;index&quot;:null}" fill="#c5c9ff" stroke="none" stroke-width="0.5"/><path d="M98.07719,378.68907c-0.54551,0 -0.98773,-0.44222 -0.98773,-0.98773c0,-0.54551 0.44222,-0.98773 0.98773,-0.98773c0.54551,0 0.98773,0.44222 0.98773,0.98773c0,0.54551 -0.44222,0.98773 -0.98773,0.98773z" data-paper-data="{&quot;index&quot;:null}" fill="#c5c9ff" stroke="none" stroke-width="0.5"/><path d="M200.80119,392.91239c-0.54551,0 -0.98773,-0.44222 -0.98773,-0.98773c0,-0.54551 0.44222,-0.98773 0.98773,-0.98773c0.54551,0 0.98773,0.44222 0.98773,0.98773c0,0.54551 -0.44222,0.98773 -0.98773,0.98773z" data-paper-data="{&quot;index&quot;:null}" fill="#c5c9ff" stroke="none" stroke-width="0.5"/><path d="M219.57986,399.03633c0,-0.54551 0.44222,-0.98773 0.98773,-0.98773c0.54551,0 0.98773,0.44222 0.98773,0.98773c0,0.54551 -0.44222,0.98773 -0.98773,0.98773c-0.54551,0 -0.98773,-0.44222 -0.98773,-0.98773z" fill="#c5c9ff" stroke="none" stroke-width="0.5"/><path d="M243.47116,381.84981c-0.54551,0 -0.98773,-0.44222 -0.98773,-0.98773c0,-0.54551 0.44222,-0.98773 0.98773,-0.98773c0.54551,0 0.98773,0.44222 0.98773,0.98773c0,0.54551 -0.44222,0.98773 -0.98773,0.98773z" data-paper-data="{&quot;index&quot;:null}" fill="#c5c9ff" stroke="none" stroke-width="0.5"/><path d="M437.08599,369.92646c-0.54551,0 -0.98773,-0.44222 -0.98773,-0.98773c0,-0.54551 0.44222,-0.98773 0.98773,-0.98773c0.54551,0 0.98773,0.44222 0.98773,0.98773c0,0.54551 -0.44222,0.98773 -0.98773,0.98773z" data-paper-data="{&quot;index&quot;:null}" fill="#c5c9ff" stroke="none" stroke-width="0.5"/><path d="M391.25528,395.21237c-0.54551,0 -0.98773,-0.44222 -0.98773,-0.98773c0,-0.54551 0.44222,-0.98773 0.98773,-0.98773c0.54551,0 0.98773,0.44222 0.98773,0.98773c0,0.54551 -0.44222,0.98773 -0.98773,0.98773z" data-paper-data="{&quot;index&quot;:null}" fill="#c5c9ff" stroke="none" stroke-width="0.5"/><path d="M403.50314,375.45775c-0.54551,0 -0.98773,-0.44222 -0.98773,-0.98773c0,-0.54551 0.44222,-0.98773 0.98773,-0.98773c0.54551,0 0.98773,0.44222 0.98773,0.98773c0,0.54551 -0.44222,0.98773 -0.98773,0.98773z" data-paper-data="{&quot;index&quot;:null}" fill="#c5c9ff" stroke="none" stroke-width="0.5"/><path d="M376.24177,369.92646c-0.54551,0 -0.98773,-0.44222 -0.98773,-0.98773c0,-0.54551 0.44222,-0.98773 0.98773,-0.98773c0.54551,0 0.98773,0.44222 0.98773,0.98773c0,0.54551 -0.44222,0.98773 -0.98773,0.98773z" data-paper-data="{&quot;index&quot;:null}" fill="#c5c9ff" stroke="none" stroke-width="0.5"/><path d="M339.10309,362.8148c-0.54551,0 -0.98773,-0.44222 -0.98773,-0.98773c0,-0.54551 0.44222,-0.98773 0.98773,-0.98773c0.54551,0 0.98773,0.44222 0.98773,0.98773c0,0.54551 -0.44222,0.98773 -0.98773,0.98773z" data-paper-data="{&quot;index&quot;:null}" fill="#c5c9ff" stroke="none" stroke-width="0.5"/><path d="M267.98643,390.86635c-0.54551,0 -0.98773,-0.44222 -0.98773,-0.98773c0,-0.54551 0.44222,-0.98773 0.98773,-0.98773c0.54551,0 0.98773,0.44222 0.98773,0.98773c0,0.54551 -0.44222,0.98773 -0.98773,0.98773z" data-paper-data="{&quot;index&quot;:null}" fill="#c5c9ff" stroke="none" stroke-width="0.5"/><path d="M144.0976,396.2001c0,-0.54551 0.44222,-0.98773 0.98773,-0.98773c0.54551,0 0.98773,0.44222 0.98773,0.98773c0,0.54551 -0.44222,0.98773 -0.98773,0.98773c-0.54551,0 -0.98773,-0.44222 -0.98773,-0.98773z" fill="#c5c9ff" stroke="none" stroke-width="0.5"/><path d="M329.22577,383.75469c-0.54551,0 -0.98773,-0.44222 -0.98773,-0.98773c0,-0.54551 0.44222,-0.98773 0.98773,-0.98773c0.54551,0 0.98773,0.44222 0.98773,0.98773c0,0.54551 -0.44222,0.98773 -0.98773,0.98773z" data-paper-data="{&quot;index&quot;:null}" fill="#c5c9ff" stroke="none" stroke-width="0.5"/><path d="M46.36886,370.42196c-0.5455,0 -0.98773,-0.44222 -0.98773,-0.98773c0,-0.54551 0.44222,-0.98773 0.98773,-0.98773c0.54551,0 0.98773,0.44222 0.98773,0.98773c0,0.54551 -0.44222,0.98773 -0.98773,0.98773z" data-paper-data="{&quot;index&quot;:null}" fill="#c5c9ff" stroke="none" stroke-width="0.5"/><path d="M447.10426,394.72014c0,-0.54551 0.44222,-0.98773 0.98773,-0.98773c0.54551,0 0.98773,0.44222 0.98773,0.98773c0,0.54551 -0.44223,0.98773 -0.98773,0.98773c-0.54551,0 -0.98773,-0.44222 -0.98773,-0.98773z" fill="#c5c9ff" stroke="none" stroke-width="0.5"/><path d="M12.78597,375.95325c-0.54551,0 -0.98773,-0.44222 -0.98773,-0.98773c0,-0.54551 0.44222,-0.98774 0.98773,-0.98774c0.54551,0 0.98773,0.44223 0.98773,0.98774c0,0.54551 -0.44222,0.98773 -0.98773,0.98773z" data-paper-data="{&quot;index&quot;:null}" fill="#c5c9ff" stroke="none" stroke-width="0.5"/><path d="M218.58032,358.53936c-0.54551,0 -0.98773,-0.44222 -0.98773,-0.98773c0,-0.54551 0.44222,-0.98773 0.98773,-0.98773c0.54551,0 0.98773,0.44222 0.98773,0.98773c0,0.54551 -0.44222,0.98773 -0.98773,0.98773z" data-paper-data="{&quot;index&quot;:null}" fill="#c5c9ff" stroke="none" stroke-width="0.5"/><path d="M350.58625,25.86951c0,-0.54551 0.44222,-0.98773 0.98773,-0.98773c0.54551,0 0.98773,0.44222 0.98773,0.98773c0,0.54551 -0.44222,0.98773 -0.98773,0.98773c-0.54551,0 -0.98773,-0.44222 -0.98773,-0.98773z" fill="#c5c9ff" stroke="none" stroke-width="0.5"/><path d="M330.83161,65.77384c0,-0.54551 0.44222,-0.98773 0.98773,-0.98773c0.54551,0 0.98773,0.44222 0.98773,0.98773c0,0.54551 -0.44222,0.98773 -0.98773,0.98773c-0.54551,0 -0.98773,-0.44222 -0.98773,-0.98773z" fill="#c5c9ff" stroke="none" stroke-width="0.5"/><path d="M293.29786,59.25481c0,-0.54551 0.44222,-0.98773 0.98773,-0.98773c0.54551,0 0.98773,0.44222 0.98773,0.98773c0,0.54551 -0.44222,0.98773 -0.98773,0.98773c-0.54551,0 -0.98773,-0.44222 -0.98773,-0.98773z" fill="#c5c9ff" stroke="none" stroke-width="0.5"/><path d="M252.20826,60.24254c0,-0.54551 0.44222,-0.98773 0.98773,-0.98773c0.54551,0 0.98773,0.44222 0.98773,0.98773c0,0.54551 -0.44222,0.98773 -0.98773,0.98773c-0.54551,0 -0.98773,-0.44222 -0.98773,-0.98773z" fill="#c5c9ff" stroke="none" stroke-width="0.5"/><path d="M247.86225,40.09283c0,-0.54551 0.44222,-0.98773 0.98773,-0.98773c0.54551,0 0.98773,0.44222 0.98773,0.98773c0,0.54551 -0.44222,0.98773 -0.98773,0.98773c-0.54551,0 -0.98773,-0.44222 -0.98773,-0.98773z" fill="#c5c9ff" stroke="none" stroke-width="0.5"/><path d="M220.60088,47.2045c0,-0.54551 0.44222,-0.98773 0.98773,-0.98773c0.54551,0 0.98773,0.44222 0.98773,0.98773c0,0.54551 -0.44222,0.98773 -0.98773,0.98773c-0.54551,0 -0.98773,-0.44222 -0.98773,-0.98773z" fill="#c5c9ff" stroke="none" stroke-width="0.5"/><path d="M378.24271,58.66217c0,-0.54551 0.44222,-0.98773 0.98773,-0.98773c0.54551,0 0.98773,0.44222 0.98773,0.98773c0,0.54551 -0.44222,0.98773 -0.98773,0.98773c-0.54551,0 -0.98773,-0.44222 -0.98773,-0.98773z" fill="#c5c9ff" stroke="none" stroke-width="0.5"/><path d="M205.19224,29.03025c0,-0.54551 0.44222,-0.98773 0.98773,-0.98773c0.54551,0 0.98773,0.44222 0.98773,0.98773c0,0.54551 -0.44222,0.98773 -0.98773,0.98773c-0.54551,0 -0.98773,-0.44222 -0.98773,-0.98773z" fill="#c5c9ff" stroke="none" stroke-width="0.5"/><path d="M21.45474,53.0603c0,-0.54551 0.44222,-0.98773 0.98773,-0.98773c0.54551,0 0.98773,0.44222 0.98773,0.98773c0,0.54551 -0.44222,0.98773 -0.98773,0.98773c-0.54551,0 -0.98773,-0.44222 -0.98773,-0.98773z" fill="#c5c9ff" stroke="none" stroke-width="0.5"/><path d="M11.57742,17.1069c0,-0.54551 0.44222,-0.98773 0.98773,-0.98773c0.54551,0 0.98773,0.44222 0.98773,0.98773c0,0.54551 -0.44222,0.98773 -0.98773,0.98773c-0.54551,0 -0.98773,-0.44222 -0.98773,-0.98773z" fill="#c5c9ff" stroke="none" stroke-width="0.5"/><path d="M57.40816,42.39281c0,-0.54551 0.44222,-0.98773 0.98773,-0.98773c0.54551,0 0.98773,0.44222 0.98773,0.98773c0,0.54551 -0.44222,0.98773 -0.98773,0.98773c-0.54551,0 -0.98773,-0.44222 -0.98773,-0.98773z" fill="#c5c9ff" stroke="none" stroke-width="0.5"/><path d="M45.1603,22.63819c0,-0.54551 0.44222,-0.98773 0.98773,-0.98773c0.54551,0 0.98773,0.44222 0.98773,0.98773c0,0.54551 -0.44222,0.98773 -0.98773,0.98773c-0.54551,0 -0.98773,-0.44222 -0.98773,-0.98773z" fill="#c5c9ff" stroke="none" stroke-width="0.5"/><path d="M72.42163,17.1069c0,-0.54551 0.44222,-0.98773 0.98773,-0.98773c0.54551,0 0.98773,0.44222 0.98773,0.98773c0,0.54551 -0.44222,0.98773 -0.98773,0.98773c-0.54551,0 -0.98773,-0.44222 -0.98773,-0.98773z" fill="#c5c9ff" stroke="none" stroke-width="0.5"/><path d="M109.56035,9.99523c0,-0.54551 0.44222,-0.98773 0.98773,-0.98773c0.54551,0 0.98773,0.44222 0.98773,0.98773c0,0.54551 -0.44222,0.98773 -0.98773,0.98773c-0.54551,0 -0.98773,-0.44222 -0.98773,-0.98773z" fill="#c5c9ff" stroke="none" stroke-width="0.5"/><path d="M169.61434,64.12289c0,-0.54551 0.44222,-0.98773 0.98773,-0.98773c0.54551,0 0.98773,0.44222 0.98773,0.98773c0,0.54551 -0.44222,0.98773 -0.98773,0.98773c-0.54551,0 -0.98773,-0.44222 -0.98773,-0.98773z" fill="#c5c9ff" stroke="none" stroke-width="0.5"/><path d="M180.67693,38.04679c0,-0.54551 0.44222,-0.98773 0.98773,-0.98773c0.54551,0 0.98773,0.44222 0.98773,0.98773c0,0.54551 -0.44222,0.98773 -0.98773,0.98773c-0.54551,0 -0.98773,-0.44222 -0.98773,-0.98773z" fill="#c5c9ff" stroke="none" stroke-width="0.5"/><path d="M145.11864,44.36827c0,-0.54551 0.44222,-0.98773 0.98773,-0.98773c0.54551,0 0.98773,0.44222 0.98773,0.98773c0,0.54551 -0.44222,0.98773 -0.98773,0.98773c-0.54551,0 -0.98773,-0.44222 -0.98773,-0.98773z" fill="#c5c9ff" stroke="none" stroke-width="0.5"/><path d="M119.43762,30.93513c0,-0.54551 0.44222,-0.98773 0.98773,-0.98773c0.54551,0 0.98773,0.44222 0.98773,0.98773c0,0.54551 -0.44222,0.98773 -0.98773,0.98773c-0.54551,0 -0.98773,-0.44222 -0.98773,-0.98773z" fill="#c5c9ff" stroke="none" stroke-width="0.5"/><path d="M412.17187,53.5558c0,-0.54551 0.44222,-0.98773 0.98773,-0.98773c0.54551,0 0.98773,0.44222 0.98773,0.98773c0,0.54551 -0.44222,0.98773 -0.98773,0.98773c-0.54551,0 -0.98773,-0.44222 -0.98773,-0.98773z" fill="#c5c9ff" stroke="none" stroke-width="0.5"/><path d="M402.29458,17.6024c0,-0.54551 0.44222,-0.98773 0.98773,-0.98773c0.54551,0 0.98773,0.44222 0.98773,0.98773c0,0.54551 -0.44223,0.98773 -0.98773,0.98773c-0.54551,0 -0.98773,-0.44222 -0.98773,-0.98773z" fill="#c5c9ff" stroke="none" stroke-width="0.5"/><path d="M448.12529,42.88831c0,-0.54551 0.44222,-0.98773 0.98773,-0.98773c0.54551,0 0.98773,0.44222 0.98773,0.98773c0,0.54551 -0.44223,0.98773 -0.98773,0.98773c-0.54551,0 -0.98773,-0.44222 -0.98773,-0.98773z" fill="#c5c9ff" stroke="none" stroke-width="0.5"/><path d="M435.87743,23.13369c0,-0.54551 0.44222,-0.98774 0.98773,-0.98774c0.54551,0 0.98773,0.44223 0.98773,0.98774c0,0.54551 -0.44222,0.98773 -0.98773,0.98773c-0.54551,0 -0.98773,-0.44222 -0.98773,-0.98773z" fill="#c5c9ff" stroke="none" stroke-width="0.5"/><path d="M230.08309,5.7198c0,-0.54551 0.44222,-0.98773 0.98773,-0.98773c0.54551,0 0.98773,0.44222 0.98773,0.98773c0,0.54551 -0.44222,0.98773 -0.98773,0.98773c-0.54551,0 -0.98773,-0.44222 -0.98773,-0.98773z" fill="#c5c9ff" stroke="none" stroke-width="0.5"/><path d="M-69.76012,221.32915v-243.04505h580v243.04505z" fill="url(#color-4)" stroke="none" stroke-width="0"/><path d="M-28.83321,177.3778c1.90645,-3.67298 4.73624,-7.03572 7.1185,-10.22039c1.44847,-1.93636 2.88108,-4.50933 4.63527,-6.16571c2.97065,-2.80502 7.14078,-4.40201 10.08434,-7.32135c1.16286,-1.15329 2.01549,-2.58208 3.02768,-3.86964c2.2919,-2.34667 4.18783,-4.64189 6.09633,-7.31182c1.04837,-1.46664 1.46148,-3.54839 2.98735,-4.50851c0.97783,-0.61528 2.26762,-0.76324 3.41232,-0.60709c0.24247,0.03308 4.31823,2.45791 4.71176,2.69124c4.05017,2.40149 8.42409,7.03436 10.76701,11.1868c0.40207,0.7126 0.45477,1.59204 0.87827,2.29211c0.82422,1.36249 2.33563,2.21185 3.19148,3.5547c0.2774,0.43524 -0.03646,1.58336 0.46834,1.47584c0.5048,-0.10752 -0.24545,-1.02748 -0.17371,-1.53859c0.10636,-0.75776 0.46444,-1.4582 0.69667,-2.1873c2.65916,-6.2146 5.33508,-12.66532 9.72385,-17.84218c1.26463,-1.49172 3.04117,-5.15041 4.94437,-5.86602c3.11527,-1.17136 5.53389,1.23232 7.91669,2.70012c4.55623,2.80665 8.79834,7.41497 14.29065,8.18341c15.87372,-6.4289 30.20774,-16.61387 44.09433,-26.45765c2.00972,-1.42463 4.08213,-3.27299 6.25743,-4.42268c3.66858,-1.93893 8.01167,-2.62868 11.77342,-4.38161c3.4664,-1.61529 7.58117,-3.77427 10.65563,-6.04429c5.27316,-3.89341 9.27483,-9.15107 14.73176,-12.72365c0.62395,-0.75615 0.93875,-1.96776 1.87184,-2.26845c4.37186,-1.40884 7.66214,6.21496 9.65495,9.0353c3.32428,4.70471 4.80043,10.59472 7.29161,15.76861c2.85714,5.93396 6.09493,11.8323 10.02828,17.09794c1.51328,3.01198 3.01941,6.02752 4.52686,9.04242c0.66808,1.33615 0.7774,3.07486 1.90232,4.05781c2.43812,2.13042 5.17378,-1.51725 6.76491,-2.54227c1.73394,-1.11701 2.88393,-1.41546 4.89533,-1.14143c3.1374,0.42742 4.60422,2.20691 6.87558,4.16544c3.91469,3.37552 6.78878,7.14896 9.91256,11.25224c3.50138,3.49332 6.84421,6.85806 10.80768,9.82187c1.19227,0.89156 2.0446,2.45734 3.49888,2.77582c1.47249,0.32247 4.94057,-2.02414 6.20096,-2.60251c1.41959,-0.65143 3.06528,-0.93013 4.27537,-1.91769c1.5999,-1.30568 2.98789,-4.14839 4.21283,-5.82119c2.47068,-3.37404 5.01157,-6.68268 7.57753,-9.9847c7.13465,-9.16844 16.52687,-16.81651 24.95104,-24.77371c4.15318,-3.92296 7.94709,-9.13313 13.03308,-11.76297c1.95249,-0.99553 4.55413,-1.85207 6.05157,-3.54357c1.59009,-1.79615 2.47557,-4.34407 3.91701,-6.26866c3.77675,-5.04268 7.65081,-11.79931 12.50433,-15.83079c4.15871,-3.45436 10.40551,-5.94501 10.82255,-11.97949c2.19452,-2.62373 4.76232,-5.05106 6.87757,-7.71423c2.63768,-3.32094 4.01817,-7.4191 7.27338,-10.28373c2.2083,-1.94333 4.34398,-4.03479 7.55624,-3.43204c4.01117,0.75266 5.95973,3.90491 7.96105,7.00354c2.26209,3.50238 4.49215,7.02533 6.73134,10.54239c5.03629,7.91086 9.98515,15.29065 13.91067,23.83209c1.05217,2.2894 2.51041,3.97746 3.77012,6.1177c0.27485,0.46696 0.05956,1.45654 0.59863,1.51128c0.53907,0.05474 0.52685,-0.95814 0.8902,-1.3601c0.55883,-0.61819 1.2364,-1.11762 1.85467,-1.67637c2.5934,-2.34372 4.41474,-5.15019 7.92838,-5.80881c1.2516,-2.15678 3.63179,-3.4149 6.3324,-2.17603c3.42592,1.5716 6.85942,7.16116 8.26611,10.43428c0.54975,1.27918 1.28308,2.62009 2.44584,3.38593c4.91803,3.23922 10.93415,1.59486 16.42195,2.08969c3.29896,0.29747 6.59715,1.06961 9.90992,1.41577c4.07519,0.42582 8.09938,0.5306 12.109,1.20258c0.41369,0.06933 4.55435,0.32278 4.89629,0.49334c0.43179,0.21538 3.3174,3.275 3.8348,3.73124c0.44784,0.3949 3.90557,2.94801 4.13989,3.2754c0.5082,0.71006 1.16892,3.6282 1.63091,4.59876c2.87485,6.03948 7.69624,11.12323 9.84335,17.50429c2.02502,6.07507 4.19507,12.40269 6.75065,18.26767c1.55426,3.56698 3.46433,7.37037 5.2419,10.82741c0.96401,1.87482 1.8639,2.38313 2.61846,4.44018c0.28067,0.76516 0.14355,1.64829 0.45105,2.40307c1.51921,3.72886 5.14283,6.50362 6.90251,10.16625c4.76973,6.73917 10.53729,13.12359 14.5252,20.37507c1.99645,3.63027 3.26068,7.6762 5.3118,11.29511c2.59108,4.5716 4.96408,8.52327 6.87464,13.46989c0.75332,2.15342 1.35062,4.56034 2.2793,6.64096c1.35654,3.0392 3.61,5.53806 5.13244,8.47762c5.36546,10.35974 10.82101,20.3058 17.08255,30.16333c2.08535,8.15298 5.50323,15.88444 6.09976,24.40618c0.61357,8.76501 0.00331,17.80287 0.00331,26.59087c0,4.84255 0.54486,9.98846 -0.57209,14.71163c-0.1952,0.82545 -0.14927,1.76553 -0.62755,2.46604c-1.92781,2.82358 -6.25003,4.14848 -9.22851,5.33987c-7.74228,3.09691 -15.42667,6.31266 -23.19587,9.34648c-16.32358,6.37425 -33.03889,11.99521 -49.90565,16.73135c-8.798,1.90446 -17.61809,4.01811 -26.5609,5.14441c-4.10683,0.51723 -8.36387,0.37604 -12.43887,0.96124c-4.06573,0.58387 -7.92769,1.83246 -12.04623,2.3494c-17.47439,2.1843 -34.96201,1.69956 -52.55781,1.69957c-17.37218,0 -34.74436,0 -52.11654,0c-17.5,0 -35,0 -52.5,0c-17.33333,0 -34.66667,0 -52,0c-17.5,0 -35,0 -52.5,0c-17,0 -34,0 -51,0c-6.5,0 -13,0 -19.5,0c-3.28647,0 -6.90717,0.41598 -10.16242,-0.0106c-2.47556,-0.32441 -4.83703,-1.51659 -7.29643,-1.94c-4.73444,-0.81508 -9.96565,-0.95632 -14.76401,-1.01893c-3.1815,-0.04589 -6.21058,-0.83138 -9.36576,-1.03362c-5.78979,-0.37111 -11.65489,-0.22441 -17.46428,-0.53843c-8.34048,-0.45084 -16.60301,-1.34215 -24.95648,-1.45379c-9.50251,-1.11027 -18.93148,-1.00463 -28.49063,-1.00463c-3.78016,0 -8.6011,0.7623 -12.28719,-0.03344c-0.72857,-0.15728 -1.27747,-0.81697 -2,-1c-0.7083,-0.17943 -1.53276,0.25515 -2.19116,-0.06171c-0.4393,-0.21142 -3.71585,-3.61437 -4.1108,-4.01779c-3.46256,-9.15713 -8.22008,-19.28208 -9.29209,-29.07131c-0.8134,-7.42774 -0.36656,-15.168 -0.36806,-22.6303c-0.00348,-17.31181 -0.00069,-34.62363 -0.00069,-51.93545c0,-17.5 0,-35 0,-52.5c0,-5.17672 -0.00207,-9.94407 2.45658,-14.6979c1.09658,-2.12024 2.86872,-3.98687 4.11216,-6.03173c1.34662,-2.21455 2.55242,-4.44827 4.70718,-6.0442c4.73535,-3.50725 10.76754,-4.63089 15.93715,-7.16995c1.32263,-0.64961 2.59318,-1.42702 3.96384,-1.96253z" fill="url(#color-5)" stroke="#5041c7" stroke-width="0"/></g></g></svg>