<svg version="1.1" xmlns="http://www.w3.org/2000/svg" xmlns:xlink="http://www.w3.org/1999/xlink" width="700.05979" height="473.97229" viewBox="0,0,700.05979,473.97229"><defs><radialGradient cx="150.48048" cy="164.2337" r="260.5105" gradientUnits="userSpaceOnUse" id="color-1"><stop offset="0" stop-color="#c5f7ff"/><stop offset="1" stop-color="#c5f7ff" stop-opacity="0"/></radialGradient><linearGradient x1="168.00014" y1="90.65815" x2="168.00014" y2="343.34191" gradientUnits="userSpaceOnUse" id="color-2"><stop offset="0" stop-color="#03b9ff"/><stop offset="1" stop-color="#a8e6ff"/></linearGradient><linearGradient x1="195.07417" y1="204.15048" x2="146.02387" y2="301.78243" gradientUnits="userSpaceOnUse" id="color-3"><stop offset="0" stop-color="#ffffff" stop-opacity="0"/><stop offset="1" stop-color="#ffffff"/></linearGradient></defs><g transform="translate(110.02987,72.75244)"><g data-paper-data="{&quot;isPaintingLayer&quot;:true}" fill-rule="nonzero" stroke-linecap="butt" stroke-linejoin="miter" stroke-miterlimit="10" stroke-dasharray="" stroke-dashoffset="0" style="mix-blend-mode: normal"><path d="M-18.07819,372.19174v-424.92492h608.10811v424.92492z" fill="#00aaff" stroke="none" stroke-width="0"/><path d="M-2.56725,365.43923v-278.03729c0,0 80.52968,118.99385 98.50133,90.09009c23.05868,-37.08521 111.58252,-122.43795 127.97315,-10.83601c3.96743,27.0138 67.37255,9.70328 85.40712,-11.20627c98.31792,-113.99127 213.64393,-68.04781 213.64393,-68.04781v278.03729z" fill="#3385ff" stroke="none" stroke-width="0"/><path d="M410.99116,164.2337c0,130.88384 -116.63454,236.98615 -260.51051,236.98615c-143.87598,0 -260.51051,-106.10232 -260.51051,-236.98615c0,-130.88384 116.63454,-236.98614 260.51051,-236.98614c143.87599,0 260.51051,106.10232 260.51051,236.98615z" fill="url(#color-1)" stroke="none" stroke-width="0"/><path d="M29.01483,336.25357c-10.2069,-8.41538 -8.19816,-60.26117 -7.81634,-119.48853c0.33609,-52.13036 -2.267,-112.39018 7.81634,-120.20419c10.32773,-8.00337 75.68104,-5.55667 140.56181,-5.53058c64.62108,0.02601 128.77321,-2.40079 137.62206,5.53058c10.33406,9.26245 7.78577,65.2406 7.62122,120.9033c-0.16311,55.17356 2.14612,110.037 -7.62122,118.78933c-9.96625,8.93054 -74.10419,6.90071 -138.4489,6.86804c-64.43482,-0.03276 -129.07694,1.91904 -139.73496,-6.86804z" fill="url(#color-2)" stroke="#000000" stroke-width="12.5"/><path d="M-1.94659,66.98279v-50.27582c0,0 285.33373,-0.26407 291.42407,0c4.67347,0.20263 20.10022,50.22043 14.82859,50.27582c-5.17289,0.05435 -306.25266,0 -306.25266,0z" data-paper-data="{&quot;index&quot;:null}" fill="#000000" stroke="#000000" stroke-width="2.5"/><path d="M-2.82555,64.05294v-50.27582c0,0 282.11093,-0.26407 288.20127,0c4.67347,0.20263 20.10022,50.22043 14.82859,50.27582c-5.17289,0.05435 -303.02986,0 -303.02986,0z" data-paper-data="{&quot;index&quot;:null}" fill="#ff00ad" stroke="#ffffff" stroke-width="1.5"/><text transform="translate(6.98483,45.80553) scale(0.55302,0.55302)" font-size="40" xml:space="preserve" data-paper-data="{&quot;index&quot;:null}" fill="#ca008a" fill-rule="nonzero" stroke="#ca008a" stroke-width="7" stroke-linecap="butt" stroke-linejoin="miter" stroke-miterlimit="10" stroke-dasharray="" stroke-dashoffset="0" font-family="Handwriting" font-weight="normal" text-anchor="start" style="mix-blend-mode: normal"><tspan x="0" dy="0">PARAISO DE LOS GOLPES</tspan></text><path d="M29.01483,336.25357c-10.2069,-8.41538 -8.19816,-60.26117 -7.81634,-119.48853c0.33609,-52.13036 -2.267,-112.39018 7.81634,-120.20419c10.32773,-8.00337 75.68104,-5.55667 140.56181,-5.53058c64.62108,0.02601 128.77321,-2.40079 137.62206,5.53058c10.33406,9.26245 7.78577,65.2406 7.62122,120.9033c-0.16311,55.17356 2.14612,110.037 -7.62122,118.78933c-9.96625,8.93054 -74.10419,6.90071 -138.4489,6.86804c-64.43482,-0.03276 -129.07694,1.91904 -139.73496,-6.86804z" fill="none" stroke="#ffffff" stroke-width="5"/><path d="M64.77035,228.19527c5.19483,-10.29108 10.51265,-22.5274 13.59587,-22.92819c3.15796,-0.41047 17.92931,7.5118 32.82975,14.90063c14.84081,7.35929 29.81469,14.17922 31.06863,16.75778c1.46442,3.01135 -4.61631,13.81305 -10.11852,24.82354c-5.45387,10.91375 -10.30939,22.04739 -13.41214,22.67003c-3.16594,0.63536 -17.69905,-7.066 -32.47571,-14.39518c-14.79735,-7.33943 -30.81046,-14.92851 -31.42268,-17.26323c-0.63829,-2.43415 4.03272,-12.87328 9.9348,-24.56538z" fill="#ff00ad" stroke="#000000" stroke-width="10"/><path d="M65.40229,311.63112c-4.80479,-2.46092 -10.64354,-4.73104 -10.40903,-7.02688c0.24021,-2.35149 6.68613,-14.79107 12.86246,-27.25115c6.15164,-12.41021 12.03108,-24.8431 13.609,-26.17806c1.84275,-1.55902 6.79404,1.50366 11.94289,4.09402c5.10361,2.56759 10.41369,4.64608 10.2963,6.92437c-0.11977,2.32468 -6.41135,14.54999 -12.53732,26.90681c-6.13455,12.37413 -11.71466,24.98596 -13.93414,26.5224c-2.26799,1.57003 -6.37124,-1.19556 -11.83016,-3.99151z" fill="#ffde00" stroke="#000000" stroke-width="7.5"/><path d="M77.23251,315.62263c-1.75208,1.57353 -6.37127,-1.19556 -11.83018,-3.99151c-4.80479,-2.46092 -10.64354,-4.73104 -10.40903,-7.02688c0.24021,-2.35149 6.68613,-14.79107 12.86246,-27.25115c6.15164,-12.41021 12.03108,-24.8431 13.609,-26.17806c1.84275,-1.55902 6.79404,1.50366 11.94289,4.09402c5.10361,2.56759 10.41369,4.64608 10.2963,6.92437c-0.11977,2.32468 -6.41135,14.54999 -12.53732,26.90681c-6.13455,12.37413 -12.10467,24.8793 -13.93414,26.5224z" fill="#ffde00" stroke="#000000" stroke-width="0"/><path d="M64.77035,228.19525c5.19483,-10.29108 10.51265,-22.5274 13.59587,-22.9282c3.15796,-0.41047 17.92931,7.5118 32.82975,14.90064c14.84081,7.35929 29.81469,14.17922 31.06863,16.75778c1.46442,3.01135 -4.61631,13.81306 -10.11852,24.82354c-5.45387,10.91375 -10.3094,22.04739 -13.41215,22.67003c-3.16594,0.63536 -17.69905,-7.06601 -32.47571,-14.39519c-14.79735,-7.33943 -30.76481,-13.92739 -31.42268,-17.26323c-0.65615,-3.32717 4.03272,-12.87327 9.9348,-24.56537z" fill="#ff00ad" stroke="#ffffff" stroke-width="0"/><path d="M57.9023,254.93451l39.62609,-40.9609l13.56807,6.72229l-39.62609,40.9609c0,0 -5.32942,-0.42755 -7.57582,-1.54052c-2.27591,-1.12759 -5.99225,-5.18177 -5.99225,-5.18177z" fill="#ffffff" stroke="#000000" stroke-width="0"/><path d="M85.0656,268.39252l39.62609,-40.9609l13.56807,6.72229l-39.62609,40.9609z" fill="#ffffff" stroke="#000000" stroke-width="0"/><path d="M67.85483,223.8151c0,0 4.86324,-12.80881 6.82846,-16.10636c1.27646,-2.14183 3.81618,-1.75477 3.81618,-1.75477l6.07976,1.60399z" fill="#ffffff" stroke="#000000" stroke-width="0"/><path d="M131.94439,261.78758c0,0 -5.34183,13.88309 -7.72479,17.94748c-1.4762,2.51782 -5.20569,4.10688 -5.20569,4.10688l-6.84909,-1.66098z" data-paper-data="{&quot;index&quot;:null}" fill="#ffffff" stroke="#000000" stroke-width="0"/><path d="M64.77035,228.19525c5.19483,-10.29108 10.51265,-22.5274 13.59587,-22.9282c3.15796,-0.41047 17.92931,7.5118 32.82975,14.90064c14.84081,7.35929 29.81469,14.17922 31.06863,16.75778c1.46442,3.01135 -4.61631,13.81306 -10.11852,24.82354c-5.45387,10.91375 -10.3094,22.04739 -13.41215,22.67003c-3.16594,0.63536 -17.69905,-7.06601 -32.47571,-14.39519c-14.79735,-7.33943 -30.76481,-13.92739 -31.42268,-17.26323c-0.65615,-3.32717 4.03272,-12.87327 9.9348,-24.56537z" fill="none" stroke="#ff00ad" stroke-width="2.5"/><path d="M217.29212,213.24206c2.77579,-0.88722 6.70498,-3.32088 8.52039,-1.75291c3.67289,3.17225 -2.02838,12.83483 -3.81897,16.14211c-0.13841,0.25564 -0.27552,0.51329 -0.4161,0.77034c2.69083,-1.16841 6.70019,-0.99495 8.14349,0.13826c2.26783,1.7806 -1.26657,9.1685 -2.75572,11.53561c-0.37506,0.59618 -1.89463,1.06362 -1.55964,1.5882c0.70394,1.10234 3.11586,0.86922 3.82961,1.96645c1.3133,2.01891 2.84994,4.45495 1.92597,6.88144c-1.82495,4.7926 -9.85278,7.27502 -16.43254,8.97426l-1.82731,0.80046c-3.89842,1.45627 -7.84953,2.78064 -11.8182,4.03342c-5.58614,1.75939 -12.03183,4.0081 -17.80319,4.92015c-3.63537,0.57449 -9.12265,3.42172 -9.01006,4.95461c0.45647,6.21468 -0.80734,18.65308 -6.1949,24.05082c-2.57575,2.58062 -5.68683,6.06827 -9.46006,6.29602c-3.08368,0.18613 -4.01632,-3.37491 -5.51601,-5.39208c-2.0293,-2.72954 -3.59367,-8.68572 -3.46287,-12.46881c-1.47164,1.31055 -3.15964,2.4785 -4.904,3.50778c-3.44333,2.03178 -8.01498,3.00209 -12.49485,3.62153l-5.09248,1.69137c-0.91164,0.31037 -1.9082,0.39126 -2.8396,0.17604c-2.19232,-0.5066 -3.1935,-2.46196 -2.23619,-4.36743l2.08003,-4.14018l0.23312,0.05387l0.13985,-0.65474c6.77463,-5.75541 -0.29801,-4.77277 -6.67927,-6.24735c-5.66106,-1.30815 -17.67915,-1.92456 -15.32002,-10.00673c1.90113,-6.51311 14.5167,-6.41567 19.70526,-8.05228c1.47182,-0.46425 3.4636,-0.72354 4.21668,-1.88526c0.8988,-1.3865 -0.5376,-2.90543 -0.14924,-4.38923c1.59777,-6.1046 9.00745,-18.00865 9.00745,-18.00865l2.58322,-3.97772c1.07351,-1.70069 3.45281,-2.67376 5.51328,-2.19763c1.23646,0.28572 2.09403,1.03228 2.43504,1.97082l1.20984,3.23824c1.72675,3.415 2.75318,7.0372 3.76924,10.68809c6.05152,-5.65531 16.29427,-10.25616 23.95966,-13.91651c9.35861,-4.46889 31.53113,-18.13343 33.97444,-17.21354c2.85451,-1.07461 5.6392,-2.40017 8.54464,-3.32883z" fill="url(#color-3)" stroke="none" stroke-width="0.5"/><g><path d="M244.29763,251.91412c-1.71828,0.98492 -4.32786,-0.68959 -5.69408,-1.64329c-3.21616,-2.24505 -5.06375,-4.47527 -2.00752,-7.86397c0.76439,-0.29754 1.5308,-0.5904 2.3042,-0.86363c0,0 3.33603,-3.33919 3.62122,-3.29595c0.5517,-0.24089 1.78463,1.05543 2.76385,1.90066l-0.746,4.21942c0,0 1.95315,6.28871 -0.24167,7.54677z" fill="#00ade2" stroke="#000000" stroke-width="6.5"/><path d="M263.21486,249.89624c-0.76679,1.82608 -3.85692,2.08087 -5.52154,2.15305c-3.91856,0.16995 -6.74089,-0.47955 -6.37125,-5.02785c0.42651,-0.70063 0.85747,-1.39882 1.30591,-2.08561c0,0 0.62199,-4.67893 0.87481,-4.8178c0.29196,-0.52646 2.05877,-0.24551 3.35003,-0.16882l1.97019,3.80503c0,0 5.37128,3.80948 4.39183,6.142z" fill="#00ade2" stroke="#000000" stroke-width="6.5"/><path d="M265.41694,226.42045c-2.17306,-1.5768 -6.77201,0.29622 -6.18939,-3.68249c0.35949,-2.45505 -0.16065,-1.04734 1.65849,-5.38356c1.129,-2.69117 -4.51596,-10.41056 4.19163,-5.25538c8.70759,5.15519 17.94893,5.90545 20.63525,8.23308c2.68632,2.32763 4.42281,3.49413 5.06289,5.17249c1.06518,2.0649 2.45395,8.04044 -0.49262,9.02932c-0.87958,-0.11182 -0.91623,-0.09817 -1.4444,-0.57079c0.22503,0.76633 -0.18284,1.32374 -0.53146,1.69485c-2.35922,2.51168 -3.78161,-0.21238 -4.7106,-2.00402c-0.43044,-0.8386 -0.84008,-2.20487 -2.43541,-2.52581c-1.59532,-0.32093 -3.41235,1.24722 -3.94129,1.33009c-2.21041,-0.7565 -1.39277,-3.58326 -0.91247,-5.84588c0.18021,-0.8489 -10.89062,-0.19189 -10.89062,-0.19189z" data-paper-data="{&quot;index&quot;:null}" fill="#00ade2" stroke="#000000" stroke-width="6.5"/><path d="M229.32526,219.88902c0.49376,2.25975 1.3282,5.08159 -0.87768,5.85122c-0.52943,-0.07973 -2.35575,-1.63704 -3.94914,-1.30664c-1.59339,0.33042 -1.9949,1.69908 -2.42034,2.54024c-0.91833,1.79712 -2.32449,4.52961 -4.69859,2.03203c-0.3508,-0.36905 -0.76197,-0.924 -0.54151,-1.69167c-0.52537,0.47572 -0.5621,0.46231 -1.44099,0.57936c-2.95239,-0.97132 -1.5992,-6.95502 -0.54632,-9.02622c0.6301,-1.68214 2.35961,-2.85895 5.03204,-5.2025c2.67243,-2.34355 11.90914,-3.14879 20.58591,-8.35568c8.67678,-5.20689 3.07782,2.54593 4.22281,5.23034c1.84491,4.32533 1.31639,2.92072 1.69046,5.37359c0.60628,3.97517 -4.00372,2.12954 -6.16737,3.71925c0,0 -11.07452,-0.59113 -10.88929,0.25668z" fill="#00ade2" stroke="#000000" stroke-width="6.5"/><path d="M273.25512,215.41654c-0.29842,6.91987 -0.36833,9.50808 -2.107,15.30652c-1.73867,5.79844 -3.92682,8.48717 -5.43868,9.85807c-3.37295,3.05849 -16.17642,3.52746 -24.80493,0.89123c-4.65317,-1.42165 -8.48274,-3.31905 -9.07028,-7.69842c-0.58754,-4.37938 1.03824,-21.27718 3.8296,-31.36455c1.56073,-8.68812 5.97809,-16.67913 16.41549,-18.16922c0.7605,-0.10858 2.57292,-0.11502 4.20774,0.05071c17.26447,1.75015 17.33477,22.62249 16.96808,31.12566z" fill="#00c3ff" stroke="#000000" stroke-width="6.5"/><path d="M244.29766,251.91412c-1.71828,0.98492 -4.32786,-0.68959 -5.69408,-1.64329c-3.21616,-2.24505 -5.06375,-4.47527 -2.00752,-7.86397c0.76439,-0.29754 1.5308,-0.5904 2.30421,-0.86363c0,0 3.33603,-3.33919 3.62122,-3.29595c0.5517,-0.24089 1.78463,1.05543 2.76385,1.90066l-0.746,4.21942c0,0 1.95315,6.28871 -0.24166,7.54677z" fill="#00ade2" stroke="none" stroke-width="0.5"/><path d="M263.21488,249.89624c-0.76679,1.82608 -3.85693,2.08087 -5.52154,2.15305c-3.91856,0.16995 -6.7409,-0.47955 -6.37125,-5.02785c0.42651,-0.70063 0.85748,-1.39882 1.30592,-2.08561c0,0 0.62198,-4.67894 0.8748,-4.8178c0.29196,-0.52646 2.05877,-0.24551 3.35004,-0.16882l1.97019,3.80503c0,0 5.37128,3.80948 4.39183,6.142z" fill="#00ade2" stroke="none" stroke-width="0.5"/><path d="M265.41695,226.42045c-2.17306,-1.5768 -6.77201,0.29622 -6.18939,-3.68249c0.35949,-2.45505 -0.16065,-1.04734 1.6585,-5.38355c1.129,-2.69117 -4.51596,-10.41056 4.19163,-5.25538c8.70759,5.15519 17.94893,5.90545 20.63524,8.23308c2.68632,2.32763 4.4228,3.49413 5.06289,5.17249c1.06518,2.0649 2.45396,8.04045 -0.49262,9.02932c-0.87958,-0.11182 -0.91624,-0.09818 -1.44441,-0.57079c0.22503,0.76633 -0.18283,1.32374 -0.53145,1.69485c-2.35922,2.51168 -3.78161,-0.21238 -4.7106,-2.00402c-0.43044,-0.8386 -0.84008,-2.20487 -2.4354,-2.52581c-1.59532,-0.32093 -3.41235,1.24722 -3.94129,1.33009c-2.21041,-0.7565 -1.39277,-3.58326 -0.91247,-5.84588c0.18021,-0.8489 -10.89062,-0.19189 -10.89062,-0.19189z" data-paper-data="{&quot;index&quot;:null}" fill="#00ade2" stroke="none" stroke-width="0.5"/><path d="M229.32528,219.88902c0.49376,2.25975 1.3282,5.08159 -0.87768,5.85122c-0.52943,-0.07973 -2.35576,-1.63704 -3.94914,-1.30664c-1.59339,0.33042 -1.9949,1.69908 -2.42033,2.54025c-0.91833,1.79712 -2.32448,4.52961 -4.69859,2.03203c-0.3508,-0.36905 -0.76198,-0.92401 -0.54151,-1.69167c-0.52537,0.47572 -0.56209,0.46231 -1.44098,0.57936c-2.95239,-0.97132 -1.5992,-6.95502 -0.54632,-9.02622c0.6301,-1.68214 2.35961,-2.85895 5.03203,-5.2025c2.67242,-2.34355 11.90915,-3.14879 20.5859,-8.35568c8.67678,-5.20689 3.07782,2.54593 4.22281,5.23034c1.84491,4.32533 1.3164,2.92072 1.69047,5.3736c0.60628,3.97517 -4.00372,2.12954 -6.16737,3.71925c0,0 -11.07453,-0.59113 -10.8893,0.25668z" fill="#00ade2" stroke="none" stroke-width="0.5"/><path d="M256.28703,184.29088c18.22717,2.0036 17.33479,22.62249 16.9681,31.12565c-0.29842,6.91987 -0.36833,9.50807 -2.107,15.30651c-1.73867,5.79844 -3.92682,8.48717 -5.43867,9.85808c-3.37295,3.05849 -16.17643,3.52746 -24.80494,0.89123c-4.65317,-1.42165 -8.48274,-3.31905 -9.07028,-7.69842c-0.58754,-4.37938 1.03824,-21.27719 3.82961,-31.36456c1.56073,-8.68812 5.97809,-16.67913 16.41549,-18.16922c1.27813,-0.18247 2.79374,-0.0437 4.20775,0.05071z" fill="#00c3ff" stroke="none" stroke-width="0.5"/><path d="M249.95182,191.677c2.64469,-1.05547 12.49561,0.46016 15.51576,3.30993c4.31514,4.07173 2.87908,11.66101 -0.877,15.61314c-1.42297,1.49725 -3.32434,2.19824 -5.15777,3.03547c-6.23502,1.3986 -16.65039,-2.34739 -17.50969,-9.67256c-0.15356,-1.30901 0.22498,-5.1657 1.96533,-7.75147c1.82131,-2.70608 5.03373,-4.12359 6.06336,-4.53451z" fill="#ffffff" stroke="none" stroke-width="0.5"/><path d="M252.05439,206.36752c-1.49455,-0.23577 -1.25877,-1.73032 -1.25877,-1.73032c0.07859,-0.4982 0.25149,-1.59418 0.33008,-2.09237c0,0 0.23577,-1.49456 1.73032,-1.25878c1.49455,0.23577 1.25878,1.73033 1.25878,1.73033c-0.07859,0.4982 -0.15718,0.99636 -0.23577,1.49455l-0.09431,0.59783c0,0 -0.23578,1.49455 -1.73033,1.25877z" fill="#000000" stroke="none" stroke-width="0.5"/><path d="M261.66661,207.57757c-1.49455,-0.23577 -1.25877,-1.73032 -1.25877,-1.73032l0.02993,-0.00123c-0.02103,-0.51392 -0.04209,-1.02779 -0.06313,-1.5417c0,0 -0.06192,-1.51178 1.44986,-1.57369c1.51177,-0.06192 1.57368,1.44985 1.57368,1.44985c0.02103,0.51392 0.0421,1.0278 0.06314,1.5417l-0.06438,0.59661c0,0 -0.23577,1.49455 -1.73032,1.25877z" fill="#000000" stroke="none" stroke-width="0.5"/></g><text transform="translate(7.98483,42.30553) scale(0.55302,0.55302)" font-size="40" xml:space="preserve" data-paper-data="{&quot;index&quot;:null}" fill="#ffffff" fill-rule="nonzero" stroke="#ffffff" stroke-width="7" stroke-linecap="butt" stroke-linejoin="miter" stroke-miterlimit="10" stroke-dasharray="" stroke-dashoffset="0" font-family="Handwriting" font-weight="normal" text-anchor="start" style="mix-blend-mode: normal"><tspan x="0" dy="0">PARAISO DE LOS GOLPES</tspan></text><path d="M383.0617,165.53725c-2.82288,-0.95529 -2.26733,-6.84063 -2.16173,-13.56391c0.09295,-5.91765 -0.62697,-12.75813 2.16173,-13.64515c2.85629,-0.90851 20.93076,-0.63077 38.87453,-0.62781c17.87195,0.00296 35.6142,-0.27253 38.06149,0.62781c2.85805,1.05144 2.15328,7.40588 2.10777,13.72451c-0.04511,6.2631 0.59354,12.49101 -2.10777,13.48455c-2.75632,1.01377 -20.49465,0.78334 -38.29016,0.77963c-17.82044,-0.00372 -35.69821,0.21785 -38.64585,-0.77963z" fill="#007e91" stroke="#000000" stroke-width="0"/><path d="M378.0617,160.53725c-2.82287,-0.95528 -2.26733,-6.84063 -2.16173,-13.56391c0.09295,-5.91765 -0.62697,-12.75813 2.16173,-13.64515c2.85629,-0.90851 20.93075,-0.63077 38.87452,-0.62781c17.87195,0.00295 35.61421,-0.27253 38.06149,0.62781c2.85804,1.05144 2.15327,7.40588 2.10777,13.72451c-0.04511,6.26311 0.59354,12.49101 -2.10777,13.48454c-2.75632,1.01376 -20.49465,0.78334 -38.29017,0.77964c-17.82044,-0.00372 -35.69821,0.21784 -38.64585,-0.77964z" fill="#29f376" stroke="#000000" stroke-width="0"/><text transform="translate(382.00019,152.25) scale(0.40037,0.34832)" font-size="40" xml:space="preserve" fill="#ffffff" fill-rule="nonzero" stroke="#ffffff" stroke-width="1" stroke-linecap="butt" stroke-linejoin="miter" stroke-miterlimit="10" stroke-dasharray="" stroke-dashoffset="0" font-family="Sans Serif" font-weight="normal" text-anchor="start" style="mix-blend-mode: normal"><tspan x="0" dy="0">CARRERA</tspan></text><text transform="translate(344.48488,190.01765) scale(0.33192,0.33192)" font-size="40" xml:space="preserve" data-paper-data="{&quot;index&quot;:null}" fill="#007e91" fill-rule="nonzero" stroke="#007e91" stroke-width="7" stroke-linecap="butt" stroke-linejoin="miter" stroke-miterlimit="10" stroke-dasharray="" stroke-dashoffset="0" font-family="Handwriting" font-weight="normal" text-anchor="start" style="mix-blend-mode: normal"><tspan x="0" dy="0">COMO JUGAR</tspan></text><text transform="translate(345.48488,187.51765) scale(0.33192,0.33192)" font-size="40" xml:space="preserve" data-paper-data="{&quot;index&quot;:null}" fill="#ffffff" fill-rule="nonzero" stroke="#ffffff" stroke-width="7" stroke-linecap="butt" stroke-linejoin="miter" stroke-miterlimit="10" stroke-dasharray="" stroke-dashoffset="0" font-family="Handwriting" font-weight="normal" text-anchor="start" style="mix-blend-mode: normal"><tspan x="0" dy="0">COMO JUGAR</tspan></text><text transform="translate(345.25019,213.48752) scale(0.30625,0.30625)" font-size="40" xml:space="preserve" fill="#007e91" fill-rule="nonzero" stroke="none" stroke-width="1" stroke-linecap="butt" stroke-linejoin="miter" stroke-miterlimit="10" stroke-dasharray="" stroke-dashoffset="0" font-family="Sans Serif" font-weight="normal" text-anchor="start" style="mix-blend-mode: normal"><tspan x="0" dy="0">Llega hasta el final</tspan><tspan x="0" dy="48px">del mapa, evita ser</tspan><tspan x="0" dy="48px">golpeado por los</tspan><tspan x="0" dy="48px">martillos </tspan></text><text transform="translate(344.25019,212.48752) scale(0.30625,0.30625)" font-size="40" xml:space="preserve" fill="#ffffff" fill-rule="nonzero" stroke="none" stroke-width="1" stroke-linecap="butt" stroke-linejoin="miter" stroke-miterlimit="10" stroke-dasharray="" stroke-dashoffset="0" font-family="Sans Serif" font-weight="normal" text-anchor="start" style="mix-blend-mode: normal"><tspan x="0" dy="0">Llega hasta el final</tspan><tspan x="0" dy="48px">del mapa, evita ser</tspan><tspan x="0" dy="48px">golpeado por los</tspan><tspan x="0" dy="48px">martillos</tspan></text></g></g></svg>