<svg version="1.1" xmlns="http://www.w3.org/2000/svg" xmlns:xlink="http://www.w3.org/1999/xlink" width="700.05978" height="473.97229" viewBox="0,0,700.05978,473.97229"><defs><radialGradient cx="150.48048" cy="164.23371" r="260.5105" gradientUnits="userSpaceOnUse" id="color-1"><stop offset="0" stop-color="#c5f7ff"/><stop offset="1" stop-color="#c5f7ff" stop-opacity="0"/></radialGradient><linearGradient x1="168.00016" y1="90.65814" x2="168.00016" y2="343.3419" gradientUnits="userSpaceOnUse" id="color-2"><stop offset="0" stop-color="#03b9ff"/><stop offset="1" stop-color="#a8e6ff"/></linearGradient><linearGradient x1="169.92127" y1="273.94979" x2="169.92127" y2="342.79834" gradientUnits="userSpaceOnUse" id="color-3"><stop offset="0" stop-color="#ff4af6"/><stop offset="1" stop-color="#b692ff"/></linearGradient><linearGradient x1="169.92127" y1="273.94979" x2="169.92127" y2="342.79834" gradientUnits="userSpaceOnUse" id="color-4"><stop offset="0" stop-color="#ff4af6"/><stop offset="1" stop-color="#b692ff"/></linearGradient></defs><g transform="translate(110.02987,72.75243)"><g data-paper-data="{&quot;isPaintingLayer&quot;:true}" fill-rule="nonzero" stroke-linecap="butt" stroke-linejoin="miter" stroke-miterlimit="10" stroke-dasharray="" stroke-dashoffset="0" style="mix-blend-mode: normal"><path d="M-18.07819,372.19173v-424.92492h608.10811v424.92492z" fill="#00aaff" stroke="none" stroke-width="0"/><path d="M-2.56726,365.43922v-278.03729c0,0 80.52968,118.99385 98.50133,90.09009c23.05868,-37.08521 111.58252,-122.43795 127.97315,-10.83601c3.96743,27.0138 67.37255,9.70328 85.40712,-11.20627c98.31792,-113.99127 213.64393,-68.04781 213.64393,-68.04781v278.03729z" fill="#3385ff" stroke="none" stroke-width="0"/><path d="M410.99116,164.23371c0,130.88384 -116.63454,236.98615 -260.51051,236.98615c-143.87598,0 -260.51051,-106.10232 -260.51051,-236.98615c0,-130.88384 116.63454,-236.98614 260.51051,-236.98614c143.87599,0 260.51051,106.10232 260.51051,236.98615z" fill="url(#color-1)" stroke="none" stroke-width="0"/><path d="M29.01485,336.25356c-10.2069,-8.41538 -8.19816,-60.26117 -7.81634,-119.48853c0.33609,-52.13036 -2.267,-112.39018 7.81634,-120.20419c10.32773,-8.00337 75.68104,-5.55667 140.56181,-5.53058c64.62108,0.02601 128.77321,-2.40079 137.62206,5.53058c10.33406,9.26245 7.78577,65.2406 7.62122,120.9033c-0.16311,55.17356 2.14612,110.037 -7.62122,118.78933c-9.96625,8.93054 -74.10419,6.90071 -138.4489,6.86804c-64.43482,-0.03276 -129.07694,1.91904 -139.73496,-6.86804z" fill="url(#color-2)" stroke="#000000" stroke-width="12.5"/><path d="M-1.94658,66.98278v-50.27582c0,0 285.33373,-0.26407 291.42407,0c4.67347,0.20263 20.10022,50.22043 14.82859,50.27582c-5.17289,0.05435 -306.25266,0 -306.25266,0z" data-paper-data="{&quot;index&quot;:null}" fill="#000000" stroke="#000000" stroke-width="2.5"/><path d="M-2.82555,64.05295v-50.27582c0,0 282.11093,-0.26407 288.20127,0c4.67347,0.20263 20.10022,50.22043 14.82859,50.27582c-5.17289,0.05435 -303.02986,0 -303.02986,0z" data-paper-data="{&quot;index&quot;:null}" fill="#ff00ad" stroke="#ffffff" stroke-width="1.5"/><text transform="translate(14.98483,51.84975) scale(0.80425,0.80425)" font-size="40" xml:space="preserve" data-paper-data="{&quot;index&quot;:null}" fill="#ca008a" fill-rule="nonzero" stroke="#ca008a" stroke-width="7" stroke-linecap="butt" stroke-linejoin="miter" stroke-miterlimit="10" stroke-dasharray="" stroke-dashoffset="0" font-family="Handwriting" font-weight="normal" text-anchor="start" style="mix-blend-mode: normal"><tspan x="0" dy="0">CARRERA SLIME</tspan></text><text transform="translate(11.98483,48.84975) scale(0.80424,0.80424)" font-size="40" xml:space="preserve" data-paper-data="{&quot;index&quot;:null}" fill="#ffffff" fill-rule="nonzero" stroke="#ffffff" stroke-width="7" stroke-linecap="butt" stroke-linejoin="miter" stroke-miterlimit="10" stroke-dasharray="" stroke-dashoffset="0" font-family="Handwriting" font-weight="normal" text-anchor="start" style="mix-blend-mode: normal"><tspan x="0" dy="0">CARRERA SLIME</tspan></text><g><path d="M114.46321,279.73362c-0.97364,0.78244 -2.7639,-0.00426 -3.70874,-0.46413c-2.22421,-1.08253 -3.59437,-2.29031 -2.02347,-4.70172c0.44695,-0.26048 0.89562,-0.51824 1.35057,-0.76446c0,0 1.75008,-2.40808 1.93199,-2.40916c0.32002,-0.20429 1.21549,0.48212 1.90859,0.91244l-0.05006,2.70188c0,0 1.83479,3.72573 0.59112,4.72516z" fill="#00ade2" stroke="#000000" stroke-width="6.5"/><path d="M126.04978,276.61743c-0.29823,1.21295 -2.19824,1.67537 -3.22815,1.88393c-2.42444,0.49098 -4.2465,0.36373 -4.46321,-2.50605c0.19684,-0.47839 0.3967,-0.95569 0.60857,-1.42761c0,0 -0.07235,-2.97596 0.07151,-3.08732c0.13015,-0.35666 1.25842,-0.35527 2.07038,-0.4344l1.60132,2.1768c0,0 3.72053,1.84532 3.3396,3.39466z" fill="#00ade2" stroke="#000000" stroke-width="6.5"/><path d="M125.11444,261.77629c-1.50871,-0.76874 -4.18965,0.85007 -4.21771,-1.68581c-0.01733,-1.56475 -0.20301,-0.63667 0.50411,-3.51679c0.43885,-1.78747 -3.83643,-6.04165 2.09477,-3.68588c5.9312,2.35578 11.76201,1.91496 13.66426,3.101c1.90224,1.18604 3.09866,1.74208 3.66237,2.72474c0.8665,1.18169 2.31893,4.76779 0.58048,5.6734c-0.55894,0.01678 -0.58043,0.02888 -0.95591,-0.21363c0.2155,0.45528 0.01619,0.84262 -0.16452,1.10807c-1.22288,1.79656 -2.3767,0.23933 -3.13152,-0.78551c-0.35057,-0.48012 -0.74003,-1.29101 -1.76541,-1.33416c-1.02537,-0.04315 -2.00322,1.11233 -2.32459,1.21594c-1.45137,-0.25404 -1.2198,-2.09538 -1.14295,-3.55213c0.02884,-0.54655 -6.80338,0.95075 -6.80338,0.95075z" data-paper-data="{&quot;index&quot;:null}" fill="#00ade2" stroke="#000000" stroke-width="6.5"/><path d="M101.98854,261.25439c0.52968,1.35923 1.32683,3.03515 0.02826,3.73139c-0.33766,0.00236 -1.62844,-0.78831 -2.58861,-0.42589c-0.96016,0.36243 -1.07579,1.25453 -1.25815,1.82036c-0.39548,1.20981 -1.00293,3.05026 -2.72738,1.72766c-0.25481,-0.19543 -0.56549,-0.50074 -0.50359,-1.00064c-0.28054,0.348 -0.30474,0.34324 -0.84076,0.50254c-1.93471,-0.31495 -1.67976,-4.1756 -1.2274,-5.56937c0.22722,-1.10985 1.189,-2.01294 2.62352,-3.73554c1.43453,-1.7226 7.10958,-3.13199 12.00324,-7.22845c4.89366,-4.09646 2.1676,1.28356 3.14471,2.84334c1.57441,2.51324 1.10711,1.69015 1.58121,3.18145c0.76837,2.41683 -2.28491,1.72011 -3.47657,2.92309c0,0 -6.95719,0.72011 -6.75847,1.23007z" fill="#00ade2" stroke="#000000" stroke-width="6.5"/><path d="M128.91598,254.15089c0.49415,4.3402 0.70496,5.95945 0.19167,9.74258c-0.51329,3.78313 -1.6122,5.67317 -2.41932,6.67577c-1.80067,2.23683 -9.73076,3.78726 -15.36514,2.99295c-3.0385,-0.42835 -5.61068,-1.23401 -6.40709,-3.90448c-0.79641,-2.67048 -1.44425,-13.35708 -0.69668,-19.91554c0.11845,-5.56582 2.08501,-10.9781 8.44075,-12.93214c0.46309,-0.14238 1.59155,-0.32451 2.62627,-0.38193c10.92725,-0.6064 13.02231,12.38954 13.62953,17.72279z" fill="#00c3ff" stroke="#000000" stroke-width="6.5"/><path d="M114.46321,279.73362c-0.97364,0.78244 -2.7639,-0.00426 -3.70873,-0.46413c-2.22421,-1.08253 -3.59437,-2.29031 -2.02347,-4.70172c0.44695,-0.26048 0.89562,-0.51824 1.35058,-0.76446c0,0 1.75008,-2.40808 1.932,-2.40916c0.32002,-0.20429 1.21549,0.48212 1.90858,0.91244l-0.05006,2.70188c0,0 1.83479,3.72573 0.59113,4.72516z" fill="#00ade2" stroke="none" stroke-width="0.5"/><path d="M126.04978,276.61743c-0.29823,1.21295 -2.19825,1.67537 -3.22815,1.88393c-2.42444,0.49098 -4.24651,0.36373 -4.46321,-2.50605c0.19684,-0.47839 0.39672,-0.95569 0.60858,-1.42761c0,0 -0.07236,-2.97596 0.0715,-3.08732c0.13015,-0.35666 1.25842,-0.35527 2.07038,-0.4344l1.60131,2.1768c0,0 3.72053,1.84532 3.3396,3.39466z" fill="#00ade2" stroke="none" stroke-width="0.5"/><path d="M125.11446,261.77629c-1.50871,-0.76874 -4.18965,0.85007 -4.21771,-1.68581c-0.01733,-1.56475 -0.20301,-0.63667 0.50412,-3.51679c0.43885,-1.78747 -3.83643,-6.04165 2.09477,-3.68588c5.9312,2.35578 11.76201,1.91496 13.66425,3.101c1.90224,1.18604 3.09866,1.74208 3.66237,2.72474c0.8665,1.18169 2.31893,4.76779 0.58048,5.6734c-0.55894,0.01678 -0.58044,0.02888 -0.95592,-0.21363c0.2155,0.45528 0.0162,0.84262 -0.16451,1.10807c-1.22288,1.79656 -2.3767,0.23933 -3.13151,-0.78551c-0.35057,-0.48012 -0.74004,-1.29101 -1.76541,-1.33416c-1.02537,-0.04315 -2.00322,1.11233 -2.32459,1.21594c-1.45137,-0.25404 -1.2198,-2.09538 -1.14295,-3.55213c0.02884,-0.54655 -6.80339,0.95075 -6.80339,0.95075z" data-paper-data="{&quot;index&quot;:null}" fill="#00ade2" stroke="none" stroke-width="0.5"/><path d="M101.98854,261.25439c0.52968,1.35923 1.32683,3.03515 0.02826,3.73139c-0.33766,0.00236 -1.62845,-0.78831 -2.58861,-0.42589c-0.96016,0.36243 -1.07579,1.25453 -1.25814,1.82036c-0.39548,1.20981 -1.00292,3.05026 -2.72738,1.72766c-0.25481,-0.19543 -0.5655,-0.50074 -0.50359,-1.00064c-0.28054,0.348 -0.30473,0.34324 -0.84075,0.50254c-1.93471,-0.31495 -1.67977,-4.1756 -1.22741,-5.56937c0.22722,-1.10985 1.189,-2.01294 2.62352,-3.73554c1.43452,-1.7226 7.10959,-3.13199 12.00323,-7.22845c4.89366,-4.09646 2.1676,1.28356 3.14471,2.84334c1.57441,2.51324 1.10712,1.69015 1.58122,3.18145c0.76837,2.41683 -2.28491,1.72011 -3.47657,2.92309c0,0 -6.95719,0.72011 -6.75848,1.23007z" fill="#00ade2" stroke="none" stroke-width="0.5"/><path d="M115.28645,236.4281c11.55189,-0.54313 13.02232,12.38952 13.62954,17.72278c0.49415,4.3402 0.70496,5.95944 0.19167,9.74256c-0.51329,3.78313 -1.6122,5.67317 -2.41931,6.67578c-1.80067,2.23683 -9.73077,3.78726 -15.36514,2.99295c-3.0385,-0.42835 -5.61069,-1.23402 -6.40709,-3.90449c-0.79641,-2.67048 -1.44425,-13.35709 -0.69668,-19.91555c0.11845,-5.56582 2.08501,-10.9781 8.44075,-12.93213c0.7783,-0.23929 1.73612,-0.30179 2.62628,-0.38193z" fill="#00c3ff" stroke="none" stroke-width="0.5"/><path d="M112.0657,241.65202c1.54383,-0.91744 7.82961,-0.94136 9.99115,0.53715c3.08836,2.11249 2.93959,6.98151 0.98806,9.8127c-0.73932,1.07259 -1.85493,1.69614 -2.91482,2.39789c-3.74678,1.48404 -10.60339,0.17399 -11.8586,-4.30492c-0.22431,-0.80038 -0.36752,-3.24018 0.46255,-5.02208c0.86868,-1.8648 2.73061,-3.06357 3.33166,-3.42075z" fill="#ffffff" stroke="none" stroke-width="0.5"/><path d="M114.81926,250.59716c-0.95423,0 -0.95423,-0.95423 -0.95423,-0.95423c0,-0.31808 0,-1.01784 0,-1.33593c0,0 0,-0.95424 0.95423,-0.95424c0.95423,0 0.95424,0.95424 0.95424,0.95424c0,0.31808 0,0.63615 0,0.95423v0.3817c0,0 -0.00001,0.95423 -0.95424,0.95423z" fill="#000000" stroke="none" stroke-width="0.5"/><path d="M120.92633,250.4063c-0.95423,0 -0.95423,-0.95423 -0.95423,-0.95423l0.01853,-0.00371c-0.06361,-0.31808 -0.12722,-0.63614 -0.19084,-0.95422c0,0 -0.18715,-0.93571 0.74856,-1.12285c0.9357,-0.18715 1.12284,0.74856 1.12284,0.74856c0.06361,0.31808 0.12724,0.63615 0.19085,0.95423l0.01852,0.378c0,0 0,0.95423 -0.95423,0.95423z" fill="#000000" stroke="none" stroke-width="0.5"/></g><g fill="url(#color-4)"><path d="M25.94183,273.94979c3.75439,0.60019 7.53434,0.56837 11.30926,1.13831c3.14235,0.47443 5.97573,1.82104 9.12387,2.27351c1.99106,0.28616 4.08492,-0.25867 6.08283,-0.00056c1.05299,0.13604 1.98294,0.64746 3.04129,0.75782c3.59108,0.37446 7.92265,0.02324 11.55797,0.02324c8.78594,0 17.57425,-0.00384 26.36019,-0.00384c0.48256,0 6.23149,0.00594 6.48947,-0.02572c2.39591,-0.29402 4.59216,-1.2855 7.00189,-1.50763c4.27344,-0.39393 8.78816,0.27093 13.08171,0.00437c4.63156,-0.28754 5.57668,-0.91508 10.08215,-1.35652c5.89028,-0.57713 12.17984,-0.1622 18.11053,-0.1622c9.63681,0 19.31473,0.09103 28.95018,-0.03754c6.53961,2.00446 13.4971,3.23776 20.46587,3.81556c6.31858,0.52389 12.94621,0.15891 19.25575,0.76336c2.4135,0.23121 4.60988,1.25251 7.01868,1.50971c3.29737,0.35209 7.18846,0.02705 10.54573,0.02705c8.44802,0 16.89889,0.0044 25.3469,0.0044c8.1101,0 16.22152,0.00272 24.33162,0.00272c3.36179,0 7.23941,0.4129 10.54396,-0.02358c2.44138,-0.32247 4.32807,-1.65576 6.60472,-2.38945c2.06137,-0.66431 4.36264,-1.11193 6.57407,-1.40004c1.18505,-0.15439 2.38956,0.23285 3.50803,-0.09814c0.86553,-0.25613 -75.15402,58.39944 -149.82445,57.79421c-68.31086,-0.55369 -135.8188,-60.34383 -135.56222,-61.10903z" data-paper-data="{&quot;noHover&quot;:false,&quot;origItem&quot;:[&quot;Path&quot;,{&quot;applyMatrix&quot;:true,&quot;segments&quot;:[[[52,512],[0,-4.36755],[0,12]],[[52,548],[0,-12],[0,5.94784]],[[51.93544,566.80091],[0.94485,-5.85835],[-1.3085,8.11311]],[[45.93544,590.80091],[1.35531,-8.09951],[-1.65148,9.86945]],[[47.82187,622.51977],[-1.6345,-9.78374],[0,0]],[[50,626],[0,0],[-0.12687,1.36219]],[[49.6194,630.08658],[-0.5589,-1.24872],[0.77033,1.72109]],[[53.6194,634.08658],[-0.692,-1.75405],[0.82807,2.09895]],[[53.86624,640.85124],[-0.61025,-2.1723],[0.69819,2.48535]],[[57.44865,647.71756],[-1.19738,-2.28708],[4.22789,8.07553]],[[72.54575,669.00174],[-7.30417,-5.27484],[0,0]],[[77.20503,669.007],[0,0],[16.09961,0.08743]],[[125.31069,673.00966],[-16.1093,-1.00293],[12.6918,0.79016]],[[163.80091,673.06456],[-12.61916,-1.55069],[3.7543,0.46134]],[[174.98252,675.00021],[-3.78183,0.04216],[0.01151,-0.00021]],[175,675],[[183,675],[0,0],[36.47185,0]],[[293.30989,677],[-36.20962,-4.48528],[3.45891,0]],[[307,677],[-3.23355,0],[32.58937,0]],[[405.35239,677.01634],[-32.51376,-2.02392],[16.67882,1.03822]],[[455,679],[-16.75334,0],[13.33333,0]],[[499,679],[-13.33333,0],[6.64294,0]],[[520.19909,679.06456],[-6.55136,1.13221],[10.49657,-1.81403]],[[552.45442,673.02986],[-10.74577,1.17959],[14.44948,-1.58615]],[[597,673],[-14.5349,0],[0,0]],[[597.1257,673.00423],[-0.08098,-0.00423],[1.33002,-1.10897]],[[600.74675,669.37134],[-0.94019,1.4322],[1.15694,-1.76237]],[[602.74675,663.37134],[-1.09363,1.80234],[0.84703,-1.39593]],[[606.3806,660.08658],[-0.60003,1.51856],[0.79001,-1.99936]],[[606.59163,653.64071],[-0.07034,2.14862],[2,-1.33333]],[[612.59163,649.64071],[-1.38873,1.96194],[0.71033,-1.00353]],[[612,646],[0.07531,1.22718],[-0.34814,-5.67297]],[[612.06456,627.19909],[-0.90058,5.58386],[1.07637,-6.67379]],[[616.1994,606.60206],[-1.85734,6.59018],[1.0887,-3.86293]],[[620.06456,595.19909],[-0.55795,3.97444],[0.84116,-5.9918]],[[620,576],[0,6.08533],[0,-10.32188]],[[620,545.03435],[0,10.32188],[-0.16271,-0.92417]],[[620.2245,542.55409],[-0.22424,0.67897],[0.1928,-0.69928]],[[621.44179,540.33653],[-0.66613,0.6843],[0,0]],[[624.50842,535.80324],[0,0],[1.86118,-5.50667]],[[626,520],[0,5.80681],[0,-5.73402]],[[626.06456,502.80091],[-0.05518,5.73364],[0.0088,-0.91487]],[[626.07645,500.05621],[0.70605,0.58185],[-0.62753,-0.51715]],[[623.80091,500.93544],[0.76971,-0.26227],[-3.32862,1.1342]],[[614.91342,506.6194],[3.26967,-1.29435],[-2.20657,0.8735]],[[607.80091,506.93544],[2.33793,-0.40746],[-4.3628,0.76035]],[[595.02277,510.57257],[4.06677,-1.75317],[-4.49149,1.93626]],[[581.80091,516.93544],[4.81647,-0.85102],[-6.51938,1.15191]],[[561,517],[6.6323,0],[-16,0]],[[513,517],[16,0],[-16.66667,0]],[[463,517],[16.66667,0],[-6.62339,0]],[[442.19909,516.93544],[6.50522,0.92919],[-4.75218,-0.67879]],[[428.35782,512.95859],[4.76148,0.61019],[-12.44777,-1.59519]],[[390.38908,510.96254],[12.46559,1.3826],[-13.74834,-1.52487]],[[350.05446,500.90978],[12.90167,5.28995],[-19.0093,0.3393]],[[293,501],[19.01196,0],[-11.70035,0]],[[257.29366,501.41254],[11.62063,-1.52309],[-8.88861,1.16501]],[[237.4124,504.98296],[9.13736,-0.75885],[-8.47053,0.70347]],[[211.61092,504.96254],[8.43084,-1.03962],[-4.75403,0.58623]],[[197.80091,508.93544],[4.72677,-0.77594],[-0.50895,0.08355]],[[185,509],[0.95202,0],[-17.33333,0]],[[133,509],[17.33333,0],[-7.17195,0]],[[110.19909,508.93544],[7.08466,0.98823],[-2.08797,-0.29125]],[[104.19909,506.93544],[2.07739,0.35902],[-3.94157,-0.68119]],[[92.19909,506.93544],[3.92806,0.75521],[-6.21081,-1.1941]],[[74.19909,500.93544],[6.19938,1.25207],[-7.44734,-1.50412]],[[51.88808,497.92999],[7.40685,1.58394],[-1.05952,4.22688]]],&quot;closed&quot;:true}]}" stroke="#7d277a" stroke-width="15"/><path d="M25.94183,273.94979c3.75439,0.60019 7.53434,0.56836 11.30926,1.1383c3.14235,0.47444 5.97572,1.82105 9.12387,2.27351c1.99106,0.28617 4.08492,-0.25867 6.08283,-0.00056c1.05299,0.13604 1.98294,0.64746 3.0413,0.75782c3.59108,0.37446 7.92264,0.02324 11.55797,0.02324c8.78594,0 17.57425,-0.00384 26.36019,-0.00384c0.48256,0 6.2315,0.00594 6.48947,-0.02572c2.39591,-0.29402 4.59216,-1.2855 7.00189,-1.50763c4.27344,-0.39393 8.78816,0.27093 13.08171,0.00437c4.63156,-0.28754 5.57667,-0.91508 10.08214,-1.35652c5.89028,-0.57712 12.17984,-0.1622 18.11053,-0.1622c9.63681,0 19.31472,0.09102 28.95018,-0.03754c6.53962,2.00447 13.4971,3.23776 20.46587,3.81557c6.31857,0.52389 12.94621,0.1589 19.25575,0.76336c2.4135,0.23121 4.60988,1.25251 7.01868,1.50971c3.29738,0.35208 7.18846,0.02705 10.54573,0.02705c8.44802,0 16.89888,0.0044 25.3469,0.0044c8.1101,0 16.22152,0.00272 24.33162,0.00272c3.36179,0 7.2394,0.4129 10.54395,-0.02358c2.44138,-0.32247 4.32807,-1.65576 6.60473,-2.38945c2.06137,-0.66431 4.36265,-1.11192 6.57407,-1.40004c1.18506,-0.15439 2.38956,0.23285 3.50803,-0.09814c1.65734,-0.49045 2.88847,13.33461 2.79075,13.59958c-0.11366,0.25728 -0.1962,0.58995 -0.11373,0.94013c0,3.91116 0.00054,7.82638 0.00054,11.73755c0,2.30585 0.45913,5.00706 0.03276,7.27747c-0.28281,1.50599 -1.40742,2.85862 -1.95927,4.32236c-0.94145,2.49715 -1.55066,5.2786 -2.09625,7.80743c-0.45649,2.11583 -0.20976,4.9769 -0.0333,7.1265c0.03817,0.465 0.65981,0.99973 0.29976,1.37999c-0.70392,0.74342 -2.02774,1.01114 -3.0415,1.51637c-0.03565,0.81415 0.2932,1.6857 -0.10724,2.44329c-0.30414,0.57541 -1.41279,0.71626 -1.84213,1.2452c-0.55434,0.68294 -0.42766,1.60655 -1.01409,2.27435c-0.47657,0.54269 -1.16153,0.95696 -1.83569,1.37717c-0.04105,-0.0016 -0.06372,-0.0016 -0.06372,-0.0016c-7.36747,0 -15.25615,-0.58761 -22.58033,0.01342c-5.44683,0.44697 -11.03083,1.60223 -16.35134,2.2896c-3.32076,0.42902 -7.37941,-0.0228 -10.74659,-0.0228c-6.75842,0 -15.54831,0.00454 -22.30673,0.00454c-8.49196,0 -16.72031,-0.35136 -25.17449,-0.74476c-16.48062,-0.7669 -33.38115,0.00005 -49.90009,0.00005c-1.63903,0 -5.19227,-0.00188 -6.94552,-0.00188c-18.35398,-1.69956 -37.44926,-0.77335 -55.93616,-0.77335l-4.05558,-0.00071c0,0 -0.00302,0 -0.00886,0.00008c-1.91694,0.01598 -3.76561,-0.55987 -5.66859,-0.73468c-6.39642,-0.58759 -13.07828,0.27601 -19.51152,-0.0234c-8.1655,-0.38003 -16.22462,-1.48641 -24.38521,-1.51953l-2.36178,-0.00217c-3.70235,-1.99874 -5.5105,-5.00821 -7.65354,-8.06819c-0.60693,-0.86662 -1.46221,-1.661 -1.81611,-2.60275c-0.30932,-0.82313 0.29441,-1.7688 -0.12532,-2.56413c-0.35076,-0.66464 -1.63718,-0.86412 -2.02765,-1.51627c-0.2833,-0.47316 0.12852,-1.03284 0.19282,-1.54901l-1.10413,-1.31921c-0.8285,-3.70725 -1.79365,-8.28331 -0.95654,-12.02304c0.68698,-3.06907 2.37818,-6.02305 3.04144,-9.09726c0.47893,-2.21984 0.03309,-4.87274 0.03309,-7.1265c0,-4.54703 0.00124,-9.09857 0.00124,-13.64561c0,-1.65495 -0.59313,-3.7314 -0.05608,-5.33305z" data-paper-data="{&quot;noHover&quot;:false,&quot;origItem&quot;:[&quot;Path&quot;,{&quot;applyMatrix&quot;:true,&quot;segments&quot;:[[[52,512],[0,-4.36755],[0,12]],[[52,548],[0,-12],[0,5.94784]],[[51.93544,566.80091],[0.94485,-5.85835],[-1.3085,8.11311]],[[45.93544,590.80091],[1.35531,-8.09951],[-1.65148,9.86945]],[[47.82187,622.51977],[-1.6345,-9.78374],[0,0]],[[50,626],[0,0],[-0.12687,1.36219]],[[49.6194,630.08658],[-0.5589,-1.24872],[0.77033,1.72109]],[[53.6194,634.08658],[-0.692,-1.75405],[0.82807,2.09895]],[[53.86624,640.85124],[-0.61025,-2.1723],[0.69819,2.48535]],[[57.44865,647.71756],[-1.19738,-2.28708],[4.22789,8.07553]],[[72.54575,669.00174],[-7.30417,-5.27484],[0,0]],[[77.20503,669.007],[0,0],[16.09961,0.08743]],[[125.31069,673.00966],[-16.1093,-1.00293],[12.6918,0.79016]],[[163.80091,673.06456],[-12.61916,-1.55069],[3.7543,0.46134]],[[174.98252,675.00021],[-3.78183,0.04216],[0.01151,-0.00021]],[175,675],[[183,675],[0,0],[36.47185,0]],[[293.30989,677],[-36.20962,-4.48528],[3.45891,0]],[[307,677],[-3.23355,0],[32.58937,0]],[[405.35239,677.01634],[-32.51376,-2.02392],[16.67882,1.03822]],[[455,679],[-16.75334,0],[13.33333,0]],[[499,679],[-13.33333,0],[6.64294,0]],[[520.19909,679.06456],[-6.55136,1.13221],[10.49657,-1.81403]],[[552.45442,673.02986],[-10.74577,1.17959],[14.44948,-1.58615]],[[597,673],[-14.5349,0],[0,0]],[[597.1257,673.00423],[-0.08098,-0.00423],[1.33002,-1.10897]],[[600.74675,669.37134],[-0.94019,1.4322],[1.15694,-1.76237]],[[602.74675,663.37134],[-1.09363,1.80234],[0.84703,-1.39593]],[[606.3806,660.08658],[-0.60003,1.51856],[0.79001,-1.99936]],[[606.59163,653.64071],[-0.07034,2.14862],[2,-1.33333]],[[612.59163,649.64071],[-1.38873,1.96194],[0.71033,-1.00353]],[[612,646],[0.07531,1.22718],[-0.34814,-5.67297]],[[612.06456,627.19909],[-0.90058,5.58386],[1.07637,-6.67379]],[[616.1994,606.60206],[-1.85734,6.59018],[1.0887,-3.86293]],[[620.06456,595.19909],[-0.55795,3.97444],[0.84116,-5.9918]],[[620,576],[0,6.08533],[0,-10.32188]],[[620,545.03435],[0,10.32188],[-0.16271,-0.92417]],[[620.2245,542.55409],[-0.22424,0.67897],[0.1928,-0.69928]],[[621.44179,540.33653],[-0.66613,0.6843],[0,0]],[[624.50842,535.80324],[0,0],[1.86118,-5.50667]],[[626,520],[0,5.80681],[0,-5.73402]],[[626.06456,502.80091],[-0.05518,5.73364],[0.0088,-0.91487]],[[626.07645,500.05621],[0.70605,0.58185],[-0.62753,-0.51715]],[[623.80091,500.93544],[0.76971,-0.26227],[-3.32862,1.1342]],[[614.91342,506.6194],[3.26967,-1.29435],[-2.20657,0.8735]],[[607.80091,506.93544],[2.33793,-0.40746],[-4.3628,0.76035]],[[595.02277,510.57257],[4.06677,-1.75317],[-4.49149,1.93626]],[[581.80091,516.93544],[4.81647,-0.85102],[-6.51938,1.15191]],[[561,517],[6.6323,0],[-16,0]],[[513,517],[16,0],[-16.66667,0]],[[463,517],[16.66667,0],[-6.62339,0]],[[442.19909,516.93544],[6.50522,0.92919],[-4.75218,-0.67879]],[[428.35782,512.95859],[4.76148,0.61019],[-12.44777,-1.59519]],[[390.38908,510.96254],[12.46559,1.3826],[-13.74834,-1.52487]],[[350.05446,500.90978],[12.90167,5.28995],[-19.0093,0.3393]],[[293,501],[19.01196,0],[-11.70035,0]],[[257.29366,501.41254],[11.62063,-1.52309],[-8.88861,1.16501]],[[237.4124,504.98296],[9.13736,-0.75885],[-8.47053,0.70347]],[[211.61092,504.96254],[8.43084,-1.03962],[-4.75403,0.58623]],[[197.80091,508.93544],[4.72677,-0.77594],[-0.50895,0.08355]],[[185,509],[0.95202,0],[-17.33333,0]],[[133,509],[17.33333,0],[-7.17195,0]],[[110.19909,508.93544],[7.08466,0.98823],[-2.08797,-0.29125]],[[104.19909,506.93544],[2.07739,0.35902],[-3.94157,-0.68119]],[[92.19909,506.93544],[3.92806,0.75521],[-6.21081,-1.1941]],[[74.19909,500.93544],[6.19938,1.25207],[-7.44734,-1.50412]],[[51.88808,497.92999],[7.40685,1.58394],[-1.05952,4.22688]]],&quot;closed&quot;:true}]}" stroke="url(#color-3)" stroke-width="5"/></g><path d="M29.01485,336.25356c-10.2069,-8.41538 -8.19816,-60.26117 -7.81634,-119.48853c0.33609,-52.13036 -2.267,-112.39018 7.81634,-120.20419c10.32773,-8.00337 75.68104,-5.55667 140.56181,-5.53058c64.62108,0.02601 128.77321,-2.40079 137.62206,5.53058c10.33406,9.26245 7.78577,65.2406 7.62122,120.9033c-0.16311,55.17356 2.14612,110.037 -7.62122,118.78933c-9.96625,8.93054 -74.10419,6.90071 -138.4489,6.86804c-64.43482,-0.03276 -129.07694,1.91904 -139.73496,-6.86804z" fill="none" stroke="#ffffff" stroke-width="5"/><g><path d="M251.59819,262.51104c-14.59757,7.87935 -32.8187,2.43316 -40.69805,-12.16441c-7.87935,-14.59757 44.98312,-43.13121 52.86247,-28.53364c7.87935,14.59757 2.43316,32.8187 -12.16441,40.69805z" fill="#ffc166" stroke="#000000" stroke-width="7.5"/><path d="M263.38507,221.11368c7.87935,14.59757 -44.98312,43.13121 -52.86247,28.53364c-7.87935,-14.59757 -2.43315,-32.8187 12.16441,-40.69805c14.59757,-7.87935 32.8187,-2.43315 40.69805,12.16441z" data-paper-data="{&quot;index&quot;:null}" fill="#66deff" stroke="#000000" stroke-width="7.5"/><path d="M222.97355,215.36287c-2.874,-5.48518 -56.50364,-104.6807 -56.50364,-104.6807l4.86887,-2.62808c0,0 53.42412,98.71049 56.50364,104.6807c1.41809,2.74924 -3.69846,4.86186 -4.86887,2.62808z" fill="#d466ff" stroke="#000000" stroke-width="7.5"/><path d="M251.59819,262.51104c-14.59757,7.87935 -32.8187,2.43316 -40.69805,-12.16441c-7.87935,-14.59757 44.98312,-43.13121 52.86247,-28.53364c7.87935,14.59757 2.43316,32.8187 -12.16441,40.69805z" fill="#ffc166" stroke="none" stroke-width="0"/><path d="M263.38507,221.11368c7.87935,14.59757 -44.98312,43.13121 -52.86247,28.53364c-7.87935,-14.59757 -2.43315,-32.8187 12.16441,-40.69805c14.59757,-7.87935 32.8187,-2.43315 40.69805,12.16441z" data-paper-data="{&quot;index&quot;:null}" fill="#66deff" stroke="none" stroke-width="0"/><path d="M222.97355,215.36287c-2.874,-5.48518 -56.50364,-104.6807 -56.50364,-104.6807l4.86887,-2.62808c0,0 53.42412,98.71049 56.50364,104.6807c1.41809,2.74924 -3.69846,4.86186 -4.86887,2.62808z" fill="#d466ff" stroke="none" stroke-width="0"/><g fill="#ffc166" stroke="#000000" stroke-width="3.5"><path d="M161.49101,110.82895c-1.9007,-3.52131 -0.58694,-7.91672 2.93437,-9.81743c3.52132,-1.90071 7.91672,-0.58694 9.81743,2.93437c1.90071,3.52132 0.58695,7.91672 -2.93437,9.81743c-3.52131,1.9007 -7.91672,0.58695 -9.81743,-2.93437z"/><path d="M161.49097,110.82896c-1.9007,-3.52131 -0.58694,-7.91672 2.93437,-9.81743c3.52131,-1.9007 7.91672,-0.58694 9.81743,2.93437c1.90071,3.52132 0.58694,7.91672 -2.93437,9.81743c-3.52131,1.9007 -7.91672,0.58695 -9.81743,-2.93437z"/></g></g><path d="M383.06169,165.53726c-2.82288,-0.95529 -2.26733,-6.84063 -2.16173,-13.56391c0.09295,-5.91765 -0.62697,-12.75813 2.16173,-13.64515c2.85629,-0.90851 20.93076,-0.63077 38.87453,-0.62781c17.87195,0.00296 35.6142,-0.27253 38.06149,0.62781c2.85805,1.05144 2.15328,7.40588 2.10777,13.72451c-0.04511,6.2631 0.59354,12.49101 -2.10777,13.48455c-2.75632,1.01377 -20.49465,0.78334 -38.29016,0.77963c-17.82044,-0.00372 -35.69821,0.21785 -38.64585,-0.77963z" fill="#007e91" stroke="#000000" stroke-width="0"/><path d="M378.06169,160.53726c-2.82287,-0.95528 -2.26733,-6.84063 -2.16173,-13.56391c0.09295,-5.91765 -0.62697,-12.75813 2.16173,-13.64515c2.85629,-0.90851 20.93075,-0.63077 38.87452,-0.62781c17.87195,0.00295 35.61421,-0.27253 38.06149,0.62781c2.85804,1.05144 2.15327,7.40588 2.10777,13.72451c-0.04511,6.26311 0.59354,12.49101 -2.10777,13.48454c-2.75632,1.01376 -20.49465,0.78334 -38.29017,0.77964c-17.82044,-0.00372 -35.69821,0.21784 -38.64585,-0.77964z" fill="#29f376" stroke="#000000" stroke-width="0"/><text transform="translate(382.00018,152.25001) scale(0.40037,0.34832)" font-size="40" xml:space="preserve" fill="#ffffff" fill-rule="nonzero" stroke="#ffffff" stroke-width="1" stroke-linecap="butt" stroke-linejoin="miter" stroke-miterlimit="10" stroke-dasharray="" stroke-dashoffset="0" font-family="Sans Serif" font-weight="normal" text-anchor="start" style="mix-blend-mode: normal"><tspan x="0" dy="0">CARRERA</tspan></text><text transform="translate(344.48487,190.01765) scale(0.33192,0.33192)" font-size="40" xml:space="preserve" data-paper-data="{&quot;index&quot;:null}" fill="#007e91" fill-rule="nonzero" stroke="#007e91" stroke-width="7" stroke-linecap="butt" stroke-linejoin="miter" stroke-miterlimit="10" stroke-dasharray="" stroke-dashoffset="0" font-family="Handwriting" font-weight="normal" text-anchor="start" style="mix-blend-mode: normal"><tspan x="0" dy="0">COMO JUGAR</tspan></text><text transform="translate(345.48487,187.51765) scale(0.33192,0.33192)" font-size="40" xml:space="preserve" data-paper-data="{&quot;index&quot;:null}" fill="#ffffff" fill-rule="nonzero" stroke="#ffffff" stroke-width="7" stroke-linecap="butt" stroke-linejoin="miter" stroke-miterlimit="10" stroke-dasharray="" stroke-dashoffset="0" font-family="Handwriting" font-weight="normal" text-anchor="start" style="mix-blend-mode: normal"><tspan x="0" dy="0">COMO JUGAR</tspan></text><text transform="translate(345.25018,213.48752) scale(0.30625,0.30625)" font-size="40" xml:space="preserve" fill="#007e91" fill-rule="nonzero" stroke="none" stroke-width="1" stroke-linecap="butt" stroke-linejoin="miter" stroke-miterlimit="10" stroke-dasharray="" stroke-dashoffset="0" font-family="Sans Serif" font-weight="normal" text-anchor="start" style="mix-blend-mode: normal"><tspan x="0" dy="0">Saltea los obstáculos</tspan><tspan x="0" dy="48px">y llega hasta la meta</tspan><tspan x="0" dy="48px">para clasificarte al</tspan><tspan x="0" dy="48px">siguiente nivel</tspan></text><text transform="translate(344.25018,212.48752) scale(0.30625,0.30625)" font-size="40" xml:space="preserve" fill="#ffffff" fill-rule="nonzero" stroke="none" stroke-width="1" stroke-linecap="butt" stroke-linejoin="miter" stroke-miterlimit="10" stroke-dasharray="" stroke-dashoffset="0" font-family="Sans Serif" font-weight="normal" text-anchor="start" style="mix-blend-mode: normal"><tspan x="0" dy="0">Saltea los obstáculos</tspan><tspan x="0" dy="48px">y llega hasta la meta</tspan><tspan x="0" dy="48px">para clasificarte al</tspan><tspan x="0" dy="48px">siguiente nivel, ten</tspan><tspan x="0" dy="48px">cuidado con el slime</tspan></text></g></g></svg>