<svg version="1.1" xmlns="http://www.w3.org/2000/svg" xmlns:xlink="http://www.w3.org/1999/xlink" width="121" height="121" viewBox="0,0,121,121"><g transform="translate(-179.5,-119.5)"><g data-paper-data="{&quot;isPaintingLayer&quot;:true}" fill-rule="nonzero" stroke-linecap="butt" stroke-linejoin="miter" stroke-miterlimit="10" stroke-dasharray="" stroke-dashoffset="0" style="mix-blend-mode: normal"><path d="M179.5,240.5v-121h121v121z" data-paper-data="{&quot;index&quot;:null}" fill="none" stroke="none" stroke-width="0"/><path d="M239.83098,192.60602c-4.93023,0.03335 -9.23208,-0.11966 -9.94647,-0.68284c-0.68521,-0.54018 -0.56897,-6.57826 -0.5717,-12.20733c-0.00273,-5.62119 -0.17171,-11.22432 0.5717,-12.09497c0.72856,-0.85328 5.29551,-0.65155 9.88829,-0.6658c4.63349,-0.01437 9.29323,-0.23699 10.06426,0.6658c0.66022,0.77304 0.45821,6.37741 0.46038,12.02274c0.00216,5.66802 0.20584,11.37733 -0.46038,12.27956c-0.65046,0.88088 -5.66662,0.65349 -10.00607,0.68284z" data-paper-data="{&quot;index&quot;:null}" fill="#ff00ad" stroke-opacity="0.5" stroke="#f73ca3" stroke-width="7.5"/><path d="M239.79189,166.92667c4.93023,-0.03335 8.93384,-0.02091 9.94647,0.68284c1.01527,0.70559 0.56897,6.57826 0.5717,12.20733c0.00273,5.62119 0.17171,11.22432 -0.5717,12.09497c-0.72856,0.85328 -5.29551,0.65155 -9.88829,0.6658c-4.63349,0.01437 -9.29323,0.23699 -10.06426,-0.6658c-0.66022,-0.77304 -0.45821,-6.37741 -0.46038,-12.02274c-0.00216,-5.66802 -0.20584,-11.37733 0.46038,-12.27956c0.65046,-0.88088 5.66662,-0.65349 10.00607,-0.68284z" data-paper-data="{&quot;index&quot;:null}" fill="#f73ca3" stroke="#ffffff" stroke-width="0"/><path d="M250.70555,171.4887c0,0.85437 -0.74644,2.54649 -0.74644,2.54649l-20.43888,5.9034v-5.16031l20.43888,-5.9034c0,0 0.74644,1.74823 0.74644,2.61382z" data-paper-data="{&quot;index&quot;:null}" fill="#ffffff" stroke="#000000" stroke-width="0"/><path d="M249.95911,184.36614l-20.43888,5.9034v-5.16031l20.43888,-5.9034z" data-paper-data="{&quot;index&quot;:null}" fill="#ffffff" stroke="#000000" stroke-width="0"/><path d="M250.52703,188.88475l-1.28461,3.11262c0,0 -1.41749,1.10043 -2.52244,1.08569c-1.78368,-0.0238 -7.15617,-1.21481 -7.15617,-1.21481z" data-paper-data="{&quot;index&quot;:null}" fill="#ffffff" stroke="#000000" stroke-width="0"/><path d="M229.29446,171.11525l1.28461,-3.11262c0,0 1.41749,-1.10043 2.52244,-1.08569c1.78368,0.0238 7.15617,1.21481 7.15617,1.21481z" data-paper-data="{&quot;index&quot;:null}" fill="#ffffff" stroke="#000000" stroke-width="0"/><path d="M239.79189,166.92667c4.93023,-0.03335 8.93384,-0.02091 9.94647,0.68284c1.01527,0.70559 0.56897,6.57826 0.5717,12.20733c0.00273,5.62119 0.17171,11.22432 -0.5717,12.09497c-0.72856,0.85328 -5.29551,0.65155 -9.88829,0.6658c-4.63349,0.01437 -9.29323,0.23699 -10.06426,-0.6658c-0.66022,-0.77304 -0.45821,-6.37741 -0.46038,-12.02274c-0.00216,-5.66802 -0.20584,-11.37733 0.46038,-12.27956c0.65046,-0.88088 5.66662,-0.65349 10.00607,-0.68284z" data-paper-data="{&quot;index&quot;:null}" fill="none" stroke="#f73ca3" stroke-width="2.5"/></g></g></svg>