<svg version="1.1" xmlns="http://www.w3.org/2000/svg" xmlns:xlink="http://www.w3.org/1999/xlink" width="121" height="121" viewBox="0,0,121,121"><g transform="translate(-179.5,-119.5)"><g data-paper-data="{&quot;isPaintingLayer&quot;:true}" fill-rule="nonzero" stroke-linecap="butt" stroke-linejoin="miter" stroke-miterlimit="10" stroke-dasharray="" stroke-dashoffset="0" style="mix-blend-mode: normal"><path d="M240.20812,160.97073c4.33945,0.04364 9.35561,-0.29444 10.00607,1.01522c0.66622,1.34141 0.46254,9.8298 0.46038,18.2568c-0.00217,8.39328 0.19984,16.72565 -0.46038,17.87497c-0.77103,1.34223 -5.43077,1.01125 -10.06426,0.98988c-4.59278,-0.02118 -9.15973,0.27875 -9.88829,-0.98988c-0.74341,-1.29445 -0.57443,-9.62498 -0.5717,-17.98236c0.00273,-8.36909 -0.44357,-17.10037 0.5717,-18.14941c1.01263,-1.04631 5.01624,-1.06481 9.94647,-1.01522z" fill="none" stroke-opacity="0.49635" stroke="#f73ca3" stroke-width="7.5"/><path d="M179.5,240.5v-121h121v121z" fill="none" stroke="none" stroke-width="0"/><path d="M240.20812,160.97073c4.33945,0.04364 9.35561,-0.29444 10.00607,1.01522c0.66622,1.34141 0.46254,9.8298 0.46038,18.2568c-0.00217,8.39328 0.19984,16.72565 -0.46038,17.87497c-0.77103,1.34223 -5.43077,1.01125 -10.06426,0.98988c-4.59278,-0.02118 -9.15973,0.27875 -9.88829,-0.98988c-0.74341,-1.29445 -0.57443,-9.62498 -0.5717,-17.98236c0.00273,-8.36909 -0.44357,-17.10037 0.5717,-18.14941c1.01263,-1.04631 5.01624,-1.06481 9.94647,-1.01522z" fill="#f73ca3" stroke="#ffffff" stroke-width="0"/><path d="M230.04089,163.86726l20.43888,8.77695v7.67216l-20.43888,-8.77695c0,0 -0.74644,-2.51579 -0.74644,-3.78603c0,-1.28693 0.74644,-3.88613 0.74644,-3.88613z" fill="#ffffff" stroke="#000000" stroke-width="0"/><path d="M230.04089,179.22693l20.43888,8.77695v7.67216l-20.43888,-8.77695z" fill="#ffffff" stroke="#000000" stroke-width="0"/><path d="M242.20108,161.38584c0,0 5.1333,-0.67324 6.57402,-0.52276c0.93579,0.09774 1.22967,1.33787 1.22967,1.33787l0.47501,3.12108z" fill="#ffffff" stroke="#000000" stroke-width="0"/><path d="M240.43619,198.05294c0,0 -5.37249,1.77076 -7.15617,1.80614c-1.10495,0.02192 -2.52244,-1.61416 -2.52244,-1.61416l-1.28461,-4.62773z" data-paper-data="{&quot;index&quot;:null}" fill="#ffffff" stroke="#000000" stroke-width="0"/><path d="M240.20812,160.97073c4.33945,0.04364 9.35561,-0.29444 10.00607,1.01522c0.66622,1.34141 0.46254,9.8298 0.46038,18.2568c-0.00217,8.39328 0.19984,16.72565 -0.46038,17.87497c-0.77103,1.34223 -5.43077,1.01125 -10.06426,0.98988c-4.59278,-0.02118 -9.15973,0.27875 -9.88829,-0.98988c-0.74341,-1.29445 -0.57443,-9.62498 -0.5717,-17.98236c0.00273,-8.36909 -0.44357,-17.10037 0.5717,-18.14941c1.01263,-1.04631 5.01624,-1.06481 9.94647,-1.01522z" fill="none" stroke="#f73ca3" stroke-width="2.5"/></g></g></svg>