<svg version="1.1" xmlns="http://www.w3.org/2000/svg" xmlns:xlink="http://www.w3.org/1999/xlink" width="493.99399" height="417.41742" viewBox="0,0,493.99399,417.41742"><g transform="translate(6.99697,28.70871)"><g data-paper-data="{&quot;isPaintingLayer&quot;:true}" fill-rule="nonzero" stroke-linecap="butt" stroke-linejoin="miter" stroke-miterlimit="10" stroke-dasharray="" stroke-dashoffset="0" style="mix-blend-mode: normal"><path d="M-6.99697,388.70871v-417.41742h493.99399v417.41742z" fill="none" stroke="none" stroke-width="0"/><path d="M240.00004,371.16176c-17.98886,0 -32.5717,-14.58284 -32.5717,-32.5717c0,-17.98886 65.14341,-17.98886 65.14341,0c0,17.98886 -14.58284,32.5717 -32.5717,32.5717z" fill="#ffc166" stroke="#000000" stroke-width="7.5"/><path d="M272.57169,337.72826c0,17.98886 -65.14341,17.98886 -65.14341,0c0,-17.98886 14.58285,-32.5717 32.5717,-32.5717c17.98886,0 32.5717,14.58285 32.5717,32.5717z" data-paper-data="{&quot;index&quot;:null}" fill="#66deff" stroke="#000000" stroke-width="7.5"/><path d="M236.96978,311.42453c0.08278,-6.71481 0,-129 0,-129h6c0,0 0.1365,121.71647 0,129c-0.06286,3.35401 -6.03371,2.73454 -6,0z" fill="#d466ff" stroke="#000000" stroke-width="7.5"/><path d="M240.00004,371.16176c-17.98886,0 -32.5717,-14.58284 -32.5717,-32.5717c0,-17.98886 65.14341,-17.98886 65.14341,0c0,17.98886 -14.58284,32.5717 -32.5717,32.5717z" fill="#ffd500" stroke="none" stroke-width="0"/><path d="M272.57169,337.72826c0,17.98886 -65.14341,17.98886 -65.14341,0c0,-17.98886 14.58285,-32.5717 32.5717,-32.5717c17.98886,0 32.5717,14.58285 32.5717,32.5717z" data-paper-data="{&quot;index&quot;:null}" fill="#00b8ff" stroke="none" stroke-width="0"/><path d="M236.96978,311.42453c0.08278,-6.71481 0,-129 0,-129h6c0,0 0.1365,121.71647 0,129c-0.06286,3.35401 -6.03371,2.73454 -6,0z" fill="#f73ca3" stroke="none" stroke-width="0"/><g fill="#ffffff" stroke="#000000" stroke-width="3.5"><path d="M232.14287,180c0,-4.33938 3.51776,-7.85714 7.85714,-7.85714c4.33939,0 7.85714,3.51776 7.85714,7.85714c0,4.33939 -3.51775,7.85714 -7.85714,7.85714c-4.33938,0 -7.85714,-3.51775 -7.85714,-7.85714z"/><path d="M232.14286,180c0,-4.33938 3.51776,-7.85714 7.85714,-7.85714c4.33938,0 7.85714,3.51776 7.85714,7.85714c0,4.33939 -3.51776,7.85714 -7.85714,7.85714c-4.33938,0 -7.85714,-3.51775 -7.85714,-7.85714z"/></g></g></g></svg>