<svg version="1.1" xmlns="http://www.w3.org/2000/svg" xmlns:xlink="http://www.w3.org/1999/xlink" width="89.83333" height="89.83333" viewBox="0,0,89.83333,89.83333"><g transform="translate(-195.08339,-135.08335)"><g data-paper-data="{&quot;isPaintingLayer&quot;:true}" fill-rule="nonzero" stroke-linecap="butt" stroke-linejoin="miter" stroke-miterlimit="10" stroke-dasharray="" stroke-dashoffset="0" style="mix-blend-mode: normal"><path d="M195.08339,224.91668v-89.83333h89.83333v89.83333z" fill="none" stroke="none" stroke-width="0"/><path d="M237.13961,207.94585c-1.27543,1.02496 -3.62058,-0.00559 -4.85828,-0.60799c-2.91361,-1.41807 -4.70847,-3.00021 -2.65065,-6.15905c0.58548,-0.34122 1.17322,-0.67888 1.76919,-1.00141c0,0 2.29253,-3.15447 2.53083,-3.15589c0.41921,-0.26761 1.59224,0.63155 2.50015,1.19525l-0.06558,3.53934c0,0 2.40349,4.88054 0.77434,6.18975z" fill="#00ade2" stroke="#006280" stroke-width="4"/><path d="M252.3175,203.86377c-0.39066,1.58891 -2.87961,2.19465 -4.22874,2.46786c-3.17591,0.64316 -5.56273,0.47647 -5.84662,-3.28282c0.25785,-0.62667 0.51967,-1.25191 0.79721,-1.87011c0,0 -0.09478,-3.89838 0.09367,-4.04425c0.17049,-0.46721 1.64848,-0.46539 2.71211,-0.56905l2.09764,2.8515c0,0 4.87372,2.41729 4.37472,4.44686z" fill="#00ade2" stroke="#006280" stroke-width="4"/><path d="M251.09228,184.42256c-1.97635,-1.00701 -5.48825,1.11355 -5.52501,-2.20834c-0.02269,-2.04976 -0.26593,-0.83401 0.66037,-4.60683c0.57488,-2.34151 -5.02554,-7.91429 2.74406,-4.82834c7.76961,3.08596 15.40771,2.50852 17.89957,4.06217c2.49186,1.55366 4.0591,2.28205 4.79753,3.56929c1.13509,1.54796 3.03769,6.24559 0.76041,7.43191c-0.73219,0.02198 -0.76035,0.03784 -1.25221,-0.27985c0.2823,0.59641 0.02121,1.10379 -0.2155,1.45152c-1.60192,2.35341 -3.11337,0.31351 -4.10214,-1.02898c-0.45922,-0.62894 -0.96941,-1.69116 -2.31261,-1.74769c-1.3432,-0.05652 -2.62413,1.45711 -3.04511,1.59284c-1.90122,-0.33279 -1.59789,-2.74485 -1.49722,-4.65314c0.03777,-0.71595 -8.91213,1.24544 -8.91213,1.24544z" data-paper-data="{&quot;index&quot;:null}" fill="#00ade2" stroke="#006280" stroke-width="4"/><path d="M220.79837,183.73888c0.69385,1.78053 1.73809,3.9759 0.03703,4.88795c-0.44231,0.00309 -2.13319,-1.03265 -3.39096,-0.55789c-1.25777,0.47477 -1.40923,1.64338 -1.64812,2.38459c-0.51805,1.58479 -1.31379,3.9957 -3.57275,2.26314c-0.33379,-0.25601 -0.74077,-0.65595 -0.65968,-1.31079c-0.36749,0.45586 -0.39919,0.44964 -1.10136,0.65831c-2.53438,-0.41258 -2.20042,-5.46986 -1.60784,-7.29564c0.29765,-1.45385 1.55753,-2.63685 3.43669,-4.89338c1.87916,-2.25653 9.31324,-4.10277 15.7237,-9.46895c6.41047,-5.36618 2.83945,1.68141 4.11942,3.72465c2.06239,3.29223 1.45027,2.21403 2.07132,4.16757c1.00652,3.16594 -2.99314,2.25328 -4.55416,3.82912c0,0 -9.11361,0.94331 -8.8533,1.61133z" fill="#00ade2" stroke="#006280" stroke-width="4"/><path d="M256.0721,174.43361c0.64732,5.68547 0.92347,7.80661 0.25108,12.76233c-0.67239,4.95572 -2.11191,7.43159 -3.16919,8.74497c-2.3588,2.93015 -12.74686,4.96115 -20.12765,3.92063c-3.9803,-0.56112 -7.34974,-1.6165 -8.393,-5.1147c-1.04326,-3.49821 -1.89192,-17.49718 -0.91262,-26.08846c0.15516,-7.29097 2.73126,-14.38082 11.057,-16.94051c0.60664,-0.18651 2.08486,-0.42509 3.44031,-0.50031c14.3142,-0.79436 17.05863,16.22973 17.85407,23.21605z" fill="#00c3ff" stroke="#006280" stroke-width="4"/><path d="M237.13962,207.94585c-1.27543,1.02496 -3.62058,-0.00559 -4.85828,-0.60799c-2.91361,-1.41807 -4.70847,-3.00021 -2.65065,-6.15905c0.58548,-0.34122 1.17322,-0.67888 1.76919,-1.00141c0,0 2.29253,-3.15447 2.53083,-3.15589c0.41921,-0.26761 1.59224,0.63155 2.50015,1.19525l-0.06558,3.53934c0,0 2.40349,4.88054 0.77434,6.18975z" fill="#00ade2" stroke="none" stroke-width="0.5"/><path d="M252.31751,203.86377c-0.39066,1.58891 -2.87961,2.19465 -4.22874,2.46786c-3.17591,0.64316 -5.56273,0.47647 -5.84662,-3.28282c0.25785,-0.62667 0.51967,-1.25191 0.79721,-1.87011c0,0 -0.09478,-3.89838 0.09367,-4.04425c0.17049,-0.46721 1.64848,-0.46539 2.71211,-0.56905l2.09764,2.8515c0,0 4.87372,2.41729 4.37472,4.44686z" fill="#00ade2" stroke="none" stroke-width="0.5"/><path d="M251.09229,184.42256c-1.97635,-1.00701 -5.48825,1.11355 -5.52501,-2.20834c-0.02269,-2.04976 -0.26593,-0.83401 0.66037,-4.60683c0.57488,-2.34151 -5.02554,-7.91429 2.74406,-4.82834c7.76961,3.08596 15.40771,2.50852 17.89957,4.06217c2.49186,1.55366 4.0591,2.28205 4.79753,3.56929c1.13509,1.54796 3.03769,6.24559 0.76041,7.43191c-0.73219,0.02198 -0.76035,0.03784 -1.25221,-0.27985c0.2823,0.59641 0.02121,1.10379 -0.2155,1.45152c-1.60192,2.35341 -3.11337,0.31351 -4.10214,-1.02898c-0.45922,-0.62894 -0.96941,-1.69116 -2.31261,-1.74769c-1.3432,-0.05652 -2.62413,1.45711 -3.04511,1.59284c-1.90122,-0.33279 -1.59789,-2.74485 -1.49722,-4.65314c0.03777,-0.71595 -8.91213,1.24544 -8.91213,1.24544z" data-paper-data="{&quot;index&quot;:null}" fill="#00ade2" stroke="none" stroke-width="0.5"/><path d="M220.79838,183.73888c0.69385,1.78053 1.73809,3.9759 0.03703,4.88795c-0.44231,0.00309 -2.13319,-1.03265 -3.39096,-0.55789c-1.25777,0.47477 -1.40923,1.64338 -1.64812,2.38459c-0.51805,1.58479 -1.31379,3.9957 -3.57275,2.26314c-0.33379,-0.25601 -0.74077,-0.65595 -0.65968,-1.31079c-0.36749,0.45586 -0.39919,0.44964 -1.10136,0.65831c-2.53438,-0.41258 -2.20042,-5.46986 -1.60784,-7.29564c0.29765,-1.45385 1.55753,-2.63685 3.43669,-4.89338c1.87916,-2.25653 9.31324,-4.10277 15.7237,-9.46895c6.41047,-5.36618 2.83945,1.68141 4.11942,3.72465c2.06239,3.29223 1.45027,2.21403 2.07132,4.16757c1.00652,3.16594 -2.99314,2.25328 -4.55416,3.82912c0,0 -9.11361,0.94331 -8.8533,1.61133z" fill="#00ade2" stroke="none" stroke-width="0.5"/><path d="M238.21805,151.21756c15.13245,-0.71147 17.05864,16.22972 17.85408,23.21604c0.64732,5.68547 0.92347,7.80661 0.25108,12.76233c-0.67239,4.95572 -2.11191,7.43159 -3.16919,8.74497c-2.3588,2.93015 -12.74686,4.96115 -20.12765,3.92063c-3.9803,-0.56112 -7.34974,-1.6165 -8.393,-5.1147c-1.04326,-3.49821 -1.89192,-17.49718 -0.91262,-26.08846c0.15516,-7.29097 2.73126,-14.38082 11.057,-16.94051c1.01954,-0.31345 2.27423,-0.39532 3.44031,-0.50031z" fill="#00c3ff" stroke="none" stroke-width="0.5"/><path d="M233.99898,158.06069c2.02235,-1.2018 10.25644,-1.23315 13.08794,0.70364c4.04562,2.76727 3.85073,9.14547 1.29432,12.8542c-0.96848,1.40504 -2.42987,2.22187 -3.81828,3.14113c-4.90811,1.94402 -13.88996,0.22792 -15.53423,-5.63925c-0.29383,-1.04847 -0.48143,-4.24449 0.60592,-6.57869c1.13793,-2.4428 3.57698,-4.01314 4.36432,-4.48103z" fill="#ffffff" stroke="none" stroke-width="0.5"/><path d="M237.60603,169.77839c-1.25,0 -1.25,-1.25 -1.25,-1.25c0,-0.41667 0,-1.33333 0,-1.75c0,0 0,-1.25 1.25,-1.25c1.25,0 1.25,1.25 1.25,1.25c0,0.41667 0,0.83333 0,1.25v0.5c0,0 0,1.25 -1.25,1.25z" fill="#000000" stroke="none" stroke-width="0.5"/><path d="M245.60603,169.52839c-1.25,0 -1.25,-1.25 -1.25,-1.25l0.02427,-0.00485c-0.08333,-0.41667 -0.16667,-0.83333 -0.25,-1.25c0,0 -0.24515,-1.22573 0.98058,-1.47087c1.22573,-0.24515 1.47087,0.98058 1.47087,0.98058c0.08333,0.41667 0.16667,0.83333 0.25,1.25l0.02427,0.49515c0,0 0,1.25 -1.25,1.25z" fill="#000000" stroke="none" stroke-width="0.5"/></g></g></svg>