<svg version="1.1" xmlns="http://www.w3.org/2000/svg" xmlns:xlink="http://www.w3.org/1999/xlink" width="545.54796" height="373.86788" viewBox="0,0,545.54796,373.86788"><g transform="translate(58.99694,6.44368)"><g data-paper-data="{&quot;isPaintingLayer&quot;:true}" fill-rule="nonzero" stroke="#000000" stroke-width="0" stroke-linecap="butt" stroke-linejoin="miter" stroke-miterlimit="10" stroke-dasharray="" stroke-dashoffset="0" style="mix-blend-mode: normal"><path d="M448.56713,356.47701v-142.14775h37.51538v142.14775z" data-paper-data="{&quot;index&quot;:null}" fill="#ea48ff"/><path d="M-9.99698,367.42421v-37.53754h496.44334c0.03498,12.5125 0.1024,25.02504 0.10466,37.53754z" fill="#00c4ff"/><path d="M114.88707,314.17614v-14.84389l51,14.84389z" data-paper-data="{&quot;index&quot;:null}" fill="#ea48ff"/><path d="M51.32851,280.64459v-25.42661l51,25.42661z" data-paper-data="{&quot;index&quot;:null}" fill="#ea48ff"/><path d="M-9.22709,252.61161v-14.84389h51v14.84389z" data-paper-data="{&quot;index&quot;:null}" fill="#ea48ff"/><path d="M68.3555,219.08308l51,-14.84389v14.84389z" data-paper-data="{&quot;index&quot;:null}" fill="#ea48ff"/><path d="M124.40659,185.04404l51,-19.80454v19.80454z" data-paper-data="{&quot;index&quot;:null}" fill="#ea48ff"/><path d="M184.96215,157.01101v-14.84389h51v14.84389z" data-paper-data="{&quot;index&quot;:null}" fill="#ea48ff"/><path d="M106.38858,123.48248v-25.42661l51,25.42662z" data-paper-data="{&quot;index&quot;:null}" fill="#ea48ff"/><path d="M42.83002,90.94493v-14.84389h51v14.84389z" data-paper-data="{&quot;index&quot;:null}" fill="#ea48ff"/><path d="M117.76578,61.20627v-14.84389h51v14.84389z" data-paper-data="{&quot;index&quot;:null}" fill="#ea48ff"/><path d="M-58.99693,29.59237v-36.03604h130.52049c0.0092,12.012 0.02692,24.02404 0.02751,36.03604z" fill="#00c4ff"/></g></g></svg>