<svg version="1.1" xmlns="http://www.w3.org/2000/svg" xmlns:xlink="http://www.w3.org/1999/xlink" width="533" height="377" viewBox="0,0,533,377"><defs><linearGradient x1="238.55808" y1="109.15031" x2="238.55808" y2="124.56737" gradientUnits="userSpaceOnUse" id="color-1"><stop offset="0" stop-color="#ff4af6"/><stop offset="1" stop-color="#b692ff"/></linearGradient></defs><g transform="translate(26.5,8.5)"><g data-paper-data="{&quot;isPaintingLayer&quot;:true}" fill-rule="nonzero" stroke="none" stroke-width="0" stroke-linecap="butt" stroke-linejoin="miter" stroke-miterlimit="10" stroke-dasharray="" stroke-dashoffset="0" style="mix-blend-mode: normal"><path d="M-26.5,368.5v-377h533v377z" fill="none"/><path d="M-7.83246,122.08076v-10.44381c0,0 30.19185,-1.49198 58.87651,-1.49198c20.65697,0 60.88722,1.38699 108.85325,1.23272c23.35748,-0.07513 48.54897,-0.5824 74.20811,-0.54777c26.06259,0.03519 52.6073,-0.38098 78.20161,-0.27541c31.70168,0.13076 61.94551,0.79632 88.00925,0.96098c50.01109,0.31596 84.63209,0.61879 84.63209,0.61879v9.94648c0,0 -82.7509,4.97325 -140.01701,4.97325c-26.19549,0 -66.59053,-1.90669 -110.82529,-1.78908c-24.4809,0.06509 -47.16919,0.98572 -72.24603,0.83169c-17.96465,-0.11034 -38.6,2.02159 -55.3235,1.76354c-2.35278,-0.0363 -114.36906,-5.77939 -114.36906,-5.77939z" fill="url(#color-1)"/></g></g></svg>