<svg version="1.1" xmlns="http://www.w3.org/2000/svg" xmlns:xlink="http://www.w3.org/1999/xlink" width="88.34685" height="96.59685" viewBox="0,0,88.34685,96.59685"><g transform="translate(-195.82661,-127.57659)"><g data-paper-data="{&quot;isPaintingLayer&quot;:true}" fill-rule="nonzero" stroke-width="0" stroke-linecap="butt" stroke-linejoin="miter" stroke-miterlimit="10" stroke-dasharray="" stroke-dashoffset="0" style="mix-blend-mode: normal"><path d="M195.82661,224.17344v-96.59685h88.34685v96.59685z" fill="none" stroke="#000000"/><path d="M227.96493,205.26995c0,-5.69841 4.61947,-10.31788 10.31788,-10.31788c5.69841,0 10.31788,4.61947 10.31788,10.31788c0,5.69841 -4.61947,10.31788 -10.31788,10.31788c-5.69841,0 -10.31788,-4.61947 -10.31788,-10.31788z" fill="#f23030" stroke="none"/><path d="M229.17403,190.59922l3.06312,-18.2175c0,0 17.77123,-5.21524 13.6695,-11.26218c-4.10173,-6.04694 -25.86101,0.67169 -25.86101,0.67169l-3.58539,-14.49344c0,0 35.43353,-11.33743 45.93963,10.93288c6.26397,13.27806 -15.33078,21.40581 -15.33078,21.40581l0.48365,14.02587z" fill="#f23030" stroke="none"/></g></g></svg>