<svg version="1.1" xmlns="http://www.w3.org/2000/svg" xmlns:xlink="http://www.w3.org/1999/xlink" width="507.50749" height="381.38138" viewBox="0,0,507.50749,381.38138"><g transform="translate(14.23647,8.1882)"><g data-paper-data="{&quot;isPaintingLayer&quot;:true}" fill-rule="nonzero" stroke="none" stroke-width="0" stroke-linecap="butt" stroke-linejoin="miter" stroke-miterlimit="10" stroke-dasharray="" stroke-dashoffset="0" style="mix-blend-mode: normal"><path d="M166.27103,182.66666c0,-43.6305 35.3695,-79 79,-79c43.6305,0 79,35.3695 79,79c0,43.6305 -35.3695,79 -79,79c-43.6305,0 -79,-35.3695 -79,-79z" fill="#ea48ff"/><path d="M71.3491,369.69469h-59.56458v-154.65465z" data-paper-data="{&quot;index&quot;:null}" fill="#8ae200"/><path d="M78.27103,181.66666c0,-28.16652 22.83348,-51 51,-51c28.16652,0 51,22.83348 51,51c0,28.16652 -22.83348,51 -51,51c-28.16652,0 -51,-22.83348 -51,-51z" fill="#ea48ff"/><path d="M32.27103,214.66666c0,-27.06195 21.93805,-49 49,-49c27.06195,0 49,21.93805 49,49c0,27.06195 -21.93805,49 -49,49c-27.06195,0 -49,-21.93805 -49,-49z" fill="#ea48ff"/><path d="M147.27103,211.66666c0,-16.56854 13.43146,-30 30,-30c16.56854,0 30,13.43146 30,30c0,16.56854 -13.43146,30 -30,30c-16.56854,0 -30,-13.43146 -30,-30z" fill="#ea48ff"/><path d="M37.27103,90.66666c0,-28.71881 23.28119,-52 52,-52c28.71881,0 52,23.28119 52,52c0,28.71881 -23.28119,52 -52,52c-28.71881,0 -52,-23.28119 -52,-52z" fill="#ea48ff"/><path d="M117.27103,135.66666c0,-27.61424 22.38576,-50 50,-50c27.61424,0 50,22.38576 50,50c0,27.61424 -22.38576,50 -50,50c-27.61424,0 -50,-22.38576 -50,-50z" fill="#ea48ff"/><path d="M-9.72897,157.16666c0,-35.62237 28.87763,-64.5 64.5,-64.5c35.62237,0 64.5,28.87763 64.5,64.5c0,35.62237 -28.87763,64.5 -64.5,64.5c-35.62237,0 -64.5,-28.87763 -64.5,-64.5z" fill="#ea48ff"/><path d="M21.79957,-8.1882v381.38138h-36.03604v-381.38138z" data-paper-data="{&quot;index&quot;:null}" fill="#8ae200"/><path d="M11.28904,211.03102v-37.53754h481.98198v37.53754z" fill="#8ae200"/></g></g></svg>