<svg version="1.1" xmlns="http://www.w3.org/2000/svg" xmlns:xlink="http://www.w3.org/1999/xlink" width="164" height="164" viewBox="0,0,164,164"><g transform="translate(-158,-98)"><g data-paper-data="{&quot;isPaintingLayer&quot;:true}" fill-rule="nonzero" stroke-linecap="butt" stroke-linejoin="miter" stroke-miterlimit="10" stroke-dasharray="" stroke-dashoffset="0" style="mix-blend-mode: normal"><path d="M158,262v-164h164v164z" fill="none" stroke="none" stroke-width="0"/><path d="M213.90485,137.17118c0.05973,-7.99361 -0.40297,-17.23376 1.38941,-18.43196c1.83584,-1.22722 13.45292,-0.85204 24.98599,-0.84805c11.48692,0.00399 22.89048,-0.36812 24.46343,0.84805c1.83696,1.42029 1.38398,10.0039 1.35473,18.53914c-0.02899,8.46025 0.38149,16.87293 -1.35473,18.21499c-1.77157,1.36941 -13.17261,1.05815 -24.6104,1.05312c-11.45381,-0.00503 -23.73988,0.20909 -24.83902,-1.05312c-1.14595,-1.31597 -1.45728,-9.24031 -1.38941,-18.32217z" fill="#ff00ad" stroke="#000000" stroke-width="7.5"/><path d="M239.98313,188.81971c-3.74306,-0.04995 -8.06983,0.33695 -8.63089,-1.16177c-0.57465,-1.53505 -0.39897,-11.24878 -0.39711,-20.89226c0.00187,-9.60489 -0.17237,-19.14008 0.39711,-20.45532c0.66506,-1.53599 4.68439,-1.15723 8.68108,-1.13277c3.96157,0.02424 7.90086,-0.31899 8.52929,1.13277c0.64123,1.48132 0.49549,11.0144 0.49313,20.57821c-0.00236,9.57721 0.41296,19.13143 -0.49313,20.76937c-0.92589,1.67374 -4.32684,1.21852 -8.57948,1.16177z" fill="#ffde00" stroke="#000000" stroke-width="5"/><path d="M248.56263,187.65794c-0.60425,1.51709 -4.32686,1.21852 -8.5795,1.16177c-3.74306,-0.04995 -8.06983,0.33695 -8.63089,-1.16177c-0.57465,-1.53505 -0.39897,-11.24878 -0.39711,-20.89226c0.00187,-9.60489 -0.17237,-19.14008 0.39711,-20.45532c0.66506,-1.53599 4.68439,-1.15723 8.68108,-1.13277c3.96157,0.02424 7.90086,-0.31899 8.52929,1.13277c0.64123,1.48132 0.49549,11.0144 0.49313,20.57821c-0.00236,9.57721 0.13779,19.18522 -0.49313,20.76937z" fill="#ffd000" stroke="#0098ff" stroke-width="0"/><path d="M213.90485,137.17117c0.05973,-7.99361 -0.40297,-17.23376 1.38941,-18.43196c1.83584,-1.22722 13.45292,-0.85204 24.98599,-0.84805c11.48692,0.00399 22.89048,-0.36812 24.46343,0.84805c1.83696,1.42029 1.38398,10.0039 1.35473,18.53914c-0.02899,8.46025 0.38149,16.87293 -1.35473,18.21499c-1.77157,1.36941 -13.17261,1.05815 -24.6104,1.05312c-11.45381,-0.00503 -23.40332,0.81709 -24.83902,-1.05312c-1.43196,-1.86535 -1.45728,-9.24031 -1.38941,-18.32217z" fill="#f73ca3" stroke="#ffffff" stroke-width="0"/><path d="M217.869,155.9l12.01201,-37.65h10.5l-12.01201,37.65c0,0 -3.44307,1.375 -5.1815,1.375c-1.76127,0 -5.3185,-1.375 -5.3185,-1.375z" fill="#ffffff" stroke="#000000" stroke-width="0"/><path d="M238.89002,155.9l12.01201,-37.65h10.5l-12.01201,37.65z" fill="#ffffff" stroke="#000000" stroke-width="0"/><path d="M214.47297,133.5c0,0 -0.92139,-9.45593 -0.71544,-12.10986c0.13377,-1.72379 1.83099,-2.26514 1.83099,-2.26514l4.27146,-0.875z" fill="#ffffff" stroke="#000000" stroke-width="0"/><path d="M265.98498,137.36442c0,0 0.95473,10.27077 0.72529,13.52978c-0.14213,2.0189 -1.97027,4.15438 -1.97027,4.15438l-4.76703,1.07643z" data-paper-data="{&quot;index&quot;:null}" fill="#ffffff" stroke="#000000" stroke-width="0"/><path d="M213.90485,137.17117c0.05973,-7.99361 -0.40297,-17.23376 1.38941,-18.43196c1.83584,-1.22722 13.45292,-0.85204 24.98599,-0.84805c11.48692,0.00399 22.89048,-0.36812 24.46343,0.84805c1.83696,1.42029 1.38398,10.0039 1.35473,18.53914c-0.02899,8.46025 0.38149,16.87293 -1.35473,18.21499c-1.77157,1.36941 -13.17261,1.05815 -24.6104,1.05312c-11.45381,-0.00503 -23.40332,0.81709 -24.83902,-1.05312c-1.43196,-1.86535 -1.45728,-9.24031 -1.38941,-18.32217z" fill="none" stroke="#f73ca3" stroke-width="2.5"/></g></g></svg>