<svg version="1.1" xmlns="http://www.w3.org/2000/svg" xmlns:xlink="http://www.w3.org/1999/xlink" width="700.05978" height="473.97229" viewBox="0,0,700.05978,473.97229"><defs><radialGradient cx="150.48046" cy="164.23371" r="260.5105" gradientUnits="userSpaceOnUse" id="color-1"><stop offset="0" stop-color="#c5f7ff"/><stop offset="1" stop-color="#c5f7ff" stop-opacity="0"/></radialGradient><linearGradient x1="168.00016" y1="90.65813" x2="168.00016" y2="343.34189" gradientUnits="userSpaceOnUse" id="color-2"><stop offset="0" stop-color="#03b9ff"/><stop offset="1" stop-color="#a8e6ff"/></linearGradient></defs><g transform="translate(110.02988,72.75243)"><g data-paper-data="{&quot;isPaintingLayer&quot;:true}" fill-rule="nonzero" stroke-linecap="butt" stroke-linejoin="miter" stroke-miterlimit="10" stroke-dasharray="" stroke-dashoffset="0" style="mix-blend-mode: normal"><path d="M-18.07821,372.19172v-424.92492h608.10811v424.92492z" fill="#00aaff" stroke="none" stroke-width="0"/><path d="M-2.56728,365.43921v-278.03729c0,0 80.52968,118.99385 98.50133,90.09009c23.05868,-37.08521 111.58252,-122.43795 127.97315,-10.83601c3.96743,27.0138 67.37255,9.70328 85.40712,-11.20627c98.31792,-113.99127 213.64393,-68.04781 213.64393,-68.04781v278.03729z" fill="#3385ff" stroke="none" stroke-width="0"/><path d="M410.99114,164.23371c0,130.88384 -116.63454,236.98615 -260.51051,236.98615c-143.87598,0 -260.51051,-106.10232 -260.51051,-236.98615c0,-130.88384 116.63454,-236.98614 260.51051,-236.98614c143.87599,0 260.51051,106.10232 260.51051,236.98615z" fill="url(#color-1)" stroke="none" stroke-width="0"/><path d="M29.01485,336.25355c-10.2069,-8.41538 -8.19816,-60.26117 -7.81634,-119.48853c0.33609,-52.13036 -2.267,-112.39018 7.81634,-120.20419c10.32773,-8.00337 75.68104,-5.55667 140.56181,-5.53058c64.62108,0.02601 128.77321,-2.40079 137.62206,5.53058c10.33406,9.26245 7.78577,65.2406 7.62122,120.9033c-0.16311,55.17356 2.14612,110.037 -7.62122,118.78933c-9.96625,8.93054 -74.10419,6.90071 -138.4489,6.86804c-64.43482,-0.03276 -129.07694,1.91904 -139.73496,-6.86804z" fill="url(#color-2)" stroke="#000000" stroke-width="12.5"/><path d="M-1.94655,66.98277v-50.27582c0,0 357.33373,-0.26407 363.42407,0c4.67347,0.20263 20.10022,50.22043 14.82859,50.27582c-5.17289,0.05435 -378.25266,0 -378.25266,0z" data-paper-data="{&quot;index&quot;:null}" fill="#000000" stroke="#000000" stroke-width="2.5"/><path d="M-2.82554,64.05294v-50.27582c0,0 354.11093,-0.26407 360.20127,0c4.67347,0.20263 20.10022,50.22043 14.82859,50.27582c-5.17289,0.05435 -375.02986,0 -375.02986,0z" data-paper-data="{&quot;index&quot;:null}" fill="#ff00ad" stroke="#ffffff" stroke-width="1.5"/><text transform="translate(14.98485,51.84974) scale(0.80425,0.80425)" font-size="40" xml:space="preserve" data-paper-data="{&quot;index&quot;:null}" fill="#ca008a" fill-rule="nonzero" stroke="#ca008a" stroke-width="7" stroke-linecap="butt" stroke-linejoin="miter" stroke-miterlimit="10" stroke-dasharray="" stroke-dashoffset="0" font-family="Handwriting" font-weight="normal" text-anchor="start" style="mix-blend-mode: normal"><tspan x="0" dy="0">SALTO EN LA ALTURA</tspan></text><text transform="translate(11.98485,48.84974) scale(0.80424,0.80424)" font-size="40" xml:space="preserve" data-paper-data="{&quot;index&quot;:null}" fill="#ffffff" fill-rule="nonzero" stroke="#ffffff" stroke-width="7" stroke-linecap="butt" stroke-linejoin="miter" stroke-miterlimit="10" stroke-dasharray="" stroke-dashoffset="0" font-family="Handwriting" font-weight="normal" text-anchor="start" style="mix-blend-mode: normal"><tspan x="0" dy="0">SALTO EN LA ALTURA</tspan></text><g data-paper-data="{&quot;index&quot;:null}"><path d="M205.34256,202.48124c-14.7871,-7.98166 -20.30401,-26.43936 -12.32235,-41.22648c7.98166,-14.78712 61.53051,14.11701 53.54885,28.90413c-7.98166,14.7871 -26.43936,20.30401 -41.22648,12.32235z" fill="#ffc166" stroke="#000000" stroke-width="7.5"/><path d="M193.40263,160.54635c7.98166,-14.7871 26.43936,-20.30401 41.22648,-12.32235c14.7871,7.98166 20.30401,26.43936 12.32235,41.22648c-7.98166,14.78712 -61.53051,-14.11701 -53.54885,-28.90413z" data-paper-data="{&quot;index&quot;:null}" fill="#66deff" stroke="#000000" stroke-width="7.5"/><path d="M229.40684,152.05868c1.68896,-3.27434 18.3271,-34.08673 33.23189,-61.65828c2.12999,0 4.25998,0 6.38998,0c-15.30732,28.33163 -33.05952,61.20906 -34.68977,64.32048c-1.1856,2.26279 -6.3686,0.12274 -4.93209,-2.6622z" fill="#d466ff" stroke="#000000" stroke-width="7.5"/><path d="M205.34256,202.48124c-14.7871,-7.98166 -20.30401,-26.43936 -12.32235,-41.22648c7.98166,-14.78712 61.53051,14.11701 53.54885,28.90413c-7.98166,14.7871 -26.43936,20.30401 -41.22648,12.32235z" fill="#ffc166" stroke="none" stroke-width="0"/><path d="M193.40263,160.54635c7.98166,-14.7871 26.43936,-20.30401 41.22648,-12.32235c14.7871,7.98166 20.30401,26.43936 12.32235,41.22648c-7.98166,14.78712 -61.53051,-14.11701 -53.54885,-28.90413z" data-paper-data="{&quot;index&quot;:null}" fill="#66deff" stroke="none" stroke-width="0"/><path d="M229.40684,152.05868c1.68896,-3.27434 18.3271,-34.08673 33.23189,-61.65828c2.12999,0 4.25998,0 6.38998,0c-15.30732,28.33163 -33.05952,61.20906 -34.68977,64.32048c-1.1856,2.26279 -6.3686,0.12274 -4.93209,-2.6622z" fill="#d466ff" stroke="none" stroke-width="0"/><g fill="#ffc166" stroke="#000000" stroke-width="3.5"><path d=""/><path d=""/></g></g><path d="M54.56458,284.6046c0,-21.56067 17.47837,-39.03904 39.03904,-39.03904c21.56067,0 39.03904,17.47837 39.03904,39.03904c0,21.56067 -17.47837,39.03904 -39.03904,39.03904c-21.56067,0 -39.03904,-17.47837 -39.03904,-39.03904z" fill="#fc33ff" stroke="#be00c1" stroke-width="5"/><g data-paper-data="{&quot;index&quot;:null}"><path d="M100.69994,249.57358c-1.81974,1.46238 -5.16573,-0.00797 -6.93164,-0.86746c-4.15705,-2.02326 -6.71789,-4.28059 -3.78185,-8.78754c0.83536,-0.48685 1.67391,-0.96861 2.52422,-1.42879c0,0 3.27092,-4.5007 3.61091,-4.50272c0.5981,-0.38182 2.27175,0.90106 3.56713,1.70533l-0.09356,5.04982c0,0 3.42922,6.96338 1.1048,8.83134z" fill="#00ade2" stroke="#000000" stroke-width="6.5"/><path d="M122.35528,243.74936c-0.5574,2.26701 -4.10853,3.13127 -6.03343,3.52106c-4.53129,0.91764 -7.93672,0.6798 -8.34176,-4.68382c0.3679,-0.8941 0.74144,-1.7862 1.13743,-2.66823c0,0 -0.13523,-5.56209 0.13365,-5.77021c0.24325,-0.6666 2.35199,-0.664 3.86955,-0.81191l2.99285,4.06844c0,0 6.95369,3.44891 6.24172,6.34463z" fill="#00ade2" stroke="#000000" stroke-width="6.5"/><path d="M120.60712,216.01128c-2.81979,-1.43678 -7.83046,1.58879 -7.88291,-3.15078c-0.03238,-2.92453 -0.37942,-1.18994 0.9422,-6.57288c0.82023,-3.34081 -7.17028,-11.29185 3.91514,-6.88892c11.08544,4.40295 21.98323,3.57908 25.53853,5.79577c3.55532,2.2167 5.79142,3.25593 6.84497,5.09253c1.61952,2.20857 4.33408,8.91099 1.08493,10.6036c-1.04465,0.03137 -1.08483,0.05399 -1.78661,-0.39927c0.40278,0.85093 0.03025,1.57485 -0.30749,2.07098c-2.28556,3.35776 -4.44206,0.44729 -5.8528,-1.46812c-0.6552,-0.89735 -1.38313,-2.41289 -3.29955,-2.49354c-1.91644,-0.08063 -3.74402,2.07895 -4.34466,2.2726c-2.7126,-0.47481 -2.27981,-3.91628 -2.13619,-6.63894c0.0539,-1.0215 -12.71554,1.77697 -12.71554,1.77697z" data-paper-data="{&quot;index&quot;:null}" fill="#00ade2" stroke="#000000" stroke-width="6.5"/><path d="M77.38476,215.03578c0.98997,2.54041 2.47985,5.67269 0.05283,6.97398c-0.63107,0.0044 -3.04357,-1.47337 -4.83811,-0.79598c-1.79453,0.67739 -2.01064,2.34472 -2.35148,3.40225c-0.73915,2.26113 -1.87449,5.70094 -5.09749,3.229c-0.47623,-0.36525 -1.05692,-0.93588 -0.94122,-1.87019c-0.52434,0.65041 -0.56956,0.64153 -1.57139,0.93925c-3.61598,-0.58864 -3.13951,-7.80423 -2.29403,-10.40918c0.42467,-2.07432 2.22224,-3.76218 4.90337,-6.98172c2.68112,-3.21954 13.28783,-5.85368 22.43407,-13.50997c9.14626,-7.65629 4.05124,2.39899 5.87746,5.31422c2.94254,4.69724 2.0692,3.15889 2.95528,5.94616c1.43607,4.51706 -4.27051,3.2149 -6.49772,5.46327c0,0 -13.00301,1.34589 -12.63162,2.299z" fill="#00ade2" stroke="#000000" stroke-width="6.5"/><path d="M127.71213,201.75935c0.92357,8.11183 1.31757,11.13822 0.35824,18.20888c-0.95935,7.07066 -3.01319,10.60316 -4.5217,12.47704c-3.36545,4.18064 -18.18682,7.0784 -28.71748,5.59383c-5.67896,-0.8006 -10.48636,-2.30639 -11.97485,-7.2975c-1.48848,-4.99115 -2.69932,-24.96441 -1.30209,-37.22218c0.22138,-10.40253 3.89689,-20.51809 15.77577,-24.17019c0.86554,-0.2661 2.97462,-0.6065 4.90852,-0.71382c20.42304,-1.13336 24.3387,23.15605 25.47362,33.12391z" fill="#00c3ff" stroke="#000000" stroke-width="6.5"/><path d="M100.69994,249.57358c-1.81974,1.46238 -5.16573,-0.00797 -6.93164,-0.86746c-4.15705,-2.02326 -6.71791,-4.28059 -3.78187,-8.78754c0.83536,-0.48685 1.67393,-0.96861 2.52424,-1.42879c0,0 3.27092,-4.5007 3.61091,-4.50272c0.5981,-0.38182 2.27175,0.90106 3.56713,1.70533l-0.09356,5.04982c0,0 3.42922,6.96338 1.10482,8.83134z" fill="#00ade2" stroke="none" stroke-width="0.5"/><path d="M122.35528,243.74936c-0.5574,2.26701 -4.10853,3.13127 -6.03343,3.52106c-4.53129,0.91764 -7.93672,0.6798 -8.34176,-4.68382c0.3679,-0.8941 0.74144,-1.7862 1.13743,-2.66823c0,0 -0.13523,-5.56209 0.13365,-5.77021c0.24325,-0.6666 2.35199,-0.664 3.86955,-0.81191l2.99285,4.06844c0,0 6.95369,3.44891 6.24172,6.34463z" fill="#00ade2" stroke="none" stroke-width="0.5"/><path d="M120.60712,216.01128c-2.81979,-1.43678 -7.83046,1.58879 -7.88291,-3.15078c-0.03238,-2.92453 -0.37942,-1.18994 0.9422,-6.57288c0.82023,-3.34081 -7.17028,-11.29185 3.91514,-6.88892c11.08544,4.40295 21.98323,3.57908 25.53853,5.79577c3.55532,2.2167 5.79141,3.25593 6.84497,5.09253c1.61952,2.20857 4.3341,8.91099 1.08493,10.6036c-1.04467,0.03137 -1.08484,0.05399 -1.78663,-0.39927c0.40278,0.85093 0.03027,1.57485 -0.30747,2.07098c-2.28556,3.35776 -4.44206,0.44729 -5.8528,-1.46812c-0.6552,-0.89735 -1.38313,-2.41289 -3.29955,-2.49354c-1.91644,-0.08063 -3.74402,2.07895 -4.34466,2.2726c-2.7126,-0.47481 -2.27981,-3.91628 -2.13619,-6.63894c0.0539,-1.0215 -12.71554,1.77697 -12.71554,1.77697z" data-paper-data="{&quot;index&quot;:null}" fill="#00ade2" stroke="none" stroke-width="0.5"/><path d="M77.38482,215.03578c0.98997,2.54041 2.47985,5.67269 0.05283,6.97398c-0.63107,0.0044 -3.04357,-1.47337 -4.83811,-0.79598c-1.79454,0.67739 -2.01065,2.34472 -2.35148,3.40225c-0.73915,2.26113 -1.87449,5.70094 -5.09749,3.229c-0.47623,-0.36525 -1.05692,-0.93588 -0.94122,-1.87019c-0.52434,0.65041 -0.56956,0.64153 -1.57139,0.93925c-3.61598,-0.58864 -3.13951,-7.80423 -2.29403,-10.40918c0.42467,-2.07432 2.22224,-3.76218 4.90336,-6.98172c2.68112,-3.21954 13.28783,-5.85368 22.43407,-13.50997c9.14626,-7.65629 4.05124,2.39899 5.87746,5.31422c2.94254,4.69724 2.0692,3.15889 2.95528,5.94616c1.43607,4.51706 -4.27051,3.2149 -6.49772,5.46327c0,0 -13.00301,1.34589 -12.63162,2.299z" fill="#00ade2" stroke="none" stroke-width="0.5"/><path d="M102.23856,168.63546c21.59051,-1.01511 24.33872,23.15604 25.47364,33.12389c0.92357,8.11183 1.31757,11.13822 0.35824,18.20888c-0.95935,7.07066 -3.01319,10.60316 -4.5217,12.47704c-3.36545,4.18064 -18.18682,7.0784 -28.71748,5.59383c-5.67896,-0.8006 -10.48636,-2.30639 -11.97485,-7.2975c-1.48848,-4.99115 -2.69932,-24.96441 -1.30209,-37.22218c0.22138,-10.40253 3.89689,-20.51809 15.77577,-24.17019c1.45466,-0.4472 3.24482,-0.56402 4.90852,-0.71382z" fill="#00c3ff" stroke="none" stroke-width="0.5"/><path d="M96.21892,178.399c2.88544,-1.71469 14.63357,-1.75943 18.67347,1.00392c5.77216,3.94825 5.49411,13.04846 1.8467,18.33995c-1.38178,2.00467 -3.46686,3.1701 -5.44779,4.48167c-7.00274,2.77367 -19.81775,0.32518 -22.16374,-8.0459c-0.41922,-1.4959 -0.68687,-6.05589 0.86451,-9.38626c1.62356,-3.48532 5.10352,-5.72583 6.22687,-6.3934z" fill="#ffffff" stroke="none" stroke-width="0.5"/><path d="M101.36542,195.11743c-1.78345,0 -1.78345,-1.78345 -1.78345,-1.78345c0,-0.59448 0,-1.90234 0,-2.49684c0,0 0,-1.78347 1.78345,-1.78347c1.78345,0 1.78347,1.78347 1.78347,1.78347c0,0.59448 0,1.18895 0,1.78345v0.71339c0,0 -0.00002,1.78345 -1.78347,1.78345z" fill="#000000" stroke="none" stroke-width="0.5"/><path d="M110.99605,192.9773l0.03462,-0.00692c-0.11888,-0.59448 -0.23779,-1.18895 -0.35668,-1.78345c0,0 -0.34977,-1.74883 1.39906,-2.0986c1.74881,-0.34977 2.09859,1.39906 2.09859,1.39906c0.11889,0.59448 0.2378,1.18895 0.3567,1.78345l0.03462,0.70647c0,0 0,1.78345 -1.78345,1.78345c-1.78345,0 -1.78345,-1.78345 -1.78345,-1.78345z" fill="#000000" stroke="none" stroke-width="0.5"/></g><path d="M29.01485,336.25355c-10.2069,-8.41538 -8.19816,-60.26117 -7.81634,-119.48853c0.33609,-52.13036 -2.267,-112.39018 7.81634,-120.20419c10.32773,-8.00337 75.68104,-5.55667 140.56181,-5.53058c64.62108,0.02601 128.77321,-2.40079 137.62206,5.53058c10.33406,9.26245 7.78577,65.2406 7.62122,120.9033c-0.16311,55.17356 2.14612,110.037 -7.62122,118.78933c-9.96625,8.93054 -74.10419,6.90071 -138.4489,6.86804c-64.43482,-0.03276 -129.07694,1.91904 -139.73496,-6.86804z" fill="none" stroke="#ffffff" stroke-width="5"/><path d="M184.18922,261.07606c0,-17.41438 14.11715,-31.53153 31.53153,-31.53153c17.41438,0 31.53153,14.11715 31.53153,31.53153c0,17.41438 -14.11715,31.53153 -31.53153,31.53153c-17.41438,0 -31.53153,-14.11715 -31.53153,-31.53153z" fill="#fc33ff" stroke="#be00c1" stroke-width="5"/><path d="M383.0617,165.53725c-2.82288,-0.95529 -2.26733,-6.84063 -2.16173,-13.56391c0.09295,-5.91765 -0.62697,-12.75813 2.16173,-13.64515c2.85629,-0.90851 20.93076,-0.63077 38.87453,-0.62781c17.87195,0.00296 35.6142,-0.27253 38.06149,0.62781c2.85805,1.05144 2.15328,7.40588 2.10777,13.72451c-0.04511,6.2631 0.59354,12.49101 -2.10777,13.48455c-2.75632,1.01377 -20.49465,0.78334 -38.29016,0.77963c-17.82044,-0.00372 -35.69821,0.21785 -38.64585,-0.77963z" fill="#007e91" stroke="#000000" stroke-width="0"/><path d="M378.0617,160.53725c-2.82287,-0.95528 -2.26733,-6.84063 -2.16173,-13.56391c0.09295,-5.91765 -0.62697,-12.75813 2.16173,-13.64515c2.85629,-0.90851 20.93075,-0.63077 38.87452,-0.62781c17.87195,0.00295 35.61421,-0.27253 38.06149,0.62781c2.85804,1.05144 2.15327,7.40588 2.10777,13.72451c-0.04511,6.26311 0.59354,12.49101 -2.10777,13.48454c-2.75632,1.01376 -20.49465,0.78334 -38.29017,0.77964c-17.82044,-0.00372 -35.69821,0.21784 -38.64585,-0.77964z" fill="#29f376" stroke="#000000" stroke-width="0"/><text transform="translate(382.00019,152.25) scale(0.40037,0.34832)" font-size="40" xml:space="preserve" fill="#ffffff" fill-rule="nonzero" stroke="#ffffff" stroke-width="1" stroke-linecap="butt" stroke-linejoin="miter" stroke-miterlimit="10" stroke-dasharray="" stroke-dashoffset="0" font-family="Sans Serif" font-weight="normal" text-anchor="start" style="mix-blend-mode: normal"><tspan x="0" dy="0">CARRERA</tspan></text><text transform="translate(344.48488,190.01765) scale(0.33192,0.33192)" font-size="40" xml:space="preserve" data-paper-data="{&quot;index&quot;:null}" fill="#007e91" fill-rule="nonzero" stroke="#007e91" stroke-width="7" stroke-linecap="butt" stroke-linejoin="miter" stroke-miterlimit="10" stroke-dasharray="" stroke-dashoffset="0" font-family="Handwriting" font-weight="normal" text-anchor="start" style="mix-blend-mode: normal"><tspan x="0" dy="0">COMO JUGAR</tspan></text><text transform="translate(345.48488,187.51765) scale(0.33192,0.33192)" font-size="40" xml:space="preserve" data-paper-data="{&quot;index&quot;:null}" fill="#ffffff" fill-rule="nonzero" stroke="#ffffff" stroke-width="7" stroke-linecap="butt" stroke-linejoin="miter" stroke-miterlimit="10" stroke-dasharray="" stroke-dashoffset="0" font-family="Handwriting" font-weight="normal" text-anchor="start" style="mix-blend-mode: normal"><tspan x="0" dy="0">COMO JUGAR</tspan></text><text transform="translate(345.25019,213.48752) scale(0.30625,0.30625)" font-size="40" xml:space="preserve" fill="#007e91" fill-rule="nonzero" stroke="none" stroke-width="1" stroke-linecap="butt" stroke-linejoin="miter" stroke-miterlimit="10" stroke-dasharray="" stroke-dashoffset="0" font-family="Sans Serif" font-weight="normal" text-anchor="start" style="mix-blend-mode: normal"><tspan x="0" dy="0">Saltea los obstáculos</tspan><tspan x="0" dy="48px">y llega hasta la meta</tspan><tspan x="0" dy="48px">para clasificarte al</tspan><tspan x="0" dy="48px">siguiente nivel</tspan></text><text transform="translate(344.25019,212.48752) scale(0.30625,0.30625)" font-size="40" xml:space="preserve" fill="#ffffff" fill-rule="nonzero" stroke="none" stroke-width="1" stroke-linecap="butt" stroke-linejoin="miter" stroke-miterlimit="10" stroke-dasharray="" stroke-dashoffset="0" font-family="Sans Serif" font-weight="normal" text-anchor="start" style="mix-blend-mode: normal"><tspan x="0" dy="0">Saltea los obstáculos</tspan><tspan x="0" dy="48px">y llega hasta la meta</tspan><tspan x="0" dy="48px">para clasificarte al</tspan><tspan x="0" dy="48px">siguiente nivel, no</tspan><tspan x="0" dy="48px">te caigas de las</tspan><tspan x="0" dy="48px">plataformas</tspan></text></g></g></svg>