<svg version="1.1" xmlns="http://www.w3.org/2000/svg" xmlns:xlink="http://www.w3.org/1999/xlink" width="533" height="400.77778" viewBox="0,0,533,400.77778"><defs><linearGradient x1="240" y1="300.56928" x2="240" y2="331.56928" gradientUnits="userSpaceOnUse" id="color-1"><stop offset="0" stop-color="#ff4af6"/><stop offset="1" stop-color="#b692ff"/></linearGradient><linearGradient x1="253.44371" y1="63.87396" x2="253.44371" y2="80.09739" gradientUnits="userSpaceOnUse" id="color-2"><stop offset="0" stop-color="#ff4af6"/><stop offset="1" stop-color="#b692ff"/></linearGradient></defs><g transform="translate(26.5,21.13964)"><g data-paper-data="{&quot;isPaintingLayer&quot;:true}" fill-rule="nonzero" stroke="none" stroke-width="0" stroke-linecap="butt" stroke-linejoin="miter" stroke-miterlimit="10" stroke-dasharray="" stroke-dashoffset="0" style="mix-blend-mode: normal"><path d="M-26.5,379.63814v-400.77778h533v400.77778z" fill="none"/><path d="M-9,326.56928v-21c0,0 30.51155,-3 59.5,-3c20.87559,0 61.5322,2.7889 110.00627,2.47869c23.60478,-0.15106 49.06328,-1.17107 74.99407,-1.10144c26.33857,0.07073 53.1644,-0.76607 79.02984,-0.55378c32.03755,0.26295 62.60169,1.6012 88.94147,1.93229c50.54078,0.6353 85.52835,1.24424 85.52835,1.24424v20c0,0 -83.6272,10 -141.5,10c-26.47302,0 -67.29594,-3.83389 -111.99913,-3.59742c-24.74013,0.13087 -47.66873,1.98206 -73.01112,1.67233c-18.15482,-0.22188 -39.00879,4.06494 -55.90945,3.54606c-2.37761,-0.073 -115.5803,-11.62097 -115.5803,-11.62097z" fill="url(#color-1)"/><path d="M15.88742,77.48071v-10.99007c0,0 29.10928,-1.57001 56.76546,-1.57001c19.91618,0 58.70425,1.45953 104.95052,1.29719c22.51994,-0.07906 46.80841,-0.61286 71.54744,-0.57642c25.12808,0.03702 50.72103,-0.40091 75.39773,-0.28981c30.56514,0.13761 59.7246,0.83797 84.85384,1.01124c48.218,0.33248 81.59758,0.65116 81.59758,0.65116v10.46673c0,0 -79.7838,5.23337 -134.99684,5.23337c-25.25636,0 -64.20312,-2.00642 -106.8518,-1.88266c-23.60311,0.06849 -45.47793,1.03728 -69.65563,0.87519c-17.32045,-0.11612 -37.216,2.12733 -53.33993,1.85578c-2.26834,-0.0382 -110.26838,-6.08168 -110.26838,-6.08168z" fill="url(#color-2)"/></g></g></svg>