<svg version="1.1" xmlns="http://www.w3.org/2000/svg" xmlns:xlink="http://www.w3.org/1999/xlink" width="547" height="454.99503" viewBox="0,0,547,454.99503"><defs><linearGradient x1="239.99999" y1="-47.49751" x2="239.99999" y2="375.72771" gradientUnits="userSpaceOnUse" id="color-1"><stop offset="0" stop-color="#1b4ccd"/><stop offset="1" stop-color="#bfadd7"/></linearGradient></defs><g transform="translate(33.5,47.49751)"><g data-paper-data="{&quot;isPaintingLayer&quot;:true}" fill-rule="nonzero" stroke-linecap="butt" stroke-linejoin="miter" stroke-miterlimit="10" stroke-dasharray="" stroke-dashoffset="0" style="mix-blend-mode: normal"><path d="M-33.5,375.72771v-423.22522h547v423.22522z" fill="url(#color-1)" stroke="none" stroke-width="0"/><path d="M173.07407,271.5076c0,-41.7375 -0.14695,-89.03134 25.78236,-108.92458c2.48511,-1.90661 27.79933,-8.72081 49.93325,-9.49631c18.65118,-0.65347 33.5044,3.58722 45.97361,12.5869c30.88241,22.28945 25.07827,79.50159 25.07827,110.01628c0,57.45684 -10.2313,93.57905 -76.57011,93.57905c-66.33881,0 -70.19738,-40.30452 -70.19738,-97.76135z" fill="#7b66c3" stroke="#7b66c3" stroke-width="0"/><path d="M225.36875,180.38608c1.33751,-0.05627 1.68734,-0.2488 2.0879,0.32716c0.52043,0.62877 0.94575,1.6694 0.43874,2.40229c-0.3034,0.43856 -1.07907,1.39841 -2.06081,0.82122c-0.57051,-0.33541 -0.75172,-0.53152 -1.12684,-0.7239c-0.37801,-0.26887 -1.14649,-0.86506 -1.94508,-0.8267c-0.38492,0.01849 -0.78297,0.44412 -0.98678,0.57894c-0.92886,0.61444 -3.20906,1.74777 -4.0294,0.8186c-0.24051,-0.49001 -0.01607,-1.36229 -0.56463,-1.76276c-0.08398,-0.06131 -1.11846,-0.08949 -2.1566,0.03555c-1.08316,0.13045 -2.38601,0.69748 -3.47358,0.81601c-0.68757,0.07493 -0.55316,-0.01016 -0.6505,-0.10931c-0.15186,-0.15467 0.89072,-1.00162 1.10946,-1.15039c0.89938,-0.61166 2.606,-1.94448 4.08443,-2.23635c0.75611,-0.14927 1.47415,0.29903 1.99761,0.4342c2.18557,0.46295 4.28762,0.70117 7.27608,0.57544z" data-paper-data="{&quot;index&quot;:null}" fill="#7b66c3" stroke="#7b66c3" stroke-width="4"/><path d="M225.36875,180.38608c1.33751,-0.05627 1.68734,-0.2488 2.0879,0.32716c0.52044,0.62877 0.94575,1.6694 0.43875,2.40229c-0.3034,0.43856 -1.07909,1.39841 -2.06082,0.82122c-0.57051,-0.33541 -0.75172,-0.53152 -1.12684,-0.72389c-0.37801,-0.26887 -1.14649,-0.86506 -1.94509,-0.8267c-0.38492,0.01849 -0.78298,0.44412 -0.98678,0.57894c-0.92886,0.61443 -3.20906,1.74777 -4.02939,0.8186c-0.24051,-0.49001 -0.01607,-1.3623 -0.56463,-1.76276c-0.08398,-0.06131 -1.11846,-0.08949 -2.15659,0.03555c-1.08315,0.13045 -2.38603,0.69749 -3.47358,0.81602c-0.68757,0.07493 -0.55316,-0.01016 -0.65049,-0.10931c-0.15186,-0.15468 0.89072,-1.00162 1.10946,-1.15039c0.89938,-0.61166 2.606,-1.94447 4.08443,-2.23635c0.75611,-0.14927 1.47415,0.29903 1.99761,0.4342c2.18558,0.46295 4.28762,0.70117 7.27608,0.57544z" data-paper-data="{&quot;index&quot;:null}" fill="#7b66c3" stroke="#7b66c3" stroke-width="0.5"/><path d="M249.96574,169.78806c0,0 2.44017,4.48137 3.10915,4.21609c1.7831,-0.70708 3.95186,-1.67556 5.1896,-0.98451c0.07304,0.22593 -0.76114,1.29654 -0.05813,1.84694c0.70303,0.55041 1.96904,0.39713 2.79455,0.37308c1.7662,-0.04772 4.45429,-0.11641 2.96905,1.3828c-0.21945,0.22153 -0.58036,0.50898 -1.28919,0.5968c0.54252,0.09815 0.54089,0.11562 0.87344,0.43403c-0.03878,1.37954 -5.46686,2.20747 -7.50097,2.26462c-1.59225,0.13474 -3.0484,-0.27685 -5.7433,-0.79355c-2.6949,-0.5167 -5.82986,-3.9595 -12.54476,-6.18273c-6.71488,-2.22324 1.3393,-1.78641 3.30919,-2.84559c3.17403,-1.70662 2.12454,-1.18013 4.10301,-1.88411c3.20635,-1.14089 2.86714,1.08789 4.78833,1.57612z" data-paper-data="{&quot;index&quot;:null}" fill="#7b66c3" stroke="#7b66c3" stroke-width="4"/><path d="M246.96437,171.34373c-5.04586,3.36771 -18.0475,11.40292 -30.09006,7.96163c-1.14034,-0.32587 -2.28652,-0.76049 -2.70174,-0.98371c-5.69862,-3.06348 -3.54127,-7.19943 0.86165,-10.9232c4.49057,-4.55699 14.08144,-9.60345 17.1729,-11.15281c3.09145,-1.54935 6.56673,-3.22807 10.40218,-2.66703c7.11221,1.04035 16.00901,-1.43838 16.25087,0.54573c0.1084,0.88934 -1.23486,8.16075 -3.73102,10.81218c-2.49615,2.65144 -4.05848,3.66656 -8.16478,6.40721z" data-paper-data="{&quot;index&quot;:null}" fill="#7b66c3" stroke="#7b66c3" stroke-width="4"/><path d="M249.96574,169.78806c0,0 2.44017,4.48137 3.10915,4.21609c1.7831,-0.70708 3.95186,-1.67556 5.1896,-0.98451c0.07304,0.22593 -0.76114,1.29654 -0.05813,1.84694c0.70303,0.55041 1.96904,0.39713 2.79455,0.37308c1.7662,-0.04772 4.45429,-0.11641 2.96905,1.3828c-0.21945,0.22153 -0.58036,0.50898 -1.28919,0.5968c0.54252,0.09815 0.54089,0.11562 0.87344,0.43403c-0.03878,1.37954 -5.46686,2.20747 -7.50097,2.26462c-1.59225,0.13474 -3.0484,-0.27685 -5.7433,-0.79355c-2.6949,-0.5167 -5.82986,-3.9595 -12.54476,-6.18273c-6.71488,-2.22324 1.3393,-1.78641 3.30919,-2.84559c3.17403,-1.70662 2.12454,-1.18013 4.10301,-1.88411c3.20635,-1.14089 2.86714,1.08789 4.78833,1.57612z" data-paper-data="{&quot;index&quot;:null}" fill="#7b66c3" stroke="#7b66c3" stroke-width="0.5"/><path d="M216.8743,179.30535c-0.95596,-0.30073 -2.0039,-0.60857 -2.70174,-0.98371c-5.69862,-3.06348 -3.54127,-7.19943 0.86165,-10.9232c4.49057,-4.55699 13.94859,-11.46332 17.04005,-13.01268c3.09145,-1.54935 6.69958,-1.3682 10.53503,-0.80716c7.11221,1.04035 16.67325,-1.57123 16.91511,0.41288c0.1084,0.88934 -1.8991,8.2936 -4.39526,10.94503c-2.49615,2.65144 -4.05848,3.66656 -8.16478,6.40721c-5.04586,3.36771 -17.27923,11.53468 -30.09006,7.96161z" data-paper-data="{&quot;index&quot;:null}" fill="#7b66c3" stroke="#7b66c3" stroke-width="0.5"/><path d="M224.37808,175.14053c-2.42779,-0.07942 -8.49827,-2.60891 -9.05778,-4.36248c-0.79942,-2.50548 4.34773,-5.33946 9.13448,-6.23261c1.81344,-0.33836 3.52731,-0.25756 5.26797,-0.24577c5.12897,0.63411 10.37752,4.18754 6.9817,7.3578c-0.60684,0.56653 -2.97655,2.07472 -5.60625,2.79799c-2.75204,0.75692 -5.77493,0.71599 -6.72011,0.68508z" data-paper-data="{&quot;index&quot;:null}" fill="#7b66c3" stroke="#7b66c3" stroke-width="0.5"/><path d="M238.47838,166.02225c1.94202,-0.5498 4.34474,-1.3296 5.2496,-0.5006c-0.01601,0.23857 -1.20196,1.25359 -0.74721,1.88618c0.45476,0.63259 1.70283,0.5995 2.48819,0.65563c1.67887,0.12395 4.23257,0.31666 2.27366,1.70699c-0.28945,0.20544 -0.73665,0.46456 -1.43618,0.48515c0.47338,0.15364 0.46531,0.17137 0.65866,0.53007c-0.55376,1.4093 -5.96895,1.72619 -7.9033,1.58567c-1.54793,-0.01779 -2.76298,-0.5819 -5.10357,-1.3749c-2.34059,-0.79299 -3.20076,-3.29786 -8.68197,-6.23229c-5.48121,-2.93443 2.2195,-4.81182 4.46918,-5.70398c1.00674,-0.39925 3.96415,-1.63677 5.59909,-0.54091c1.55635,1.04319 0.99903,2.54449 1.79088,2.88007c0,0 0.6144,4.82918 1.343,4.62291z" data-paper-data="{&quot;index&quot;:null}" fill="#7b66c3" stroke="#7b66c3" stroke-width="4"/><path d="M238.47836,166.02225c1.94202,-0.5498 4.34474,-1.3296 5.24959,-0.5006c-0.01601,0.23857 -1.20196,1.25359 -0.74721,1.88618c0.45476,0.63259 1.70283,0.5995 2.4882,0.65563c1.67887,0.12395 4.23257,0.31666 2.27365,1.70699c-0.28945,0.20544 -0.73665,0.46457 -1.43618,0.48516c0.47338,0.15364 0.46531,0.17137 0.65866,0.53007c-0.55376,1.4093 -5.96895,1.72619 -7.9033,1.58567c-1.54793,-0.01779 -2.76298,-0.5819 -5.10357,-1.37489c-2.34059,-0.79299 -3.99784,-4.62634 -9.47905,-7.56077c-5.48121,-2.93443 1.76048,-4.96995 4.01016,-5.86211c1.65487,-0.65627 4.91079,-0.08378 6.37896,0.72794c1.74775,0.9663 1.26018,2.37066 2.1426,2.74462c0,0 0.73892,5.18239 1.46753,4.97612z" data-paper-data="{&quot;index&quot;:null}" fill="#7b66c3" stroke="#7b66c3" stroke-width="0.5"/><path d="M233.82112,175.58342c0.08917,0.02161 0.11007,0.08092 0.0467,0.13246c-0.06337,0.05153 -0.18704,0.07579 -0.2762,0.05418c-0.08917,-0.02161 -0.11007,-0.08092 -0.0467,-0.13246c0.06337,-0.05153 0.18704,-0.07579 0.27621,-0.05418z" data-paper-data="{&quot;index&quot;:null}" fill="#7b66c3" stroke="#7b66c3" stroke-width="0.5"/><path d="M222.56784,176.13786c0.04814,-0.00016 0.08238,0.00814 0.08238,0.00814l-0.00211,0.00701c0.08328,0.01576 0.14524,0.02769 0.16356,0.03213l-0.19549,0.07375l-0.03403,0.11289c-0.82497,-0.19998 -1.22038,-0.20061 -0.55638,-0.74054c0,0 0.11475,-0.09331 0.27621,-0.05418c0.16145,0.03914 0.0467,0.13245 0.0467,0.13245c-0.12645,0.10283 -0.46155,0.19261 -0.42516,0.29581c0.00428,0.01216 0.38139,0.083 0.64432,0.13255z" data-paper-data="{&quot;index&quot;:null}" fill="#7b66c3" stroke="#7b66c3" stroke-width="0.5"/><path d="M231.03165,177.99784c-0.18147,0.05988 -0.26087,-0.02169 -0.26087,-0.02169l-0.14537,-0.14935c-0.08391,-0.0862 0.05179,-0.29827 -0.15645,-0.28568c-0.33856,0.02048 -0.30958,0.3382 -0.50676,0.49854c0,0 -0.11475,0.09332 -0.2762,0.05418c-0.16145,-0.03914 -0.0467,-0.13246 -0.0467,-0.13246c0.57973,-0.47142 0.82613,-0.79154 1.34905,-0.25434l0.14539,0.14935c0,0 0.0794,0.08157 -0.10207,0.14145z" data-paper-data="{&quot;index&quot;:null}" fill="#7b66c3" stroke="#7b66c3" stroke-width="0.5"/><path d="M213.30915,173.51819c0.16021,0.04014 0.04372,0.13303 0.04372,0.13303l-0.39215,0.14589c-0.63415,-0.16775 -0.51785,-0.39172 -0.30574,-0.7626c0,0 0.05781,-0.1009 0.24726,-0.09328c0.18945,0.00762 0.13164,0.10853 0.13164,0.10853c-0.13703,0.23871 -0.29347,0.40608 0.00379,0.51735c0.02428,-0.01712 0.1311,-0.08409 0.27148,-0.04891zM213.19163,173.61082l-0.08601,-0.02155c0.02608,0.00747 0.05469,0.01465 0.08601,0.02155z" data-paper-data="{&quot;index&quot;:null}" fill="#7b66c3" stroke="#7b66c3" stroke-width="0.5"/><path d="M216.70646,166.46932c0.17592,0.02571 0.08487,0.12357 0.08487,0.12357l-0.06649,0.07147c-0.1507,0.07752 -0.10389,0.07865 0.04926,0.06842l0.01212,-0.05172l0.38968,-0.0203c0.03309,-0.00205 0.06578,0.00012 0.09482,0.00716c0.08917,0.02161 0.11007,0.08092 0.0467,0.13246c-0.02058,0.01673 -0.04751,0.03058 -0.07754,0.04093l-0.3311,0.11799c-0.37808,0.22738 -0.68346,0.37205 -0.76082,0.65172c0,0 -0.03043,0.10097 -0.22616,0.10769c-0.19573,0.00673 -0.16529,-0.09424 -0.16529,-0.09424c0.09389,-0.29209 0.36099,-0.46873 0.72742,-0.68544c-0.21895,0.02176 -0.24809,-0.0938 -0.11091,-0.32608l0.06649,-0.07147c0,0 0.09105,-0.09787 0.26696,-0.07217z" data-paper-data="{&quot;index&quot;:null}" fill="#7b66c3" stroke="#7b66c3" stroke-width="0.5"/><path d="M221.18379,163.88326c0.02224,-0.02314 0.04616,-0.04568 0.07247,-0.06731c0,0 0.11475,-0.09331 0.2762,-0.05418c0.16145,0.03914 0.0467,0.13246 0.0467,0.13246c-0.4257,0.34178 -0.29512,0.54244 -1.09711,0.7321l-0.05086,-0.01075l-0.00775,0.01053l-0.3638,-0.03174c-0.01576,-0.00118 -0.03101,-0.00347 -0.04537,-0.00695c-0.08917,-0.02161 -0.11007,-0.08092 -0.0467,-0.13245c0.02838,-0.02308 0.06885,-0.04069 0.1129,-0.05116l0.368,-0.08876c0.18355,-0.07476 0.34608,-0.15519 0.50919,-0.27423l0.19233,-0.13804c0,0 0.01227,-0.00881 0.0338,-0.01953z" data-paper-data="{&quot;index&quot;:null}" fill="#7b66c3" stroke="#7b66c3" stroke-width="0.5"/><path d="M230.18276,159.80222c0.15665,0.0429 0.03542,0.13454 0.03542,0.13454l-0.01423,0.01077c-1.74506,1.27525 -1.47859,-0.29466 -1.80053,-0.57726c-0.06328,-0.05554 -2.10383,-0.1461 -2.44621,-0.2291c0,0 -0.16145,-0.03914 -0.0467,-0.13245c0.11475,-0.09332 0.2762,-0.05418 0.2762,-0.05418c0.52308,0.1268 2.30725,0.10674 2.55818,0.27743c0.20741,0.14108 -0.19774,1.69376 1.14576,0.62975l0.01423,-0.01077c0,0 0.12123,-0.09164 0.27788,-0.04875z" data-paper-data="{&quot;index&quot;:null}" fill="#7b66c3" stroke="#7b66c3" stroke-width="0.5"/><path d="M232.46186,163.73582c-0.10031,0.09635 -0.27111,0.06546 -0.27111,0.06546l-0.25232,-0.04673c-0.11428,-0.01091 -0.22686,-0.024 -0.33816,-0.03861l-0.00268,0.00535l-0.37852,-0.00767c-0.02391,-0.00019 -0.04715,-0.00273 -0.06842,-0.00788c-0.08917,-0.02161 -0.11007,-0.08092 -0.0467,-0.13246c0.02727,-0.02218 0.0657,-0.0393 0.10775,-0.0499l0.37884,-0.09725l0.00552,0.00885l0.04997,-0.01898c0.42809,0.01057 0.68198,0.04314 1.11774,-0.04555c0,0 0.19531,-0.03831 0.22832,0.05535c0.03303,0.09366 -0.16229,0.13196 -0.16229,0.13196c-0.15419,0.02934 -0.28601,0.04771 -0.40917,0.05841c0.04386,0.01415 0.11414,0.0496 0.04124,0.11962z" data-paper-data="{&quot;index&quot;:null}" fill="#7b66c3" stroke="#7b66c3" stroke-width="0.5"/><path d="M245.77443,160.06893l0.16146,0.03914c0.1064,0.0258 0.20055,0.04923 0.28673,0.07253c0.02238,0.0024 0.03617,0.00575 0.03617,0.00575c0.10764,0.02609 0.53816,0.13046 0.6458,0.15655c0.08917,0.02161 0.11007,0.08092 0.0467,0.13246c-0.06337,0.05153 -0.18704,0.07579 -0.2762,0.05418l-0.32291,-0.07827c-0.04365,-0.01058 -0.08731,-0.02117 -0.13097,-0.03175c-0.17242,-0.01979 -0.31529,-0.07643 -0.51484,-0.1248l-0.16145,-0.03914c0,0 -0.16146,-0.03914 -0.0467,-0.13246c0.11475,-0.09332 0.27621,-0.05418 0.27621,-0.05418z" data-paper-data="{&quot;index&quot;:null}" fill="#7b66c3" stroke="#7b66c3" stroke-width="0.5"/><path d="M238.6973,155.60849c0.05294,-0.10106 0.24381,-0.09603 0.24381,-0.09603l0.38252,0.03548c0.57002,0.3708 1.34406,0.53268 1.1706,1.12755c0,0 -0.03044,0.10097 -0.22616,0.10769c-0.19573,0.00673 -0.16529,-0.09424 -0.16529,-0.09424c0.16201,-0.51785 -0.60861,-0.67217 -1.11031,-0.99558l-0.15724,0.02124c0,0 -0.19087,-0.00504 -0.13793,-0.10611z" data-paper-data="{&quot;index&quot;:null}" fill="#7b66c3" stroke="#7b66c3" stroke-width="0.5"/><path d="M235.02345,155.39806c-0.18815,-0.00982 -0.12621,-0.11053 -0.12621,-0.11053l0.09219,-0.0443c-0.36299,-0.28287 -1.19121,-0.23382 -1.87649,-0.09612c0,0 -0.19531,0.03831 -0.22832,-0.05535c-0.03303,-0.09366 0.16229,-0.13196 0.16229,-0.13196c0.87214,-0.16759 1.80892,-0.20021 2.28541,0.14617l-0.05878,0.2012c0,0 -0.06193,0.1007 -0.25008,0.09089z" data-paper-data="{&quot;index&quot;:null}" fill="#7b66c3" stroke="#7b66c3" stroke-width="0.5"/><path d="M244.06218,156.19858l0.05412,-0.14796c-0.18315,-0.25618 -0.34579,-0.3818 -0.72585,-0.56062c0,0 -0.1288,-0.0606 0.02169,-0.14164c0.15048,-0.08103 0.27929,-0.02043 0.27929,-0.02043c0.40845,0.19218 0.60424,0.3434 0.80108,0.61873l-0.03714,0.23204c0,0 -0.02418,0.1007 -0.22078,0.11064c-0.19659,0.00994 -0.17241,-0.09076 -0.17241,-0.09076z" data-paper-data="{&quot;index&quot;:null}" fill="#7b66c3" stroke="#7b66c3" stroke-width="0.5"/><path d="M240.47711,161.50587c0.18344,-0.05778 0.25818,0.02529 0.25818,0.02529l0.00046,0.0005c0.22677,0.26057 0.02731,0.49915 0.13015,0.77455c0,0 0.03303,0.09366 -0.16229,0.13196c-0.19531,0.03831 -0.22832,-0.05535 -0.22832,-0.05535c-0.08766,-0.26145 0.11161,-0.50296 -0.1064,-0.7356l-0.00046,-0.0005c0,0 -0.07475,-0.08308 0.10868,-0.14085z" data-paper-data="{&quot;index&quot;:null}" fill="#7b66c3" stroke="#7b66c3" stroke-width="0.5"/><path d="M240.4502,159.10891c-0.06685,0.10042 -0.2533,0.08796 -0.2533,0.08796l-0.18387,-0.0123c-0.55174,-0.03688 -1.2171,-0.13165 -1.78977,-0.01259c0,0 -0.19531,0.03831 -0.22832,-0.05535c-0.03303,-0.09366 0.16229,-0.13196 0.16229,-0.13196c0.67473,-0.12639 1.34717,-0.04386 1.98952,-0.00093l0.18387,0.01229c0,0 0.18646,0.01246 0.1196,0.11288z" data-paper-data="{&quot;index&quot;:null}" fill="#7b66c3" stroke="#7b66c3" stroke-width="0.5"/><path d="M249.20461,158.28639c-0.17195,0.06824 -0.27028,-0.00646 -0.27028,-0.00646l-0.07119,-0.05409c-0.2671,-0.2036 -0.62172,-0.52234 -1.17229,-0.4912c0,0 -0.19573,0.00673 -0.1653,-0.09424c0.03044,-0.10097 0.22616,-0.10769 0.22616,-0.10769c0.71881,-0.01361 1.10062,0.28796 1.45532,0.55664l0.07119,0.05409c0,0 0.09832,0.07471 -0.07362,0.14296z" data-paper-data="{&quot;index&quot;:null}" fill="#7b66c3" stroke="#7b66c3" stroke-width="0.5"/><path d="M250.18219,163.30295c0.1337,-0.08781 0.27984,-0.03751 0.27984,-0.03751l0.22059,0.13238c-0.0593,0.24239 -0.04122,0.54255 -0.21333,0.79427l0.01386,-0.00163l0.03655,-0.03849c0.62528,-0.01822 0.81517,0.0154 1.11761,0.25818c0,0 0.09308,0.07673 -0.08176,0.1427c-0.17484,0.06596 -0.26793,-0.01078 -0.26793,-0.01078c-0.17535,-0.14942 -0.27294,-0.20209 -0.62925,-0.21281l-0.22356,0.13445c-0.06699,0.04152 -0.17553,0.05936 -0.25598,0.03986c-0.05436,-0.01318 -0.08335,-0.04036 -0.08334,-0.07125l-0.00459,-0.19569l0.05567,-0.00655c-0.02056,-0.26223 0.07295,-0.52663 0.14296,-0.81284l-0.09491,0.02381c0,0 -0.14615,-0.0503 -0.01245,-0.1381z" data-paper-data="{&quot;index&quot;:null}" fill="#7b66c3" stroke="#7b66c3" stroke-width="0.5"/><path d="M242.58609,163.4301c0.19699,-0.01167 0.17618,0.08885 0.17618,0.08885l-0.00549,0.02656c-0.08842,0.22609 0.32091,0.30164 0.68413,0.14321c0,0 0.17484,-0.06595 0.26793,0.01078c0.09308,0.07673 -0.08176,0.1427 -0.08176,0.1427c-0.7031,0.24212 -1.30208,0.11981 -1.26427,-0.27334l0.00549,-0.02656c0,0 0.02079,-0.10051 0.21778,-0.11218z" data-paper-data="{&quot;index&quot;:null}" fill="#7b66c3" stroke="#7b66c3" stroke-width="0.5"/><path d="M251.60007,159.4219c0.08917,0.02161 0.11007,0.08092 0.0467,0.13246c-0.06337,0.05153 -0.18704,0.07579 -0.27621,0.05418c-0.08917,-0.02161 -0.11007,-0.08092 -0.0467,-0.13246c0.06337,-0.05153 0.18704,-0.07579 0.27621,-0.05418z" data-paper-data="{&quot;index&quot;:null}" fill="#7b66c3" stroke="#7b66c3" stroke-width="0.5"/><path d="M249.9554,167.05626l-0.18587,0.0885c-0.10661,0.05077 -0.21323,0.10154 -0.31984,0.1523c0,0 -0.15992,0.07615 -0.27679,0.00951c-0.11687,-0.06664 0.04305,-0.14279 0.04305,-0.14279c0.10661,-0.05077 0.3991,-0.19004 0.50572,-0.24081c0,0 0.15992,-0.07615 0.27679,-0.00951c0.11687,0.06664 -0.04305,0.14279 -0.04305,0.14279z" data-paper-data="{&quot;index&quot;:null}" fill="#7b66c3" stroke="#7b66c3" stroke-width="0.5"/><path d="M242.9025,169.26711c-0.02628,-0.09492 0.17005,-0.12998 0.17005,-0.12998l0.24435,-0.04363c0.42513,-0.07525 0.69771,-0.06267 1.06987,-0.20906c0,0 0.17484,-0.06595 0.26793,0.01078c0.09308,0.07673 -0.08176,0.14269 -0.08176,0.14269c-0.45137,0.16497 -0.71729,0.15775 -1.20348,0.24543l-0.24435,0.04363c0,0 -0.19632,0.03507 -0.2226,-0.05986z" data-paper-data="{&quot;index&quot;:null}" fill="#7b66c3" stroke="#7b66c3" stroke-width="0.5"/><path d="M238.10514,169.9036l0.04313,-0.0158c0.60901,-0.21788 1.24392,-0.557 1.11796,0.05687c0,0 -0.03043,0.10097 -0.22616,0.10769c-0.19573,0.00673 -0.1653,-0.09424 -0.1653,-0.09424c0.17544,-0.38344 -0.19246,-0.04669 -0.5464,0.08541l-0.04313,0.0158c0,0 -0.17643,0.06462 -0.26648,-0.01324c-0.09006,-0.07787 0.08637,-0.14249 0.08637,-0.14249z" data-paper-data="{&quot;index&quot;:null}" fill="#7b66c3" stroke="#7b66c3" stroke-width="0.5"/><path d="M242.27134,171.66471l-0.04991,-0.12714c-0.19632,-0.16872 -0.42383,-0.1983 -0.77189,-0.28267c0,0 -0.16145,-0.03914 -0.0467,-0.13245c0.11475,-0.09332 0.27621,-0.05418 0.27621,-0.05418c0.40078,0.09715 0.65215,0.14596 0.89206,0.33739l0.08743,0.174c0,0 0.04187,0.09182 -0.15173,0.13435c-0.1936,0.04253 -0.23547,-0.04929 -0.23547,-0.04929z" data-paper-data="{&quot;index&quot;:null}" fill="#7b66c3" stroke="#7b66c3" stroke-width="0.5"/><path d="M248.23907,174.14239l0.05497,0.02112c0.03587,-0.01353 0.07173,-0.02706 0.1076,-0.04059l-0.0385,0.06715l0.22467,0.08633c-0.11657,0.04397 -0.23313,0.08795 -0.34969,0.13192c0,0 -0.17484,0.06595 -0.26793,-0.01078c-0.09308,-0.07673 0.08176,-0.1427 0.08176,-0.1427c0.00319,-0.0012 0.00638,-0.0024 0.00957,-0.00361c0.00744,-0.08089 0.17754,-0.10884 0.17754,-0.10884z" data-paper-data="{&quot;index&quot;:null}" fill="#7b66c3" stroke="#7b66c3" stroke-width="0.5"/><path d="M247.95031,172.10399c0.08917,0.02161 0.11008,0.08092 0.0467,0.13246c-0.06337,0.05153 -0.18704,0.07579 -0.27621,0.05418c-0.08917,-0.02161 -0.11007,-0.08092 -0.0467,-0.13245c0.06337,-0.05153 0.18704,-0.07579 0.2762,-0.05418z" data-paper-data="{&quot;index&quot;:null}" fill="#7b66c3" stroke="#7b66c3" stroke-width="0.5"/><path d="M240.85568,174.44192l-0.07721,0.02634c-0.26658,0.08795 -0.57628,0.14408 -0.86456,0.15671c0,0 -0.19573,0.00673 -0.1653,-0.09424c0.03044,-0.10097 0.22616,-0.10769 0.22616,-0.10769c0.21136,-0.00458 0.44535,-0.04699 0.63823,-0.11568l0.07722,-0.02634c0,0 0.17998,-0.06137 0.26271,0.01908c0.08273,0.08045 -0.09724,0.14183 -0.09724,0.14183z" data-paper-data="{&quot;index&quot;:null}" fill="#7b66c3" stroke="#7b66c3" stroke-width="0.5"/><path d="M252.89964,176.93778l0.03657,0.00828c0.33295,0.076 0.83311,-0.02258 1.20922,-0.13691c0,0 0.18504,-0.05594 0.25572,0.02839c0.07068,0.08433 -0.11436,0.14026 -0.11436,0.14026c-0.73281,0.22012 -0.85851,0.31729 -1.57311,0.15652l-0.03656,-0.00828c0,0 -0.16387,-0.03712 -0.05262,-0.13126c0.11126,-0.09414 0.27513,-0.057 0.27513,-0.057z" data-paper-data="{&quot;index&quot;:null}" fill="#7b66c3" stroke="#7b66c3" stroke-width="0.5"/><path d="M248.15269,175.84119l-0.04128,0.01558c-0.11657,0.04397 -0.23312,0.08795 -0.34969,0.13192c0,0 -0.17484,0.06595 -0.26793,-0.01078c-0.09308,-0.07673 0.08176,-0.14269 0.08176,-0.14269c0.11657,-0.04397 0.2744,-0.10351 0.39096,-0.14749c0,0 0.17484,-0.06596 0.26793,0.01077c0.09308,0.07673 -0.08176,0.1427 -0.08176,0.1427z" data-paper-data="{&quot;index&quot;:null}" fill="#7b66c3" stroke="#7b66c3" stroke-width="0.5"/><path d="M255.0015,174.90382c0.15267,0.04583 0.02648,0.13604 0.02648,0.13604l-0.11384,0.08139c-0.19218,0.1063 -0.61184,0.1321 -0.76608,0.0471c0,0 -0.09308,-0.07673 0.08176,-0.14269c0.17484,-0.06596 0.26793,0.01077 0.26793,0.01077c0.0047,0.01787 0.09906,0.01207 0.11105,-0.00683l0.11385,-0.08138c0,0 0.1262,-0.09022 0.27887,-0.0444z" data-paper-data="{&quot;index&quot;:null}" fill="#7b66c3" stroke="#7b66c3" stroke-width="0.5"/><path d="M258.04351,177.70092c0.11377,-0.09355 0.27592,-0.05497 0.27592,-0.05497l0.20542,0.04889c0.55449,0.12425 0.95587,0.21062 1.38474,-0.14795c0,0 0.11475,-0.09331 0.2762,-0.05418c0.16145,0.03914 0.0467,0.13246 0.0467,0.13246c-0.58899,0.46862 -1.1881,0.4219 -1.92829,0.25836l-0.2123,-0.05048c0,0 -0.16215,-0.03857 -0.04837,-0.13212z" data-paper-data="{&quot;index&quot;:null}" fill="#7b66c3" stroke="#7b66c3" stroke-width="0.5"/><path d="M253.81887,178.01474l0.2202,0.00886c0.54428,0.02367 0.94298,0.14577 1.40456,0.25766c0,0 0.16145,0.03914 0.0467,0.13246c-0.11475,0.09332 -0.27621,0.05418 -0.27621,0.05418c-0.42177,-0.10225 -0.79239,-0.22435 -1.29067,-0.24249l-0.2202,-0.00885c0,0 -0.18945,-0.00763 -0.13165,-0.10852c0.05781,-0.1009 0.24726,-0.09328 0.24726,-0.09328z" data-paper-data="{&quot;index&quot;:null}" fill="#7b66c3" stroke="#7b66c3" stroke-width="0.5"/><path d="M77.57057,302.94499c0,-47.64618 35.59009,-86.27105 79.49269,-86.27105c43.9026,0 79.49269,38.62487 79.49269,86.27105c0,47.64618 -35.59009,86.27104 -79.49269,86.27104c-43.9026,0 -79.49269,-38.62486 -79.49269,-86.27104z" fill="#7b66c3" stroke="#7b66c3" stroke-width="0"/><path d="M204.26363,303.27412c0,-57.56099 53.4275,-104.2234 119.33366,-104.2234c65.90616,0 119.33366,46.6624 119.33366,104.2234c0,57.56099 -53.4275,104.2234 -119.33366,104.2234c-65.90616,0 -119.33366,-46.66241 -119.33366,-104.2234z" fill="#7b66c3" stroke="#7b66c3" stroke-width="0"/><path d="M252.1379,115.20203c-2.24535,-1.16551 -4.14301,-1.53749 -6.3258,-1.62916c-0.54646,0.01135 -1.55222,0.3873 -2.00586,-0.06861c-0.88702,-0.89144 -0.94057,-3.28573 -1.05718,-4.42314c-0.02836,-0.27663 -0.02919,-1.78417 0.24185,-1.94574c0.17374,-0.10358 0.15015,-0.2649 0.62193,0.06632c0.74623,0.52391 1.22602,1.73422 1.95714,2.27301c0.70073,0.5164 1.54784,0.82156 1.67412,0.76542c0.82485,-0.36669 1.49696,-1.63708 2.16498,-2.2289c1.55535,-1.00117 2.25774,1.31027 2.39501,2.46128c0.03012,0.25256 -0.06921,0.96833 0.21776,1.12159c0.59538,0.31798 1.7852,-0.24395 2.34669,-0.48692c0.48467,-0.13906 0.81933,-0.34768 1.59819,-0.61791c1.34027,-0.46501 1.0196,1.10862 0.83267,1.81066c-0.31238,1.1732 -1.66336,2.45844 -2.68838,3.14746c-0.87859,0.65647 -0.96818,0.27628 -1.9731,-0.24536z" data-paper-data="{&quot;index&quot;:null}" fill="#7b66c3" stroke="#7b66c3" stroke-width="4"/><path d="M252.1379,115.20203c-2.24535,-1.16551 -4.143,-1.53749 -6.3258,-1.62916c-0.54647,0.01135 -1.55222,0.3873 -2.00586,-0.06861c-0.88702,-0.89145 -0.94057,-3.28574 -1.05718,-4.42315c-0.02836,-0.27663 -0.02919,-1.78416 0.24185,-1.94574c0.17374,-0.10357 0.15015,-0.2649 0.62193,0.06632c0.74622,0.52391 1.22603,1.73422 1.95714,2.27301c0.70073,0.5164 1.54784,0.82156 1.67412,0.76542c0.82486,-0.36669 1.49696,-1.63708 2.16498,-2.2289c1.55535,-1.00117 2.25773,1.31028 2.39501,2.46128c0.03012,0.25256 -0.06921,0.96833 0.21776,1.12159c0.59538,0.31798 1.7852,-0.24395 2.34669,-0.48692c0.48467,-0.13906 0.81933,-0.34768 1.59819,-0.61791c1.34027,-0.46501 1.01961,1.10863 0.83268,1.81066c-0.31239,1.1732 -1.66336,2.45844 -2.68839,3.14746c-0.87859,0.65647 -0.96818,0.27628 -1.9731,-0.24536z" data-paper-data="{&quot;index&quot;:null}" fill="#7b66c3" stroke="#7b66c3" stroke-width="0.5"/><path d="M261.30048,137.90487c-1.99795,0.03085 -3.90087,3.19898 -5.32972,0.5694c-0.88168,-1.62257 -0.56313,-0.55204 -1.41512,-3.94643c-0.52878,-2.10665 -7.33604,-4.18442 0.1507,-5.0007c7.48675,-0.81627 13.32532,-4.49416 15.96405,-4.30691c2.63874,0.18724 4.19355,0.10691 5.32386,0.82076c1.55601,0.75433 5.05016,3.69323 3.73669,5.5973c-0.57374,0.32599 -0.58948,0.35048 -1.11498,0.30475c0.47606,0.35596 0.48193,0.86996 0.43996,1.24658c-0.28399,2.54883 -2.34694,1.56136 -3.69987,0.90898c-0.63064,-0.30732 -1.4844,-0.93816 -2.57775,-0.41725c-1.09333,0.52091 -1.47556,2.26582 -1.75358,2.55127c-1.65407,0.53604 -2.42878,-1.51238 -3.15263,-3.07427c-0.27157,-0.58599 -6.57158,4.74653 -6.57158,4.74653z" data-paper-data="{&quot;index&quot;:null}" fill="#7b66c3" stroke="#7b66c3" stroke-width="4"/><path d="M260.4382,134.77484c0.58313,5.12175 0.8319,7.03257 0.22618,11.49693c-0.60572,4.46435 -1.90251,6.69473 -2.85496,7.87789c-2.12492,2.63963 -11.48299,4.46925 -18.13197,3.5319c-3.58565,-0.50548 -6.621,-1.45622 -7.56082,-4.60757c-0.93982,-3.15136 -1.70433,-15.76231 -0.82213,-23.50175c0.13978,-6.56806 2.46045,-12.95494 9.96068,-15.26084c0.54649,-0.16802 1.87814,-0.38294 3.0992,-0.4507c12.89493,-0.7156 15.36724,14.62052 16.08382,20.91415z" fill="#7b66c3" stroke="#7b66c3" stroke-width="4"/><path d="M261.30048,137.90487c-1.99795,0.03085 -3.90087,3.19898 -5.32972,0.5694c-0.88168,-1.62257 -0.56313,-0.55204 -1.41512,-3.94643c-0.52878,-2.10665 -7.33604,-4.18442 0.1507,-5.0007c7.48675,-0.81627 13.32532,-4.49416 15.96405,-4.30691c2.63874,0.18724 4.19355,0.10691 5.32386,0.82076c1.55601,0.75433 5.05016,3.69323 3.73669,5.5973c-0.57374,0.32599 -0.58948,0.35048 -1.11498,0.30475c0.47606,0.35596 0.48193,0.86996 0.43996,1.24658c-0.28399,2.54883 -2.34694,1.56136 -3.69987,0.90898c-0.63064,-0.30732 -1.4844,-0.93816 -2.57775,-0.41725c-1.09333,0.52091 -1.47556,2.26582 -1.75358,2.55127c-1.65407,0.53604 -2.42878,-1.51238 -3.15263,-3.07427c-0.27157,-0.58599 -6.57158,4.74653 -6.57158,4.74653z" data-paper-data="{&quot;index&quot;:null}" fill="#7b66c3" stroke="#7b66c3" stroke-width="0.5"/><path d="M244.35439,113.8607c13.63205,-0.64093 15.36725,14.62052 16.08383,20.91414c0.58313,5.12175 0.8319,7.03257 0.22618,11.49693c-0.60572,4.46435 -1.90251,6.69473 -2.85496,7.87789c-2.12492,2.63963 -11.48299,4.46925 -18.13197,3.5319c-3.58565,-0.50548 -6.621,-1.45622 -7.56082,-4.60757c-0.93982,-3.15136 -1.70433,-15.76231 -0.82213,-23.50175c0.13978,-6.56806 2.46045,-12.95494 9.96068,-15.26084c0.91845,-0.28237 2.04873,-0.35612 3.0992,-0.4507z" fill="#7b66c3" stroke="#7b66c3" stroke-width="0.5"/><path d="M246.24178,122.06388c0.77903,0.27173 3.21406,1.2202 4.65707,3.17242c1.37887,1.86543 1.78692,4.7205 1.71573,5.69882c-0.39842,5.47459 -8.01944,8.60172 -12.70119,7.76653c-1.39067,-0.5623 -2.82738,-1.02108 -3.93454,-2.08759c-2.92245,-2.81516 -4.23934,-8.41076 -1.16463,-11.57982c2.15197,-2.21801 9.42654,-3.66829 11.42755,-2.97036z" data-paper-data="{&quot;index&quot;:null}" fill="#6276d1" stroke="#7b66c3" stroke-width="0.5"/><path d="M246.24178,122.06389c0.3936,0.13728 -3.41779,1.71251 -4.69363,7.42773c-2.10665,9.43695 0.68158,9.62326 -1.63476,9.21005c-1.39067,-0.5623 -2.82738,-1.02108 -3.93454,-2.08759c-2.92245,-2.81516 -4.23934,-8.41076 -1.16463,-11.57982c2.15197,-2.21801 9.42654,-3.66829 11.42755,-2.97036z" data-paper-data="{&quot;index&quot;:null}" fill="#6d5aad" stroke="#7b66c3" stroke-width="0"/><path d="M248.52929,139.24988c-0.37632,-0.52489 -5.5686,5.89119 -5.5686,5.89119c-0.9544,0.19689 -1.97565,2.44021 -4.22528,3.3531c-2.36322,0.95899 -5.94444,0.56443 -6.3531,-0.31745c-0.9132,-1.97068 -4.66768,-7.83197 2.53455,-10.03322c7.20223,-2.20124 12.25049,-6.90558 14.8777,-7.21485c2.62722,-0.30928 4.13961,-0.6788 5.38343,-0.18879c1.66957,0.45021 5.65146,2.68423 4.71703,4.80024c-0.50271,0.42748 -0.51359,0.45446 -1.03838,0.50778c0.5342,0.2607 0.63605,0.76454 0.66521,1.14237c0.19741,2.55699 -2.01375,1.97251 -3.46477,1.5845c-0.67697,-0.18404 -1.63362,-0.64418 -2.61033,0.07191c-0.97671,0.71609 -1.02605,2.50169 -1.24582,2.83406c-1.52472,0.83576 -2.66865,-1.03175 -3.67168,-2.43084z" data-paper-data="{&quot;index&quot;:null}" fill="#7b66c3" stroke="#7b66c3" stroke-width="4"/><path d="M248.52929,139.24988c-0.37632,-0.52489 -6.01143,6.33401 -6.01143,6.33401c-1.06356,0.21942 -2.04562,2.30666 -4.37198,3.05053c-1.95422,0.62487 -5.09183,0.32769 -5.76359,-1.12194c-0.9132,-1.97068 -4.66768,-7.16773 2.53455,-9.36898c7.20223,-2.20124 12.25049,-6.90558 14.8777,-7.21485c2.62722,-0.30928 4.13961,-0.6788 5.38343,-0.18879c1.66957,0.45021 5.65146,2.68423 4.71703,4.80024c-0.50271,0.42748 -0.51359,0.45446 -1.03838,0.50778c0.5342,0.2607 0.63605,0.76454 0.66521,1.14237c0.19741,2.55699 -2.01375,1.97251 -3.46477,1.5845c-0.67697,-0.18404 -1.63362,-0.64418 -2.61033,0.07191c-0.97671,0.71609 -1.02605,2.50169 -1.24582,2.83406c-1.52472,0.83576 -2.66865,-1.03175 -3.67168,-2.43084z" data-paper-data="{&quot;index&quot;:null}" fill="#7b66c3" stroke="#7b66c3" stroke-width="0.5"/><path d="M253.98934,124.42884c0,-0.09171 0.07435,-0.16606 0.16606,-0.16606c0.09171,0 0.16606,0.07435 0.16606,0.16606c0,0.09171 -0.07435,0.16606 -0.16606,0.16606c-0.09171,0 -0.16606,-0.07435 -0.16606,-0.16606z" fill="#7b66c3" stroke="#7b66c3" stroke-width="0.5"/><path d="M245.77923,120.09507c-0.25661,-0.01946 -0.62442,-0.04767 -0.63967,-0.03243c-0.12939,0.12939 0.04864,0.36383 0.04864,0.54682c0,0 0,0.16606 -0.16606,0.16606c-0.16606,0 -0.16606,-0.16606 -0.16606,-0.16606c0,-0.96086 0.3139,-0.8303 1.16242,-0.8303l-0.08303,0.16606l0.08303,0.16606c-0.01884,0 -0.07956,-0.00423 -0.1609,-0.01031l-0.00515,0.01031c0,0 -0.03522,0 -0.07321,-0.01621z" fill="#7b66c3" stroke="#7b66c3" stroke-width="0.5"/><path d="M254.2978,120.35798c0.08543,0.1424 -0.05696,0.22783 -0.05696,0.22783l-0.26072,0.15643c-0.93776,0.56266 -0.82108,0.04192 -0.82108,-0.797c0,0 0,-0.16606 0.16606,-0.16606c0.16606,0 0.16606,0.16606 0.16606,0.16606c0,0.28534 -0.33254,0.71127 -0.08424,0.85185c0.15273,0.08647 0.25183,-0.24934 0.40232,-0.33964l0.26071,-0.15643c0,0 0.14239,-0.08543 0.22783,0.05696z" fill="#7b66c3" stroke="#7b66c3" stroke-width="0.5"/><path d="M235.89067,120.60946c-0.1455,0.00157 -0.16488,-0.12573 -0.16745,-0.15726c-0.34395,0.05375 -0.38307,0.33518 -0.5071,0.70796c0,0 -0.05251,0.15754 -0.21005,0.10502c-0.15754,-0.05251 -0.10502,-0.21005 -0.10502,-0.21005c0.19331,-0.57892 0.31941,-0.92461 0.98532,-0.94383l0.16856,0.33032c0,0 0.00179,0.16605 -0.16427,0.16784zM235.79867,120.44438l0.08915,-0.00096c-0.03154,-0.00094 -0.0612,-0.0006 -0.08915,0.00096z" fill="#7b66c3" stroke="#7b66c3" stroke-width="0.5"/><path d="M231.71417,131.4017c-0.16443,-0.02322 -0.1412,-0.18765 -0.1412,-0.18765l0.01696,-0.12007c0.11764,-0.36403 0.25332,-0.51275 0.4056,-0.41016c-0.07918,-0.41885 -0.1187,-0.74976 0.09152,-1.1814c0,0 0.07427,-0.14853 0.2228,-0.07426c0.14852,0.07427 0.07426,0.22279 0.07426,0.22279c-0.21121,0.40912 -0.1102,0.7089 -0.03219,1.14627l0.14738,0.27179c0.01372,0.02416 0.02155,0.05211 0.02155,0.08189c0,0.09171 -0.07435,0.16606 -0.16606,0.16606c-0.02987,0 -0.05789,-0.00789 -0.08211,-0.02169l-0.28898,-0.15733l0.04079,-0.07493c-0.11138,-0.06491 -0.14957,-0.07893 -0.1057,0.07743l-0.01696,0.12007c0,0 -0.02322,0.16443 -0.18765,0.1412z" fill="#7b66c3" stroke="#7b66c3" stroke-width="0.5"/><path d="M232.74191,136.43478c-0.00661,-0.02185 -0.00775,-0.038 -0.00775,-0.038l-0.01789,-0.25315c-0.01324,-0.2174 -0.06366,-0.38166 -0.13625,-0.54515l-0.20509,-0.24399c-0.0247,-0.02899 -0.03961,-0.06658 -0.03961,-0.10765c0,-0.09171 0.07435,-0.16606 0.16606,-0.16606c0.01477,0 0.02909,0.00193 0.04272,0.00554l0.31918,0.07739l-0.00412,0.01702l0.05078,0.00218c0.45065,0.52651 0.15165,0.7582 0.15594,1.36822c0,0 0,0.16606 -0.16606,0.16606c-0.16606,0 -0.16606,-0.16606 -0.16606,-0.16606c0.00023,-0.0384 0.00323,-0.07724 0.00816,-0.11635z" fill="#7b66c3" stroke="#7b66c3" stroke-width="0.5"/><path d="M235.89564,145.02002c-0.16593,0.00676 -0.17268,-0.15916 -0.17268,-0.15916l-0.00079,-0.01949c-0.02775,-1.90512 -1.21963,0.35807 -1.52145,0.48256c-0.36513,0.1506 -1.75926,-0.46983 -2.29726,-0.46983c0,0 -0.16606,0 -0.16606,-0.16606c0,-0.16606 0.16606,-0.16606 0.16606,-0.16606c0.35215,0 2.05721,0.55397 2.16145,0.49886c0.53045,-0.28041 1.849,-2.52113 1.9891,-0.19298l0.00079,0.01949c0,0 0.00676,0.16593 -0.15916,0.17268z" fill="#7b66c3" stroke="#7b66c3" stroke-width="0.5"/><path d="M241.53427,140.38493c-0.01047,0.12023 -0.1007,0.14547 -0.14923,0.15029c0.08715,0.05561 0.1737,0.1246 0.26728,0.21606c0,0 0.11742,0.11742 0,0.23484c-0.11742,0.11742 -0.23485,0 -0.23485,0c-0.25885,-0.26639 -0.49175,-0.30613 -0.84124,-0.43389l-0.02111,-0.04262l-0.01299,0.0103l-0.20541,-0.25923c-0.023,-0.02849 -0.03676,-0.06474 -0.03676,-0.10421c0,-0.09171 0.07435,-0.16606 0.16606,-0.16606c0.02188,0 0.04277,0.00424 0.0619,0.01192l0.30738,0.11529l-0.00308,0.00823c0.10243,0.01696 0.20438,0.03643 0.30555,0.05946l0.24546,0.01979c0,0 0.16543,0.01441 0.15103,0.17984z" fill="#7b66c3" stroke="#7b66c3" stroke-width="0.5"/><path d="M248.34332,149.66984c0,-0.16606 0.16606,-0.16606 0.16606,-0.16606h0.16606c0.20525,0 0.37364,-0.03018 0.52953,0c0.0449,0 0.0898,0 0.13471,0h0.33212c0.09171,0 0.16606,0.07435 0.16606,0.16606c0,0.09171 -0.07435,0.16606 -0.16606,0.16606c-0.1107,0 -0.55354,0 -0.66424,0c0,0 -0.01418,0 -0.03425,-0.00414c-0.091,0.0033 -0.18842,0.00414 -0.29786,0.00414h-0.16606c0,0 -0.16606,0 -0.16606,-0.16606z" fill="#7b66c3" stroke="#7b66c3" stroke-width="0.5"/><path d="M238.55574,153.59872c0.05653,-0.15614 0.21267,-0.09961 0.21267,-0.09961l0.10389,0.08136c0.71264,-0.27662 1.47361,-0.2321 1.84982,-0.99584c0,0 0.07427,-0.14852 0.2228,-0.07426c0.14852,0.07427 0.07426,0.22279 0.07426,0.22279c-0.44219,0.87313 -1.21322,0.83782 -2.02617,1.15672l-0.33766,-0.07849c0,0 -0.15614,-0.05653 -0.09962,-0.21268z" fill="#7b66c3" stroke="#7b66c3" stroke-width="0.5"/><path d="M235.43976,152.66631c0.15865,0.04906 0.10959,0.20771 0.10959,0.20771l-0.14947,0.29536c-0.71505,0.3165 -1.42553,-0.03953 -1.95326,-0.55912c0,0 -0.11742,-0.11742 0,-0.23484c0.11742,-0.11742 0.23485,0 0.23485,0c0.4088,0.41651 1.01723,0.75899 1.58047,0.49184l-0.02988,-0.09137c0,0 0.04906,-0.15865 0.20771,-0.10959z" fill="#7b66c3" stroke="#7b66c3" stroke-width="0.5"/><path d="M243.60656,154.5055c0.14609,0.07896 0.06713,0.22504 0.06713,0.22504l-0.19668,0.33044c-0.42423,0.31202 -0.72671,0.45427 -1.23761,0.58199c0,0 -0.1611,0.04028 -0.20138,-0.12082c-0.04027,-0.1611 0.12082,-0.20138 0.12082,-0.20138c0.47537,-0.11885 0.72664,-0.23701 1.12138,-0.52733l0.10128,-0.22082c0,0 0.07896,-0.14609 0.22504,-0.06713z" fill="#7b66c3" stroke="#7b66c3" stroke-width="0.5"/><path d="M245.71226,146.10557c-0.08903,-0.14017 0.05113,-0.22921 0.05113,-0.22921l0.00085,-0.00054c0.39941,-0.24647 0.47685,-0.64378 0.80106,-0.97306c0,0 0.11742,-0.11742 0.23485,0c0.11742,0.11742 0,0.23484 0,0.23484c-0.34983,0.34335 -0.42426,0.73672 -0.85783,1.01856l-0.00085,0.00054c0,0 -0.14017,0.08904 -0.22921,-0.05113z" fill="#7b66c3" stroke="#7b66c3" stroke-width="0.5"/><path d="M243.35537,149.38259c-0.04488,0.15988 -0.20476,0.115 -0.20476,0.115l-0.15766,-0.04426c-0.5508,-0.15461 -1.16401,-0.26494 -1.57548,-0.66244c0,0 -0.11742,-0.11742 0,-0.23484c0.11742,-0.11742 0.23485,0 0.23485,0c0.33775,0.35353 0.95729,0.44472 1.43038,0.57752l0.15767,0.04426c0,0 0.15988,0.04488 0.115,0.20476z" fill="#7b66c3" stroke="#7b66c3" stroke-width="0.5"/><path d="M249.49038,153.41946c0.06974,0.15071 -0.08097,0.22045 -0.08097,0.22045l-0.10911,0.0505c-0.54283,0.25045 -1.13921,0.53699 -1.69549,0.27944c0,0 -0.14853,-0.07427 -0.07427,-0.22279c0.07427,-0.14852 0.2228,-0.07426 0.2228,-0.07426c0.4059,0.22565 0.99745,-0.09345 1.40747,-0.2838l0.10911,-0.0505c0,0 0.15071,-0.06974 0.22045,0.08096z" fill="#7b66c3" stroke="#7b66c3" stroke-width="0.5"/><path d="M255.15301,146.86719c-0.02039,-0.1648 0.14442,-0.18519 0.14442,-0.18519l0.052,0.06419c0.2234,-0.41563 0.40694,-0.80917 0.67874,-1.16182l-0.03772,-0.02748l0.19432,-0.26674c0.0301,-0.04235 0.07956,-0.06998 0.13546,-0.06998c0.08274,0 0.15136,0.06052 0.16398,0.13971l0.04613,0.25861c0.29275,0.10373 0.4214,0.06395 0.70592,-0.08262c0,0 0.14852,-0.07427 0.22279,0.07426c0.07427,0.14852 -0.07426,0.22279 -0.07426,0.22279c-0.47618,0.23231 -0.6594,0.21529 -1.13709,-0.01748l0.00855,-0.06492l-0.00939,-0.00684c-0.1089,0.40228 -0.4157,0.80777 -0.6049,1.15975l-0.30377,0.10818c0,0 -0.1648,0.02039 -0.18519,-0.14442z" fill="#7b66c3" stroke="#7b66c3" stroke-width="0.5"/><path d="M249.25822,144.1685c-0.1447,-0.08147 -0.06324,-0.22617 -0.06324,-0.22617l0.02153,-0.03823c0.35312,-0.55152 0.94688,-0.52014 1.26806,0.04543c0,0 0.07427,0.14853 -0.07426,0.22279c-0.14852,0.07427 -0.2228,-0.07426 -0.2228,-0.07426c-0.13343,-0.3379 -0.53136,-0.37036 -0.68159,-0.03103l-0.02153,0.03823c0,0 -0.08147,0.1447 -0.22617,0.06324z" fill="#7b66c3" stroke="#7b66c3" stroke-width="0.5"/><path d="M252.32875,152.49285c0,-0.09171 0.07435,-0.16606 0.16606,-0.16606c0.09171,0 0.16606,0.07435 0.16606,0.16606c0,0.09171 -0.07435,0.16606 -0.16606,0.16606c-0.09171,0 -0.16606,-0.07435 -0.16606,-0.16606z" fill="#7b66c3" stroke="#7b66c3" stroke-width="0.5"/><path d="M258.52545,141.85651c-0.15754,0.05251 -0.21005,-0.10503 -0.21005,-0.10503c-0.03501,-0.10503 -0.13105,-0.39315 -0.16606,-0.49818c0,0 -0.05251,-0.15754 0.10502,-0.21005c0.15754,-0.05251 0.21005,0.10503 0.21005,0.10503c0.03501,0.10503 0.07002,0.21005 0.10503,0.31507l0.06103,0.1831c0,0 0.05251,0.15754 -0.10502,0.21005z" fill="#7b66c3" stroke="#7b66c3" stroke-width="0.5"/><path d="M255.19642,136.27176c0.11331,-0.1214 0.2347,-0.00809 0.2347,-0.00809l0.15109,0.14103c0.29979,0.28178 0.51753,0.36024 0.71443,0.7364c0,0 0.07427,0.14853 -0.07426,0.22279c-0.14852,0.07427 -0.2228,-0.07426 -0.2228,-0.07426c-0.15224,-0.32435 -0.38047,-0.3977 -0.64399,-0.64214l-0.15109,-0.14102c0,0 -0.1214,-0.11331 -0.00809,-0.2347z" fill="#7b66c3" stroke="#7b66c3" stroke-width="0.5"/><path d="M252.08586,133.5809c0.14722,-0.07682 0.22404,0.07041 0.22404,0.07041l0.01878,0.036c0.15172,0.29871 0.1151,0.88263 0.34971,0.29867c0,0 0.07427,-0.14852 0.2228,-0.07426c0.14852,0.07427 0.07426,0.22279 0.07426,0.22279c-0.49834,0.8834 -0.67097,0.20751 -0.9412,-0.29357l-0.01878,-0.036c0,0 -0.07682,-0.14722 0.07041,-0.22404z" fill="#7b66c3" stroke="#7b66c3" stroke-width="0.5"/><path d="M257.26711,132.78588c0.11195,0.12264 -0.01069,0.2346 -0.01069,0.2346l-0.23881,0.20947c-0.37661,0.18269 -0.62334,0.16606 -1.03555,0.16606c0,0 -0.16606,0 -0.16606,-0.16606c0,-0.16606 0.16606,-0.16606 0.16606,-0.16606c0.35799,0 0.56709,0.03507 0.88703,-0.13099l0.16344,-0.15771c0,0 0.12264,-0.11195 0.2346,0.01069z" fill="#7b66c3" stroke="#7b66c3" stroke-width="0.5"/><path d="M264.1405,131.15359c-0.00136,-0.00271 -0.00271,-0.00542 -0.00407,-0.00813c0,0 -0.07426,-0.14852 0.07427,-0.22279c0.14853,-0.07427 0.22279,0.07426 0.22279,0.07426c0.04951,0.09902 0.09902,0.19804 0.14853,0.29705l-0.26214,0.04368l-0.03492,0.10484c-0.01524,-0.03047 -0.03047,-0.06094 -0.0457,-0.09141l-0.06414,0.01069c0,0 -0.10754,-0.09485 -0.03462,-0.20821z" fill="#7b66c3" stroke="#7b66c3" stroke-width="0.5"/><path d="M261.79413,133.89421c0,-0.09171 0.07435,-0.16606 0.16606,-0.16606c0.09171,0 0.16606,0.07435 0.16606,0.16606c0,0.09171 -0.07435,0.16606 -0.16606,0.16606c-0.09171,0 -0.16606,-0.07435 -0.16606,-0.16606z" fill="#7b66c3" stroke="#7b66c3" stroke-width="0.5"/><path d="M258.55574,128.72426c-0.14394,0.0828 -0.22674,-0.06115 -0.22674,-0.06115l-0.03552,-0.06175c-0.08589,-0.15827 -0.22996,-0.29418 -0.39297,-0.37069c0,0 -0.14853,-0.07426 -0.07427,-0.22279c0.07427,-0.14853 0.2228,-0.07426 0.2228,-0.07426c0.21612,0.11312 0.40681,0.293 0.53233,0.50215l0.03552,0.06176c0,0 0.0828,0.14394 -0.06114,0.22674z" fill="#7b66c3" stroke="#7b66c3" stroke-width="0.5"/><path d="M270.42921,128.90886c0.00357,-0.16602 0.16959,-0.16245 0.16959,-0.16245l0.03704,0.0008c0.72285,0.01708 0.72778,0.19204 1.09392,0.73735c0,0 0.09212,0.13817 -0.04605,0.23028c-0.13817,0.09212 -0.23028,-0.04606 -0.23028,-0.04606c-0.18661,-0.28172 -0.48686,-0.58307 -0.82472,-0.58953l-0.03703,-0.0008c0,0 -0.16603,-0.00357 -0.16245,-0.16959z" fill="#7b66c3" stroke="#7b66c3" stroke-width="0.5"/><path d="M265.68772,129.22701c-0.14853,0.07427 -0.22279,-0.07426 -0.22279,-0.07426c-0.04951,-0.09902 -0.11655,-0.2331 -0.16606,-0.33212c0,0 -0.07426,-0.14852 0.07427,-0.22279c0.14853,-0.07427 0.22279,0.07426 0.22279,0.07426c0.04951,0.09902 0.09902,0.19804 0.14853,0.29705l0.01753,0.03507c0,0 0.07427,0.14852 -0.07426,0.22279z" fill="#7b66c3" stroke="#7b66c3" stroke-width="0.5"/><path d="M270.27517,132.56528c-0.16561,0.01208 -0.1777,-0.15353 -0.1777,-0.15353l-0.0109,-0.14941c0.00891,-0.02989 -0.06021,-0.06921 -0.08134,-0.04626c0,0 -0.14853,0.07426 -0.22279,-0.07426c-0.07427,-0.14853 0.07427,-0.22279 0.07427,-0.22279c0.20503,-0.06527 0.51241,0.10956 0.5611,0.31915l0.0109,0.14941c0,0 0.01208,0.16562 -0.15354,0.1777z" fill="#7b66c3" stroke="#7b66c3" stroke-width="0.5"/><path d="M275.41094,129.74172c0.00101,-0.16605 0.16706,-0.16504 0.16706,-0.16504l0.2174,0.00136c0.74585,0.02178 1.26607,0.15683 1.27613,0.995c0,0 0,0.16606 -0.16606,0.16606c-0.16606,0 -0.16606,-0.16606 -0.16606,-0.16606c0.00958,-0.63409 -0.39262,-0.64905 -0.95302,-0.663l-0.2104,-0.00124c0,0 -0.16606,-0.00101 -0.16504,-0.16706z" fill="#7b66c3" stroke="#7b66c3" stroke-width="0.5"/><path d="M272.26432,127.6975c0.05251,-0.15754 0.21005,-0.10502 0.21005,-0.10502l0.1831,0.06104c0.41247,0.14071 0.8251,0.09651 1.25892,0.09651c0,0 0.16606,0 0.16606,0.16606c0,0.16606 -0.16606,0.16606 -0.16606,0.16606c-0.47476,0 -0.90963,0.03488 -1.36394,-0.11355l-0.1831,-0.06104c0,0 -0.15754,-0.05251 -0.10502,-0.21005z" fill="#7b66c3" stroke="#7b66c3" stroke-width="0.5"/></g></g></svg>