<svg version="1.1" xmlns="http://www.w3.org/2000/svg" xmlns:xlink="http://www.w3.org/1999/xlink" width="88.34685" height="88.34685" viewBox="0,0,88.34685,88.34685"><g transform="translate(-195.82659,-135.82659)"><g data-paper-data="{&quot;isPaintingLayer&quot;:true}" fill-rule="nonzero" stroke-width="0" stroke-linecap="butt" stroke-linejoin="miter" stroke-miterlimit="10" stroke-dasharray="" stroke-dashoffset="0" style="mix-blend-mode: normal"><path d="M195.8266,224.17344v-88.34685h88.34685v88.34685z" fill="none" stroke="#000000"/><path d="M258.13835,165.27919c0,0 -17.17009,-3.9551 -23.9866,0.88355c-10.0395,12.85191 -4.25839,24.86178 -1.91611,28.29403c5.74258,8.41487 22.19732,-2.89007 22.19732,-2.89007l11.96853,5.53522c0,0 -10.89866,13.06043 -23.45581,15.08333c-10.3467,1.6668 -22.30032,-6.56468 -26.02024,-14.81743c-8.23457,-18.26858 -3.66631,-31.90078 6.79726,-43.00045c4.32627,-4.58927 16.78355,-8.11148 25.51581,-6.27171c12.3877,2.60992 18.07452,9.59806 18.07452,9.59806z" data-paper-data="{&quot;index&quot;:null}" fill="#f23030" stroke="none"/></g></g></svg>