<svg version="1.1" xmlns="http://www.w3.org/2000/svg" xmlns:xlink="http://www.w3.org/1999/xlink" width="88.34685" height="88.34685" viewBox="0,0,88.34685,88.34685"><g transform="translate(-195.82661,-135.82659)"><g data-paper-data="{&quot;isPaintingLayer&quot;:true}" fill-rule="nonzero" stroke-width="0" stroke-linecap="butt" stroke-linejoin="miter" stroke-miterlimit="10" stroke-dasharray="" stroke-dashoffset="0" style="mix-blend-mode: normal"><path d="M195.82661,224.17344v-88.34685h88.34685v88.34685z" fill="none" stroke="#000000"/><path d="M217.33118,180.72018c0,-16.39588 9.6666,-29.68739 22.86202,-29.68739c13.19542,0 22.47562,13.29149 22.47562,29.68739c0,16.39588 -9.2802,28.24702 -22.47562,28.24702c-13.19542,0 -22.86202,-11.85113 -22.86202,-28.24702zM239.61357,197.63125c6.40209,0 10.04641,-6.88759 10.04641,-14.84246c0,-7.95488 -3.64432,-16.86435 -10.04641,-16.86435c-6.40209,0 -9.40241,8.10926 -9.40241,16.06414c0,7.95488 3.00032,15.64267 9.40241,15.64267z" fill="#f23030" stroke="none"/></g></g></svg>