<svg version="1.1" xmlns="http://www.w3.org/2000/svg" xmlns:xlink="http://www.w3.org/1999/xlink" width="68" height="68" viewBox="0,0,68,68"><g transform="translate(-206,-146)"><g data-paper-data="{&quot;isPaintingLayer&quot;:true}" fill-rule="nonzero" stroke-linecap="butt" stroke-linejoin="miter" stroke-miterlimit="10" stroke-dasharray="" stroke-dashoffset="0" style="mix-blend-mode: normal"><path d="M226.86342,193.25064c-0.96474,-0.93506 -0.77487,-6.69581 -0.73878,-13.27675c0.03177,-5.79237 -0.21427,-12.48803 0.73878,-13.35627c0.97616,-0.88928 7.15321,-0.61742 13.28561,-0.61452c6.10785,0.00289 12.17138,-0.26676 13.00775,0.61452c0.97675,1.02918 0.73589,7.24909 0.72034,13.43395c-0.01542,6.13051 0.20285,12.22656 -0.72034,13.19906c-0.94199,0.9923 -7.00417,0.76676 -13.0859,0.76313c-6.09025,-0.00364 -12.20008,0.21323 -13.20746,-0.76313z" fill="#3df354" stroke="#2fbd42" stroke-width="2.5"/><path d="M246.25541,173.39594c0.80109,0.66757 0.13351,1.46865 0.13351,1.46865l-0.34595,0.40442c-1.87294,2.85751 -3.77027,5.96647 -5.16485,9.08843c-0.58014,1.29871 -0.45305,2.82859 -2.76566,2.45511c-0.69863,-0.11282 -1.08346,-0.91463 -1.5742,-1.42453c-1.06596,-1.1076 -2.06036,-2.41263 -2.96993,-3.65028c0,0 -0.61666,-0.8409 0.22424,-1.45756c0.8409,-0.61666 1.45756,0.22424 1.45756,0.22424c0.9009,1.23137 2.23263,2.53513 3.1199,3.77431c0.16664,0.23272 0.44858,-0.39387 0.58207,-0.72128c0.23838,-0.58471 0.58017,-1.12179 0.8785,-1.67831c1.4107,-2.63156 2.83156,-5.25435 4.46786,-7.75303l0.48828,-0.59665c0,0 0.66757,-0.80108 1.46866,-0.13351z" fill="#ffffff" stroke="#000000" stroke-width="2.5"/><path d="M246.25541,173.39593c0.80109,0.66757 0.13351,1.46866 0.13351,1.46866l-0.34594,0.40442c-1.87294,2.85751 -3.77027,5.96646 -5.16485,9.08842c-0.58014,1.29872 -0.45305,2.82859 -2.76566,2.45511c-0.69863,-0.11283 -1.08346,-0.91462 -1.57419,-1.42453c-1.06596,-1.1076 -2.06036,-2.41263 -2.96994,-3.65028c0,0 -0.61666,-0.8409 0.22424,-1.45756c0.8409,-0.61666 1.45756,0.22424 1.45756,0.22424c0.9009,1.23136 2.23263,2.53513 3.1199,3.77431c0.16663,0.23272 0.44858,-0.39386 0.58207,-0.72129c0.23839,-0.58472 0.58017,-1.12178 0.87851,-1.67831c1.41069,-2.63156 2.83156,-5.25434 4.46786,-7.75303l0.48828,-0.59665c0,0 0.66757,-0.80109 1.46866,-0.13351z" fill="#ffffff" stroke="none" stroke-width="0.5"/><path d="M206,214v-68h68v68z" fill="none" stroke="none" stroke-width="0"/></g></g></svg>