<svg version="1.1" xmlns="http://www.w3.org/2000/svg" xmlns:xlink="http://www.w3.org/1999/xlink" width="88.34685" height="88.34685" viewBox="0,0,88.34685,88.34685"><g transform="translate(-195.82659,-135.82659)"><g data-paper-data="{&quot;isPaintingLayer&quot;:true}" fill-rule="nonzero" stroke-width="0" stroke-linecap="butt" stroke-linejoin="miter" stroke-miterlimit="10" stroke-dasharray="" stroke-dashoffset="0" style="mix-blend-mode: normal"><path d="M195.8266,224.17344v-88.34685h88.34685v88.34685z" fill="none" stroke="#000000"/><path d="M211.19936,210.91846l5.89953,-15.21581c0,0 30.77237,4.40503 32.63517,-5.71353c0.89233,-4.84703 -18.73542,-2.75431 -24.91809,-4.08265c-6.72415,-1.44472 -8.76413,-7.2118 -8.05746,-14.17631c0.70667,-6.96447 2.57812,-13.03018 11.35709,-18.34207c12.66252,-7.66169 34.70478,-3.89642 34.70478,-3.89642l4.91629,17.47002c0,0 -28.16744,-9.5711 -33.66048,1.00041c-5.49304,10.57151 29.55769,1.61394 34.40999,18.25375c2.03832,6.98995 -6.04374,17.56946 -18.0762,21.57049c-16.61126,5.5236 -39.21064,3.13211 -39.21064,3.13211z" fill="#f23030" stroke="none"/></g></g></svg>