<svg version="1.1" xmlns="http://www.w3.org/2000/svg" xmlns:xlink="http://www.w3.org/1999/xlink" width="149.16667" height="139.16667" viewBox="0,0,149.16667,139.16667"><g transform="translate(-165.41672,-110.41675)"><g data-paper-data="{&quot;isPaintingLayer&quot;:true}" fill-rule="nonzero" stroke-linecap="butt" stroke-linejoin="miter" stroke-miterlimit="10" stroke-dasharray="" stroke-dashoffset="0" style="mix-blend-mode: normal"><path d="M202.92789,179.9403c0.08487,-13.2538 -0.57249,-28.57445 1.97388,-30.56111c2.60808,-2.0348 19.11188,-1.41275 35.49635,-1.40611c16.31889,0.00661 32.51935,-0.61039 34.75397,1.40611c2.60968,2.35492 1.96615,16.58699 1.9246,30.73886c-0.04119,14.02751 0.54196,27.97617 -1.9246,30.2014c-2.5168,2.27053 -18.71368,1.75446 -34.96278,1.74615c-16.27185,-0.00833 -31.39573,0.2441 -35.28755,-1.74615c-2.57489,-2.93482 -2.07029,-15.32099 -1.97387,-30.37915z" fill="#f7229d" stroke="#000000" stroke-width="10"/><path d="M165.41672,249.58342v-139.16667h149.16667v139.16667z" fill="none" stroke="none" stroke-width="NaN"/><path d="M221.83338,146.65481c0,-6.67344 8.13349,-12.08333 18.16666,-12.08333c10.03318,0 18.16667,5.40989 18.16667,12.08333c0,6.67344 -8.13349,12.08333 -18.16667,12.08333c-10.03317,0 -18.16666,-5.40989 -18.16666,-12.08333z" fill="#ffe100" stroke="#000000" stroke-width="2"/><path d="M221.83337,146.65481c0,-6.67344 8.13349,-12.08333 18.16667,-12.08333c10.03317,0 18.16667,5.40989 18.16667,12.08333c0,6.67344 -8.13349,12.08333 -18.16667,12.08333c-10.03317,0 -18.16667,-5.40989 -18.16667,-12.08333z" fill="#ffe100" stroke="#000000" stroke-width="5"/><path d="M221.83339,146.65481c0,-6.67344 8.13349,-12.08333 18.16666,-12.08333c10.03318,0 18.16667,5.40989 18.16667,12.08333c0,6.67344 -8.13349,12.08333 -18.16667,12.08333c-10.03317,0 -18.16666,-5.40989 -18.16666,-12.08333z" fill="#ffe100" stroke="none" stroke-width="2.5"/><path d="M204.90182,210.31951c-2.57757,-2.13956 -2.0703,-15.321 -1.97388,-30.37916c0.08487,-13.2538 -0.57249,-28.57445 1.97388,-30.56111c2.60808,-2.0348 19.11188,-1.41275 35.49635,-1.40611c16.31889,0.00661 32.51935,-0.61039 34.75397,1.40611c2.60968,2.35492 1.96615,16.58699 1.9246,30.73886c-0.04119,14.02751 0.54196,27.97617 -1.9246,30.2014c-2.5168,2.27053 -18.71368,1.75446 -34.96278,1.74615c-16.27185,-0.00833 -32.59606,0.4879 -35.28755,-1.74615z" fill="#f7229d" stroke="#ffffff" stroke-width="2.5"/><path d="M221.83338,146.65481c0,-6.67344 8.13349,-12.08333 18.16667,-12.08333c10.03317,0 18.16667,5.40989 18.16667,12.08333c0,6.67344 -8.13349,12.08333 -18.16667,12.08333c-10.03317,0 -18.16667,-5.40989 -18.16667,-12.08333z" fill="#0098ff" stroke="none" stroke-width="0"/><path d="M202.92797,179.94034c0.08487,-13.2538 -0.57249,-28.57445 1.97388,-30.56111c2.60808,-2.0348 19.11188,-1.41275 35.49635,-1.40611c16.31889,0.00661 32.51935,-0.61039 34.75397,1.40611c2.60968,2.35492 1.96615,16.58699 1.9246,30.73886c-0.04119,14.02751 0.54196,27.97617 -1.9246,30.2014c-2.5168,2.27053 -18.71368,1.75446 -34.96278,1.74615c-16.27185,-0.00833 -32.89288,0.30144 -35.28755,-1.74615c-2.28416,-1.9531 -2.07029,-15.32099 -1.97387,-30.37915z" fill="#ff2500" stroke="#ffffff" stroke-width="5"/><path d="M240.10763,131.9581c0.31572,1.29124 0.76563,2.56212 0.9001,3.86896c0,0 0.10042,0.99583 -1.72452,1.05061c-1.82492,0.0548 -1.92532,-0.94103 -1.92532,-0.94103c-0.1451,-1.47214 -0.76911,-2.89697 -1.01884,-4.36203c-0.00168,-0.00988 -0.00325,-0.01967 -0.00472,-0.02933c-0.23215,-0.04352 -4.95109,0.95792 -7.27925,0.88317c-2.46371,-0.07911 -4.98436,-0.35516 -4.40131,-2.32539c0.3269,-1.10465 5.23026,-2.38805 5.94896,-2.51897c2.52701,-0.46028 5.58976,0.10353 7.46898,1.09615c2.90235,-0.54107 6.00289,-1.26679 8.992,-0.98587c1.68785,0.15863 4.19586,0.8445 4.52179,1.93437c0.57519,1.92326 -1.31167,2.34724 -4.06099,2.56363c-0.70942,0.05584 -5.76228,-0.16078 -7.41688,-0.23426z" fill="#ffe100" stroke="#000000" stroke-width="2"/><path d="M240.1076,131.9581c0.31572,1.29124 0.76563,2.56212 0.9001,3.86896c0,0 0.10042,0.99583 -1.72452,1.05061c-1.82492,0.0548 -1.92532,-0.94103 -1.92532,-0.94103c-0.1451,-1.47214 -0.76911,-2.89697 -1.01884,-4.36203c-0.00168,-0.00988 -0.00325,-0.01967 -0.00472,-0.02933c-0.23215,-0.04352 -4.95109,0.95792 -7.27925,0.88317c-2.46371,-0.07911 -4.98436,-0.35516 -4.40131,-2.32539c0.3269,-1.10465 5.23026,-2.38805 5.94896,-2.51897c2.52701,-0.46028 5.58976,0.10353 7.46898,1.09615c2.90235,-0.54107 6.00289,-1.26679 8.992,-0.98587c1.68785,0.15863 4.19586,0.8445 4.52179,1.93437c0.57519,1.92326 -1.31167,2.34724 -4.06099,2.56363c-0.70942,0.05584 -5.76228,-0.16078 -7.41688,-0.23426z" fill="#ffe100" stroke="#000000" stroke-width="5"/><path d="M240.10764,131.9581c0.31572,1.29124 0.76563,2.56212 0.9001,3.86896c0,0 0.10042,0.99583 -1.72452,1.05061c-1.82492,0.0548 -1.92532,-0.94103 -1.92532,-0.94103c-0.1451,-1.47214 -0.76911,-2.89697 -1.01884,-4.36203c-0.00168,-0.00988 -0.00325,-0.01967 -0.00472,-0.02933c-0.23215,-0.04352 -4.95109,0.95792 -7.27925,0.88317c-2.46371,-0.07911 -4.98436,-0.35516 -4.40131,-2.32539c0.3269,-1.10465 5.23026,-2.38805 5.94896,-2.51897c2.52701,-0.46028 5.58976,0.10353 7.46898,1.09615c2.90235,-0.54107 6.00289,-1.26679 8.992,-0.98587c1.68785,0.15863 4.19586,0.8445 4.52179,1.93437c0.57519,1.92326 -1.31167,2.34724 -4.06099,2.56363c-0.70942,0.05584 -5.76228,-0.16078 -7.41688,-0.23426z" fill="#ffe100" stroke="none" stroke-width="2.5"/><path d="M240.10763,131.9581c0.31572,1.29124 0.76563,2.56212 0.9001,3.86896c0,0 0.10042,0.99583 -1.72452,1.05061c-1.82492,0.0548 -1.92532,-0.94103 -1.92532,-0.94103c-0.1451,-1.47214 -0.76911,-2.89697 -1.01884,-4.36203c-0.00168,-0.00988 -0.00325,-0.01967 -0.00472,-0.02933c-0.23215,-0.04352 -4.95109,0.95792 -7.27925,0.88317c-2.46371,-0.07911 -4.98436,-0.35516 -4.40131,-2.32539c0.3269,-1.10465 5.23026,-2.38805 5.94896,-2.51897c2.52701,-0.46028 5.58976,0.10353 7.46898,1.09615c2.90235,-0.54107 6.00289,-1.26679 8.992,-0.98587c1.68785,0.15863 4.19586,0.8445 4.52179,1.93437c0.57519,1.92326 -1.31167,2.34724 -4.06099,2.56363c-0.70942,0.05584 -5.76228,-0.16078 -7.41688,-0.23426z" fill="#ffe100" stroke="none" stroke-width="0.5"/><path d="M242.71486,174.19038c0,0 0.00526,12.43601 0.00526,18.08404c0,1.47949 -1.19953,2.67874 -2.67874,2.67874c-1.47949,0 -2.67853,-1.19926 -2.67853,-2.67874c0,-4.73524 -0.00553,-18.0695 -0.00553,-18.0695c0,0 -0.90595,0.89521 -5.03554,5.02507c-1.04623,1.04618 -2.7421,1.04618 -3.78806,0c-1.04596,-1.04672 -1.04623,-2.74237 0,-3.78833c3.34824,-3.34873 9.61048,-9.61027 9.61048,-9.61027c1.04623,-1.04596 2.74232,-1.04596 3.78806,0c0,0 5.40376,5.40354 9.53362,9.53335c1.04672,1.04672 1.04672,2.74259 0,3.78833c-1.04601,1.04623 -2.74237,1.04623 -3.78757,0c-3.34976,-3.34878 -4.96345,-4.96269 -4.96345,-4.96269z" fill="#ffffff" stroke="#000000" stroke-width="0"/></g></g></svg>