<svg version="1.1" xmlns="http://www.w3.org/2000/svg" xmlns:xlink="http://www.w3.org/1999/xlink" width="700.05976" height="473.97229" viewBox="0,0,700.05976,473.97229"><defs><radialGradient cx="150.48048" cy="164.23371" r="260.5105" gradientUnits="userSpaceOnUse" id="color-1"><stop offset="0" stop-color="#c5f7ff"/><stop offset="1" stop-color="#c5f7ff" stop-opacity="0"/></radialGradient><linearGradient x1="168.00014" y1="90.65815" x2="168.00014" y2="343.34191" gradientUnits="userSpaceOnUse" id="color-2"><stop offset="0" stop-color="#03b9ff"/><stop offset="1" stop-color="#a8e6ff"/></linearGradient></defs><g transform="translate(110.02984,72.75243)"><g data-paper-data="{&quot;isPaintingLayer&quot;:true}" fill-rule="nonzero" stroke-linecap="butt" stroke-linejoin="miter" stroke-miterlimit="10" stroke-dasharray="" stroke-dashoffset="0" style="mix-blend-mode: normal"><path d="M-18.07819,372.19174v-424.92492h608.10811v424.92492z" fill="#00aaff" stroke="none" stroke-width="0"/><path d="M-2.56725,365.43923v-278.03729c0,0 80.52968,118.99385 98.50133,90.09009c23.05868,-37.08521 111.58252,-122.43795 127.97315,-10.83601c3.96743,27.0138 67.37255,9.70328 85.40712,-11.20627c98.31792,-113.99127 213.64393,-68.04781 213.64393,-68.04781v278.03729z" fill="#3385ff" stroke="none" stroke-width="0"/><path d="M410.99119,164.23371c0,130.88384 -116.63454,236.98615 -260.51051,236.98615c-143.87598,0 -260.51051,-106.10232 -260.51051,-236.98615c0,-130.88384 116.63454,-236.98614 260.51051,-236.98614c143.87599,0 260.51051,106.10232 260.51051,236.98615z" fill="url(#color-1)" stroke="none" stroke-width="0"/><path d="M29.0148,336.25357c-10.2069,-8.41538 -8.19816,-60.26117 -7.81634,-119.48853c0.33609,-52.13036 -2.267,-112.39018 7.81634,-120.20419c10.32773,-8.00337 75.68104,-5.55667 140.56181,-5.53058c64.62108,0.02601 128.77321,-2.40079 137.62206,5.53058c10.33406,9.26245 7.78577,65.2406 7.62122,120.9033c-0.16311,55.17356 2.14612,110.037 -7.62122,118.78933c-9.96625,8.93054 -74.10419,6.90071 -138.4489,6.86804c-64.43482,-0.03276 -129.07694,1.91904 -139.73496,-6.86804z" fill="url(#color-2)" stroke="#000000" stroke-width="12.5"/><path d="M-1.94661,66.98279v-50.27582c0,0 285.33373,-0.26407 291.42407,0c4.67347,0.20263 20.10022,50.22043 14.82859,50.27582c-5.17289,0.05435 -306.25266,0 -306.25266,0z" data-paper-data="{&quot;index&quot;:null}" fill="#000000" stroke="#000000" stroke-width="2.5"/><path d="M-2.82557,64.05295v-50.27582c0,0 282.11093,-0.26407 288.20127,0c4.67347,0.20263 20.10022,50.22043 14.82859,50.27582c-5.17289,0.05435 -303.02986,0 -303.02986,0z" data-paper-data="{&quot;index&quot;:null}" fill="#ff00ad" stroke="#ffffff" stroke-width="1.5"/><text transform="translate(14.98481,51.84976) scale(0.80425,0.80425)" font-size="40" xml:space="preserve" data-paper-data="{&quot;index&quot;:null}" fill="#ca008a" fill-rule="nonzero" stroke="#ca008a" stroke-width="7" stroke-linecap="butt" stroke-linejoin="miter" stroke-miterlimit="10" stroke-dasharray="" stroke-dashoffset="0" font-family="Handwriting" font-weight="normal" text-anchor="start" style="mix-blend-mode: normal"><tspan x="0" dy="0">CLUB DEL SALTO</tspan></text><text transform="translate(11.98481,48.84976) scale(0.80424,0.80424)" font-size="40" xml:space="preserve" data-paper-data="{&quot;index&quot;:null}" fill="#ffffff" fill-rule="nonzero" stroke="#ffffff" stroke-width="7" stroke-linecap="butt" stroke-linejoin="miter" stroke-miterlimit="10" stroke-dasharray="" stroke-dashoffset="0" font-family="Handwriting" font-weight="normal" text-anchor="start" style="mix-blend-mode: normal"><tspan x="0" dy="0">CLUB DEL SALTO</tspan></text><path d="M378.06166,160.53726c-2.82288,-0.95529 -2.26733,-6.84063 -2.16173,-13.56391c0.09295,-5.91765 -0.62697,-12.75813 2.16173,-13.64515c2.85629,-0.90851 20.93076,-0.63077 38.87453,-0.62781c17.87195,0.00296 35.6142,-0.27253 38.06149,0.62781c2.85805,1.05144 2.15328,7.40588 2.10777,13.72451c-0.04511,6.2631 0.59354,12.49101 -2.10777,13.48455c-2.75632,1.01377 -20.49465,0.78334 -38.29016,0.77963c-17.82044,-0.00372 -35.69821,0.21785 -38.64585,-0.77963z" fill="#007e91" stroke="#000000" stroke-width="0"/><path d="M373.06166,155.53726c-2.82287,-0.95528 -2.26733,-6.84063 -2.16173,-13.56391c0.09295,-5.91765 -0.62697,-12.75813 2.16173,-13.64515c2.85629,-0.90851 20.93075,-0.63077 38.87452,-0.62781c17.87195,0.00295 35.61421,-0.27253 38.06149,0.62781c2.85804,1.05144 2.15327,7.40588 2.10777,13.72451c-0.04511,6.26311 0.59354,12.49101 -2.10777,13.48454c-2.75632,1.01376 -20.49465,0.78334 -38.29017,0.77964c-17.82044,-0.00372 -35.69821,0.21784 -38.64585,-0.77964z" fill="#ab50f2" stroke="#000000" stroke-width="0"/><text transform="translate(380.00015,146.39977) scale(0.29901,0.29692)" font-size="40" xml:space="preserve" fill="#ffffff" fill-rule="nonzero" stroke="#ffffff" stroke-width="1" stroke-linecap="butt" stroke-linejoin="miter" stroke-miterlimit="10" stroke-dasharray="" stroke-dashoffset="0" font-family="Sans Serif" font-weight="normal" text-anchor="start" style="mix-blend-mode: normal"><tspan x="0" dy="0">SOBREVIVE</tspan></text><text transform="translate(340.25015,208.48749) scale(0.30625,0.30625)" font-size="40" xml:space="preserve" fill="#007e91" fill-rule="nonzero" stroke="none" stroke-width="1" stroke-linecap="butt" stroke-linejoin="miter" stroke-miterlimit="10" stroke-dasharray="" stroke-dashoffset="0" font-family="Sans Serif" font-weight="normal" text-anchor="start" style="mix-blend-mode: normal"><tspan x="0" dy="0">Sobrevive en la </tspan><tspan x="0" dy="48px">plataforma todo el</tspan><tspan x="0" dy="48px">tiempo que puedas,</tspan><tspan x="0" dy="48px">pero ten cuidado con</tspan><tspan x="0" dy="48px">la barra que te golpea</tspan></text><text transform="translate(339.25015,207.48749) scale(0.30625,0.30625)" font-size="40" xml:space="preserve" fill="#ffffff" fill-rule="nonzero" stroke="none" stroke-width="1" stroke-linecap="butt" stroke-linejoin="miter" stroke-miterlimit="10" stroke-dasharray="" stroke-dashoffset="0" font-family="Sans Serif" font-weight="normal" text-anchor="start" style="mix-blend-mode: normal"><tspan x="0" dy="0">Sobrevive en la </tspan><tspan x="0" dy="48px">plataforma todo el</tspan><tspan x="0" dy="48px">tiempo que puedas,</tspan><tspan x="0" dy="48px">pero ten cuidado con</tspan><tspan x="0" dy="48px">la barra que te golpea</tspan></text><g data-paper-data="{&quot;index&quot;:null}"><path d="M253.20726,234.78698c-1.44614,-1.16214 0.68735,-5.4944 0.68735,-5.4944l-0.05821,-3.14174c0.80593,-0.50038 1.84718,-1.29852 2.2193,-1.06098c0.21153,0.00126 2.24652,2.80136 2.24652,2.80136c0.52901,0.28631 1.05072,0.58603 1.57044,0.88892c1.82665,2.80399 0.23342,4.20839 -2.35288,5.46715c-1.09865,0.53473 -3.18036,1.4495 -4.31251,0.53968z" fill="#00ade2" stroke="#000000" stroke-width="6.5"/><path d="M239.73441,231.16346c-0.44295,-1.80157 3.88327,-3.94731 3.88327,-3.94731l1.862,-2.53117c0.94414,0.09201 2.25609,0.0904 2.40743,0.50512c0.16728,0.12949 0.08315,3.58993 0.08315,3.58993c0.24636,0.54875 0.47876,1.10376 0.70765,1.66002c-0.252,3.33697 -2.37068,3.48494 -5.18982,2.91403c-1.19758,-0.24251 -3.40691,-0.78021 -3.75369,-2.19062z" fill="#00ade2" stroke="#000000" stroke-width="6.5"/><path d="M240.82201,213.90625c0,0 -7.94449,-1.74106 -7.91096,-1.10553c0.08937,1.6939 0.35862,3.835 -1.32902,4.13041c-0.37369,-0.12048 -1.51072,-1.46407 -2.70303,-1.4139c-1.19231,0.05018 -1.64518,0.99308 -2.05282,1.55136c-0.87769,1.19168 -2.21935,3.00241 -3.64131,0.91338c-0.21013,-0.30867 -0.44188,-0.75906 -0.1913,-1.28846c-0.4366,0.282 -0.4616,0.26793 -1.11153,0.24841c-2.02145,-1.05305 -0.33259,-5.22296 0.67499,-6.59702c0.65546,-1.14263 2.04666,-1.7892 4.25858,-3.16832c2.21193,-1.37912 8.99198,-0.86654 15.88876,-3.60583c6.89678,-2.73928 1.9255,2.20746 2.4358,4.28593c0.82223,3.34899 0.60632,2.26982 0.58618,4.08931c-0.03263,2.94871 -3.15001,1.06637 -4.90434,1.96026z" data-paper-data="{&quot;index&quot;:null}" fill="#00ade2" stroke="#000000" stroke-width="6.5"/><path d="M267.71272,213.29939c0.23106,-0.59298 -7.85873,-1.43032 -7.85873,-1.43032c-1.38566,-1.39882 -4.936,-0.58869 -4.04255,-3.39896c0.55128,-1.73408 0.00791,-0.777 1.83862,-3.69939c1.13618,-1.81371 -2.03368,-8.06959 3.65665,-3.30623c5.69032,4.76335 12.28927,6.40219 13.95733,8.40522c1.66806,2.00303 2.78641,3.05314 3.05062,4.34367c0.52601,1.62067 0.82245,6.10983 -1.42722,6.47605c-0.62329,-0.18523 -0.65142,-0.17971 -0.97763,-0.58435c0.07198,0.58128 -0.28929,0.93629 -0.58558,1.16354c-2.00519,1.53791 -2.71153,-0.60216 -3.17139,-2.00891c-0.21205,-0.65794 -0.3465,-1.69527 -1.46297,-2.11671c-1.11648,-0.42142 -2.6174,0.49796 -3.01003,0.49522c-1.50997,-0.80959 -0.58304,-2.75834 0.03287,-4.33885z" fill="#00ade2" stroke="#000000" stroke-width="6.5"/><path d="M236.40158,205.03944c0.70608,-6.2015 3.14221,-21.31312 15.84838,-20.60801c1.20318,0.06676 2.51534,0.27855 3.05383,0.44411c7.39044,2.27215 9.67715,8.56553 9.81488,15.03745c0.86929,7.62615 0.11597,20.0525 -0.81009,23.15772c-0.92606,3.10521 -3.91698,4.04204 -7.45014,4.54012c-6.55164,0.92363 -15.77272,-0.87922 -17.86654,-3.4802c-0.93851,-1.16583 -2.21633,-3.36356 -2.81317,-7.76257c-0.59685,-4.39901 -0.35172,-6.28186 0.22288,-11.32863z" fill="#00c3ff" stroke="#000000" stroke-width="6.5"/><path d="M253.20723,234.78698c-1.44613,-1.16214 0.68736,-5.4944 0.68736,-5.4944l-0.05821,-3.14174c0.80593,-0.50038 1.84718,-1.29852 2.2193,-1.06098c0.21153,0.00126 2.24652,2.80136 2.24652,2.80136c0.52902,0.28631 1.05073,0.58603 1.57045,0.88892c1.82665,2.80399 0.23342,4.20839 -2.35288,5.46715c-1.09865,0.53473 -3.18036,1.4495 -4.31251,0.53968z" fill="#00ade2" stroke="none" stroke-width="0.5"/><path d="M243.61769,227.21616l1.862,-2.53117c0.94415,0.09201 2.2561,0.0904 2.40744,0.50512c0.16728,0.12949 0.08314,3.58993 0.08314,3.58993c0.24636,0.54875 0.47876,1.10376 0.70766,1.66002c-0.25199,3.33697 -2.37068,3.48494 -5.18982,2.91403c-1.19757,-0.24251 -3.40691,-0.78021 -3.75369,-2.19062c-0.44295,-1.80157 3.88327,-3.94731 3.88327,-3.94731z" fill="#00ade2" stroke="none" stroke-width="0.5"/><path d="M240.82197,213.90625c0,0 -7.94449,-1.74106 -7.91096,-1.10553c0.08937,1.6939 0.35862,3.835 -1.32902,4.13041c-0.37369,-0.12048 -1.51072,-1.46407 -2.70303,-1.4139c-1.1923,0.05018 -1.64517,0.99308 -2.05281,1.55136c-0.87769,1.19168 -2.21935,3.00241 -3.64131,0.91338c-0.21013,-0.30867 -0.44188,-0.75906 -0.19129,-1.28846c-0.4366,0.282 -0.4616,0.26793 -1.11154,0.24841c-2.02146,-1.05305 -0.33259,-5.22296 0.67499,-6.59702c0.65547,-1.14263 2.04666,-1.7892 4.25858,-3.16832c2.21193,-1.37912 8.99197,-0.86654 15.88875,-3.60583c6.89678,-2.73928 1.9255,2.20746 2.4358,4.28593c0.82224,3.34899 0.60633,2.26982 0.58619,4.08931c-0.03263,2.94871 -3.15001,1.06637 -4.90434,1.96026z" data-paper-data="{&quot;index&quot;:null}" fill="#00ade2" stroke="none" stroke-width="0.5"/><path d="M267.71272,213.29939c0.23106,-0.59298 -7.85874,-1.43032 -7.85874,-1.43032c-1.38566,-1.39882 -4.936,-0.58869 -4.04255,-3.39896c0.55128,-1.73408 0.00792,-0.777 1.83863,-3.69939c1.13618,-1.81371 -2.03368,-8.06959 3.65665,-3.30623c5.69031,4.76335 12.28927,6.40219 13.95732,8.40522c1.66805,2.00303 2.78641,3.05314 3.05062,4.34367c0.52601,1.62067 0.82245,6.10983 -1.42722,6.47605c-0.62329,-0.18523 -0.65142,-0.17971 -0.97762,-0.58435c0.07199,0.58128 -0.28929,0.93629 -0.58558,1.16354c-2.0052,1.53791 -2.71153,-0.60216 -3.17139,-2.00891c-0.21205,-0.65794 -0.34649,-1.69527 -1.46297,-2.11671c-1.11647,-0.42142 -2.6174,0.49796 -3.01003,0.49522c-1.50997,-0.80959 -0.58304,-2.75834 0.03287,-4.33885z" fill="#00ade2" stroke="none" stroke-width="0.5"/><path d="M252.24994,184.43142c1.03508,0.09319 2.14883,0.16587 3.05384,0.44411c7.39044,2.27215 9.67715,8.56553 9.81488,15.03745c0.86929,7.62615 0.11597,20.0525 -0.81009,23.15773c-0.92606,3.10521 -3.91698,4.04204 -7.45014,4.54012c-6.55164,0.92363 -15.77273,-0.87922 -17.86655,-3.4802c-0.93851,-1.16584 -2.21632,-3.36357 -2.81317,-7.76258c-0.59685,-4.39901 -0.35172,-6.28186 0.22288,-11.32863c0.70608,-6.20149 2.41589,-21.23953 15.84839,-20.60799z" fill="#00c3ff" stroke="none" stroke-width="0.5"/><path d="M259.86906,194.48346c0.9652,2.07198 0.79868,4.90897 0.53786,5.83966c-1.45956,5.20806 -9.4324,6.73138 -13.78914,5.00575c-1.23244,-0.81599 -2.52966,-1.54106 -3.38934,-2.78826c-2.26922,-3.2921 -2.44222,-8.95379 1.14892,-11.41018c2.51342,-1.71921 9.8225,-1.69139 11.61767,-0.6246c0.69889,0.41533 2.86394,1.80926 3.87404,3.97764z" fill="#ffffff" stroke="none" stroke-width="0.5"/><path d="M251.68364,199.7976v-0.44384c0,-0.36986 0,-0.7397 0,-1.10957c0,0 0.00001,-1.10958 1.10958,-1.10958c1.10957,0 1.10957,1.10958 1.10957,1.10958c0,0.36987 0,1.18354 0,1.55341c0,0 0,1.10957 -1.10957,1.10957c-1.10957,0 -1.10958,-1.10957 -1.10958,-1.10957z" fill="#000000" stroke="none" stroke-width="0.5"/><path d="M245.69195,200.68526c-1.10957,0 -1.10957,-1.10957 -1.10957,-1.10957l0.02154,-0.43953c0.07397,-0.36986 0.14795,-0.7397 0.22192,-1.10957c0,0 0.21761,-1.08804 1.30563,-0.87042c1.08804,0.21761 0.87042,1.30564 0.87042,1.30564c-0.07397,0.36986 -0.14795,0.7397 -0.22191,1.10957l0.02154,0.00431c0,0 0,1.10957 -1.10957,1.10957z" fill="#000000" stroke="none" stroke-width="0.5"/></g><path d="M35.90002,294.17688v-18.91855h96.51667v18.91855z" fill="#9966ff" stroke="#4c3380" stroke-width="4"/><path d="M142.89999,294.17691v-18.91855h96.51666v18.91855z" fill="#9966ff" stroke="#4c3380" stroke-width="4"/><path d="M248.90005,317.17691v-18.91855h65.51666l-1,18.91855z" fill="#9966ff" stroke="#4c3380" stroke-width="4"/><path d="M29.0148,336.25357c-10.2069,-8.41538 -8.19816,-60.26117 -7.81634,-119.48853c0.33609,-52.13036 -2.267,-112.39018 7.81634,-120.20419c10.32773,-8.00337 75.68104,-5.55667 140.56181,-5.53058c64.62108,0.02601 128.77321,-2.40079 137.62206,5.53058c10.33406,9.26245 7.78577,65.2406 7.62122,120.9033c-0.16311,55.17356 2.14612,110.037 -7.62122,118.78933c-9.96625,8.93054 -74.10419,6.90071 -138.4489,6.86804c-64.43482,-0.03276 -129.07694,1.91904 -139.73496,-6.86804z" fill="none" stroke="#ffffff" stroke-width="5"/><path d="M86.71368,306.35731c-8.35287,0.0565 -15.64113,-0.20273 -16.85146,-1.15688c-1.16089,-0.91518 -0.96396,-11.14499 -0.96858,-20.68184c-0.00463,-9.5235 -0.29091,-19.01641 0.96858,-20.49148c1.23434,-1.44564 8.97173,-1.10387 16.75289,-1.12801c7.85013,-0.02435 15.74473,-0.40151 17.05102,1.12801c1.11855,1.3097 0.77631,10.8047 0.77998,20.3691c0.00366,9.60284 0.34874,19.27564 -0.77998,20.80421c-1.10202,1.4924 -9.60047,1.10715 -16.95243,1.15688z" data-paper-data="{&quot;index&quot;:null}" fill="#ff00ad" stroke="#000000" stroke-width="10"/><path d="M86.64746,262.85099c8.35287,-0.0565 15.13584,-0.03543 16.85146,1.15688c1.72009,1.19542 0.96396,11.14499 0.96858,20.68184c0.00463,9.5235 0.29091,19.01641 -0.96858,20.49148c-1.23434,1.44564 -8.97173,1.10387 -16.75289,1.12801c-7.85013,0.02435 -15.74473,0.40151 -17.05102,-1.12801c-1.11855,-1.3097 -0.77631,-10.8047 -0.77998,-20.3691c-0.00366,-9.60284 -0.34874,-19.27564 0.77998,-20.80421c1.10202,-1.4924 9.60047,-1.10715 16.95243,-1.15688z" data-paper-data="{&quot;index&quot;:null}" fill="#ff00ad" stroke="#ffffff" stroke-width="0"/><path d="M105.13755,270.58006c0,1.44749 -1.26463,4.3143 -1.26463,4.3143l-34.62785,10.00163v-8.74267l34.62785,-10.00163c0,0 1.26463,2.96188 1.26463,4.42837z" data-paper-data="{&quot;index&quot;:null}" fill="#ffffff" stroke="#000000" stroke-width="0"/><path d="M103.87292,292.39719l-34.62785,10.00163v-8.74267l34.62785,-10.00163z" data-paper-data="{&quot;index&quot;:null}" fill="#ffffff" stroke="#000000" stroke-width="0"/><path d="M104.8351,300.05269l-2.17641,5.27345c0,0 -2.40153,1.86436 -4.27356,1.83939c-3.02194,-0.04032 -12.12409,-2.05815 -12.12409,-2.05815z" data-paper-data="{&quot;index&quot;:null}" fill="#ffffff" stroke="#000000" stroke-width="0"/><path d="M86.64746,262.85099c8.35287,-0.0565 15.13584,-0.03543 16.85146,1.15688c1.72009,1.19542 0.96396,11.14499 0.96858,20.68184c0.00463,9.5235 0.29091,19.01641 -0.96858,20.49148c-1.23434,1.44564 -8.97173,1.10387 -16.75289,1.12801c-7.85013,0.02435 -15.74473,0.40151 -17.05102,-1.12801c-1.11855,-1.3097 -0.77631,-10.8047 -0.77998,-20.3691c-0.00366,-9.60284 -0.34874,-19.27564 0.77998,-20.80421c1.10202,-1.4924 9.60047,-1.10715 16.95243,-1.15688z" data-paper-data="{&quot;index&quot;:null}" fill="none" stroke="#ff00ad" stroke-width="2.5"/><path d="M68.86255,269.94732l2.17641,-5.27345c0,0 2.40153,-1.86436 4.27356,-1.83939c3.02194,0.04032 12.12409,2.05815 12.12409,2.05815z" data-paper-data="{&quot;index&quot;:null}" fill="#ffffff" stroke="#000000" stroke-width="0"/><path d="M87.0502,307.14905c-8.35287,0.0565 -15.13584,0.03543 -16.85146,-1.15688c-1.72009,-1.19542 -0.96396,-11.14499 -0.96858,-20.68184c-0.00463,-9.5235 -0.29091,-19.01641 0.96858,-20.49148c1.23434,-1.44564 8.97173,-1.10387 16.75289,-1.12801c7.85013,-0.02435 15.74473,-0.40151 17.05102,1.12801c1.11855,1.3097 0.77631,10.8047 0.77998,20.3691c0.00366,9.60284 0.34874,19.27564 -0.77998,20.80421c-1.10202,1.4924 -9.60047,1.10715 -16.95243,1.15688z" data-paper-data="{&quot;index&quot;:null}" fill="none" stroke="#ff00ad" stroke-width="2.5"/><text transform="translate(339.48487,185.01765) scale(0.33192,0.33192)" font-size="40" xml:space="preserve" data-paper-data="{&quot;index&quot;:null}" fill="#007e91" fill-rule="nonzero" stroke="#007e91" stroke-width="7" stroke-linecap="butt" stroke-linejoin="miter" stroke-miterlimit="10" stroke-dasharray="" stroke-dashoffset="0" font-family="Handwriting" font-weight="normal" text-anchor="start" style="mix-blend-mode: normal"><tspan x="0" dy="0">COMO JUGAR</tspan></text><text transform="translate(340.48487,182.51765) scale(0.33192,0.33192)" font-size="40" xml:space="preserve" data-paper-data="{&quot;index&quot;:null}" fill="#ffffff" fill-rule="nonzero" stroke="#ffffff" stroke-width="7" stroke-linecap="butt" stroke-linejoin="miter" stroke-miterlimit="10" stroke-dasharray="" stroke-dashoffset="0" font-family="Handwriting" font-weight="normal" text-anchor="start" style="mix-blend-mode: normal"><tspan x="0" dy="0">COMO JUGAR</tspan></text></g></g></svg>