<svg version="1.1" xmlns="http://www.w3.org/2000/svg" xmlns:xlink="http://www.w3.org/1999/xlink" width="88.34685" height="88.34685" viewBox="0,0,88.34685,88.34685"><g transform="translate(-195.82662,-135.8266)"><g data-paper-data="{&quot;isPaintingLayer&quot;:true}" fill-rule="nonzero" stroke-width="0" stroke-linecap="butt" stroke-linejoin="miter" stroke-miterlimit="10" stroke-dasharray="" stroke-dashoffset="0" style="mix-blend-mode: normal"><path d="M195.82663,224.17346v-88.34685h88.34685v88.34685z" fill="none" stroke="#000000"/><path d="M229.68213,195.01502c0,-5.69841 4.61947,-10.31788 10.31788,-10.31788c5.69841,0 10.31788,4.61947 10.31788,10.31788c0,5.69841 -4.61947,10.31788 -10.31788,10.31788c-5.69841,0 -10.31788,-4.61947 -10.31788,-10.31788z" fill="#f23030" stroke="none"/><path d="M229.68213,164.98499c0,-5.69841 4.61947,-10.31788 10.31788,-10.31788c5.69841,0 10.31788,4.61947 10.31788,10.31788c0,5.69841 -4.61947,10.31788 -10.31788,10.31788c-5.69841,0 -10.31788,-4.61947 -10.31788,-10.31788z" fill="#f23030" stroke="none"/></g></g></svg>