<svg version="1.1" xmlns="http://www.w3.org/2000/svg" xmlns:xlink="http://www.w3.org/1999/xlink" width="121" height="121" viewBox="0,0,121,121"><g transform="translate(-179.5,-119.5)"><g data-paper-data="{&quot;isPaintingLayer&quot;:true}" fill-rule="nonzero" stroke-linecap="butt" stroke-linejoin="miter" stroke-miterlimit="10" stroke-dasharray="" stroke-dashoffset="0" style="mix-blend-mode: normal"><path d="M242.81824,181.13197c-0.56219,2.39321 1.56488,0.20137 -3.21771,0.20137c-7.63284,0 -22.91903,9.73298 -31.19358,7.78819c-3.47607,-0.81699 -5.5736,-7.10654 -5.5736,-9.12152c0,-2.04659 2.34067,-9.04157 5.90947,-9.89848c8.30898,-1.99508 23.27519,8.23181 30.85772,8.23182c0,0 3.92964,-0.23217 3.2177,2.79862z" fill="#f7229d" stroke="#000000" stroke-width="4"/><path d="M238.86803,182.81824c-2.39321,-0.56219 -0.20137,1.56488 -0.20137,-3.21771c0,-7.63284 -9.73298,-22.91903 -7.78819,-31.19358c0.81699,-3.47607 7.10654,-5.5736 9.12152,-5.5736c2.04659,0 9.04157,2.34067 9.89848,5.90947c1.99508,8.30898 -8.23181,23.27519 -8.23182,30.85772c0,0 0.23217,3.92964 -2.79862,3.2177z" fill="#f7229d" stroke="#000000" stroke-width="4"/><path d="M241.13197,177.18176c2.39321,0.56219 0.20137,-1.56488 0.20137,3.21771c0,7.63284 9.73298,22.91903 7.78819,31.19358c-0.81699,3.47607 -7.10654,5.5736 -9.12152,5.5736c-2.04659,0 -9.04157,-2.34067 -9.89848,-5.90947c-1.99508,-8.30898 8.23181,-23.27519 8.23182,-30.85772c0,0 -0.23217,-3.92964 2.79862,-3.2177z" fill="#f7229d" stroke="#000000" stroke-width="4"/><path d="M237.18176,178.86803c0.56219,-2.39321 -1.56488,-0.20137 3.21771,-0.20137c7.63284,0 22.91903,-9.73298 31.19358,-7.78819c3.47607,0.81699 5.5736,7.10654 5.5736,9.12152c0,2.04659 -2.34067,9.04157 -5.90947,9.89848c-8.30898,1.99508 -23.27519,-8.23181 -30.85772,-8.23182c0,0 -3.92964,0.23217 -3.2177,-2.79862z" fill="#f7229d" stroke="#000000" stroke-width="4"/><path d="M234.76741,174.76741c2.88988,-2.88988 7.5753,-2.88988 10.46518,0c2.88988,2.88988 2.88988,7.5753 0,10.46518c-2.88988,2.88988 -7.5753,2.88988 -10.46518,0c-2.88988,-2.88988 -2.88988,-7.5753 0,-10.46518z" fill="#becdd8" stroke="#000000" stroke-width="4"/><path d="M179.5,240.5v-121h121v121z" fill="none" stroke="none" stroke-width="0"/><path d="M242.81824,181.13197c-0.56219,2.39321 1.56488,0.20137 -3.21771,0.20137c-7.63284,0 -22.91903,9.73298 -31.19358,7.78819c-3.47607,-0.81699 -5.5736,-7.10654 -5.5736,-9.12152c0,-2.04659 2.34067,-9.04157 5.90947,-9.89848c8.30898,-1.99508 23.27519,8.23181 30.85772,8.23182c0,0 3.92964,-0.23217 3.2177,2.79862z" fill="#f7229d" stroke="none" stroke-width="0"/><path d="M238.86803,182.81824c-2.39321,-0.56219 -0.20137,1.56488 -0.20137,-3.21771c0,-7.63284 -9.73298,-22.91903 -7.78819,-31.19358c0.81699,-3.47607 7.10654,-5.5736 9.12152,-5.5736c2.04659,0 9.04157,2.34067 9.89848,5.90947c1.99508,8.30898 -8.23181,23.27519 -8.23182,30.85772c0,0 0.23217,3.92964 -2.79862,3.2177z" fill="#f7229d" stroke="none" stroke-width="0"/><path d="M241.13197,177.18176c2.39321,0.56219 0.20137,-1.56488 0.20137,3.21771c0,7.63284 9.73298,22.91903 7.78819,31.19358c-0.81699,3.47607 -7.10654,5.5736 -9.12152,5.5736c-2.04659,0 -9.04157,-2.34067 -9.89848,-5.90947c-1.99508,-8.30898 8.23181,-23.27519 8.23182,-30.85772c0,0 -0.23217,-3.92964 2.79862,-3.2177z" fill="#f7229d" stroke="none" stroke-width="0"/><path d="M237.18176,178.86803c0.56219,-2.39321 -1.56488,-0.20137 3.21771,-0.20137c7.63284,0 22.91903,-9.73298 31.19358,-7.78819c3.47607,0.81699 5.5736,7.10654 5.5736,9.12152c0,2.04659 -2.34067,9.04157 -5.90947,9.89848c-8.30898,1.99508 -23.27519,-8.23181 -30.85772,-8.23182c0,0 -3.92964,0.23217 -3.2177,-2.79862z" fill="#f7229d" stroke="none" stroke-width="0"/><path d="M234.76741,174.76741c2.88988,-2.88988 7.5753,-2.88988 10.46518,0c2.88988,2.88988 2.88988,7.5753 0,10.46518c-2.88988,2.88988 -7.5753,2.88988 -10.46518,0c-2.88988,-2.88988 -2.88988,-7.5753 0,-10.46518z" fill="#becdd8" stroke="none" stroke-width="0"/><path d="M235.83333,180c0,-2.30119 1.86548,-4.16667 4.16667,-4.16667c2.30119,0 4.16667,1.86548 4.16667,4.16667c0,2.30119 -1.86548,4.16667 -4.16667,4.16667c-2.30119,0 -4.16667,-1.86548 -4.16667,-4.16667z" fill="none" stroke="#e0f2ff" stroke-width="2.5"/></g></g></svg>