<svg version="1.1" xmlns="http://www.w3.org/2000/svg" xmlns:xlink="http://www.w3.org/1999/xlink" width="533" height="377" viewBox="0,0,533,377"><defs><linearGradient x1="231.91807" y1="105.53278" x2="231.91807" y2="212.81128" gradientUnits="userSpaceOnUse" id="color-1"><stop offset="0" stop-color="#ff4af6"/><stop offset="1" stop-color="#b692ff"/></linearGradient></defs><g transform="translate(26.5,8.5)"><g data-paper-data="{&quot;isPaintingLayer&quot;:true}" fill-rule="nonzero" stroke="none" stroke-width="0" stroke-linecap="butt" stroke-linejoin="miter" stroke-miterlimit="10" stroke-dasharray="" stroke-dashoffset="0" style="mix-blend-mode: normal"><path d="M-26.5,368.5v-377h533v377z" fill="none"/><path d="M-8.82156,119.7069l4.32229,-14.17412c0,0 18.15983,3.32452 34.82646,8.40688c12.00231,3.66001 34.80324,12.67042 62.73676,20.95969c13.60248,4.03652 28.44941,7.81151 43.34379,12.4048c15.12857,4.66554 30.72406,8.80393 45.55142,13.48201c18.36549,5.79438 35.6626,12.05628 50.73825,16.89774c28.92715,9.2898 237.10555,13.96244 237.10555,13.96244c0,0 9.12349,12.93233 -5.24968,19.06283c-7.23654,3.08656 -33.0099,0.95429 -43.47629,1.64211c-36.4222,2.39357 -143.5784,-5.33328 -143.5784,-5.33328c0,0 -50.13894,-7.91225 -83.41224,-18.05868c-15.22035,-4.64133 -37.90195,-14.38626 -63.65232,-22.06417c-14.25106,-4.2492 -27.81464,-7.01966 -42.32127,-11.67183c-10.39232,-3.33274 -23.26439,-4.0955 -32.87444,-7.4088c-1.35201,-0.46613 -64.05992,-28.10762 -64.05992,-28.10762z" fill="url(#color-1)"/></g></g></svg>