<svg version="1.1" xmlns="http://www.w3.org/2000/svg" xmlns:xlink="http://www.w3.org/1999/xlink" width="533" height="377" viewBox="0,0,533,377"><defs><linearGradient x1="209.71138" y1="104.65595" x2="211.95363" y2="124.31462" gradientUnits="userSpaceOnUse" id="color-1"><stop offset="0" stop-color="#ff4af6"/><stop offset="1" stop-color="#b692ff"/></linearGradient></defs><g transform="translate(26.5,8.5)"><g data-paper-data="{&quot;isPaintingLayer&quot;:true}" fill-rule="nonzero" stroke="none" stroke-width="0" stroke-linecap="butt" stroke-linejoin="miter" stroke-miterlimit="10" stroke-dasharray="" stroke-dashoffset="0" style="mix-blend-mode: normal"><path d="M-26.5,368.5v-377h533v377z" fill="none"/><path d="M-3.44936,145.67129l-1.51894,-13.31717c0,0 26.13344,-4.90796 51.16846,-7.76343c18.02869,-2.05633 53.34203,-4.29256 95.18275,-9.26413c20.37469,-2.42097 42.28723,-5.57553 64.68668,-8.08566c22.75167,-2.54959 45.85845,-5.72269 68.21165,-8.1359c27.6872,-2.98906 54.17976,-5.15108 76.95128,-7.53568c43.69395,-4.57556 73.95405,-7.63583 73.95405,-7.63583l1.44661,12.68301c0,0 -71.49887,14.57911 -121.47883,20.27978c-22.86255,2.60768 -58.39529,4.19761 -96.98476,8.751c-21.35664,2.52 -41.02433,5.95247 -62.93293,8.25238c-15.69498,1.64762 -33.39477,6.42029 -48.028,7.75602c-2.05868,0.18792 -100.65802,4.01563 -100.65802,4.01563z" fill="url(#color-1)"/></g></g></svg>