<svg version="1.1" xmlns="http://www.w3.org/2000/svg" xmlns:xlink="http://www.w3.org/1999/xlink" width="71.92222" height="41.16667" viewBox="0,0,71.92222,41.16667"><g transform="translate(-204.03889,-159.41667)"><g data-paper-data="{&quot;isPaintingLayer&quot;:true}" fill-rule="nonzero" stroke-linecap="butt" stroke-linejoin="miter" stroke-miterlimit="10" stroke-dasharray="" stroke-dashoffset="0" style="mix-blend-mode: normal"><path d="M204.03889,200.58334v-41.16667h71.92222v41.16667z" fill="none" stroke="none" stroke-width="0"/><path d="M211.0025,193.25064c-2.12954,-0.93506 -1.71044,-6.69581 -1.63078,-13.27675c0.07012,-5.79237 -0.47298,-12.48803 1.63078,-13.35627c2.15475,-0.88928 15.78988,-0.61742 29.32642,-0.61452c13.48236,0.00289 26.86688,-0.26676 28.71308,0.61452c2.15607,1.02918 1.6244,7.24909 1.59007,13.43395c-0.03403,6.13051 0.44776,12.22656 -1.59007,13.19906c-2.07933,0.9923 -15.46089,0.76676 -28.88559,0.76313c-13.4435,-0.00364 -26.93025,0.21323 -29.15391,-0.76313z" fill="#262626" stroke="#000000" stroke-width="2.5"/><text transform="translate(224.82324,184.35072) scale(0.36256,0.36256)" font-size="40" xml:space="preserve" fill="#ffffff" fill-rule="nonzero" stroke="none" stroke-width="1" stroke-linecap="butt" stroke-linejoin="miter" stroke-miterlimit="10" stroke-dasharray="" stroke-dashoffset="0" font-family="Sans Serif" font-weight="normal" text-anchor="start" style="mix-blend-mode: normal"><tspan x="0" dy="0">Salir</tspan></text></g></g></svg>