<svg version="1.1" xmlns="http://www.w3.org/2000/svg" xmlns:xlink="http://www.w3.org/1999/xlink" width="507.50751" height="463.96397" viewBox="0,0,507.50751,463.96397"><g transform="translate(14.23649,89.26928)"><g data-paper-data="{&quot;isPaintingLayer&quot;:true}" fill-rule="nonzero" stroke="none" stroke-width="0" stroke-linecap="butt" stroke-linejoin="miter" stroke-miterlimit="10" stroke-dasharray="" stroke-dashoffset="0" style="mix-blend-mode: normal"><path d="M211.21622,90.40541v-18.01802l87.28057,-48.16151l-0.06012,-29.33578l55.4222,0.92072v18.01802z" fill="#00c4ff"/><path d="M-14.23649,374.69469v-171.17117c0,0 92.60895,52.60627 175.0465,79.97333c28.98144,9.62106 56.70577,49.1558 78.70726,49.1558c23.48128,0 53.48114,-40.43875 84.57077,-51.13842c80.90181,-27.84282 169.18298,-77.99071 169.18298,-77.99071v171.17118z" fill="#8ae200"/><path d="M493.27102,-89.26927v171.17118c0,0 -88.28118,-50.14789 -169.18299,-77.99071c-31.08963,-10.69968 -61.08948,-51.13842 -84.57076,-51.13842c-22.00149,0 -49.72582,39.53474 -78.70725,49.1558c-82.43755,27.36707 -175.0465,79.97333 -175.0465,79.97333v-171.17117z" data-paper-data="{&quot;index&quot;:null}" fill="#8ae200"/><path d="M350.62838,211.54403v-10.51051h63.06306v10.51051z" fill="#00c4ff"/><path d="M290.56832,189.0215v-18.01802h40.54054v18.01802z" fill="#00c4ff"/><path d="M162.67267,116.93694v-18.01802l78.3461,42.04204h19.2515v18.01802h-22.2545z" fill="#00c4ff"/><path d="M124.39715,117.44492v-18.01802h40.54054v18.01802z" fill="#00c4ff"/></g></g></svg>