<svg version="1.1" xmlns="http://www.w3.org/2000/svg" xmlns:xlink="http://www.w3.org/1999/xlink" width="533" height="377" viewBox="0,0,533,377"><defs><linearGradient x1="240.05403" y1="311.40858" x2="240.05403" y2="348.39516" gradientUnits="userSpaceOnUse" id="color-1"><stop offset="0" stop-color="#ff4af6"/><stop offset="1" stop-color="#b692ff"/></linearGradient><linearGradient x1="246.04915" y1="84.72483" x2="246.04915" y2="118.25088" gradientUnits="userSpaceOnUse" id="color-2"><stop offset="0" stop-color="#ff4af6"/><stop offset="1" stop-color="#b692ff"/></linearGradient></defs><g transform="translate(26.5,8.5)"><g data-paper-data="{&quot;isPaintingLayer&quot;:true}" fill-rule="nonzero" stroke="none" stroke-width="0" stroke-linecap="butt" stroke-linejoin="miter" stroke-miterlimit="10" stroke-dasharray="" stroke-dashoffset="0" style="mix-blend-mode: normal"><path d="M-26.5,368.5v-377h533v377z" fill="none"/><path d="M-5.96247,342.42959v-25.05544c0,0 30.14601,-3.57935 58.78716,-3.57935c20.62558,0 60.79478,3.32747 108.68802,2.95737c23.32202,-0.18024 48.47532,-1.39721 74.09546,-1.31414c26.02302,0.0844 52.5274,-0.914 78.08287,-0.66072c31.65357,0.31373 61.85145,1.91043 87.87566,2.30545c49.93519,0.758 84.50365,1.48453 84.50365,1.48453v23.86231c0,0 -82.62525,11.93117 -139.80446,11.93117c-26.15574,0 -66.48947,-4.57429 -110.65705,-4.29214c-24.44372,0.15615 -47.0976,2.36482 -72.13636,1.99528c-17.93736,-0.26473 -38.5414,4.84994 -55.23952,4.23085c-2.34917,-0.08709 -114.19544,-13.86517 -114.19544,-13.86517z" fill="url(#color-1)"/><path d="M492.06566,112.84346c0,0 -111.84627,12.48898 -114.19544,12.56792c-16.69812,0.56117 -37.30216,-4.07497 -55.23952,-3.835c-25.03876,0.33497 -47.69264,-1.66706 -72.13636,-1.8086c-44.16758,-0.25575 -84.50131,3.89056 -110.65705,3.89056c-57.17921,0 -139.80446,-10.81487 -139.80446,-10.81487v-21.62971c0,0 34.56846,-0.65855 84.50365,-1.34563c26.02421,-0.35806 56.22209,-1.80537 87.87566,-2.08975c25.55547,-0.22958 52.05985,0.67541 78.08287,0.5989c25.62014,-0.0753 50.77344,1.02781 74.09546,1.19119c47.89324,0.33547 88.06244,-2.68067 108.68802,-2.68067c28.64115,0 58.78716,3.24446 58.78716,3.24446v22.71121z" data-paper-data="{&quot;index&quot;:null}" fill="url(#color-2)"/></g></g></svg>