<svg version="1.1" xmlns="http://www.w3.org/2000/svg" xmlns:xlink="http://www.w3.org/1999/xlink" width="311" height="311" viewBox="0,0,311,311"><defs><linearGradient x1="219.32135" y1="109.70552" x2="219.32135" y2="231.03301" gradientUnits="userSpaceOnUse" id="color-1"><stop offset="0" stop-color="#257ea5"/><stop offset="1" stop-color="#b5097a"/></linearGradient><linearGradient x1="219.32135" y1="109.70553" x2="219.32135" y2="231.03302" gradientUnits="userSpaceOnUse" id="color-2"><stop offset="0" stop-color="#257ea5"/><stop offset="1" stop-color="#b5097a"/></linearGradient><linearGradient x1="162.65207" y1="112.34704" x2="162.65207" y2="169.9567" gradientUnits="userSpaceOnUse" id="color-3"><stop offset="0" stop-color="#95e9ec"/><stop offset="1" stop-color="#95e9ec" stop-opacity="0"/></linearGradient><linearGradient x1="178.81796" y1="111.31369" x2="178.81796" y2="111.95954" gradientUnits="userSpaceOnUse" id="color-4"><stop offset="0" stop-color="#95e9ec"/><stop offset="1" stop-color="#95e9ec" stop-opacity="0"/></linearGradient><linearGradient x1="207.06329" y1="112.50457" x2="207.06329" y2="170.2622" gradientUnits="userSpaceOnUse" id="color-5"><stop offset="0" stop-color="#95e9ec"/><stop offset="1" stop-color="#95e9ec" stop-opacity="0"/></linearGradient><linearGradient x1="213.18226" y1="111.83297" x2="230.19619" y2="111.83297" gradientUnits="userSpaceOnUse" id="color-6"><stop offset="0" stop-color="#95e9ec"/><stop offset="1" stop-color="#95e9ec" stop-opacity="0"/></linearGradient><linearGradient x1="216.50217" y1="152.90598" x2="216.50217" y2="159.13684" gradientUnits="userSpaceOnUse" id="color-7"><stop offset="0" stop-color="#474849"/><stop offset="1" stop-color="#222326"/></linearGradient><linearGradient x1="228.64331" y1="152.50322" x2="228.64331" y2="158.73409" gradientUnits="userSpaceOnUse" id="color-8"><stop offset="0" stop-color="#474849"/><stop offset="1" stop-color="#222326"/></linearGradient><linearGradient x1="253.90574" y1="112.13861" x2="253.90574" y2="174.73912" gradientUnits="userSpaceOnUse" id="color-9"><stop offset="0" stop-color="#95e9ec"/><stop offset="1" stop-color="#95e9ec" stop-opacity="0"/></linearGradient><linearGradient x1="253.79267" y1="111.74311" x2="270.17732" y2="111.74311" gradientUnits="userSpaceOnUse" id="color-10"><stop offset="0" stop-color="#95e9ec"/><stop offset="1" stop-color="#95e9ec" stop-opacity="0"/></linearGradient><linearGradient x1="288.80723" y1="112.06898" x2="288.80723" y2="174.66949" gradientUnits="userSpaceOnUse" id="color-11"><stop offset="0" stop-color="#95e9ec"/><stop offset="1" stop-color="#95e9ec" stop-opacity="0"/></linearGradient><linearGradient x1="288.69425" y1="111.67346" x2="305.07884" y2="111.67346" gradientUnits="userSpaceOnUse" id="color-12"><stop offset="0" stop-color="#95e9ec"/><stop offset="1" stop-color="#95e9ec" stop-opacity="0"/></linearGradient><linearGradient x1="180.15997" y1="204.95457" x2="180.15997" y2="226.64583" gradientUnits="userSpaceOnUse" id="color-13"><stop offset="0" stop-color="#f875bc"/><stop offset="1" stop-color="#f875bc" stop-opacity="0"/></linearGradient><linearGradient x1="207.36796" y1="206.40192" x2="216.04467" y2="206.40192" gradientUnits="userSpaceOnUse" id="color-14"><stop offset="0" stop-color="#f875bc"/><stop offset="1" stop-color="#f875bc" stop-opacity="0"/></linearGradient><linearGradient x1="233.45356" y1="206.5178" x2="242.13027" y2="206.5178" gradientUnits="userSpaceOnUse" id="color-15"><stop offset="0" stop-color="#f875bc"/><stop offset="1" stop-color="#f875bc" stop-opacity="0"/></linearGradient><linearGradient x1="206.49616" y1="207.19576" x2="206.49616" y2="231.03821" gradientUnits="userSpaceOnUse" id="color-16"><stop offset="0" stop-color="#f875bc"/><stop offset="1" stop-color="#f875bc" stop-opacity="0"/></linearGradient><linearGradient x1="232.65414" y1="207.05702" x2="232.65414" y2="230.89946" gradientUnits="userSpaceOnUse" id="color-17"><stop offset="0" stop-color="#f875bc"/><stop offset="1" stop-color="#f875bc" stop-opacity="0"/></linearGradient><linearGradient x1="263.75164" y1="226.786" x2="263.75164" y2="246.47943" gradientUnits="userSpaceOnUse" id="color-18"><stop offset="0" stop-color="#f875bc"/><stop offset="1" stop-color="#f875bc" stop-opacity="0"/></linearGradient><linearGradient x1="250.50935" y1="206.43969" x2="261.41419" y2="206.43969" gradientUnits="userSpaceOnUse" id="color-19"><stop offset="0" stop-color="#f875bc"/><stop offset="1" stop-color="#f875bc" stop-opacity="0"/></linearGradient><linearGradient x1="277.52708" y1="206.55435" x2="288.88157" y2="206.55435" gradientUnits="userSpaceOnUse" id="color-20"><stop offset="0" stop-color="#f875bc"/><stop offset="1" stop-color="#f875bc" stop-opacity="0"/></linearGradient><linearGradient x1="294.20848" y1="237.79265" x2="306.48527" y2="237.79265" gradientUnits="userSpaceOnUse" id="color-21"><stop offset="0" stop-color="#f875bc"/><stop offset="1" stop-color="#f875bc" stop-opacity="0"/></linearGradient><linearGradient x1="293.31679" y1="237.76726" x2="294.17185" y2="238.47493" gradientUnits="userSpaceOnUse" id="color-22"><stop offset="0" stop-color="#f875bc"/><stop offset="1" stop-color="#f875bc" stop-opacity="0"/></linearGradient></defs><g transform="translate(-84.5,-24.5)"><g data-paper-data="{&quot;isPaintingLayer&quot;:true}" fill-rule="nonzero" stroke-linecap="butt" stroke-linejoin="miter" stroke-miterlimit="10" stroke-dasharray="" stroke-dashoffset="0" style="mix-blend-mode: normal"><path d="M166.86138,214.31007l8.62116,-13.6526c0,0 -14.45454,-90.01943 -13.57849,-90.38584c0.6616,-0.27671 37.86488,0.33338 37.86488,0.33338l41.51208,50.98036c0,0 5.94486,-31.63859 10.57032,-51.31587c0.1039,-0.44204 19.19452,20.25546 19.19452,20.25546c0,0 9.00412,-12.66382 16.16562,-20.74287c0.48796,-0.55048 20.91663,90.42428 20.91663,90.42428l6.41181,8.27l-15.93576,7.37933l10.82618,21.40504l-14.53994,9.80074l-6.12428,-3.98204l-15.91907,-17.09287c0,0 -10.08928,21.78326 -10.43071,21.43023c-5.42878,-5.61334 -20.89123,-22.71695 -20.89123,-22.71695l-16.82434,17.44845l-14.81386,-17.49577l-10.48619,21.35536l-25.76136,-9.10464z" fill="url(#color-1)" stroke="#ffffff" stroke-width="6.25"/><path d="M161.20971,201.63749c-0.11041,-12.82841 -0.68278,-79.93761 -0.64463,-88.13646c0.00747,-1.61031 -0.25817,-1.85503 0.44633,-2.62776c0.70451,-0.77272 1.52097,-0.65467 2.55165,-0.66057c3.63281,-0.02084 24.99833,-0.29114 32.91992,-0.22905c0.80694,0.00634 2.13583,0.12861 2.64954,0.67394c0.65699,0.6974 0.39362,1.94901 0.43024,3.05805c0.12872,3.90077 0.27282,10.43907 -0.00856,14.82927c-0.04595,0.71692 -13.9982,0.13088 -18.54503,0.21514c-0.47839,0.00887 -0.59721,0.5361 -0.84651,0.54947c-0.09642,0.00515 -0.14511,0.37607 -0.16944,1.24356c-0.04312,1.53699 -0.00966,4.63288 -0.02919,10.01581c-0.00043,0.11575 -0.02054,1.02976 0.633,1.63819c0.43223,0.4024 1.80595,0.07794 1.80595,0.07794l12.93595,-0.11047c0,0 1.69465,0.26279 1.95126,0.38077c0.97016,0.44609 0.41325,0.93966 0.64829,2.01702c0.36811,1.68755 -0.02589,12.85366 -0.02589,12.85366c0,0 -0.04383,1.58358 -0.73369,2.29633c-0.12053,0.12454 -1.32412,1.07999 -1.32412,1.07999l-11.99393,-0.01554c0,0 -2.1891,0.08456 -2.33871,0.21982c-0.14579,0.1318 -0.37713,1.84592 -0.37713,1.84592l-0.29452,38.13994l-0.25474,2.11031l-1.65944,0.64968c0,0 -13.75582,0 -16.02524,0c-0.85878,0 -0.83831,0.0787 -1.25005,-0.43312c0,0 -0.43958,-0.31729 -0.45131,-1.68184z" fill="#30d8de" stroke="#ffffff" stroke-width="7.5"/><path d="M194.89435,202.29462c-0.26665,-0.41536 -0.58048,-0.11724 -0.40138,-1.12148c1.20883,-6.77708 13.99176,-79.02498 16.04399,-90.01442c0.16957,-0.9081 0.96787,-1.39791 0.96787,-1.39791h21.02821c0,0 0.8953,0.31918 1.23224,2.15381c2.70686,14.73883 14.28997,82.37347 15.43662,88.78981c0.17341,0.97029 0.11108,0.77865 -0.35389,1.4135c-0.46495,0.63485 -1.22643,0.74432 -1.22643,0.74432c0,0 -9.18647,-0.11833 -15.79517,-0.09682c-2.25931,0.00738 -4.74726,-14.86949 -5.8322,-16.66486c-0.3045,-0.50391 -0.80535,-0.47232 -1.66718,-0.65274c-1.01943,-0.21341 -3.1077,-0.17384 -3.1077,-0.17384c0,0 -2.09993,-0.09832 -2.74668,0.0597c-1.01171,0.24717 -1.78302,0.43032 -2.01967,0.8615c-0.74656,1.36019 -2.53304,10.09118 -3.98753,14.47843c-0.56528,1.70505 -0.78038,2.15394 -1.31306,2.1557c-0.46105,0.0015 -1.1104,0.35648 -1.59092,0.35806c-3.98806,0.01324 -13.66415,0.17319 -13.66415,0.17319c0,0 -0.73633,-0.6506 -1.00301,-1.06594z" fill="#30d8de" stroke="#ffffff" stroke-width="7.5"/><path d="M252.63606,203.17584c0,0 -0.35032,-0.14037 -0.35222,-1.04826c-0.02276,-10.96902 -0.17174,-82.98835 -0.17174,-90.11922c0,-1.11868 -0.15787,-0.8393 0.3493,-1.3972c0.50716,-0.55791 0.58574,-0.52394 1.39721,-0.52394c2.20206,0 16.95122,0.02723 16.95122,0.02723c0,0 1.32967,0.05729 1.38703,0.3221c0.02551,0.11766 0.23963,1.57352 0.23963,1.57352l-0.14864,70.88982c0,0 -0.01928,1.7862 0.09671,1.93759c0.21886,0.28563 1.49148,0.35476 1.49148,0.35476l8.37366,-0.02597c0,0 1.47542,-0.20601 1.55986,0.51407c0.03227,0.27533 0.76693,1.4238 0.76693,1.4238l-0.09853,13.62046l-0.23018,1.92738l-1.93763,0.96915c0,0 -24.83968,-0.07933 -28.45043,-0.09086c-0.849,-0.00271 -1.22367,-0.35431 -1.22367,-0.35431z" fill="#30d8de" stroke="#ffffff" stroke-width="7.5"/><path d="M287.53753,203.10619c0,0 -0.35032,-0.14037 -0.35222,-1.04825c-0.02276,-10.96902 -0.17174,-82.98836 -0.17174,-90.11922c0,-1.11868 -0.15789,-0.83929 0.34929,-1.3972c0.50716,-0.55791 0.58574,-0.52397 1.3972,-0.52397c2.20206,0 16.95122,0.02723 16.95122,0.02723c0,0 1.32968,0.05728 1.38705,0.32209c0.02551,0.11766 0.23962,1.57353 0.23962,1.57353l-0.14865,70.88982c0,0 -0.01927,1.7862 0.09672,1.93759c0.21886,0.28563 1.49145,0.35476 1.49145,0.35476l8.37366,-0.02597c0,0 1.47542,-0.20601 1.55986,0.51407c0.03227,0.27533 0.76695,1.4238 0.76695,1.4238l-0.09854,13.62047l-0.23015,1.92738l-1.93763,0.96914c0,0 -24.83966,-0.07931 -28.45045,-0.09085c-0.849,-0.00271 -1.22365,-0.35432 -1.22365,-0.35432z" fill="#30d8de" stroke="#ffffff" stroke-width="7.5"/><path d="M200.7535,225.64768l-0.19036,19.66122c0,0 -0.06834,1.72508 -2.06616,2.15076c-1.50351,1.06557 -16.39559,4.35229 -25.57868,0.52309c-8.3794,-3.49406 -11.18351,-13.77054 -11.18351,-19.89136c0,-12.82873 8.71615,-22.34334 19.38619,-23.22849c9.5348,-0.791 14.1492,0.44585 17.33052,4.65224c0.52424,0.69317 0.3353,2.02643 0.3353,2.02643c0,0 -2.73332,6.15493 -3.76799,6.71228c-0.75007,0.40402 -2.01739,0.46954 -2.01739,0.46954c0,0 -5.20977,-2.64145 -9.42228,-2.33477c-4.03152,0.29349 -7.05987,3.50265 -7.65016,4.91267c-2.12329,5.07194 -0.55132,12.22238 1.46599,14.31886c3.81236,3.96197 10.98407,2.59629 11.14238,2.60404c0.26835,0.01314 0.31295,-3.38315 0.31295,-3.38315c0,0 0.30447,-0.93414 -0.05612,-1.38718c-0.34633,-0.43515 -1.36774,-0.58103 -1.36774,-0.58103l-3.23511,0.03506c0,0 -1.7114,-0.08813 -1.83751,-0.31989c-0.42376,-0.77867 -0.20023,-7.67111 -0.20023,-7.67111c0,0 0.18008,-0.87393 0.48085,-1.172c0.35815,-0.35491 1.52609,-0.11829 1.52609,-0.11829l14.67609,-0.25997c0,0 1.29432,0.04067 1.6705,0.53318z" fill="#f73ca3" stroke="#ffffff" stroke-width="7.5"/><path d="M209.50294,245.37032c-0.39631,-0.21314 -3.36183,-3.33572 -3.90541,-8.53245c-1.23521,-11.8086 -0.3641,-29.46618 -0.3641,-29.46618c0,0 0.4226,-1.45651 1.38575,-1.70374c2.44917,-0.62871 7.44028,-0.43954 9.03934,-0.28356c1.57235,0.15338 1.88832,1.24633 1.88832,1.24633l-0.08986,18.01297c0,0 -0.49785,12.58224 7.41618,12.82804c7.30532,0.22693 6.65858,-13.02184 6.65858,-13.02184l-0.11577,-17.75298c0,0 0.25571,-1.03525 1.53321,-1.16763c1.39665,-0.14472 6.73587,-0.47668 9.3632,-0.07524c1.51661,0.23173 1.13318,1.91762 1.13318,1.91762c0,0 0.48238,21.8307 0.28365,28.5472c-0.10805,3.65164 -1.55993,6.45739 -2.84536,7.95711c-1.27442,1.48692 -2.85851,6.059 -15.80513,6.3517c-11.55526,0.26123 -13.97609,-3.99693 -15.57577,-4.85738z" fill="#f73ca3" stroke="#ffffff" stroke-width="7.5"/><path d="M262.63819,246.83933l0.02452,-20.08594l-12.86316,-19.85371c0,0 -1.04354,-0.89849 -0.25573,-0.90104c0.31452,-0.00104 1.40545,-0.64978 1.40545,-0.64978l9.60836,0.02819c0,0 0.94211,0.10557 1.26037,0.27851c0.5612,0.30501 1.81378,1.39224 1.81378,1.39224l5.86125,9.13667l6.17878,-9.02396c0,0 0.84594,-0.99223 1.24597,-1.27972c0.37158,-0.26707 1.58732,-0.3885 1.58732,-0.3885l9.33032,-0.00101c0,0 1.59098,0.17361 1.81914,0.46393c0.24075,0.30636 -0.41037,1.32868 -0.41037,1.32868l-12.97688,19.59351l-0.08594,19.8511c0,0 -0.2753,0.95046 -0.55124,1.31094c-0.29024,0.3792 -1.14944,0.91097 -1.14944,0.91097l-9.80597,-0.09842c0,0 -1.18559,-0.56769 -1.30005,-0.84283z" fill="#f73ca3" stroke="#ffffff" stroke-width="7.5"/><path d="M316.84138,242.77059c-1.79929,3.31643 -4.20119,5.14569 -10.42615,5.42009c-7.56455,0.33346 -14.01943,-0.87422 -16.98325,-5.42551c-0.49644,-0.76235 3.40447,-5.79143 3.40447,-5.79143c0,0 0.8585,-0.90376 1.43699,-1.16501c0.61667,-0.27848 2.20869,0.37403 2.20869,0.37403c0,0 9.04301,4.66024 9.9416,-0.04649c0.63817,-3.34255 -9.51472,-5.93291 -13.78397,-10.2591c-1.27155,-1.2885 -2.09473,-5.95147 -2.09473,-6.17966c0,-11.84642 8.46945,-14.4584 15.87018,-14.40662c5.07847,0.03554 8.59936,1.4929 10.559,3.9566c1.10817,1.39323 -2.40303,6.07831 -4.09363,7.26527c-0.38565,0.27075 -2.30365,-0.62982 -2.30365,-0.62982c0,0 -7.3769,-2.01445 -8.11486,-0.1986c-1.3581,3.34195 9.52495,6.31814 14.25664,11.97425c4.03522,4.82353 2.12486,11.42143 0.12261,15.11196z" fill="#f73ca3" stroke="#ffffff" stroke-width="7.5"/><path d="M166.86138,214.31008l8.62116,-13.6526l-13.57849,-90.38584l37.48988,-0.16662l41.88708,51.48036l10.57032,-51.31587l19.19452,20.25546l16.16562,-20.74287l20.91663,90.42428l6.41181,8.27l-15.93576,7.37933l10.82618,21.40504l-14.53994,9.80074l-6.12428,-3.98204l-15.91907,-17.09287l-10.43071,21.43023l-20.89123,-22.71695l-16.82434,17.44845l-14.81386,-17.49577l-10.36119,22.48036l-25.88636,-10.22964z" fill="url(#color-2)" stroke="none" stroke-width="0"/><path d="M161.66107,203.31933c-0.41172,-0.51182 -0.43963,-0.31729 -0.45136,-1.68184c-0.11041,-12.82841 -0.68278,-79.93761 -0.64463,-88.13646c0.00747,-1.61031 -0.25817,-1.85503 0.44633,-2.62776c0.70451,-0.77272 1.52097,-0.65467 2.55165,-0.66057c3.63281,-0.02084 24.99833,-0.29114 32.91992,-0.22905c0.80694,0.00634 2.13583,0.12861 2.64954,0.67394c0.65699,0.6974 0.39362,1.94901 0.43024,3.05805c0.12872,3.90077 0.27282,10.43907 -0.00856,14.82927c-0.04595,0.71692 -13.9982,0.13088 -18.54503,0.21514c-0.47839,0.00887 -0.59721,0.5361 -0.84651,0.54947c-0.09642,0.00515 -0.14511,0.37607 -0.16944,1.24356c-0.04312,1.53699 -0.00966,4.63288 -0.02919,10.01581c-0.00043,0.11575 -0.02054,1.02976 0.633,1.63819c0.43223,0.4024 1.80595,0.07794 1.80595,0.07794l12.93595,-0.11047c0,0 1.69465,0.26279 1.95126,0.38077c0.97016,0.44609 0.41325,0.93966 0.64829,2.01702c0.36811,1.68755 -0.02589,12.85366 -0.02589,12.85366c0,0 -0.04383,1.58358 -0.73369,2.29633c-0.12053,0.12454 -1.32412,1.07999 -1.32412,1.07999l-11.99393,-0.01554c0,0 -2.1891,0.08456 -2.33871,0.21982c-0.14579,0.1318 -0.37713,1.84592 -0.37713,1.84592l-0.29452,38.13994l-0.25474,2.11031l-1.65944,0.64968c0,0 -13.75582,0 -16.02524,0c-0.85878,0 -0.83831,0.0787 -1.25005,-0.43312z" fill="#30d8de" stroke="#07b0bb" stroke-width="1.25"/><path d="M162.07079,169.9567v-57.60963h1.16253v57.60963z" fill="url(#color-3)" stroke="none" stroke-width="0"/><path d="M163.57599,111.95954v-0.64584h30.48403v0.64584z" fill="url(#color-4)" stroke="none" stroke-width="0"/><path d="M163.15216,112.56752c-0.3862,0.31657 -0.8276,0.41666 -0.9859,0.22354c-0.15829,-0.19308 0.0265,-0.60628 0.4127,-0.92284c0.3862,-0.31657 0.82762,-0.41665 0.9859,-0.22353c0.15829,0.19308 -0.02651,0.60626 -0.41271,0.92283z" fill="#f9f8f8" stroke="none" stroke-width="0"/><path d="M194.89435,202.62796c-0.26665,-0.41536 -0.58048,-0.11724 -0.40138,-1.12148c1.20883,-6.77708 13.99176,-79.02498 16.04399,-90.01442c0.16957,-0.9081 0.96787,-1.39791 0.96787,-1.39791h21.02821c0,0 0.8953,0.31918 1.23224,2.15381c2.70686,14.73883 14.28997,82.37347 15.43662,88.78981c0.17341,0.97029 0.11108,0.77865 -0.35389,1.4135c-0.46495,0.63485 -1.22643,0.74432 -1.22643,0.74432c0,0 -9.18647,-0.11833 -15.79517,-0.09682c-2.25931,0.00738 -4.74726,-14.86949 -5.8322,-16.66486c-0.3045,-0.50391 -0.80535,-0.47232 -1.66718,-0.65274c-1.01943,-0.21341 -3.1077,-0.17384 -3.1077,-0.17384c0,0 -2.09993,-0.09832 -2.74668,0.0597c-1.01171,0.24717 -1.78302,0.43032 -2.01967,0.8615c-0.74656,1.36019 -2.53304,10.09118 -3.98753,14.47843c-0.56528,1.70505 -0.78038,2.15394 -1.31306,2.1557c-0.46105,0.0015 -1.1104,0.35648 -1.59092,0.35806c-3.98806,0.01324 -13.66415,0.17319 -13.66415,0.17319c0,0 -0.73633,-0.6506 -1.00301,-1.06594z" fill="#30d8de" stroke="#07b0bb" stroke-width="1.25"/><path d="M237.10243,152.45646c0,7.91153 -6.56654,14.32509 -14.66674,14.32509c-8.10022,0 -14.66674,-6.41358 -14.66674,-14.32509c0,-7.91153 6.56654,-14.32509 14.66674,-14.32509c8.10022,0 14.66674,6.41356 14.66674,14.32509z" fill="#ffffff" stroke="none" stroke-width="0"/><path d="M211.33286,162.33312c0,0 -3.76092,-5.09049 -3.47338,-10.20634c0.25369,-4.51406 1.23105,-6.58282 3.44282,-9.19222c1.67432,-1.97531 5.00271,-4.76005 11.16741,-4.77089c5.99762,-0.01057 7.51836,1.85008 8.71668,2.7862c4.61754,3.60708 5.50344,7.94829 5.77366,9.77824c-0.14792,9.42444 -3.68942,11.26346 -3.68942,11.26346c0,0 4.78128,-7.85616 1.44803,-14.3782c-0.82056,-1.60552 -2.85128,-7.49211 -12.25168,-7.62274c-8.68786,-0.12071 -11.54476,5.68296 -12.35959,7.89003c-2.34954,6.36398 1.22554,14.45246 1.22554,14.45246z" fill="#e6e6e6" stroke="none" stroke-width="0"/><path d="M210.71126,163.59722c0,0 2.96036,2.16787 6.19039,3.47577c1.98112,0.8022 4.24989,1.00156 5.4507,1.00156c1.21334,0 3.72324,-0.3252 5.78685,-1.26773c3.22385,-1.47245 6.00347,-3.8066 6.00347,-3.8066c0,0 -2.39364,2.68148 -5.63464,4.41621c-2.05733,1.10118 -4.99074,1.55356 -6.15567,1.55356c-1.14457,0 -3.97255,-0.36853 -5.80231,-1.23258c-3.36322,-1.58813 -5.83876,-4.14025 -5.83876,-4.14025z" fill="#96e8ec" stroke="none" stroke-width="0"/><path d="M201.24274,170.2622l10.74562,-57.75764h0.89545l-10.44711,56.41444z" fill="url(#color-5)" stroke="none" stroke-width="0"/><path d="M213.18226,112.20604v-0.74622h17.01388v0.74622z" fill="url(#color-6)" stroke="none" stroke-width="0"/><path d="M212.84187,112.40693c-0.3862,0.31657 -0.82761,0.41666 -0.98587,0.22355c-0.15829,-0.19308 0.0265,-0.60627 0.4127,-0.92281c0.3862,-0.31657 0.82761,-0.41666 0.98587,-0.22355c0.15829,0.19308 -0.02651,0.60627 -0.41271,0.92284z" fill="#f9f8f8" stroke="none" stroke-width="0"/><path d="M218.18834,155.94007c0.14704,3.03442 -0.60152,3.1438 -1.52921,3.18875c-0.92773,0.04494 -1.61589,0.00427 -1.83039,-3.02595c-0.20132,-2.8441 0.60148,-3.1438 1.52922,-3.18877c0.92773,-0.04494 1.68333,-0.00846 1.83038,3.02595z" fill="url(#color-7)" stroke="#000000" stroke-width="0.5"/><path d="M215.97909,153.77176c0,0.20607 -0.16707,0.37314 -0.37314,0.37314c-0.20607,0 -0.37314,-0.16707 -0.37314,-0.37314c0,-0.20607 0.16706,-0.37313 0.37314,-0.37313c0.20607,0 0.37314,0.16705 0.37314,0.37313z" fill="#d1d1d1" stroke="none" stroke-width="0"/><path d="M230.3295,155.53732c0.14704,3.03442 -0.60148,3.14381 -1.52921,3.18878c-0.92773,0.04494 -1.61589,0.00426 -1.83039,-3.02595c-0.20133,-2.8441 0.60147,-3.1438 1.5292,-3.18877c0.92773,-0.04494 1.68333,-0.00845 1.83038,3.02597z" fill="url(#color-8)" stroke="#000000" stroke-width="0.5"/><path d="M228.12024,153.36903c0,0.20607 -0.16707,0.37314 -0.37314,0.37314c-0.20607,0 -0.37314,-0.16707 -0.37314,-0.37314c0,-0.20607 0.16706,-0.37314 0.37314,-0.37314c0.20607,0 0.37314,0.16705 0.37314,0.37314z" fill="#d1d1d1" stroke="none" stroke-width="0"/><path d="M206.6321,151.99359c0.2736,-4.86822 1.32762,-7.09928 3.71292,-9.9134c1.80568,-2.13029 5.39519,-5.1335 12.04354,-5.14519c6.46819,-0.01137 8.10822,1.99525 9.40053,3.00478c4.9798,3.89007 5.9352,8.57186 6.22661,10.54539c-0.15952,10.16384 -4.84034,12.05143 -4.84034,12.05143c0,0 6.01786,-8.37678 2.42305,-15.41051c-0.88494,-1.73151 -3.07499,-8.07993 -13.21288,-8.22075c-9.36945,-0.13017 -12.45049,6.12883 -13.32924,8.50904c-2.53385,6.86326 1.89598,14.62914 1.89598,14.62914c0,0 -4.63026,-4.53271 -4.32018,-10.04994z" fill="#18c0ca" stroke="none" stroke-width="0"/><path d="M252.63606,203.17584c0,0 -0.35032,-0.14037 -0.35222,-1.04826c-0.02276,-10.96902 -0.17174,-82.98835 -0.17174,-90.11922c0,-1.11868 -0.15787,-0.8393 0.3493,-1.3972c0.50716,-0.55791 0.58574,-0.52394 1.39721,-0.52394c2.20206,0 16.95122,0.02723 16.95122,0.02723c0,0 1.32967,0.05729 1.38703,0.3221c0.02551,0.11766 0.23963,1.57352 0.23963,1.57352l-0.14864,70.88982c0,0 -0.01928,1.7862 0.09671,1.93759c0.21886,0.28563 1.49148,0.35476 1.49148,0.35476l8.37366,-0.02597c0,0 1.47542,-0.20601 1.55986,0.51407c0.03227,0.27533 0.76693,1.4238 0.76693,1.4238l-0.09853,13.62046l-0.23018,1.92738l-1.93763,0.96915c0,0 -24.83968,-0.07933 -28.45043,-0.09086c-0.849,-0.00271 -1.22367,-0.35431 -1.22367,-0.35431z" fill="#30d8de" stroke="#07b0bb" stroke-width="1.25"/><path d="M253.34071,174.73912v-62.60051h1.12998v62.60054z" fill="url(#color-9)" stroke="none" stroke-width="0"/><path d="M253.79267,112.25159v-1.01698h16.38461v1.01698z" fill="url(#color-10)" stroke="none" stroke-width="0"/><path d="M254.09312,112.09225c-0.29799,0.3081 -0.67408,0.42779 -0.83999,0.26734c-0.16589,-0.16045 -0.05882,-0.54031 0.23919,-0.8484c0.29799,-0.3081 0.67408,-0.4278 0.83999,-0.26734c0.16589,0.16045 0.05882,0.54032 -0.23919,0.84842z" fill="#f9f8f8" stroke="none" stroke-width="0"/><path d="M287.53753,203.10619c0,0 -0.35032,-0.14037 -0.35222,-1.04825c-0.02276,-10.96902 -0.17174,-82.98836 -0.17174,-90.11922c0,-1.11868 -0.15789,-0.83929 0.34929,-1.3972c0.50716,-0.55791 0.58574,-0.52397 1.3972,-0.52397c2.20206,0 16.95122,0.02723 16.95122,0.02723c0,0 1.32968,0.05728 1.38705,0.32209c0.02551,0.11766 0.23962,1.57353 0.23962,1.57353l-0.14865,70.88982c0,0 -0.01927,1.7862 0.09672,1.93759c0.21886,0.28563 1.49145,0.35476 1.49145,0.35476l8.37366,-0.02597c0,0 1.47542,-0.20601 1.55986,0.51407c0.03227,0.27533 0.76695,1.4238 0.76695,1.4238l-0.09854,13.62047l-0.23015,1.92738l-1.93763,0.96914c0,0 -24.83966,-0.07931 -28.45045,-0.09085c-0.849,-0.00271 -1.22365,-0.35432 -1.22365,-0.35432z" fill="#30d8de" stroke="#07b0bb" stroke-width="1.25"/><path d="M288.24221,174.66949v-62.60051h1.12998v62.60052z" fill="url(#color-11)" stroke="none" stroke-width="0"/><path d="M288.69425,112.18197v-1.01698h16.38462v1.01698z" fill="url(#color-12)" stroke="none" stroke-width="0"/><path d="M288.99462,112.02258c-0.29798,0.3081 -0.67408,0.4278 -0.83999,0.26735c-0.16589,-0.16045 -0.05882,-0.5403 0.23919,-0.84841c0.29798,-0.3081 0.67409,-0.4278 0.83998,-0.26733c0.16589,0.16045 0.05882,0.54031 -0.23917,0.8484z" fill="#f9f8f8" stroke="none" stroke-width="0"/><path d="M200.50716,223.89979c0.37616,0.49251 0.24634,1.74789 0.24634,1.74789l-0.19036,19.66122c0,0 -0.06834,1.72508 -2.06616,2.15076c-1.50351,1.06557 -16.39559,4.35229 -25.57868,0.52309c-8.3794,-3.49406 -11.18351,-13.77054 -11.18351,-19.89136c0,-12.82873 8.71615,-22.34334 19.38619,-23.22849c9.5348,-0.791 14.1492,0.44585 17.33052,4.65224c0.52424,0.69317 0.3353,2.02643 0.3353,2.02643c0,0 -2.73332,6.15493 -3.76799,6.71228c-0.75007,0.40402 -2.01739,0.46954 -2.01739,0.46954c0,0 -5.20977,-2.64145 -9.42228,-2.33477c-4.03152,0.29349 -7.05987,3.50265 -7.65016,4.91267c-2.12329,5.07194 -0.55132,12.22238 1.46599,14.31886c3.81236,3.96197 10.98407,2.59629 11.14238,2.60404c0.26835,0.01314 0.31295,-3.38315 0.31295,-3.38315c0,0 0.30447,-0.93414 -0.05612,-1.38718c-0.34633,-0.43515 -1.36774,-0.58103 -1.36774,-0.58103l-3.23511,0.03506c0,0 -1.7114,-0.08813 -1.83751,-0.31989c-0.42376,-0.77867 -0.20023,-7.67111 -0.20023,-7.67111c0,0 0.18008,-0.87393 0.48085,-1.172c0.35815,-0.35491 1.52609,-0.11829 1.52609,-0.11829l14.67609,-0.25997c0,0 1.29432,0.04067 1.6705,0.53318z" fill="#f73ca3" stroke="#e91c88" stroke-width="1.25"/><path d="M162.59256,226.64583c0,0 0.57433,-4.85066 1.12924,-6.66948c0.3065,-1.00462 1.55618,-4.37045 3.63318,-6.94745c2.53593,-3.1464 6.21155,-5.585 9.73978,-6.96328c4.83877,-1.89022 11.78743,-0.91299 13.91425,-0.37137c4.5622,1.16185 6.71837,4.84895 6.71837,4.84895c0,0 -1.13008,-4.00502 -11.55952,-4.27449c-1.51732,-0.03921 -5.47009,-0.20021 -9.06491,1.14565c-3.34222,1.25127 -6.337,3.78722 -7.39405,5.06455c-4.51325,5.45385 -7.11629,14.16694 -7.11629,14.16694z" fill="url(#color-13)" stroke="none" stroke-width="0"/><path d="M175.04809,208.57841c-0.49087,0.21942 -0.84847,0.45195 -0.98351,0.14987c-0.13501,-0.30208 0.15346,-0.72482 0.64432,-0.94422c0.49087,-0.21942 0.99824,-0.1524 1.13329,0.14968c0.13501,0.30208 -0.30325,0.4253 -0.79409,0.64466z" fill="#f9f8f8" stroke="none" stroke-width="0"/><path d="M172.58327,209.25798c0.35082,0.39327 -0.24664,0.68832 -0.90608,1.25288c-0.65947,0.56455 -2.22942,1.7736 -2.22942,1.7736c0,0 1.09101,-1.56531 1.75048,-2.12989c0.65947,-0.56455 1.22452,-1.07657 1.38503,-0.89661z" fill="#f9f8f8" stroke="none" stroke-width="0"/><path d="M209.50294,245.37032c-0.39631,-0.21314 -3.36183,-3.33572 -3.90541,-8.53245c-1.23521,-11.8086 -0.3641,-29.46618 -0.3641,-29.46618c0,0 0.4226,-1.45651 1.38575,-1.70374c2.44917,-0.62871 7.44028,-0.43954 9.03934,-0.28356c1.57235,0.15338 1.88832,1.24633 1.88832,1.24633l-0.08986,18.01297c0,0 -0.49785,12.58224 7.41618,12.82804c7.30532,0.22693 6.65858,-13.02184 6.65858,-13.02184l-0.11577,-17.75298c0,0 0.25571,-1.03525 1.53321,-1.16763c1.39665,-0.14472 6.73587,-0.47668 9.3632,-0.07524c1.51661,0.23173 1.13318,1.91762 1.13318,1.91762c0,0 0.48238,21.8307 0.28365,28.5472c-0.10805,3.65164 -1.55993,6.45739 -2.84536,7.95711c-1.27442,1.48692 -2.85851,6.059 -15.80513,6.3517c-11.55526,0.26123 -13.97609,-3.99693 -15.57577,-4.85738z" fill="#f73ca3" stroke="#e91c88" stroke-width="1.25"/><path d="M207.36796,206.82887v-0.8539h8.67672v0.8539z" fill="url(#color-14)" stroke="none" stroke-width="0"/><path d="M233.45356,206.94475v-0.8539h8.67673v0.8539z" fill="url(#color-15)" stroke="none" stroke-width="0"/><path d="M205.98767,231.03821v-23.84245h1.01695l-0.565,23.05145z" fill="url(#color-16)" stroke="none" stroke-width="0"/><path d="M207.02491,207.12088c-0.44348,0.30402 -0.7535,0.59703 -0.94058,0.32412c-0.1871,-0.2729 0.02073,-0.7406 0.46422,-1.0446c0.44348,-0.30402 0.95466,-0.32923 1.14173,-0.05635c0.1871,0.2729 -0.22191,0.47281 -0.66539,0.77684z" fill="#f9f8f8" stroke="none" stroke-width="0"/><path d="M232.14563,230.89946v-23.84245h1.01695l-0.56495,23.05145z" fill="url(#color-17)" stroke="none" stroke-width="0"/><path d="M233.06989,207.17643c-0.44348,0.30402 -0.75351,0.59703 -0.94059,0.32412c-0.1871,-0.2729 0.02072,-0.7406 0.46422,-1.0446c0.44348,-0.30402 0.95466,-0.32922 1.14174,-0.05634c0.1871,0.2729 -0.22192,0.47282 -0.66539,0.77684z" fill="#f9f8f8" stroke="none" stroke-width="0"/><path d="M263.37464,248.00917c-0.26025,-0.62563 -0.73645,-1.16984 -0.73645,-1.16984l0.02452,-20.08594l-12.86316,-19.85371c0,0 -1.04354,-0.89849 -0.25573,-0.90104c0.31452,-0.00104 1.40545,-0.64978 1.40545,-0.64978l9.60836,0.02819c0,0 0.94211,0.10557 1.26037,0.27851c0.5612,0.30501 1.81378,1.39224 1.81378,1.39224l5.86125,9.13667l6.17878,-9.02396c0,0 0.84594,-0.99223 1.24597,-1.27972c0.37158,-0.26707 1.58732,-0.3885 1.58732,-0.3885l9.33032,-0.00101c0,0 1.59098,0.17361 1.81914,0.46393c0.24075,0.30636 -0.41037,1.32868 -0.41037,1.32868l-12.97688,19.59351l-0.08594,19.8511c0,0 -0.2753,0.95046 -0.55124,1.31094c-0.29024,0.3792 -1.14944,0.91097 -1.14944,0.91097l-9.80597,-0.09842c0,0 -1.18559,-0.56769 -1.30005,-0.84283z" fill="#f73ca3" stroke="#e91c88" stroke-width="1.25"/><path d="M263.40881,246.47943v-19.69343h0.68555l-0.38086,19.04005z" fill="url(#color-18)" stroke="none" stroke-width="0"/><path d="M250.27884,207.32767c0,0 -0.2001,-1.27299 0.23051,-1.31491c0.4306,-0.04193 10.90492,0 10.90492,0v0.8539c0,0 -9.19163,-0.11388 -10.46808,-0.08749c-0.28069,0.00581 -0.6673,0.54846 -0.6673,0.54846z" fill="url(#color-19)" stroke="none" stroke-width="0"/><path d="M251.13997,206.78806c-0.52079,0.13369 -0.91243,0.30276 -0.9947,-0.01773c-0.08229,-0.32046 0.27319,-0.68868 0.79399,-0.82237c0.52079,-0.13369 1.00967,0.01773 1.09193,0.33823c0.08229,0.32046 -0.37047,0.36818 -0.89124,0.50186z" fill="#f9f8f8" stroke="none" stroke-width="0"/><path d="M277.28707,207.44231c0,0 -0.19917,-0.35483 -0.20189,-0.65524c-0.0031,-0.34248 0.20301,-0.63734 0.4419,-0.65968c0.44836,-0.04193 11.35449,0 11.35449,0v0.85389c0,0 -9.57056,-0.11387 -10.89965,-0.08748c-0.29226,0.00581 -0.69482,0.54847 -0.69482,0.54847z" fill="url(#color-20)" stroke="none" stroke-width="0"/><path d="M278.06948,206.74903c-0.52079,0.13369 -0.91243,0.30277 -0.9947,-0.01772c-0.08229,-0.32046 0.2732,-0.6887 0.79399,-0.82238c0.52079,-0.13369 1.00968,0.01772 1.09193,0.33822c0.08229,0.32046 -0.37045,0.36818 -0.89124,0.50186z" fill="#f9f8f8" stroke="none" stroke-width="0"/><path d="M301.05468,207.38787c-0.25985,0.03138 -0.46128,0.11113 -0.47249,-0.16393c-0.01123,-0.27507 0.19034,-0.52346 0.45019,-0.55483c0.25985,-0.03138 0.47961,0.16618 0.49084,0.44121c0.01123,0.27507 -0.20871,0.24614 -0.46856,0.27754z" fill="#f9f8f8" stroke="none" stroke-width="0"/><path d="M316.84138,242.77059c-1.79929,3.31643 -4.20119,5.14569 -10.42615,5.42009c-7.56455,0.33346 -14.01943,-0.87422 -16.98325,-5.42551c-0.49644,-0.76235 3.40447,-5.79143 3.40447,-5.79143c0,0 0.8585,-0.90376 1.43699,-1.16501c0.61667,-0.27848 2.20869,0.37403 2.20869,0.37403c0,0 9.04301,4.66024 9.9416,-0.04649c0.63817,-3.34255 -9.51472,-5.93291 -13.78397,-10.2591c-1.27155,-1.2885 -2.09473,-5.95147 -2.09473,-6.17966c0,-11.84642 8.46945,-14.4584 15.87018,-14.40662c5.07847,0.03554 8.59936,1.4929 10.559,3.9566c1.10817,1.39323 -2.40303,6.07831 -4.09363,7.26527c-0.38565,0.27075 -2.30365,-0.62982 -2.30365,-0.62982c0,0 -7.3769,-2.01445 -8.11486,-0.1986c-1.3581,3.34195 9.52495,6.31814 14.25664,11.97425c4.03522,4.82353 2.12486,11.42143 0.12261,15.11196z" fill="#f73ca3" stroke="#e91c88" stroke-width="1.25"/><path d="M294.37549,237.38412l-0.16705,-0.66812c0,0 0.41429,-0.25056 0.75164,-0.25056c1.05343,0 3.05423,1.26485 5.09445,1.75383c0.94543,0.22657 2.39549,0.58289 3.67951,0.36223c1.48692,-0.25553 2.75119,-1.11386 2.75119,-1.11386c0,0 -1.56583,1.36471 -2.98449,1.56157c-1.10649,0.15352 -2.5772,0.09003 -3.41528,-0.02783c-1.08754,-0.15294 -3.18807,-1.35314 -4.51508,-1.78055c-0.61493,-0.19807 -1.19492,0.16332 -1.19492,0.16332z" fill="url(#color-21)" stroke="none" stroke-width="0"/><path d="M291.3084,240.76885c0,0 0.87136,-1.47307 1.33024,-2.12942c0.39461,-0.5644 1.25941,-1.57456 1.25941,-1.57456l0.53797,0.23199z" fill="url(#color-22)" stroke="none" stroke-width="0"/><path d="M299.67765,207.1656c0.19458,0.48977 -0.46785,0.56192 -1.281,0.86592c-0.81315,0.304 -2.61913,1.23499 -2.61913,1.23499c0,0 1.47838,-1.43001 2.29151,-1.73399c0.81315,-0.30399 1.51958,-0.591 1.60861,-0.36689z" fill="#f9f8f8" stroke="none" stroke-width="0"/><path d="M294.87297,237.15202c-0.38509,0.19367 -0.66298,0.39297 -0.78216,0.15598c-0.11918,-0.237 0.09641,-0.58607 0.48148,-0.77974c0.38509,-0.19367 0.79387,-0.15854 0.91304,0.07844c0.11918,0.237 -0.22729,0.35167 -0.61239,0.54531z" fill="#f9f8f8" stroke="none" stroke-width="0"/><path d="M84.5,335.5v-311h311v311z" fill="none" stroke="none" stroke-width="0"/></g></g></svg>