<svg version="1.1" xmlns="http://www.w3.org/2000/svg" xmlns:xlink="http://www.w3.org/1999/xlink" width="533" height="377" viewBox="0,0,533,377"><defs><linearGradient x1="365.8891" y1="130.42174" x2="365.8891" y2="149.90782" gradientUnits="userSpaceOnUse" id="color-1"><stop offset="0" stop-color="#ff4af6"/><stop offset="1" stop-color="#b692ff"/></linearGradient></defs><g transform="translate(26.5,8.5)"><g data-paper-data="{&quot;isPaintingLayer&quot;:true}" fill-rule="nonzero" stroke="none" stroke-width="0" stroke-linecap="butt" stroke-linejoin="miter" stroke-miterlimit="10" stroke-dasharray="" stroke-dashoffset="0" style="mix-blend-mode: normal"><path d="M-26.5,368.5v-377h533v377z" fill="none"/><path d="M245.89349,146.76491v-13.20025c0,0 14.70385,-1.88575 28.67369,-1.88575c10.06022,0 29.65292,1.75305 53.01306,1.55807c11.37542,-0.09496 23.64404,-0.73611 36.14039,-0.69234c12.69285,0.04447 25.62048,-0.48153 38.08526,-0.34809c15.43917,0.16528 30.16832,1.00649 42.86174,1.21461c24.3561,0.39935 41.21702,0.78211 41.21702,0.78211v12.57166c0,0 -40.30083,6.28584 -68.19024,6.28584c-12.75757,0 -32.43052,-2.40993 -53.97345,-2.26128c-11.92254,0.08227 -22.97206,1.24589 -35.18482,1.0512c-8.74903,-0.13947 -18.79874,2.55515 -26.94332,2.22899c-1.14582,-0.04588 -55.69933,-7.30475 -55.69933,-7.30475z" fill="url(#color-1)"/></g></g></svg>