<svg version="1.1" xmlns="http://www.w3.org/2000/svg" xmlns:xlink="http://www.w3.org/1999/xlink" width="88.34685" height="88.34685" viewBox="0,0,88.34685,88.34685"><g transform="translate(-195.82659,-135.82659)"><g data-paper-data="{&quot;isPaintingLayer&quot;:true}" fill-rule="nonzero" stroke-width="0" stroke-linecap="butt" stroke-linejoin="miter" stroke-miterlimit="10" stroke-dasharray="" stroke-dashoffset="0" style="mix-blend-mode: normal"><path d="M195.8266,224.17344v-88.34685h88.34685v88.34685z" fill="none" stroke="#000000"/><path d="M215.36417,211.39065l-3.89302,-60.58604c0,0 5.5281,-2.03086 8.32038,-2.72893c0.50896,-0.12724 22.03466,-3.60282 35.16207,1.98071c7.92232,3.36963 10.66663,14.27727 9.89958,19.18608c-1.41234,9.0384 -11.53203,10.29587 -11.53203,10.29587l-24.79068,7.07656l-0.85593,-11.68542c0,0 10.3227,-0.86493 16.33844,-3.70056c4.441,-2.09335 3.6703,-7.24283 -0.35139,-11.12061c-4.02169,-3.87777 -14.33413,-1.18223 -14.33413,-1.18223l1.60881,53.76226z" fill="#f23030" stroke="none"/><path d="M226.82743,200.9335c0,0 12.73084,2.04238 19.75079,-2.26556c7.01996,-4.30794 5.07664,-8.22047 1.05219,-11.31884c-4.02445,-3.09837 -17.6889,-1.18272 -17.6889,-1.18272l25.37961,-8.84513c0,0 11.02022,5.39022 12.99761,13.17785c1.51266,5.95736 -5.58492,14.45837 -7.11159,16.20122c-7.94772,9.07306 -30.73602,5.85466 -30.73602,5.85466z" data-paper-data="{&quot;index&quot;:null}" fill="#f23030" stroke="none"/></g></g></svg>