<svg version="1.1" xmlns="http://www.w3.org/2000/svg" xmlns:xlink="http://www.w3.org/1999/xlink" width="519" height="383.9192" viewBox="0,0,519,383.9192"><g transform="translate(22.1249,10.29424)"><g data-paper-data="{&quot;isPaintingLayer&quot;:true}" fill="#00c4ff" fill-rule="nonzero" stroke-linecap="butt" stroke-linejoin="miter" stroke-miterlimit="10" stroke-dasharray="" stroke-dashoffset="0" style="mix-blend-mode: normal"><path d="M86.52402,205.94481v-87l66.5,54.75l-24.5,32.25z" stroke="none" stroke-width="0"/><path d="M292.5827,199.47307v-14.84389h51v14.84389z" stroke="none" stroke-width="0"/><path d="M180.99712,181.85224v-14.84389h74v14.84389z" stroke="none" stroke-width="0"/><path d="M163.05157,268.36654v-14.84389h51v14.84389z" stroke="none" stroke-width="0"/><path d="M262.59412,267.84395l60.2877,-31.7285h29.91546v32.43303z" data-paper-data="{&quot;index&quot;:null}" stroke="none" stroke-width="0"/><path d="M382.9803,226.47982v-14.84389h67.87922v14.84389z" stroke="none" stroke-width="0"/><path d="M144.68511,120.34141v-14.84389h307v14.84389z" stroke="none" stroke-width="0"/><path d="M448.88138,364.99405v-375.28829h42v375.28829z" stroke="none" stroke-width="5"/><path d="M0.45045,-9.82127h457.87087v48.67409h-457.87087z" stroke="none" stroke-width="5"/><path d="M-9.57207,366.00006v-375.28829h42v375.28829z" stroke="none" stroke-width="5"/><path d="M86.52402,366.00005v-87h42v87z" stroke="none" stroke-width="0"/><path d="" stroke="#000000" stroke-width="5"/><path d="" stroke="none" stroke-width="0"/><path d="M-22.1249,373.62496v-62h519v62z" stroke="none" stroke-width="0"/></g></g></svg>