<svg version="1.1" xmlns="http://www.w3.org/2000/svg" xmlns:xlink="http://www.w3.org/1999/xlink" width="533" height="377" viewBox="0,0,533,377"><defs><linearGradient x1="154.95507" y1="74.86927" x2="154.95507" y2="91.0927" gradientUnits="userSpaceOnUse" id="color-1"><stop offset="0" stop-color="#ff4af6"/><stop offset="1" stop-color="#b692ff"/></linearGradient></defs><g transform="translate(26.5,8.5)"><g data-paper-data="{&quot;isPaintingLayer&quot;:true}" fill-rule="nonzero" stroke="none" stroke-width="0" stroke-linecap="butt" stroke-linejoin="miter" stroke-miterlimit="10" stroke-dasharray="" stroke-dashoffset="0" style="mix-blend-mode: normal"><path d="M-26.5,368.5v-377h533v377z" fill="none"/><path d="M-14.92026,88.47602v-10.99007c0,0 20.81594,-1.57001 40.59276,-1.57001c14.24204,0 41.97902,1.45953 75.04949,1.29719c16.10394,-0.07906 33.47239,-0.61286 51.1632,-0.57642c17.969,0.03702 36.27037,-0.40091 53.91652,-0.28981c21.85691,0.13761 42.70866,0.83797 60.67848,1.01124c34.48044,0.33248 58.3501,0.65116 58.3501,0.65116v10.46673c0,0 -57.05305,5.23337 -96.53552,5.23337c-18.06064,0 -45.91124,-2.00642 -76.40911,-1.88266c-16.87848,0.06849 -32.52108,1.03728 -49.81044,0.87519c-12.38582,-0.11612 -26.61298,2.12733 -38.1431,1.85578c-1.62211,-0.0382 -78.85239,-6.08168 -78.85239,-6.08168z" fill="url(#color-1)"/></g></g></svg>