<svg version="1.1" xmlns="http://www.w3.org/2000/svg" xmlns:xlink="http://www.w3.org/1999/xlink" width="533" height="386.38074" viewBox="0,0,533,386.38074"><defs><linearGradient x1="240.05403" y1="263.65941" x2="240.05403" y2="300.64599" gradientUnits="userSpaceOnUse" id="color-1"><stop offset="0" stop-color="#ff4af6"/><stop offset="1" stop-color="#b692ff"/></linearGradient></defs><g transform="translate(26.5,8.5)"><g data-paper-data="{&quot;isPaintingLayer&quot;:true}" fill-rule="nonzero" stroke="none" stroke-width="0" stroke-linecap="butt" stroke-linejoin="miter" stroke-miterlimit="10" stroke-dasharray="" stroke-dashoffset="0" style="mix-blend-mode: normal"><path d="M-26.5,368.5v-377h533v377z" fill="none"/><path d="M-5.96247,363.96353v-94.33855c0,0 30.14601,-3.57935 58.78716,-3.57935c20.62558,0 60.79478,3.32747 108.68802,2.95737c23.32202,-0.18024 48.47532,-1.39721 74.09546,-1.31414c26.02302,0.0844 52.5274,-0.914 78.08287,-0.66072c31.65357,0.31373 61.85145,1.91043 87.87566,2.30545c49.93519,0.758 84.50365,1.48453 84.50365,1.48453v93.14542c0,0 -82.62525,11.93117 -139.80446,11.93117c-26.15574,0 -66.48947,-4.57429 -110.65705,-4.29214c-24.44372,0.15615 -47.0976,2.36482 -72.13636,1.99528c-17.93736,-0.26473 -38.5414,4.84994 -55.23952,4.23085c-2.34917,-0.08709 -114.19544,-13.86517 -114.19544,-13.86517z" fill="url(#color-1)"/></g></g></svg>