<svg version="1.1" xmlns="http://www.w3.org/2000/svg" xmlns:xlink="http://www.w3.org/1999/xlink" width="533" height="377" viewBox="0,0,533,377"><defs><linearGradient x1="169.27485" y1="341.60488" x2="169.27485" y2="352.95292" gradientUnits="userSpaceOnUse" id="color-1"><stop offset="0" stop-color="#ff4af6"/><stop offset="1" stop-color="#b692ff"/></linearGradient></defs><g transform="translate(26.5,8.5)"><g data-paper-data="{&quot;isPaintingLayer&quot;:true}" fill-rule="nonzero" stroke="none" stroke-width="0" stroke-linecap="butt" stroke-linejoin="miter" stroke-miterlimit="10" stroke-dasharray="" stroke-dashoffset="0" style="mix-blend-mode: normal"><path d="M-26.5,368.5v-377h533v377z" fill="none"/><path d="M97.02842,351.1226v-7.68738c0,0 8.85283,-1.0982 17.26372,-1.0982c6.05702,0 17.8533,1.02092 31.91786,0.90737c6.84886,-0.0553 14.23549,-0.42869 21.75924,-0.4032c7.64205,0.0259 15.42547,-0.28043 22.93021,-0.20272c9.29554,0.09625 18.16361,0.58615 25.806,0.70735c14.66421,0.23257 24.81575,0.45547 24.81575,0.45547v7.32131c0,0 -24.26415,3.66066 -41.05567,3.66066c-7.68102,0 -19.52562,-1.40346 -32.4961,-1.31689c-7.17827,0.04791 -13.83091,0.72556 -21.18392,0.61218c-5.26758,-0.08122 -11.31826,1.48803 -16.22191,1.29809c-0.68988,-0.02672 -33.5352,-4.25404 -33.5352,-4.25404z" fill="url(#color-1)"/></g></g></svg>