<svg version="1.1" xmlns="http://www.w3.org/2000/svg" xmlns:xlink="http://www.w3.org/1999/xlink" width="64.57143" height="64.57143" viewBox="0,0,64.57143,64.57143"><g transform="translate(-207.7143,-147.71429)"><g data-paper-data="{&quot;isPaintingLayer&quot;:true}" fill-rule="nonzero" stroke-linecap="butt" stroke-linejoin="miter" stroke-miterlimit="10" stroke-dasharray="" stroke-dashoffset="0" style="mix-blend-mode: normal"><path d="M223.35025,182.94294c0.03131,-5.79237 -0.21119,-12.48803 0.72817,-13.35627c0.96213,-0.88928 7.0504,-0.61742 13.09465,-0.61452c6.02006,0.00289 11.99643,-0.26676 12.82078,0.61452c0.96271,1.02918 0.72532,7.24909 0.70999,13.43395c-0.01519,6.13051 0.19993,12.22656 -0.70999,13.19906c-0.92845,0.9923 -6.9035,0.76676 -12.89781,0.76313c-6.00271,-0.00364 -11.88267,0.46989 -13.01762,-0.76313c-1.15079,-1.25023 -0.76373,-6.6958 -0.72817,-13.27674z" fill-opacity="0.49861" fill="#808080" stroke="#006280" stroke-width="0"/><path d="M207.71431,212.28572v-64.57143h64.57143v64.57143z" fill="none" stroke="none" stroke-width="0"/><path d="M226.32406,179.97389c0.03131,-5.79237 -0.21119,-12.48803 0.72817,-13.35627c0.96213,-0.88928 7.0504,-0.61742 13.09465,-0.61452c6.02006,0.00289 11.99643,-0.26676 12.82078,0.61452c0.96271,1.02918 0.72532,7.24909 0.70999,13.43395c-0.01519,6.13051 0.19993,12.22656 -0.70999,13.19906c-0.92845,0.9923 -6.9035,0.76676 -12.89781,0.76313c-6.00271,-0.00364 -11.88267,0.46989 -13.01762,-0.76313c-1.15079,-1.25023 -0.76373,-6.6958 -0.72817,-13.27674z" fill="#00c3ff" stroke="#006280" stroke-width="0"/><path d="M235.90531,173.82829c1.50146,-0.89226 7.61473,-0.91553 9.71693,0.52241c3.0036,2.05451 2.85891,6.78991 0.96095,9.54339c-0.71903,1.04315 -1.80402,1.64959 -2.83482,2.33208c-3.64395,1.44331 -10.31237,0.16922 -11.53314,-4.18677c-0.21815,-0.77842 -0.35743,-3.15125 0.44986,-4.88424c0.84484,-1.81362 2.65567,-2.97949 3.24022,-3.32687z" fill="#ffffff" stroke="none" stroke-width="0.5"/><path d="M237.5934,182.5279c-0.92804,0 -0.92804,-0.92804 -0.92804,-0.92804c0,-0.30935 0,-0.98991 0,-1.29926c0,0 0,-0.92804 0.92804,-0.92804c0.92804,0 0.92804,0.92804 0.92804,0.92804c0,0.30935 0,0.61869 0,0.92804v0.37122c0,0 0,0.92804 -0.92804,0.92804z" fill="#000000" stroke="none" stroke-width="0.5"/><path d="M243.53287,182.34229c-0.92804,0 -0.92804,-0.92804 -0.92804,-0.92804l0.01802,-0.0036c-0.06187,-0.30935 -0.12374,-0.61869 -0.18561,-0.92804c0,0 -0.18201,-0.91002 0.72802,-1.09202c0.91002,-0.18201 1.09202,0.72802 1.09202,0.72802c0.06187,0.30935 0.12374,0.61869 0.18561,0.92804l0.01802,0.36762c0,0 0,0.92804 -0.92804,0.92804z" fill="#000000" stroke="none" stroke-width="0.5"/></g></g></svg>