<svg version="1.1" xmlns="http://www.w3.org/2000/svg" xmlns:xlink="http://www.w3.org/1999/xlink" width="89.83333" height="89.83333" viewBox="0,0,89.83333,89.83333"><g transform="translate(-195.08335,-135.08335)"><g data-paper-data="{&quot;isPaintingLayer&quot;:true}" fill-rule="nonzero" stroke-linecap="butt" stroke-linejoin="miter" stroke-miterlimit="10" stroke-dasharray="" stroke-dashoffset="0" style="mix-blend-mode: normal"><path d="M195.08335,224.91668v-89.83333h89.83333v89.83333z" fill="none" stroke="none" stroke-width="0"/><path d="M232.83876,199.96046l1.50912,-3.20215c1.06368,-0.10317 2.51365,-0.38964 2.77093,0.03599c0.21301,0.10684 0.8709,3.95048 0.8709,3.95048c0.39142,0.55317 0.76876,1.11625 1.1425,1.68153c0.44553,3.74358 -1.86449,4.36689 -5.1048,4.34751c-1.37649,-0.00823 -3.9355,-0.12321 -4.6249,-1.60712c-0.8806,-1.89544 3.43625,-5.20623 3.43625,-5.20623z" data-paper-data="{&quot;index&quot;:null}" fill="#00ade2" stroke="#006280" stroke-width="4"/><path d="M247.45315,206.39469c-3.23316,0.21618 -5.57677,-0.26565 -5.35948,-4.02938c0.3387,-0.58693 0.68115,-1.17191 1.03824,-1.74783c0,0 0.42319,-3.8765 0.62932,-3.99608c0.23096,-0.44047 1.69565,-0.2426 2.76363,-0.20425l1.70084,3.10456c0,0 3.5877,1.98199 3.29998,4.54169c-0.28772,2.5597 -2.69908,2.23946 -4.07253,2.33129z" fill="#00ade2" stroke="#006280" stroke-width="4"/><path d="M250.36785,181.53474c-1.52187,-1.61368 -5.54272,-0.79947 -4.45879,-3.93976c0.66883,-1.93771 0.03043,-0.87485 2.17302,-4.11546c1.32974,-2.01121 -2.06718,-9.14433 4.20962,-3.62241c6.2768,5.52194 13.66331,7.55011 15.48651,9.8521c1.8232,2.30199 3.05366,3.51557 3.31553,4.97629c0.54758,1.83978 0.7573,6.90373 -1.78646,7.25397c-0.69683,-0.22584 -0.72869,-0.22039 -1.08485,-0.68515c0.06499,0.65664 -0.3517,1.04647 -0.69168,1.2942c-2.30082,1.67659 -3.03713,-0.75313 -3.51612,-2.35016c-0.22063,-0.74684 -0.34335,-1.91882 -1.58909,-2.42433c-1.24573,-0.5055 -2.96153,0.48842 -3.40363,0.47448c-1.67815,-0.95354 -0.58034,-3.12261 0.15701,-4.88557c0.27664,-0.66142 -8.81107,-1.82818 -8.81107,-1.82818z" data-paper-data="{&quot;index&quot;:null}" fill="#00ade2" stroke="#006280" stroke-width="4"/><path d="M221.0053,183.77465c0.81973,1.7262 2.0187,3.84104 0.38741,4.87271c-0.44095,0.0348 -2.20174,-0.87704 -3.42223,-0.31331c-1.22049,0.56373 -1.28777,1.7402 -1.4729,2.49663c-0.40308,1.61786 -1.02391,4.07962 -3.40128,2.51349c-0.35129,-0.23142 -0.7859,-0.60115 -0.75197,-1.26012c-0.33386,0.48104 -0.36592,0.47711 -1.05132,0.73559c-2.55744,-0.2298 -2.58696,-5.29801 -2.12682,-7.16158c0.19264,-1.47145 1.36445,-2.74174 3.07698,-5.1272c1.71252,-2.38546 8.99509,-4.75999 15.00428,-10.572c6.0092,-5.81201 2.9527,1.47349 4.37588,3.41969c2.29314,3.13588 1.60529,2.10434 2.36481,4.00832c1.23093,3.08562 -2.82387,2.4621 -4.26788,4.14581c0,0 -9.02251,1.59435 -8.71498,2.24198z" fill="#00ade2" stroke="#006280" stroke-width="4"/><path d="M256.07209,174.4336c0.64732,5.68547 0.92347,7.80661 0.25108,12.76233c-0.67239,4.95572 -2.11191,7.43159 -3.16919,8.74497c-2.3588,2.93015 -12.74686,4.96115 -20.12765,3.92063c-3.9803,-0.56112 -7.34974,-1.6165 -8.393,-5.1147c-1.04326,-3.49821 -1.89192,-17.49718 -0.91262,-26.08846c0.15516,-7.29097 2.73126,-14.38082 11.057,-16.94051c0.60664,-0.18651 2.08486,-0.42509 3.44031,-0.50031c14.3142,-0.79436 17.05863,16.22973 17.85407,23.21605z" fill="#00c3ff" stroke="#006280" stroke-width="4"/><path d="M233.99894,158.06069c2.02235,-1.2018 10.25644,-1.23315 13.08794,0.70364c4.04562,2.76727 3.85073,9.14547 1.29432,12.8542c-0.96848,1.40504 -2.42987,2.22187 -3.81828,3.14113c-4.90811,1.94402 -13.88996,0.22792 -15.53423,-5.63925c-0.29383,-1.04847 -0.48143,-4.24449 0.60592,-6.57869c1.13793,-2.4428 3.57698,-4.01314 4.36432,-4.48103z" fill="#ffffff" stroke="#000000" stroke-width="4"/><path d="M236.27266,169.77839c-1.25,0 -1.25,-1.25 -1.25,-1.25c0,-0.41667 0,-1.33333 0,-1.75c0,0 0,-1.25 1.25,-1.25c1.25,0 1.25,1.25 1.25,1.25c0,0.41667 0,0.83333 0,1.25v0.5c0,0 0,1.25 -1.25,1.25z" fill="#000000" stroke="#000000" stroke-width="4"/><path d="M244.27266,169.52839c-1.25,0 -1.25,-1.25 -1.25,-1.25l0.02427,-0.00485c-0.08333,-0.41667 -0.16667,-0.83333 -0.25,-1.25c0,0 -0.24515,-1.22573 0.98058,-1.47087c1.22573,-0.24515 1.47087,0.98058 1.47087,0.98058c0.08333,0.41667 0.16667,0.83333 0.25,1.25l0.02427,0.49515c0,0 0,1.25 -1.25,1.25z" fill="#000000" stroke="#000000" stroke-width="4"/><path d="M232.83876,199.96046l1.50912,-3.20215c1.06368,-0.10317 2.51365,-0.38964 2.77093,0.03599c0.21301,0.10684 0.8709,3.95048 0.8709,3.95048c0.39142,0.55317 0.76876,1.11625 1.1425,1.68153c0.44553,3.74358 -1.86449,4.36689 -5.1048,4.34751c-1.37649,-0.00823 -3.9355,-0.12321 -4.6249,-1.60712c-0.8806,-1.89544 3.43625,-5.20623 3.43625,-5.20623z" data-paper-data="{&quot;index&quot;:null}" fill="#00ade2" stroke="none" stroke-width="0.5"/><path d="M251.97189,204.50959c-0.59798,1.52305 -3.14529,1.79327 -4.51874,1.8851c-3.23316,0.21618 -5.57677,-0.26565 -5.35948,-4.02938c0.3387,-0.58693 0.68115,-1.17191 1.03824,-1.74783c0,0 0.42319,-3.8765 0.62932,-3.99608c0.23096,-0.44047 1.69565,-0.2426 2.76363,-0.20425l1.70084,3.10456c0,0 4.50999,3.04244 3.74617,4.98788z" fill="#00ade2" stroke="none" stroke-width="0.5"/><path d="M250.36785,181.53474c-1.52187,-1.61368 -5.54272,-0.79947 -4.45879,-3.93976c0.66883,-1.93771 0.03043,-0.87485 2.17302,-4.11546c1.32974,-2.01121 -2.06718,-9.14433 4.20962,-3.62241c6.2768,5.52194 13.66331,7.55011 15.48651,9.8521c1.8232,2.30199 3.05366,3.51557 3.31553,4.97629c0.54758,1.83978 0.7573,6.90373 -1.78646,7.25397c-0.69683,-0.22584 -0.72869,-0.22039 -1.08485,-0.68515c0.06499,0.65664 -0.3517,1.04647 -0.69168,1.2942c-2.30082,1.67659 -3.03713,-0.75313 -3.51612,-2.35016c-0.22063,-0.74684 -0.34335,-1.91882 -1.58909,-2.42433c-1.24573,-0.5055 -2.96153,0.48842 -3.40363,0.47448c-1.67815,-0.95354 -0.58034,-3.12261 0.15701,-4.88557c0.27664,-0.66142 -8.81107,-1.82818 -8.81107,-1.82818z" data-paper-data="{&quot;index&quot;:null}" fill="#00ade2" stroke="none" stroke-width="0.5"/><path d="M221.0053,183.77465c0.81973,1.7262 2.0187,3.84104 0.38741,4.87271c-0.44095,0.0348 -2.20174,-0.87704 -3.42223,-0.31331c-1.22049,0.56373 -1.28777,1.7402 -1.4729,2.49663c-0.40308,1.61786 -1.02391,4.07962 -3.40128,2.51349c-0.35129,-0.23142 -0.7859,-0.60115 -0.75197,-1.26012c-0.33386,0.48104 -0.36592,0.47711 -1.05132,0.73559c-2.55744,-0.2298 -2.58696,-5.29801 -2.12682,-7.16158c0.19264,-1.47145 1.36445,-2.74174 3.07698,-5.1272c1.71252,-2.38546 8.99509,-4.75999 15.00428,-10.572c6.0092,-5.81201 2.9527,1.47349 4.37588,3.41969c2.29314,3.13588 1.60529,2.10434 2.36481,4.00832c1.23093,3.08562 -2.82387,2.4621 -4.26788,4.14581c0,0 -9.02251,1.59435 -8.71498,2.24198z" fill="#00ade2" stroke="none" stroke-width="0.5"/><path d="M238.21801,151.21756c15.13245,-0.71147 17.05864,16.22972 17.85408,23.21604c0.64732,5.68547 0.92347,7.80661 0.25108,12.76233c-0.67239,4.95572 -2.11191,7.43159 -3.16919,8.74497c-2.3588,2.93015 -12.74686,4.96115 -20.12765,3.92063c-3.9803,-0.56112 -7.34974,-1.6165 -8.393,-5.1147c-1.04326,-3.49821 -1.89192,-17.49718 -0.91262,-26.08846c0.15516,-7.29097 2.73126,-14.38082 11.057,-16.94051c1.01954,-0.31345 2.27423,-0.39532 3.44031,-0.50031z" fill="#00c3ff" stroke="none" stroke-width="0.5"/><path d="M233.99894,158.06069c2.02235,-1.2018 10.25644,-1.23315 13.08794,0.70364c4.04562,2.76727 3.85073,9.14547 1.29432,12.8542c-0.96848,1.40504 -2.42987,2.22187 -3.81828,3.14113c-4.90811,1.94402 -13.88996,0.22792 -15.53423,-5.63925c-0.29383,-1.04847 -0.48143,-4.24449 0.60592,-6.57869c1.13793,-2.4428 3.57698,-4.01314 4.36432,-4.48103z" fill="#ffffff" stroke="none" stroke-width="0.5"/><path d="M236.27266,169.77839c-1.25,0 -1.25,-1.25 -1.25,-1.25c0,-0.41667 0,-1.33333 0,-1.75c0,0 0,-1.25 1.25,-1.25c1.25,0 1.25,1.25 1.25,1.25c0,0.41667 0,0.83333 0,1.25v0.5c0,0 0,1.25 -1.25,1.25z" fill="#000000" stroke="none" stroke-width="0.5"/><path d="M244.27266,169.52839c-1.25,0 -1.25,-1.25 -1.25,-1.25l0.02427,-0.00485c-0.08333,-0.41667 -0.16667,-0.83333 -0.25,-1.25c0,0 -0.24515,-1.22573 0.98058,-1.47087c1.22573,-0.24515 1.47087,0.98058 1.47087,0.98058c0.08333,0.41667 0.16667,0.83333 0.25,1.25l0.02427,0.49515c0,0 0,1.25 -1.25,1.25z" fill="#000000" stroke="none" stroke-width="0.5"/></g></g></svg>