<svg version="1.1" xmlns="http://www.w3.org/2000/svg" xmlns:xlink="http://www.w3.org/1999/xlink" width="533" height="377" viewBox="0,0,533,377"><defs><linearGradient x1="241.54699" y1="189.98088" x2="241.54699" y2="226.96746" gradientUnits="userSpaceOnUse" id="color-1"><stop offset="0" stop-color="#ff4af6"/><stop offset="1" stop-color="#b692ff"/></linearGradient></defs><g transform="translate(26.5,8.5)"><g data-paper-data="{&quot;isPaintingLayer&quot;:true}" fill-rule="nonzero" stroke="none" stroke-width="0" stroke-linecap="butt" stroke-linejoin="miter" stroke-miterlimit="10" stroke-dasharray="" stroke-dashoffset="0" style="mix-blend-mode: normal"><path d="M-26.5,368.5v-377h533v377z" fill="none"/><path d="M-2.97654,221.00189v-25.05544c0,0 29.96307,-3.57935 58.43041,-3.57935c20.50041,0 60.42584,3.32747 108.02844,2.95737c23.18049,-0.18024 48.18114,-1.39721 73.64581,-1.31414c25.8651,0.0844 52.20863,-0.914 77.60902,-0.66072c31.46148,0.31373 61.4761,1.91043 87.34238,2.30545c49.63216,0.758 83.99084,1.48453 83.99084,1.48453v23.86231c0,0 -82.12383,11.93117 -138.95605,11.93117c-25.99701,0 -66.08598,-4.57429 -109.98552,-4.29214c-24.29538,0.15615 -46.81179,2.36482 -71.6986,1.99528c-17.82851,-0.26473 -38.30751,4.84994 -54.9043,4.23085c-2.33491,-0.08709 -113.50244,-13.86517 -113.50244,-13.86517z" fill="url(#color-1)"/></g></g></svg>