<svg version="1.1" xmlns="http://www.w3.org/2000/svg" xmlns:xlink="http://www.w3.org/1999/xlink" width="533" height="377" viewBox="0,0,533,377"><defs><linearGradient x1="308.30924" y1="177.23465" x2="308.30924" y2="196.72073" gradientUnits="userSpaceOnUse" id="color-1"><stop offset="0" stop-color="#ff4af6"/><stop offset="1" stop-color="#b692ff"/></linearGradient></defs><g transform="translate(26.5,8.5)"><g data-paper-data="{&quot;isPaintingLayer&quot;:true}" fill-rule="nonzero" stroke="none" stroke-width="0" stroke-linecap="butt" stroke-linejoin="miter" stroke-miterlimit="10" stroke-dasharray="" stroke-dashoffset="0" style="mix-blend-mode: normal"><path d="M-26.5,368.5v-377h533v377z" fill="none"/><path d="M144.7776,193.57782v-13.20025c0,0 20.03861,-1.88575 39.07689,-1.88575c13.7102,0 40.41139,1.75305 72.2469,1.55807c15.50258,-0.09496 32.22241,-0.73611 49.25261,-0.69234c17.29799,0.04447 34.91593,-0.48153 51.9031,-0.34809c21.04071,0.16528 41.11379,1.00649 58.41256,1.21461c33.19282,0.39935 56.17111,0.78211 56.17111,0.78211v12.57166c0,0 -54.92251,6.28584 -92.93058,6.28584c-17.38618,0 -44.19675,-2.40993 -73.55575,-2.26128c-16.24821,0.08227 -31.30663,1.24589 -47.95035,1.0512c-11.9233,-0.13947 -25.61918,2.55515 -36.71871,2.22899c-1.56155,-0.04588 -75.9078,-7.30475 -75.9078,-7.30475z" fill="url(#color-1)"/></g></g></svg>