<svg version="1.1" xmlns="http://www.w3.org/2000/svg" xmlns:xlink="http://www.w3.org/1999/xlink" width="533" height="377" viewBox="0,0,533,377"><defs><linearGradient x1="229.60328" y1="87.96637" x2="229.60328" y2="117.16677" gradientUnits="userSpaceOnUse" id="color-1"><stop offset="0" stop-color="#ff4af6"/><stop offset="1" stop-color="#b692ff"/></linearGradient><linearGradient x1="396.31748" y1="177.48837" x2="396.31748" y2="207.5539" gradientUnits="userSpaceOnUse" id="color-2"><stop offset="0" stop-color="#ff4af6"/><stop offset="1" stop-color="#b692ff"/></linearGradient></defs><g transform="translate(26.5,8.5)"><g data-paper-data="{&quot;isPaintingLayer&quot;:true}" fill-rule="nonzero" stroke="none" stroke-width="0" stroke-linecap="butt" stroke-linejoin="miter" stroke-miterlimit="10" stroke-dasharray="" stroke-dashoffset="0" style="mix-blend-mode: normal"><path d="M-26.5,368.5v-377h533v377z" fill="none"/><path d="M-6.95778,112.45703v-19.78092c0,0 28.98737,-2.82585 56.52772,-2.82585c19.83285,0 58.45818,2.62699 104.51069,2.3348c22.42566,-0.1423 46.61221,-1.10308 71.24766,-1.0375c25.02285,0.06663 50.50855,-0.72159 75.08182,-0.52163c30.43699,0.24769 59.47424,1.50826 84.49823,1.82012c48.01597,0.59843 81.25582,1.17202 81.25582,1.17202v33.7686c0,0 -23.8623,16.64542 -53.55034,19.15868c-8.9158,0.75477 -16.24927,-10.63829 -27.88119,-9.88709c-11.63191,0.7512 -36.3163,31.3144 -54.48249,28.11209c-18.16619,-3.20231 -20.63343,-42.89382 -29.37175,-42.89382c-25.15047,0 -33.07942,-3.61134 -75.54946,-3.38859c-23.50425,0.12328 -45.28744,1.86699 -69.36386,1.57525c-17.24795,-0.209 -37.06009,3.82896 -53.11644,3.3402c-2.25888,-0.06876 -109.80643,-10.94636 -109.80643,-10.94636z" fill="url(#color-1)"/><path d="M325.47544,202.70463v-20.36698c0,0 8.68074,-2.90957 16.92814,-2.90957c5.93927,0 17.50625,2.70482 31.29742,2.40398c6.71573,-0.14651 13.95878,-1.13576 21.33627,-1.06823c7.4935,0.06861 15.12561,-0.74297 22.48447,-0.53708c9.11485,0.25502 17.81053,1.55294 25.30437,1.87405c14.37916,0.61616 24.33337,1.20674 24.33337,1.20674v19.39711c0,0 -23.79248,9.69857 -40.2576,9.69857c-7.53171,0 -19.14607,-3.71833 -31.86441,-3.48898c-7.03873,0.12693 -13.56206,1.92231 -20.77213,1.62192c-5.16518,-0.21519 -11.09825,3.9424 -15.90658,3.43916c-0.67646,-0.07079 -32.88332,-11.27067 -32.88332,-11.27067z" fill="url(#color-2)"/></g></g></svg>