<svg version="1.1" xmlns="http://www.w3.org/2000/svg" xmlns:xlink="http://www.w3.org/1999/xlink" width="89.83333" height="89.83333" viewBox="0,0,89.83333,89.83333"><g transform="translate(-195.0834,-135.08336)"><g data-paper-data="{&quot;isPaintingLayer&quot;:true}" fill-rule="nonzero" stroke-linecap="butt" stroke-linejoin="miter" stroke-miterlimit="10" stroke-dasharray="" stroke-dashoffset="0" style="mix-blend-mode: normal"><path d="M195.08341,224.91669v-89.83333h89.83333v89.83333z" fill="none" stroke="none" stroke-width="0"/><path d="M248.4783,204.0168c-2.76956,1.68215 -5.07144,2.33483 -6.61347,-1.10539c0.03004,-0.67699 0.06429,-1.35395 0.11571,-2.02964c0,0 -1.4113,-3.63519 -1.28349,-3.83632c0.00193,-0.49734 1.39294,-0.99689 2.35839,-1.45513l2.94041,1.9711c0,0 5.62778,0.8442 5.84667,2.92272c0,0 -2.18769,2.81808 -3.36422,3.53266z" fill="#00ade2" stroke="#006280" stroke-width="4"/><path d="M239.34702,206.37222c-1.14355,1.17028 -3.59521,0.4279 -4.89613,-0.022c-3.06242,-1.05907 -5.03378,-2.41495 -3.36894,-5.79743c0.54041,-0.40885 1.08351,-0.81446 1.63658,-1.20601c0,0 1.8984,-3.40623 2.13482,-3.43617c0.38416,-0.31587 1.6564,0.43639 2.62526,0.88733l0.35861,3.52172c0,0 2.97049,4.5577 1.5098,6.05254z" fill="#00ade2" stroke="#006280" stroke-width="4"/><path d="M250.3832,180.50149c-1.60994,-1.52582 -5.57882,-0.48748 -4.67265,-3.68359c0.55914,-1.97216 -0.01867,-0.87518 1.93887,-4.23081c1.2149,-2.08259 -2.5766,-9.01405 3.99991,-3.85272c6.57651,5.16134 14.06511,6.77221 16.01451,8.96836c1.94939,2.19615 3.24595,3.33883 3.5893,4.78257c0.64986,1.80618 1.14315,6.85041 -1.37696,7.34271c-0.70841,-0.18642 -0.7399,-0.1792 -1.12157,-0.62325c0.1017,0.65196 -0.29247,1.06455 -0.61802,1.33094c-2.2032,1.80294 -3.07458,-0.58167 -3.64235,-2.14934c-0.26215,-0.7333 -0.45039,-1.89656 -1.7225,-2.33143c-1.27211,-0.43486 -2.92949,0.65369 -3.37168,0.66455c-1.72896,-0.85795 -0.75449,-3.08516 -0.11714,-4.88669c0.23912,-0.67589 -8.89971,-1.33132 -8.89971,-1.33132z" data-paper-data="{&quot;index&quot;:null}" fill="#00ade2" stroke="#006280" stroke-width="4"/><path d="M220.33673,182.17703c0.3624,1.87627 0.9949,4.22361 -0.84242,4.81495c-0.43566,-0.07649 -1.91276,-1.39937 -3.23539,-1.15849c-1.32264,0.24089 -1.68174,1.36322 -2.05001,2.0494c-0.79455,1.46582 -2.0108,3.69437 -3.92144,1.58388c-0.28232,-0.31185 -0.61076,-0.77845 -0.41325,-1.40804c-0.44346,0.38236 -0.47353,0.37054 -1.20178,0.44956c-2.4189,-0.86154 -1.18108,-5.77635 -0.26989,-7.46583c0.5542,-1.37664 2.00625,-2.31384 4.26051,-4.19572c2.25426,-1.88188 9.89914,-2.3614 17.16997,-6.48753c7.27083,-4.12613 2.49086,2.16454 3.3826,4.40462c1.43684,3.60939 1.02855,2.43871 1.28824,4.47207c0.42088,3.29532 -3.3495,1.6784 -5.16841,2.94788c0,0 -9.1347,-0.71068 -8.99874,-0.00675z" fill="#00ade2" stroke="#006280" stroke-width="4"/><path d="M256.07212,172.93201c0.64732,5.68547 0.92347,7.80661 0.25108,12.76233c-0.67239,4.95572 -2.11191,7.43159 -3.16919,8.74497c-2.3588,2.93015 -12.74686,4.96115 -20.12765,3.92063c-3.9803,-0.56112 -7.34974,-1.6165 -8.393,-5.1147c-1.04326,-3.49821 -1.89192,-17.49718 -0.91262,-26.08846c0.15516,-7.29097 2.73126,-14.38082 11.057,-16.94051c0.8254,-0.25376 2.17846,-1.00231 3.44031,-0.50031c14.76074,-1.01709 17.05863,16.22973 17.85407,23.21605z" fill="#00c3ff" stroke="#006280" stroke-width="4"/><path d="M233.99898,156.89243c2.02235,-1.2018 10.25644,-1.23315 13.08794,0.70364c4.04562,2.76727 3.85073,9.14547 1.29432,12.8542c-0.96848,1.40504 -2.42987,2.22187 -3.81828,3.14113c-4.90811,1.94402 -13.88996,0.22792 -15.53423,-5.63925c-0.29383,-1.04847 -0.48143,-4.24449 0.60592,-6.57869c1.13793,-2.4428 3.57698,-4.01314 4.36432,-4.48103z" fill="#ffffff" stroke="#000000" stroke-width="4"/><path d="M237.60605,168.27681c-1.25,0 -1.25,-1.25 -1.25,-1.25c0,-0.41667 0,-1.33333 0,-1.75c0,0 0,-1.25 1.25,-1.25c1.25,0 1.25,1.25 1.25,1.25c0,0.41667 0,0.83333 0,1.25v0.5c0,0 0,1.25 -1.25,1.25z" fill="#000000" stroke="#000000" stroke-width="4"/><path d="M245.60605,168.02681c-1.25,0 -1.25,-1.25 -1.25,-1.25l0.02427,-0.00485c-0.08333,-0.41667 -0.16667,-0.83333 -0.25,-1.25c0,0 -0.24515,-1.22573 0.98058,-1.47087c1.22573,-0.24515 1.47087,0.98058 1.47087,0.98058c0.08333,0.41667 0.16667,0.83333 0.25,1.25l0.02427,0.49515c0,0 0,1.25 -1.25,1.25z" fill="#000000" stroke="#000000" stroke-width="4"/><path d="M251.61948,200.26104c0.17137,1.62724 -1.96463,3.0412 -3.14115,3.75577c-2.76956,1.68215 -5.07144,2.33483 -6.61347,-1.10539c0.03004,-0.67699 0.06429,-1.35395 0.11571,-2.02964c0,0 -1.4113,-3.63519 -1.28349,-3.83632c0.00193,-0.49734 1.39294,-0.99689 2.35839,-1.45513l2.94041,1.9711c0,0 5.40468,0.62111 5.62357,2.69963z" fill="#00ade2" stroke="none" stroke-width="0.5"/><path d="M239.34702,206.37222c-1.14355,1.17028 -3.59521,0.4279 -4.89613,-0.022c-3.06242,-1.05907 -5.03378,-2.41495 -3.36894,-5.79743c0.54041,-0.40885 1.08351,-0.81446 1.63658,-1.20601c0,0 1.8984,-3.40623 2.13482,-3.43617c0.38416,-0.31587 1.6564,0.43639 2.62526,0.88733l0.35861,3.52172c0,0 2.97049,4.5577 1.5098,6.05254z" fill="#00ade2" stroke="none" stroke-width="0.5"/><path d="M250.3832,180.50149c-1.60994,-1.52582 -5.57882,-0.48748 -4.67265,-3.68359c0.55914,-1.97216 -0.01867,-0.87518 1.93887,-4.23081c1.2149,-2.08259 -2.5766,-9.01405 3.99991,-3.85272c6.57651,5.16134 14.06511,6.77221 16.01451,8.96836c1.94939,2.19615 3.24595,3.33883 3.5893,4.78257c0.64986,1.80618 1.14315,6.85041 -1.37696,7.34271c-0.70841,-0.18642 -0.7399,-0.1792 -1.12157,-0.62325c0.1017,0.65196 -0.29247,1.06455 -0.61802,1.33094c-2.2032,1.80294 -3.07458,-0.58167 -3.64235,-2.14934c-0.26215,-0.7333 -0.45039,-1.89656 -1.7225,-2.33143c-1.27211,-0.43486 -2.92949,0.65369 -3.37168,0.66455c-1.72896,-0.85795 -0.75449,-3.08516 -0.11714,-4.88669c0.23912,-0.67589 -8.89971,-1.33132 -8.89971,-1.33132z" data-paper-data="{&quot;index&quot;:null}" fill="#00ade2" stroke="none" stroke-width="0.5"/><path d="M220.33673,182.17703c0.3624,1.87627 0.9949,4.22361 -0.84242,4.81495c-0.43566,-0.07649 -1.91276,-1.39937 -3.23539,-1.15849c-1.32264,0.24089 -1.68174,1.36322 -2.05001,2.0494c-0.79455,1.46582 -2.0108,3.69437 -3.92144,1.58388c-0.28232,-0.31185 -0.61076,-0.77845 -0.41325,-1.40804c-0.44346,0.38236 -0.47353,0.37054 -1.20178,0.44956c-2.4189,-0.86154 -1.18108,-5.77635 -0.26989,-7.46583c0.5542,-1.37664 2.00625,-2.31384 4.26051,-4.19572c2.25426,-1.88188 9.89914,-2.3614 17.16997,-6.48753c7.27083,-4.12613 2.49086,2.16454 3.3826,4.40462c1.43684,3.60939 1.02855,2.43871 1.28824,4.47207c0.42088,3.29532 -3.3495,1.6784 -5.16841,2.94788c0,0 -9.1347,-0.71068 -8.99874,-0.00675z" fill="#00ade2" stroke="none" stroke-width="0.5"/><path d="M238.21807,149.71597c15.13245,-0.71147 17.05864,16.22972 17.85408,23.21604c0.64732,5.68547 0.92347,7.80661 0.25108,12.76233c-0.67239,4.95572 -2.11191,7.43159 -3.16919,8.74497c-2.3588,2.93015 -12.74686,4.96115 -20.12765,3.92063c-3.9803,-0.56112 -7.34974,-1.6165 -8.393,-5.1147c-1.04326,-3.49821 -1.89192,-17.49718 -0.91262,-26.08846c0.15516,-7.29097 2.73126,-14.38082 11.057,-16.94051c1.01954,-0.31345 2.27423,-0.39532 3.44031,-0.50031z" fill="#00c3ff" stroke="none" stroke-width="0.5"/><path d="M233.99898,156.89243c2.02235,-1.2018 10.25644,-1.23315 13.08794,0.70364c4.04562,2.76727 3.85073,9.14547 1.29432,12.8542c-0.96848,1.40504 -2.42987,2.22187 -3.81828,3.14113c-4.90811,1.94402 -13.88996,0.22792 -15.53423,-5.63925c-0.29383,-1.04847 -0.48143,-4.24449 0.60592,-6.57869c1.13793,-2.4428 3.57698,-4.01314 4.36432,-4.48103z" fill="#ffffff" stroke="none" stroke-width="0.5"/><path d="M237.60605,168.27681c-1.25,0 -1.25,-1.25 -1.25,-1.25c0,-0.41667 0,-1.33333 0,-1.75c0,0 0,-1.25 1.25,-1.25c1.25,0 1.25,1.25 1.25,1.25c0,0.41667 0,0.83333 0,1.25v0.5c0,0 0,1.25 -1.25,1.25z" fill="#000000" stroke="none" stroke-width="0.5"/><path d="M245.60605,168.02681c-1.25,0 -1.25,-1.25 -1.25,-1.25l0.02427,-0.00485c-0.08333,-0.41667 -0.16667,-0.83333 -0.25,-1.25c0,0 -0.24515,-1.22573 0.98058,-1.47087c1.22573,-0.24515 1.47087,0.98058 1.47087,0.98058c0.08333,0.41667 0.16667,0.83333 0.25,1.25l0.02427,0.49515c0,0 0,1.25 -1.25,1.25z" fill="#000000" stroke="none" stroke-width="0.5"/></g></g></svg>