<svg version="1.1" xmlns="http://www.w3.org/2000/svg" xmlns:xlink="http://www.w3.org/1999/xlink" width="533" height="377" viewBox="0,0,533,377"><defs><linearGradient x1="142.55801" y1="336.15031" x2="142.55801" y2="351.56737" gradientUnits="userSpaceOnUse" id="color-1"><stop offset="0" stop-color="#ff4af6"/><stop offset="1" stop-color="#b692ff"/></linearGradient></defs><g transform="translate(26.5,8.5)"><g data-paper-data="{&quot;isPaintingLayer&quot;:true}" fill-rule="nonzero" stroke="none" stroke-width="0" stroke-linecap="butt" stroke-linejoin="miter" stroke-miterlimit="10" stroke-dasharray="" stroke-dashoffset="0" style="mix-blend-mode: normal"><path d="M-26.5,368.5v-377h533v377z" fill="none"/><path d="M-5.83249,349.08076v-10.44381c0,0 18.18326,-1.49198 35.45881,-1.49198c12.44081,0 36.66977,1.38699 65.55766,1.23272c14.06721,-0.07513 29.23897,-0.5824 44.69238,-0.54777c15.69639,0.03519 31.68313,-0.38098 47.09749,-0.27541c19.09257,0.13076 37.30714,0.79632 53.00421,0.96098c30.11954,0.31596 51.97029,0.61879 51.97029,0.61879l-11,10.94648c0,0 -39.83733,3.97325 -74.32627,3.97325c-15.77643,0 -40.10463,-1.90669 -66.74534,-1.78908c-14.7438,0.06509 -28.40799,0.98572 -43.5107,0.83169c-10.81934,-0.11034 -23.24713,2.02159 -33.31898,1.76354c-1.41698,-0.0363 -68.8796,-5.77939 -68.8796,-5.77939z" fill="url(#color-1)"/></g></g></svg>