<svg version="1.1" xmlns="http://www.w3.org/2000/svg" xmlns:xlink="http://www.w3.org/1999/xlink" width="88.34685" height="88.34685" viewBox="0,0,88.34685,88.34685"><g transform="translate(-195.82666,-135.82664)"><g data-paper-data="{&quot;isPaintingLayer&quot;:true}" fill-rule="nonzero" stroke-width="0" stroke-linecap="butt" stroke-linejoin="miter" stroke-miterlimit="10" stroke-dasharray="" stroke-dashoffset="0" style="mix-blend-mode: normal"><path d="M195.82667,224.17349v-88.34685h88.34685v88.34685z" fill="none" stroke="#000000"/><path d="M249.08334,181.16667c0,0 10.70657,9.02498 10.4347,17.71615c-0.26076,8.33583 -11.95803,14.36719 -19.51804,14.36719c-12.24374,0 -20.27234,-3.58947 -19.90652,-14.91014c0.35311,-10.92748 11.15652,-17.17319 11.15652,-17.17319c0,0 -10.34854,-11.41922 -8.45322,-18.87413c1.89532,-7.45491 8.69557,-10.04253 17.53655,-10.04253c4.82574,0 16.11031,4.6522 17.30209,10.96972c1.88846,10.01052 -8.55209,17.94695 -8.55209,17.94695zM239.91667,176.91667c3.45178,0 6.41667,-5.13155 6.41667,-8.58333c0,-3.45178 -2.63155,-5.75 -6.08334,-5.75c-3.45178,0 -6.25,1.96488 -6.25,5.41666c0,3.45178 2.46488,8.91666 5.91666,8.91666zM237.75,203.91667c4.26592,0.29276 9.18921,-1.37938 9.75,-5.91667c0.56079,-4.53729 -2.90897,-8.573 -7.91667,-8.91667c-5.0077,-0.34366 -8.48364,2.89797 -9.08333,7.75c-0.59969,4.85204 2.98408,6.79057 7.25,7.08333z" fill="#f23030" stroke="none"/></g></g></svg>