<svg version="1.1" xmlns="http://www.w3.org/2000/svg" xmlns:xlink="http://www.w3.org/1999/xlink" width="608.10811" height="492.60192" viewBox="0,0,608.10811,492.60192"><defs><radialGradient cx="239.99988" cy="180" r="260.51051" gradientUnits="userSpaceOnUse" id="color-1"><stop offset="0" stop-color="#ffebc5"/><stop offset="1" stop-color="#ffebc5" stop-opacity="0"/></radialGradient></defs><g transform="translate(64.05406,66.30096)"><g data-paper-data="{&quot;isPaintingLayer&quot;:true}" fill-rule="nonzero" stroke-linecap="butt" stroke-linejoin="miter" stroke-miterlimit="10" stroke-dasharray="" stroke-dashoffset="0" style="mix-blend-mode: normal"><path d="M-64.05406,392.46246v-424.92492h608.10811v424.92492z" fill="#ffd900" stroke="none" stroke-width="0"/><path d="M-21.51647,385.70997v-278.03729c0,0 80.52968,118.99385 98.50133,90.09009c23.05868,-37.08521 111.58252,-122.43795 127.97315,-10.83601c3.96743,27.0138 67.37255,9.70328 85.40712,-11.20627c98.31792,-113.99127 213.64393,-68.04781 213.64393,-68.04781v278.03729z" fill="#ffe133" stroke="none" stroke-width="0"/><g fill="none" stroke="#ffef5e"><path d="M410.07785,180.68215c0,85.72557 -76.48255,155.21988 -170.82858,155.21988c-94.34602,0 -170.82858,-69.4943 -170.82858,-155.21988c0,-85.72557 76.48255,-155.21988 170.82858,-155.21988c94.34602,0 170.82858,69.4943 170.82858,155.21988z" stroke-width="7.5"/><path d="M458.82632,180.68215c0,110.18863 -98.30799,199.51417 -219.57705,199.51417c-121.26906,0 -219.57704,-89.32553 -219.57704,-199.51417c0,-110.18863 98.30798,-199.51417 219.57704,-199.51417c121.26906,0 219.57705,89.32553 219.57705,199.51417z" stroke-width="10"/><path d="M500.06308,180c0,130.50541 -116.43419,236.30096 -260.06306,236.30096c-143.62887,0 -260.06306,-105.79554 -260.06306,-236.30096c0,-130.50541 116.43419,-236.30096 260.06306,-236.30096c143.62887,0 260.06306,105.79554 260.06306,236.30096z" stroke-width="20"/></g><path d="M500.51053,180c0,130.88384 -116.63453,236.98615 -260.5105,236.98615c-143.87599,0 -260.51051,-106.10231 -260.51051,-236.98614c0,-130.88384 116.63454,-236.98614 260.51051,-236.98614c143.87599,0 260.5105,106.10232 260.5105,236.98615z" fill="url(#color-1)" stroke="none" stroke-width="0"/></g></g></svg>