<svg version="1.1" xmlns="http://www.w3.org/2000/svg" xmlns:xlink="http://www.w3.org/1999/xlink" width="88.34685" height="88.34685" viewBox="0,0,88.34685,88.34685"><g transform="translate(-195.82661,-135.8266)"><g data-paper-data="{&quot;isPaintingLayer&quot;:true}" fill-rule="nonzero" stroke-width="0" stroke-linecap="butt" stroke-linejoin="miter" stroke-miterlimit="10" stroke-dasharray="" stroke-dashoffset="0" style="mix-blend-mode: normal"><path d="M195.82661,224.17346v-88.34685h88.34685v88.34685z" fill="none" stroke="#000000"/><g fill="#f23030" stroke="none"><path d="M231.53283,183.14182l-0.70372,-6.84378c0,0 19.86424,-6.43077 13.75576,-11.94391c-8.83787,-7.97654 -26.37627,2.983 -26.37627,2.983l0.10981,-13.64087c0,0 18.99654,-5.30817 31.52913,-0.9311c6.06181,2.11712 10.4699,7.89757 10.7544,14.97661c0.52032,12.9468 -26.3902,15.92767 -26.3902,15.92767z"/><path d="M234.33983,177.0156c0,0 27.06783,1.62741 27.43157,14.57853c0.16208,5.77083 -0.59354,11.08514 -4.77451,13.58608c-11.55658,6.91287 -35.79292,2.24216 -35.79292,2.24216l-1.04002,-13.60923c0,0 21.88261,11.50952 25.85151,2.04309c3.56829,-8.51088 -14.65597,-12.33365 -14.65597,-12.33365l-0.81854,-7.15197z" data-paper-data="{&quot;index&quot;:null}"/></g></g></g></svg>