<svg version="1.1" xmlns="http://www.w3.org/2000/svg" xmlns:xlink="http://www.w3.org/1999/xlink" width="700.05978" height="473.97229" viewBox="0,0,700.05978,473.97229"><defs><radialGradient cx="150.48048" cy="164.23371" r="260.5105" gradientUnits="userSpaceOnUse" id="color-1"><stop offset="0" stop-color="#c5f7ff"/><stop offset="1" stop-color="#c5f7ff" stop-opacity="0"/></radialGradient><linearGradient x1="168.00018" y1="90.65814" x2="168.00018" y2="343.3419" gradientUnits="userSpaceOnUse" id="color-2"><stop offset="0" stop-color="#03b9ff"/><stop offset="1" stop-color="#a8e6ff"/></linearGradient><linearGradient x1="169.92132" y1="273.94979" x2="169.92132" y2="342.79834" gradientUnits="userSpaceOnUse" id="color-3"><stop offset="0" stop-color="#ff4af6"/><stop offset="1" stop-color="#b692ff"/></linearGradient><linearGradient x1="169.92132" y1="273.94979" x2="169.92132" y2="342.79834" gradientUnits="userSpaceOnUse" id="color-4"><stop offset="0" stop-color="#ff4af6"/><stop offset="1" stop-color="#b692ff"/></linearGradient><radialGradient cx="91.08362" cy="246.60786" r="15.20779" gradientUnits="userSpaceOnUse" id="color-5"><stop offset="0" stop-color="#f7f7f7"/><stop offset="1" stop-color="#f7f7f7" stop-opacity="0"/></radialGradient><radialGradient cx="111.36156" cy="257.79039" r="15.20777" gradientUnits="userSpaceOnUse" id="color-6"><stop offset="0" stop-color="#f7f7f7"/><stop offset="1" stop-color="#f7f7f7" stop-opacity="0"/></radialGradient><radialGradient cx="79.90108" cy="266.88577" r="15.20779" gradientUnits="userSpaceOnUse" id="color-7"><stop offset="0" stop-color="#f7f7f7"/><stop offset="1" stop-color="#f7f7f7" stop-opacity="0"/></radialGradient><radialGradient cx="100.17899" cy="278.0683" r="15.20777" gradientUnits="userSpaceOnUse" id="color-8"><stop offset="0" stop-color="#f7f7f7"/><stop offset="1" stop-color="#f7f7f7" stop-opacity="0"/></radialGradient><radialGradient cx="95.63132" cy="262.33807" r="6.46148" gradientUnits="userSpaceOnUse" id="color-9"><stop offset="0" stop-color="#f7f7f7"/><stop offset="1" stop-color="#f7f7f7" stop-opacity="0"/></radialGradient><radialGradient cx="91.08362" cy="246.60786" r="15.20779" gradientUnits="userSpaceOnUse" id="color-10"><stop offset="0" stop-color="#f7f7f7"/><stop offset="1" stop-color="#f7f7f7" stop-opacity="0"/></radialGradient><radialGradient cx="111.36156" cy="257.79039" r="15.20777" gradientUnits="userSpaceOnUse" id="color-11"><stop offset="0" stop-color="#f7f7f7"/><stop offset="1" stop-color="#f7f7f7" stop-opacity="0"/></radialGradient><radialGradient cx="79.90108" cy="266.88577" r="15.20779" gradientUnits="userSpaceOnUse" id="color-12"><stop offset="0" stop-color="#f7f7f7"/><stop offset="1" stop-color="#f7f7f7" stop-opacity="0"/></radialGradient><radialGradient cx="100.17899" cy="278.0683" r="15.20777" gradientUnits="userSpaceOnUse" id="color-13"><stop offset="0" stop-color="#f7f7f7"/><stop offset="1" stop-color="#f7f7f7" stop-opacity="0"/></radialGradient><radialGradient cx="95.63132" cy="262.33807" r="6.46148" gradientUnits="userSpaceOnUse" id="color-14"><stop offset="0" stop-color="#f7f7f7"/><stop offset="1" stop-color="#f7f7f7" stop-opacity="0"/></radialGradient><radialGradient cx="95.63132" cy="262.33807" r="3.63793" gradientUnits="userSpaceOnUse" id="color-15"><stop offset="0" stop-color="#f7f7f7"/><stop offset="1" stop-color="#f7f7f7" stop-opacity="0"/></radialGradient><radialGradient cx="82.59298" cy="252.43237" r="15.20779" gradientUnits="userSpaceOnUse" id="color-16"><stop offset="0" stop-color="#f7f7f7"/><stop offset="1" stop-color="#f7f7f7" stop-opacity="0"/></radialGradient><radialGradient cx="105.53701" cy="249.29972" r="15.20779" gradientUnits="userSpaceOnUse" id="color-17"><stop offset="0" stop-color="#f7f7f7"/><stop offset="1" stop-color="#f7f7f7" stop-opacity="0"/></radialGradient><radialGradient cx="85.72564" cy="275.37643" r="15.20779" gradientUnits="userSpaceOnUse" id="color-18"><stop offset="0" stop-color="#f7f7f7"/><stop offset="1" stop-color="#f7f7f7" stop-opacity="0"/></radialGradient><radialGradient cx="108.66969" cy="272.24375" r="15.2078" gradientUnits="userSpaceOnUse" id="color-19"><stop offset="0" stop-color="#f7f7f7"/><stop offset="1" stop-color="#f7f7f7" stop-opacity="0"/></radialGradient><radialGradient cx="95.63132" cy="262.33807" r="6.46148" gradientUnits="userSpaceOnUse" id="color-20"><stop offset="0" stop-color="#f7f7f7"/><stop offset="1" stop-color="#f7f7f7" stop-opacity="0"/></radialGradient><radialGradient cx="82.59298" cy="252.43237" r="15.20779" gradientUnits="userSpaceOnUse" id="color-21"><stop offset="0" stop-color="#f7f7f7"/><stop offset="1" stop-color="#f7f7f7" stop-opacity="0"/></radialGradient><radialGradient cx="105.53701" cy="249.29972" r="15.20779" gradientUnits="userSpaceOnUse" id="color-22"><stop offset="0" stop-color="#f7f7f7"/><stop offset="1" stop-color="#f7f7f7" stop-opacity="0"/></radialGradient><radialGradient cx="85.72564" cy="275.37643" r="15.20779" gradientUnits="userSpaceOnUse" id="color-23"><stop offset="0" stop-color="#f7f7f7"/><stop offset="1" stop-color="#f7f7f7" stop-opacity="0"/></radialGradient><radialGradient cx="108.66969" cy="272.24375" r="15.2078" gradientUnits="userSpaceOnUse" id="color-24"><stop offset="0" stop-color="#f7f7f7"/><stop offset="1" stop-color="#f7f7f7" stop-opacity="0"/></radialGradient><radialGradient cx="95.63132" cy="262.33807" r="6.46148" gradientUnits="userSpaceOnUse" id="color-25"><stop offset="0" stop-color="#f7f7f7"/><stop offset="1" stop-color="#f7f7f7" stop-opacity="0"/></radialGradient><radialGradient cx="95.63132" cy="262.33807" r="3.63793" gradientUnits="userSpaceOnUse" id="color-26"><stop offset="0" stop-color="#f7f7f7"/><stop offset="1" stop-color="#f7f7f7" stop-opacity="0"/></radialGradient></defs><g transform="translate(110.02987,72.75243)"><g data-paper-data="{&quot;isPaintingLayer&quot;:true}" fill-rule="nonzero" stroke-linecap="butt" stroke-linejoin="miter" stroke-miterlimit="10" stroke-dasharray="" stroke-dashoffset="0" style="mix-blend-mode: normal"><path d="M-18.07819,372.19173v-424.92492h608.10811v424.92492z" fill="#00aaff" stroke="none" stroke-width="0"/><path d="M-2.56726,365.43922v-278.03729c0,0 80.52968,118.99385 98.50133,90.09009c23.05868,-37.08521 111.58252,-122.43795 127.97315,-10.83601c3.96743,27.0138 67.37255,9.70328 85.40712,-11.20627c98.31792,-113.99127 213.64393,-68.04781 213.64393,-68.04781v278.03729z" fill="#3385ff" stroke="none" stroke-width="0"/><path d="M410.99116,164.23371c0,130.88384 -116.63454,236.98615 -260.51051,236.98615c-143.87598,0 -260.51051,-106.10232 -260.51051,-236.98615c0,-130.88384 116.63454,-236.98614 260.51051,-236.98614c143.87599,0 260.51051,106.10232 260.51051,236.98615z" fill="url(#color-1)" stroke="none" stroke-width="0"/><path d="M29.01486,336.25356c-10.2069,-8.41538 -8.19816,-60.26117 -7.81634,-119.48853c0.33609,-52.13036 -2.267,-112.39018 7.81634,-120.20419c10.32773,-8.00337 75.68104,-5.55667 140.56181,-5.53058c64.62108,0.02601 128.77321,-2.40079 137.62206,5.53058c10.33406,9.26245 7.78577,65.2406 7.62122,120.9033c-0.16311,55.17356 2.14612,110.037 -7.62122,118.78933c-9.96625,8.93054 -74.10419,6.90071 -138.4489,6.86804c-64.43482,-0.03276 -129.07694,1.91904 -139.73496,-6.86804z" fill="url(#color-2)" stroke="#000000" stroke-width="12.5"/><path d="M194.45203,208.00002h117.12858c-0.05423,0.96641 -0.08054,1.96166 -0.08054,3c0,5 0,10 0,15c0,2.13316 0.46887,4.29225 0.12913,6.39818c-0.408,2.52904 -1.08562,5.04045 -1.12913,7.60182c-0.07047,4.14895 0.92563,9.37557 0.12913,13.39818c-0.87434,4.41566 -2.45208,8.8568 -3.0542,13.37999c-0.1289,0.96834 0.42371,1.97516 0.19259,2.9243c-0.22821,0.93717 -1.14207,1.57755 -1.50631,2.47069c-0.68902,1.68957 -1.08805,3.48334 -1.63208,5.22501c0,4.4044 -1.06692,7.9765 -1.12913,12.60182c-0.03138,2.33312 0,4.66667 0,7c0,1.37096 0.58363,2.79859 0.18044,4.10892c-1.41616,4.60229 -3.38105,8.78768 -4.10551,13.66924c-0.11417,0.76929 0.3001,1.57778 0.10551,2.33076c-0.44914,1.73796 -1.64762,3.23987 -2,5c-0.33884,1.69248 -0.39434,3.45171 -0.25103,5.17765c-0.191,0.11724 -0.35322,0.28165 -0.43592,0.45612c-0.18042,0.38062 0.73328,0.8884 0.43544,1.18624c-0.29784,0.29784 -0.82506,-0.65215 -1.18624,-0.43544c-1.46715,0.88029 -2.60391,2.2256 -3.81376,3.43544c-0.04931,0.04931 -0.10954,0.12419 -0.15897,0.20393c-1.22429,0.03399 -2.44485,0.21083 -3.6678,0.29621c-1,0.66667 -1.86094,1.61662 -3,2c-1.24567,0.41926 -2.70588,-0.14898 -3.92899,0.33212c-0.5746,0.22602 -0.97634,0.7202 -1.36729,1.22665c-1.90606,-0.11361 -3.86466,-0.06083 -5.70372,0.44123c-1.15942,0.31652 -1.85176,1.64504 -3,2c-0.74865,0.23144 -1.54622,-0.44965 -2.32399,-0.35416c-2.53448,0.31118 -4.87027,1.58329 -7.37999,2.0542c-3.50929,0.65846 -7.65064,-0.14068 -11.42615,-0.15079c-1.6665,-1.24271 -36.76639,-1.97833 -39.00506,-1.97833c-0.68493,0 -17.87029,0.06886 -18.51651,0.20004z" fill="#ffdc00" stroke="#477400" stroke-width="10"/><path d="M191.44903,343.49852l2.003,-137l124.04805,1.5015c0,0 -4.43953,96.92973 -5.35803,116.9836c-0.31793,6.94151 -3.64197,11.0164 -3.64197,11.0164c0,0 -4.1441,3.62123 -9.98875,4.12946c-12.13702,1.05539 -107.0623,3.36904 -107.0623,3.36904z" fill="#8ae200" stroke="none" stroke-width="0"/><path d="M-1.94656,66.98278v-50.27582c0,0 285.33373,-0.26407 291.42407,0c4.67347,0.20263 20.10022,50.22043 14.82859,50.27582c-5.17289,0.05435 -306.25266,0 -306.25266,0z" data-paper-data="{&quot;index&quot;:null}" fill="#000000" stroke="#000000" stroke-width="2.5"/><path d="M-2.82552,64.05295v-50.27582c0,0 282.11093,-0.26407 288.20127,0c4.67347,0.20263 20.10022,50.22043 14.82859,50.27582c-5.17289,0.05435 -303.02986,0 -303.02986,0z" data-paper-data="{&quot;index&quot;:null}" fill="#ff00ad" stroke="#ffffff" stroke-width="1.5"/><text transform="translate(14.98485,51.84975) scale(0.80425,0.80425)" font-size="40" xml:space="preserve" data-paper-data="{&quot;index&quot;:null}" fill="#ca008a" fill-rule="nonzero" stroke="#ca008a" stroke-width="7" stroke-linecap="butt" stroke-linejoin="miter" stroke-miterlimit="10" stroke-dasharray="" stroke-dashoffset="0" font-family="Handwriting" font-weight="normal" text-anchor="start" style="mix-blend-mode: normal"><tspan x="0" dy="0">JUNGLA SIDERAL</tspan></text><text transform="translate(11.98485,48.84975) scale(0.80424,0.80424)" font-size="40" xml:space="preserve" data-paper-data="{&quot;index&quot;:null}" fill="#ffffff" fill-rule="nonzero" stroke="#ffffff" stroke-width="7" stroke-linecap="butt" stroke-linejoin="miter" stroke-miterlimit="10" stroke-dasharray="" stroke-dashoffset="0" font-family="Handwriting" font-weight="normal" text-anchor="start" style="mix-blend-mode: normal"><tspan x="0" dy="0">JUNGLA SIDERAL</tspan></text><g data-paper-data="{&quot;index&quot;:null}"><path d="M284.15828,206.70197c-1.3093,-1.05218 0.62231,-4.97451 0.62231,-4.97451l-0.0527,-2.84446c0.72966,-0.45303 1.67239,-1.17565 2.00929,-0.96058c0.19151,0.00114 2.03395,2.53629 2.03395,2.53629c0.47896,0.25921 0.9513,0.53058 1.42184,0.80481c1.65381,2.53867 0.21134,3.81018 -2.13024,4.94984c-0.9947,0.48413 -2.87943,1.31235 -3.90445,0.48862z" fill="#00ade2" stroke="#000000" stroke-width="6.5"/><path d="M271.96029,203.4213c-0.40104,-1.6311 3.51583,-3.5738 3.51583,-3.5738l1.68581,-2.29167c0.85481,0.08331 2.04262,0.08185 2.17964,0.45733c0.15145,0.11723 0.07528,3.25024 0.07528,3.25024c0.22305,0.49683 0.43346,0.99933 0.64069,1.50296c-0.22815,3.02122 -2.14636,3.15519 -4.69874,2.6383c-1.08426,-0.21956 -3.08454,-0.70638 -3.39851,-1.98334z" fill="#00ade2" stroke="#000000" stroke-width="6.5"/><path d="M272.94498,187.79703c0,0 -7.19276,-1.57632 -7.1624,-1.00093c0.0809,1.53362 0.32468,3.47213 -1.20327,3.73958c-0.33833,-0.10908 -1.36777,-1.32553 -2.44726,-1.28011c-1.07948,0.04543 -1.48951,0.8991 -1.85857,1.40456c-0.79464,1.07891 -2.00935,2.71832 -3.29676,0.82696c-0.19024,-0.27946 -0.40008,-0.68723 -0.1732,-1.16654c-0.3953,0.25531 -0.41793,0.24257 -1.00636,0.2249c-1.83018,-0.95341 -0.30112,-4.72875 0.61112,-5.97279c0.59344,-1.03452 1.85299,-1.6199 3.85563,-2.86852c2.00263,-1.24862 8.14113,-0.78455 14.38533,-3.26464c6.24419,-2.48008 1.7433,1.99858 2.20532,3.88039c0.74444,3.0321 0.54896,2.05504 0.53072,3.70237c-0.02954,2.6697 -2.85195,0.96546 -4.44028,1.77477z" data-paper-data="{&quot;index&quot;:null}" fill="#00ade2" stroke="#000000" stroke-width="6.5"/><path d="M297.2913,187.2476c0.2092,-0.53687 -7.11513,-1.29498 -7.11513,-1.29498c-1.25454,-1.26646 -4.46894,-0.53298 -3.66003,-3.07735c0.49911,-1.57001 0.00718,-0.70349 1.66465,-3.34935c1.02867,-1.64209 -1.84125,-7.30602 3.31065,-2.99339c5.15189,4.31263 11.12643,5.79639 12.63665,7.60989c1.51023,1.8135 2.52276,2.76424 2.76197,3.93266c0.47624,1.46732 0.74463,5.53171 -1.29218,5.86328c-0.56431,-0.1677 -0.58978,-0.1627 -0.88513,-0.52906c0.06517,0.52628 -0.26192,0.8477 -0.53017,1.05344c-1.81545,1.39239 -2.45496,-0.54518 -2.87131,-1.81883c-0.19199,-0.59569 -0.31372,-1.53486 -1.32454,-1.91642c-1.01083,-0.38156 -2.36974,0.45084 -2.72521,0.44836c-1.36709,-0.73299 -0.52787,-2.49734 0.02976,-3.9283z" fill="#00ade2" stroke="#000000" stroke-width="6.5"/><path d="M268.94284,179.7692c0.63928,-5.61469 2.84489,-19.29642 14.34877,-18.65802c1.08933,0.06045 2.27733,0.25219 2.76487,0.40208c6.69113,2.05715 8.76147,7.75504 8.88617,13.61457c0.78703,6.90455 0.10499,18.15508 -0.73344,20.96649c-0.83844,2.81139 -3.54635,3.65957 -6.74519,4.11053c-5.93171,0.83623 -14.28028,-0.79602 -16.17597,-3.15089c-0.84971,-1.05552 -2.0066,-3.0453 -2.54698,-7.02806c-0.54037,-3.98276 -0.31844,-5.68746 0.20179,-10.25669z" fill="#00c3ff" stroke="#000000" stroke-width="6.5"/><path d="M284.15828,206.70197c-1.30929,-1.05218 0.62232,-4.97451 0.62232,-4.97451l-0.0527,-2.84446c0.72966,-0.45303 1.67239,-1.17565 2.00929,-0.96058c0.19151,0.00114 2.03395,2.53629 2.03395,2.53629c0.47896,0.25921 0.95131,0.53058 1.42185,0.80481c1.65381,2.53867 0.21133,3.81018 -2.13025,4.94984c-0.9947,0.48413 -2.87943,1.31235 -3.90445,0.48862z" fill="#00ade2" stroke="none" stroke-width="0.5"/><path d="M271.96029,203.4213c-0.40104,-1.6311 3.51583,-3.5738 3.51583,-3.5738l1.68581,-2.29167c0.85481,0.08331 2.04262,0.08185 2.17964,0.45733c0.15145,0.11723 0.07528,3.25024 0.07528,3.25024c0.22305,0.49683 0.43346,0.99933 0.64069,1.50296c-0.22815,3.02122 -2.14636,3.15519 -4.69874,2.6383c-1.08426,-0.21956 -3.08454,-0.70638 -3.39851,-1.98334z" fill="#00ade2" stroke="none" stroke-width="0.5"/><path d="M272.94498,187.79703c0,0 -7.19276,-1.57632 -7.1624,-1.00093c0.0809,1.53362 0.32468,3.47213 -1.20327,3.73958c-0.33833,-0.10908 -1.36777,-1.32553 -2.44726,-1.28011c-1.07948,0.04543 -1.48951,0.8991 -1.85857,1.40456c-0.79464,1.07891 -2.00935,2.71832 -3.29676,0.82696c-0.19024,-0.27946 -0.40007,-0.68723 -0.17319,-1.16654c-0.3953,0.25531 -0.41793,0.24257 -1.00637,0.2249c-1.83019,-0.95341 -0.30112,-4.72875 0.61112,-5.97279c0.59345,-1.03452 1.85299,-1.6199 3.85563,-2.86852c2.00263,-1.24862 8.14113,-0.78455 14.38533,-3.26464c6.24419,-2.48008 1.7433,1.99858 2.20532,3.88039c0.74444,3.0321 0.54896,2.05504 0.53072,3.70237c-0.02954,2.6697 -2.85195,0.96546 -4.44028,1.77477z" data-paper-data="{&quot;index&quot;:null}" fill="#00ade2" stroke="none" stroke-width="0.5"/><path d="M297.29125,187.2476c0.2092,-0.53687 -7.11513,-1.29498 -7.11513,-1.29498c-1.25454,-1.26646 -4.46894,-0.53298 -3.66003,-3.07735c0.49911,-1.57001 0.00718,-0.70349 1.66465,-3.34935c1.02867,-1.64209 -1.84125,-7.30602 3.31065,-2.99339c5.15189,4.31263 11.12643,5.79639 12.63665,7.60989c1.51022,1.8135 2.52275,2.76424 2.76196,3.93266c0.47624,1.46732 0.74463,5.53171 -1.29218,5.86328c-0.56431,-0.1677 -0.58978,-0.1627 -0.88513,-0.52906c0.06517,0.52628 -0.26192,0.8477 -0.53017,1.05344c-1.81545,1.39239 -2.45496,-0.54518 -2.87131,-1.81883c-0.19198,-0.59569 -0.31371,-1.53486 -1.32454,-1.91642c-1.01083,-0.38156 -2.36974,0.45084 -2.72521,0.44836c-1.36709,-0.73299 -0.52787,-2.49734 0.02976,-3.9283z" fill="#00ade2" stroke="none" stroke-width="0.5"/><path d="M283.29159,161.11118c0.93713,0.08438 1.94549,0.15018 2.76487,0.40208c6.69113,2.05715 8.76147,7.75504 8.88617,13.61457c0.78703,6.90455 0.10499,18.15508 -0.73344,20.96649c-0.83844,2.81139 -3.54635,3.65957 -6.74519,4.11053c-5.93171,0.83623 -14.28028,-0.79602 -16.17597,-3.15089c-0.84971,-1.05552 -2.0066,-3.0453 -2.54698,-7.02806c-0.54037,-3.98276 -0.31844,-5.68746 0.20179,-10.25669c0.63928,-5.61469 2.18729,-19.2298 14.34878,-18.65801z" fill="#00c3ff" stroke="none" stroke-width="0.5"/><path d="M286.68235,166.61078c0.63276,0.37603 2.59295,1.63806 3.50747,3.60127c0.87386,1.87593 0.7231,4.44448 0.48696,5.28709c-1.32145,4.71526 -8.53988,6.09444 -12.48438,4.53209c-1.11582,-0.73878 -2.2903,-1.39524 -3.06863,-2.52443c-2.05451,-2.98059 -2.21113,-8.10655 1.04021,-10.33052c2.27559,-1.55654 8.89307,-1.53134 10.51838,-0.56549z" fill="#ffffff" stroke="none" stroke-width="0.5"/><path d="M282.77887,175.02337v-0.40184c0,-0.33487 0,-0.66972 0,-1.00458c0,0 0.00001,-1.00459 1.00459,-1.00459c1.00458,0 1.00458,1.00459 1.00458,1.00459c0,0.33487 0,1.07156 0,1.40642c0,0 0,1.00458 -1.00458,1.00458c-1.00458,0 -1.00459,-1.00458 -1.00459,-1.00458z" fill="#000000" stroke="none" stroke-width="0.5"/><path d="M277.35411,175.82704c-1.00458,0 -1.00458,-1.00458 -1.00458,-1.00458l0.0195,-0.39794c0.06697,-0.33487 0.13395,-0.66972 0.20092,-1.00458c0,0 0.19702,-0.98508 1.18209,-0.78806c0.98508,0.19702 0.78806,1.1821 0.78806,1.1821c-0.06697,0.33487 -0.13395,0.66972 -0.20091,1.00458l0.0195,0.0039c0,0 0,1.00458 -1.00458,1.00458z" fill="#000000" stroke="none" stroke-width="0.5"/></g><g fill="url(#color-4)"><path d="M25.94187,273.94979c3.75439,0.60019 7.53434,0.56837 11.30926,1.13831c3.14235,0.47443 5.97573,1.82104 9.12387,2.27351c1.99106,0.28616 4.08492,-0.25867 6.08283,-0.00056c1.05299,0.13604 1.98294,0.64746 3.04129,0.75782c3.59108,0.37446 7.92265,0.02324 11.55797,0.02324c8.78594,0 17.57425,-0.00384 26.36019,-0.00384c0.48256,0 6.23149,0.00594 6.48947,-0.02572c2.39591,-0.29402 4.59216,-1.2855 7.00189,-1.50763c4.27344,-0.39393 8.78816,0.27093 13.08171,0.00437c4.63156,-0.28754 5.57668,-0.91508 10.08215,-1.35652c5.89028,-0.57713 12.17984,-0.1622 18.11053,-0.1622c9.63681,0 19.31473,0.09103 28.95018,-0.03754c6.53961,2.00446 13.4971,3.23776 20.46587,3.81556c6.31858,0.52389 12.94621,0.15891 19.25575,0.76336c2.4135,0.23121 4.60988,1.25251 7.01868,1.50971c3.29737,0.35209 7.18846,0.02705 10.54573,0.02705c8.44802,0 16.89889,0.0044 25.3469,0.0044c8.1101,0 16.22152,0.00272 24.33162,0.00272c3.36179,0 7.23941,0.4129 10.54396,-0.02358c2.44138,-0.32247 4.32807,-1.65576 6.60472,-2.38945c2.06137,-0.66431 4.36264,-1.11193 6.57407,-1.40004c1.18505,-0.15439 2.38956,0.23285 3.50803,-0.09814c0.86553,-0.25613 -75.15402,58.39944 -149.82445,57.79421c-68.31086,-0.55369 -135.8188,-60.34383 -135.56222,-61.10903z" data-paper-data="{&quot;noHover&quot;:false,&quot;origItem&quot;:[&quot;Path&quot;,{&quot;applyMatrix&quot;:true,&quot;segments&quot;:[[[52,512],[0,-4.36755],[0,12]],[[52,548],[0,-12],[0,5.94784]],[[51.93544,566.80091],[0.94485,-5.85835],[-1.3085,8.11311]],[[45.93544,590.80091],[1.35531,-8.09951],[-1.65148,9.86945]],[[47.82187,622.51977],[-1.6345,-9.78374],[0,0]],[[50,626],[0,0],[-0.12687,1.36219]],[[49.6194,630.08658],[-0.5589,-1.24872],[0.77033,1.72109]],[[53.6194,634.08658],[-0.692,-1.75405],[0.82807,2.09895]],[[53.86624,640.85124],[-0.61025,-2.1723],[0.69819,2.48535]],[[57.44865,647.71756],[-1.19738,-2.28708],[4.22789,8.07553]],[[72.54575,669.00174],[-7.30417,-5.27484],[0,0]],[[77.20503,669.007],[0,0],[16.09961,0.08743]],[[125.31069,673.00966],[-16.1093,-1.00293],[12.6918,0.79016]],[[163.80091,673.06456],[-12.61916,-1.55069],[3.7543,0.46134]],[[174.98252,675.00021],[-3.78183,0.04216],[0.01151,-0.00021]],[175,675],[[183,675],[0,0],[36.47185,0]],[[293.30989,677],[-36.20962,-4.48528],[3.45891,0]],[[307,677],[-3.23355,0],[32.58937,0]],[[405.35239,677.01634],[-32.51376,-2.02392],[16.67882,1.03822]],[[455,679],[-16.75334,0],[13.33333,0]],[[499,679],[-13.33333,0],[6.64294,0]],[[520.19909,679.06456],[-6.55136,1.13221],[10.49657,-1.81403]],[[552.45442,673.02986],[-10.74577,1.17959],[14.44948,-1.58615]],[[597,673],[-14.5349,0],[0,0]],[[597.1257,673.00423],[-0.08098,-0.00423],[1.33002,-1.10897]],[[600.74675,669.37134],[-0.94019,1.4322],[1.15694,-1.76237]],[[602.74675,663.37134],[-1.09363,1.80234],[0.84703,-1.39593]],[[606.3806,660.08658],[-0.60003,1.51856],[0.79001,-1.99936]],[[606.59163,653.64071],[-0.07034,2.14862],[2,-1.33333]],[[612.59163,649.64071],[-1.38873,1.96194],[0.71033,-1.00353]],[[612,646],[0.07531,1.22718],[-0.34814,-5.67297]],[[612.06456,627.19909],[-0.90058,5.58386],[1.07637,-6.67379]],[[616.1994,606.60206],[-1.85734,6.59018],[1.0887,-3.86293]],[[620.06456,595.19909],[-0.55795,3.97444],[0.84116,-5.9918]],[[620,576],[0,6.08533],[0,-10.32188]],[[620,545.03435],[0,10.32188],[-0.16271,-0.92417]],[[620.2245,542.55409],[-0.22424,0.67897],[0.1928,-0.69928]],[[621.44179,540.33653],[-0.66613,0.6843],[0,0]],[[624.50842,535.80324],[0,0],[1.86118,-5.50667]],[[626,520],[0,5.80681],[0,-5.73402]],[[626.06456,502.80091],[-0.05518,5.73364],[0.0088,-0.91487]],[[626.07645,500.05621],[0.70605,0.58185],[-0.62753,-0.51715]],[[623.80091,500.93544],[0.76971,-0.26227],[-3.32862,1.1342]],[[614.91342,506.6194],[3.26967,-1.29435],[-2.20657,0.8735]],[[607.80091,506.93544],[2.33793,-0.40746],[-4.3628,0.76035]],[[595.02277,510.57257],[4.06677,-1.75317],[-4.49149,1.93626]],[[581.80091,516.93544],[4.81647,-0.85102],[-6.51938,1.15191]],[[561,517],[6.6323,0],[-16,0]],[[513,517],[16,0],[-16.66667,0]],[[463,517],[16.66667,0],[-6.62339,0]],[[442.19909,516.93544],[6.50522,0.92919],[-4.75218,-0.67879]],[[428.35782,512.95859],[4.76148,0.61019],[-12.44777,-1.59519]],[[390.38908,510.96254],[12.46559,1.3826],[-13.74834,-1.52487]],[[350.05446,500.90978],[12.90167,5.28995],[-19.0093,0.3393]],[[293,501],[19.01196,0],[-11.70035,0]],[[257.29366,501.41254],[11.62063,-1.52309],[-8.88861,1.16501]],[[237.4124,504.98296],[9.13736,-0.75885],[-8.47053,0.70347]],[[211.61092,504.96254],[8.43084,-1.03962],[-4.75403,0.58623]],[[197.80091,508.93544],[4.72677,-0.77594],[-0.50895,0.08355]],[[185,509],[0.95202,0],[-17.33333,0]],[[133,509],[17.33333,0],[-7.17195,0]],[[110.19909,508.93544],[7.08466,0.98823],[-2.08797,-0.29125]],[[104.19909,506.93544],[2.07739,0.35902],[-3.94157,-0.68119]],[[92.19909,506.93544],[3.92806,0.75521],[-6.21081,-1.1941]],[[74.19909,500.93544],[6.19938,1.25207],[-7.44734,-1.50412]],[[51.88808,497.92999],[7.40685,1.58394],[-1.05952,4.22688]]],&quot;closed&quot;:true}]}" stroke="#7d277a" stroke-width="15"/><path d="M25.94187,273.94979c3.75439,0.60019 7.53434,0.56836 11.30926,1.1383c3.14235,0.47444 5.97572,1.82105 9.12387,2.27351c1.99106,0.28617 4.08492,-0.25867 6.08283,-0.00056c1.05299,0.13604 1.98294,0.64746 3.0413,0.75782c3.59108,0.37446 7.92264,0.02324 11.55797,0.02324c8.78594,0 17.57425,-0.00384 26.36019,-0.00384c0.48256,0 6.2315,0.00594 6.48947,-0.02572c2.39591,-0.29402 4.59216,-1.2855 7.00189,-1.50763c4.27344,-0.39393 8.78816,0.27093 13.08171,0.00437c4.63156,-0.28754 5.57667,-0.91508 10.08214,-1.35652c5.89028,-0.57712 12.17984,-0.1622 18.11053,-0.1622c9.63681,0 19.31472,0.09102 28.95018,-0.03754c6.53962,2.00447 13.4971,3.23776 20.46587,3.81557c6.31857,0.52389 12.94621,0.1589 19.25575,0.76336c2.4135,0.23121 4.60988,1.25251 7.01868,1.50971c3.29738,0.35208 7.18846,0.02705 10.54573,0.02705c8.44802,0 16.89888,0.0044 25.3469,0.0044c8.1101,0 16.22152,0.00272 24.33162,0.00272c3.36179,0 7.2394,0.4129 10.54395,-0.02358c2.44138,-0.32247 4.32807,-1.65576 6.60473,-2.38945c2.06137,-0.66431 4.36265,-1.11192 6.57407,-1.40004c1.18506,-0.15439 2.38956,0.23285 3.50803,-0.09814c1.65734,-0.49045 2.88847,13.33461 2.79075,13.59958c-0.11366,0.25728 -0.1962,0.58995 -0.11373,0.94013c0,3.91116 0.00054,7.82638 0.00054,11.73755c0,2.30585 0.45913,5.00706 0.03276,7.27747c-0.28281,1.50599 -1.40742,2.85862 -1.95927,4.32236c-0.94145,2.49715 -1.55066,5.2786 -2.09625,7.80743c-0.45649,2.11583 -0.20976,4.9769 -0.0333,7.1265c0.03817,0.465 0.65981,0.99973 0.29976,1.37999c-0.70392,0.74342 -2.02774,1.01114 -3.0415,1.51637c-0.03565,0.81415 0.2932,1.6857 -0.10724,2.44329c-0.30414,0.57541 -1.41279,0.71626 -1.84213,1.2452c-0.55434,0.68294 -0.42766,1.60655 -1.01409,2.27435c-0.47657,0.54269 -1.16153,0.95696 -1.83569,1.37717c-0.04105,-0.0016 -0.06372,-0.0016 -0.06372,-0.0016c-7.36747,0 -15.25615,-0.58761 -22.58033,0.01342c-5.44683,0.44697 -11.03083,1.60223 -16.35134,2.2896c-3.32076,0.42902 -7.37941,-0.0228 -10.74659,-0.0228c-6.75842,0 -15.54831,0.00454 -22.30673,0.00454c-8.49196,0 -16.72031,-0.35136 -25.17449,-0.74476c-16.48062,-0.7669 -33.38115,0.00005 -49.90009,0.00005c-1.63903,0 -5.19227,-0.00188 -6.94552,-0.00188c-18.35398,-1.69956 -37.44926,-0.77335 -55.93616,-0.77335l-4.05558,-0.00071c0,0 -0.00302,0 -0.00886,0.00008c-1.91694,0.01598 -3.76561,-0.55987 -5.66859,-0.73468c-6.39642,-0.58759 -13.07828,0.27601 -19.51152,-0.0234c-8.1655,-0.38003 -16.22462,-1.48641 -24.38521,-1.51953l-2.36178,-0.00217c-3.70235,-1.99874 -5.5105,-5.00821 -7.65354,-8.06819c-0.60693,-0.86662 -1.46221,-1.661 -1.81611,-2.60275c-0.30932,-0.82313 0.29441,-1.7688 -0.12532,-2.56413c-0.35076,-0.66464 -1.63718,-0.86412 -2.02765,-1.51627c-0.2833,-0.47316 0.12852,-1.03284 0.19282,-1.54901l-1.10413,-1.31921c-0.8285,-3.70725 -1.79365,-8.28331 -0.95654,-12.02304c0.68698,-3.06907 2.37818,-6.02305 3.04144,-9.09726c0.47893,-2.21984 0.03309,-4.87274 0.03309,-7.1265c0,-4.54703 0.00124,-9.09857 0.00124,-13.64561c0,-1.65495 -0.59313,-3.7314 -0.05608,-5.33305z" data-paper-data="{&quot;noHover&quot;:false,&quot;origItem&quot;:[&quot;Path&quot;,{&quot;applyMatrix&quot;:true,&quot;segments&quot;:[[[52,512],[0,-4.36755],[0,12]],[[52,548],[0,-12],[0,5.94784]],[[51.93544,566.80091],[0.94485,-5.85835],[-1.3085,8.11311]],[[45.93544,590.80091],[1.35531,-8.09951],[-1.65148,9.86945]],[[47.82187,622.51977],[-1.6345,-9.78374],[0,0]],[[50,626],[0,0],[-0.12687,1.36219]],[[49.6194,630.08658],[-0.5589,-1.24872],[0.77033,1.72109]],[[53.6194,634.08658],[-0.692,-1.75405],[0.82807,2.09895]],[[53.86624,640.85124],[-0.61025,-2.1723],[0.69819,2.48535]],[[57.44865,647.71756],[-1.19738,-2.28708],[4.22789,8.07553]],[[72.54575,669.00174],[-7.30417,-5.27484],[0,0]],[[77.20503,669.007],[0,0],[16.09961,0.08743]],[[125.31069,673.00966],[-16.1093,-1.00293],[12.6918,0.79016]],[[163.80091,673.06456],[-12.61916,-1.55069],[3.7543,0.46134]],[[174.98252,675.00021],[-3.78183,0.04216],[0.01151,-0.00021]],[175,675],[[183,675],[0,0],[36.47185,0]],[[293.30989,677],[-36.20962,-4.48528],[3.45891,0]],[[307,677],[-3.23355,0],[32.58937,0]],[[405.35239,677.01634],[-32.51376,-2.02392],[16.67882,1.03822]],[[455,679],[-16.75334,0],[13.33333,0]],[[499,679],[-13.33333,0],[6.64294,0]],[[520.19909,679.06456],[-6.55136,1.13221],[10.49657,-1.81403]],[[552.45442,673.02986],[-10.74577,1.17959],[14.44948,-1.58615]],[[597,673],[-14.5349,0],[0,0]],[[597.1257,673.00423],[-0.08098,-0.00423],[1.33002,-1.10897]],[[600.74675,669.37134],[-0.94019,1.4322],[1.15694,-1.76237]],[[602.74675,663.37134],[-1.09363,1.80234],[0.84703,-1.39593]],[[606.3806,660.08658],[-0.60003,1.51856],[0.79001,-1.99936]],[[606.59163,653.64071],[-0.07034,2.14862],[2,-1.33333]],[[612.59163,649.64071],[-1.38873,1.96194],[0.71033,-1.00353]],[[612,646],[0.07531,1.22718],[-0.34814,-5.67297]],[[612.06456,627.19909],[-0.90058,5.58386],[1.07637,-6.67379]],[[616.1994,606.60206],[-1.85734,6.59018],[1.0887,-3.86293]],[[620.06456,595.19909],[-0.55795,3.97444],[0.84116,-5.9918]],[[620,576],[0,6.08533],[0,-10.32188]],[[620,545.03435],[0,10.32188],[-0.16271,-0.92417]],[[620.2245,542.55409],[-0.22424,0.67897],[0.1928,-0.69928]],[[621.44179,540.33653],[-0.66613,0.6843],[0,0]],[[624.50842,535.80324],[0,0],[1.86118,-5.50667]],[[626,520],[0,5.80681],[0,-5.73402]],[[626.06456,502.80091],[-0.05518,5.73364],[0.0088,-0.91487]],[[626.07645,500.05621],[0.70605,0.58185],[-0.62753,-0.51715]],[[623.80091,500.93544],[0.76971,-0.26227],[-3.32862,1.1342]],[[614.91342,506.6194],[3.26967,-1.29435],[-2.20657,0.8735]],[[607.80091,506.93544],[2.33793,-0.40746],[-4.3628,0.76035]],[[595.02277,510.57257],[4.06677,-1.75317],[-4.49149,1.93626]],[[581.80091,516.93544],[4.81647,-0.85102],[-6.51938,1.15191]],[[561,517],[6.6323,0],[-16,0]],[[513,517],[16,0],[-16.66667,0]],[[463,517],[16.66667,0],[-6.62339,0]],[[442.19909,516.93544],[6.50522,0.92919],[-4.75218,-0.67879]],[[428.35782,512.95859],[4.76148,0.61019],[-12.44777,-1.59519]],[[390.38908,510.96254],[12.46559,1.3826],[-13.74834,-1.52487]],[[350.05446,500.90978],[12.90167,5.28995],[-19.0093,0.3393]],[[293,501],[19.01196,0],[-11.70035,0]],[[257.29366,501.41254],[11.62063,-1.52309],[-8.88861,1.16501]],[[237.4124,504.98296],[9.13736,-0.75885],[-8.47053,0.70347]],[[211.61092,504.96254],[8.43084,-1.03962],[-4.75403,0.58623]],[[197.80091,508.93544],[4.72677,-0.77594],[-0.50895,0.08355]],[[185,509],[0.95202,0],[-17.33333,0]],[[133,509],[17.33333,0],[-7.17195,0]],[[110.19909,508.93544],[7.08466,0.98823],[-2.08797,-0.29125]],[[104.19909,506.93544],[2.07739,0.35902],[-3.94157,-0.68119]],[[92.19909,506.93544],[3.92806,0.75521],[-6.21081,-1.1941]],[[74.19909,500.93544],[6.19938,1.25207],[-7.44734,-1.50412]],[[51.88808,497.92999],[7.40685,1.58394],[-1.05952,4.22688]]],&quot;closed&quot;:true}]}" stroke="url(#color-3)" stroke-width="5"/></g><g><g stroke-width="0"><path d="M95.48622,264.98554c-2.13621,0.2067 0.27258,1.35018 -1.06927,-2.60362c-2.14154,-6.31013 -14.4767,-16.21656 -15.19051,-23.60285c-0.29986,-3.10291 4.31125,-6.60162 5.97705,-7.16697c1.69193,-0.57421 8.13146,-0.60173 9.84117,2.10819c3.98059,6.30935 -0.275,21.55137 1.85241,27.81991c0,0 1.29446,3.18352 -1.41086,3.44531z" fill="url(#color-5)" stroke="#000000"/><path d="M92.98388,262.19298c-0.20669,-2.13621 -1.35019,0.27258 2.60362,-1.06927c6.31013,-2.14154 16.21656,-14.47671 23.60285,-15.19051c3.10291,-0.29986 6.60162,4.31125 7.16697,5.97705c0.57421,1.69193 0.60172,8.13146 -2.1082,9.84117c-6.30934,3.98059 -21.55137,-0.27501 -27.81991,1.85241c0,0 -3.18353,1.29446 -3.44531,-1.41086z" fill="url(#color-6)" stroke="#000000"/><path d="M98.27875,262.48317c0.20669,2.13621 1.35019,-0.27258 -2.60361,1.06927c-6.31012,2.14154 -16.21657,14.47671 -23.60286,15.19051c-3.10291,0.29986 -6.60162,-4.31125 -7.16697,-5.97705c-0.57421,-1.69193 -0.60172,-8.13145 2.1082,-9.84117c6.30934,-3.98059 21.55138,0.27501 27.81992,-1.85241c0,0 3.18353,-1.29447 3.44531,1.41085z" fill="url(#color-7)" stroke="#000000"/><path d="M95.77643,259.69061c2.13621,-0.2067 -0.27258,-1.35019 1.06927,2.60361c2.14154,6.31013 14.47671,16.21657 15.19051,23.60285c0.29986,3.10291 -4.31127,6.60162 -5.97706,7.16697c-1.69193,0.57421 -8.13145,0.60173 -9.84117,-2.10819c-3.98059,-6.30935 0.275,-21.55138 -1.85241,-27.81992c0,0 -1.29446,-3.18352 1.41086,-3.44531z" fill="url(#color-8)" stroke="#000000"/><path d="M98.48906,256.54416c3.1999,1.57826 4.51448,5.45175 2.93621,8.65165c-1.57828,3.1999 -5.45175,4.51448 -8.65165,2.9362c-3.1999,-1.57826 -4.51448,-5.45174 -2.93621,-8.65164c1.57828,-3.1999 5.45175,-4.51449 8.65165,-2.93621z" fill="url(#color-9)" stroke="#000000"/><path d="M95.48622,264.98554c-2.13621,0.2067 0.27258,1.35018 -1.06927,-2.60362c-2.14154,-6.31013 -14.4767,-16.21656 -15.19051,-23.60285c-0.29986,-3.10291 4.31125,-6.60162 5.97705,-7.16697c1.69193,-0.57421 8.13146,-0.60173 9.84117,2.10819c3.98059,6.30935 -0.275,21.55137 1.85241,27.81991c0,0 1.29446,3.18352 -1.41086,3.44531z" fill="url(#color-10)" stroke="none"/><path d="M92.98388,262.19298c-0.20669,-2.13621 -1.35019,0.27258 2.60362,-1.06927c6.31013,-2.14154 16.21656,-14.47671 23.60285,-15.19051c3.10291,-0.29986 6.60162,4.31125 7.16697,5.97705c0.57421,1.69193 0.60172,8.13146 -2.1082,9.84117c-6.30934,3.98059 -21.55137,-0.27501 -27.81991,1.85241c0,0 -3.18353,1.29446 -3.44531,-1.41086z" fill="url(#color-11)" stroke="none"/><path d="M98.27875,262.48317c0.20669,2.13621 1.35019,-0.27258 -2.60361,1.06927c-6.31012,2.14154 -16.21657,14.47671 -23.60286,15.19051c-3.10291,0.29986 -6.60162,-4.31125 -7.16697,-5.97705c-0.57421,-1.69193 -0.60172,-8.13145 2.1082,-9.84117c6.30934,-3.98059 21.55138,0.27501 27.81992,-1.85241c0,0 3.18353,-1.29447 3.44531,1.41085z" fill="url(#color-12)" stroke="none"/><path d="M95.77643,259.69061c2.13621,-0.2067 -0.27258,-1.35019 1.06927,2.60361c2.14154,6.31013 14.47671,16.21657 15.19051,23.60285c0.29986,3.10291 -4.31127,6.60162 -5.97706,7.16697c-1.69193,0.57421 -8.13145,0.60173 -9.84117,-2.10819c-3.98059,-6.30935 0.275,-21.55138 -1.85241,-27.81992c0,0 -1.29446,-3.18352 1.41086,-3.44531z" fill="url(#color-13)" stroke="none"/><path d="M98.48906,256.54416c3.1999,1.57826 4.51448,5.45175 2.93621,8.65165c-1.57828,3.1999 -5.45175,4.51448 -8.65165,2.9362c-3.1999,-1.57826 -4.51448,-5.45174 -2.93621,-8.65164c1.57828,-3.1999 5.45175,-4.51449 8.65165,-2.93621z" fill="url(#color-14)" stroke="none"/><path d="M94.46227,258.89345c1.90241,-0.64565 3.96801,0.37316 4.61366,2.27558c0.64563,1.90242 -0.37317,3.96802 -2.27559,4.61367c-1.90241,0.64565 -3.96801,-0.37317 -4.61366,-2.27559c-0.64563,-1.90242 0.37317,-3.96801 2.27559,-4.61366z" fill="url(#color-15)" stroke="#e0f2ff"/></g><g stroke-width="0"><path d="M97.09521,264.54873c-1.5905,1.44099 1.02466,0.92055 -2.41202,-1.4506c-5.48481,-3.78426 -21.29468,-4.36902 -26.27643,-9.86893c-2.09279,-2.31046 -0.48176,-7.86996 0.51725,-9.31788c1.01467,-1.47064 6.16465,-5.33665 9.15398,-4.18304c6.95982,2.68586 12.6439,17.45478 18.09256,21.2141c0,0 2.93888,1.78144 0.92467,3.60633z" fill="url(#color-16)" stroke="#000000"/><path d="M93.42066,263.802c-1.441,-1.59051 -0.92055,1.02466 1.4506,-2.41203c3.78426,-5.48481 4.36902,-21.29468 9.86893,-26.27643c2.31046,-2.09278 7.86996,-0.48176 9.31788,0.51725c1.47064,1.01467 5.33664,6.16464 4.18304,9.15397c-2.68586,6.95982 -17.45477,12.64391 -21.2141,18.09257c0,0 -1.78144,2.93887 -3.60632,0.92466z" fill="url(#color-17)" stroke="#000000"/><path d="M97.842,260.87415c1.441,1.59051 0.92055,-1.02467 -1.4506,2.41202c-3.78426,5.48482 -4.36902,21.29469 -9.86893,26.27643c-2.31046,2.09278 -7.86996,0.48176 -9.31788,-0.51725c-1.47064,-1.01467 -5.33665,-6.16465 -4.18304,-9.15398c2.68586,-6.95982 17.45477,-12.6439 21.2141,-18.09256c0,0 1.78144,-2.93887 3.60633,-0.92467z" fill="url(#color-18)" stroke="#000000"/><path d="M94.1674,260.12742c1.5905,-1.44099 -1.02466,-0.92055 2.41203,1.4506c5.48481,3.78426 21.29468,4.36902 26.27643,9.86893c2.09279,2.31047 0.48176,7.86996 -0.51724,9.31788c-1.01467,1.47064 -6.16465,5.33664 -9.15398,4.18304c-6.95982,-2.68586 -12.64391,-17.45477 -18.09257,-21.2141c0,0 -2.93887,-1.78144 -0.92466,-3.60633z" fill="url(#color-19)" stroke="#000000"/><path d="M94.46555,255.98378c3.50938,-0.64385 6.87623,1.67912 7.52009,5.18851c0.64385,3.50937 -1.67912,6.87624 -5.1885,7.5201c-3.50938,0.64385 -6.87623,-1.67912 -7.5201,-5.18851c-0.64385,-3.50937 1.67912,-6.87624 5.18851,-7.5201z" fill="url(#color-20)" stroke="#000000"/><path d="M97.09521,264.54873c-1.5905,1.44099 1.02466,0.92055 -2.41202,-1.4506c-5.48481,-3.78426 -21.29468,-4.36902 -26.27643,-9.86893c-2.09279,-2.31046 -0.48176,-7.86996 0.51725,-9.31788c1.01467,-1.47064 6.16465,-5.33665 9.15398,-4.18304c6.95982,2.68586 12.6439,17.45478 18.09256,21.2141c0,0 2.93888,1.78144 0.92467,3.60633z" fill="url(#color-21)" stroke="none"/><path d="M93.42066,263.802c-1.441,-1.59051 -0.92055,1.02466 1.4506,-2.41203c3.78426,-5.48481 4.36902,-21.29468 9.86893,-26.27643c2.31046,-2.09278 7.86996,-0.48176 9.31788,0.51725c1.47064,1.01467 5.33664,6.16464 4.18304,9.15397c-2.68586,6.95982 -17.45477,12.64391 -21.2141,18.09257c0,0 -1.78144,2.93887 -3.60632,0.92466z" fill="url(#color-22)" stroke="none"/><path d="M97.842,260.87415c1.441,1.59051 0.92055,-1.02467 -1.4506,2.41202c-3.78426,5.48482 -4.36902,21.29469 -9.86893,26.27643c-2.31046,2.09278 -7.86996,0.48176 -9.31788,-0.51725c-1.47064,-1.01467 -5.33665,-6.16465 -4.18304,-9.15398c2.68586,-6.95982 17.45477,-12.6439 21.2141,-18.09256c0,0 1.78144,-2.93887 3.60633,-0.92467z" fill="url(#color-23)" stroke="none"/><path d="M94.1674,260.12742c1.5905,-1.44099 -1.02466,-0.92055 2.41203,1.4506c5.48481,3.78426 21.29468,4.36902 26.27643,9.86893c2.09279,2.31047 0.48176,7.86996 -0.51724,9.31788c-1.01467,1.47064 -6.16465,5.33664 -9.15398,4.18304c-6.95982,-2.68586 -12.64391,-17.45477 -18.09257,-21.2141c0,0 -2.93887,-1.78144 -0.92466,-3.60633z" fill="url(#color-24)" stroke="none"/><path d="M94.46555,255.98378c3.50938,-0.64385 6.87623,1.67912 7.52009,5.18851c0.64385,3.50937 -1.67912,6.87624 -5.1885,7.5201c-3.50938,0.64385 -6.87623,-1.67912 -7.5201,-5.18851c-0.64385,-3.50937 1.67912,-6.87624 5.18851,-7.5201z" fill="url(#color-25)" stroke="none"/><path d="M92.63725,260.27228c1.14091,-1.65359 3.40628,-2.06921 5.05988,-0.92831c1.65359,1.1409 2.06921,3.40628 0.92831,5.05988c-1.14091,1.65359 -3.40628,2.06921 -5.05988,0.92831c-1.65359,-1.1409 -2.06921,-3.40628 -0.92831,-5.05988z" fill="url(#color-26)" stroke="#e0f2ff"/></g><g><path d="M97.72181,263.96903c-1.05022,1.87168 1.26404,0.54726 -2.74795,-0.60903c-6.403,-1.84541 -21.57936,2.62357 -28.05048,-1.00842c-2.71846,-1.52577 -2.95741,-7.30904 -2.47023,-8.99935c0.4948,-1.71684 4.14953,-7.01883 7.35048,-6.87483c7.45255,0.33525 17.53476,12.53274 23.89555,14.36599c0,0 3.35261,0.75533 2.02263,3.12565z" fill="#f7229d" stroke="#000000" stroke-width="4"/><path d="M94.00036,264.42855c-1.87168,-1.05022 -0.54727,1.26406 0.60902,-2.74795c1.8454,-6.403 -2.62358,-21.57937 1.00842,-28.05048c1.52577,-2.71846 7.30905,-2.9574 8.99936,-2.47023c1.71684,0.49481 7.01883,4.14953 6.87483,7.35048c-0.33526,7.45255 -12.53274,17.53476 -14.36599,23.89554c0,0 -0.75532,3.35261 -3.12564,2.02263z" fill="#f7229d" stroke="#000000" stroke-width="4"/><path d="M97.26227,260.2476c1.87168,1.05022 0.54727,-1.26406 -0.60903,2.74794c-1.8454,6.403 2.62358,21.57936 -1.00842,28.05049c-1.52577,2.71846 -7.30904,2.9574 -8.99935,2.47022c-1.71684,-0.4948 -7.01884,-4.14952 -6.87484,-7.35048c0.33526,-7.45255 12.53274,-17.53476 14.36599,-23.89554c0,0 0.75532,-3.35261 3.12565,-2.02262z" fill="#f7229d" stroke="#000000" stroke-width="4"/><path d="M93.54084,260.70713c1.05022,-1.87168 -1.26404,-0.54726 2.74795,0.60902c6.403,1.84541 21.57936,-2.62357 28.05048,1.00841c2.71846,1.52577 2.9574,7.30904 2.47023,8.99935c-0.4948,1.71684 -4.14952,7.01884 -7.35048,6.87484c-7.45255,-0.33526 -17.53476,-12.53274 -23.89554,-14.36599c0,0 -3.35261,-0.75533 -2.02263,-3.12565z" fill="#f7229d" stroke="#000000" stroke-width="4"/><path d="M92.50694,256.68349c3.12295,-1.72556 7.05342,-0.59276 8.77898,2.53019c1.72556,3.12295 0.59274,7.05343 -2.53019,8.77898c-3.12295,1.72556 -7.05342,0.59276 -8.77898,-2.53019c-1.72556,-3.12295 -0.59274,-7.05342 2.53019,-8.77898z" fill="#becdd8" stroke="#000000" stroke-width="4"/><path d="M97.72181,263.96903c-1.05022,1.87168 1.26404,0.54726 -2.74795,-0.60903c-6.403,-1.84541 -21.57936,2.62357 -28.05048,-1.00842c-2.71846,-1.52577 -2.95741,-7.30904 -2.47023,-8.99935c0.4948,-1.71684 4.14953,-7.01883 7.35048,-6.87483c7.45255,0.33525 17.53476,12.53274 23.89555,14.36599c0,0 3.35261,0.75533 2.02263,3.12565z" fill="#f7229d" stroke="none" stroke-width="0"/><path d="M94.00036,264.42855c-1.87168,-1.05022 -0.54727,1.26406 0.60902,-2.74795c1.8454,-6.403 -2.62358,-21.57937 1.00842,-28.05048c1.52577,-2.71846 7.30905,-2.9574 8.99936,-2.47023c1.71684,0.49481 7.01883,4.14953 6.87483,7.35048c-0.33526,7.45255 -12.53274,17.53476 -14.36599,23.89554c0,0 -0.75532,3.35261 -3.12564,2.02263z" fill="#f7229d" stroke="none" stroke-width="0"/><path d="M97.26227,260.2476c1.87168,1.05022 0.54727,-1.26406 -0.60903,2.74794c-1.8454,6.403 2.62358,21.57936 -1.00842,28.05049c-1.52577,2.71846 -7.30904,2.9574 -8.99935,2.47022c-1.71684,-0.4948 -7.01884,-4.14952 -6.87484,-7.35048c0.33526,-7.45255 12.53274,-17.53476 14.36599,-23.89554c0,0 0.75532,-3.35261 3.12565,-2.02262z" fill="#f7229d" stroke="none" stroke-width="0"/><path d="M93.54084,260.70713c1.05022,-1.87168 -1.26404,-0.54726 2.74795,0.60902c6.403,1.84541 21.57936,-2.62357 28.05048,1.00841c2.71846,1.52577 2.9574,7.30904 2.47023,8.99935c-0.4948,1.71684 -4.14952,7.01884 -7.35048,6.87484c-7.45255,-0.33526 -17.53476,-12.53274 -23.89554,-14.36599c0,0 -3.35261,-0.75533 -2.02263,-3.12565z" fill="#f7229d" stroke="none" stroke-width="0"/><path d="M92.50694,256.68349c3.12295,-1.72556 7.05342,-0.59276 8.77898,2.53019c1.72556,3.12295 0.59274,7.05343 -2.53019,8.77898c-3.12295,1.72556 -7.05342,0.59276 -8.77898,-2.53019c-1.72556,-3.12295 -0.59274,-7.05342 2.53019,-8.77898z" fill="#becdd8" stroke="none" stroke-width="0"/><path d="M92.13601,261.33069c0.55636,-1.93041 2.57228,-3.04429 4.5027,-2.48793c1.93041,0.55636 3.04429,2.57229 2.48793,4.5027c-0.55636,1.93041 -2.57229,3.04429 -4.5027,2.48793c-1.93041,-0.55636 -3.04429,-2.57229 -2.48793,-4.5027z" fill="none" stroke="#e0f2ff" stroke-width="2.5"/></g></g><path d="M29.01486,336.25356c-10.2069,-8.41538 -8.19816,-60.26117 -7.81634,-119.48853c0.33609,-52.13036 -2.267,-112.39018 7.81634,-120.20419c10.32773,-8.00337 75.68104,-5.55667 140.56181,-5.53058c64.62108,0.02601 128.77321,-2.40079 137.62206,5.53058c10.33406,9.26245 7.78577,65.2406 7.62122,120.9033c-0.16311,55.17356 2.14612,110.037 -7.62122,118.78933c-9.96625,8.93054 -74.10419,6.90071 -138.4489,6.86804c-64.43482,-0.03276 -129.07694,1.91904 -139.73496,-6.86804z" fill="none" stroke="#ffffff" stroke-width="5"/><g data-paper-data="{&quot;index&quot;:null}"><path d="M192.31572,189.31923c-8.20423,-4.42841 -11.26514,-14.66918 -6.83673,-22.87342c4.42841,-8.20424 34.13857,7.83245 29.71016,16.03669c-4.42841,8.20423 -14.66918,11.26514 -22.87342,6.83673z" fill="#ffc166" stroke="#000000" stroke-width="7.5"/><path d="M185.6912,166.05276c4.42841,-8.20423 14.66918,-11.26514 22.87342,-6.83673c8.20423,4.42841 11.26514,14.66918 6.83673,22.87342c-4.42841,8.20424 -34.13857,-7.83245 -29.71016,-16.03669z" data-paper-data="{&quot;index&quot;:null}" fill="#66deff" stroke="#000000" stroke-width="7.5"/><path d="M205.66715,161.34361c1.73078,-3.35542 31.7566,-58.83343 31.7566,-58.83343l2.73644,1.47705c0,0 -30.14133,55.75061 -31.7566,58.83343c-0.6578,1.25545 -3.53345,0.0681 -2.73644,-1.47705z" fill="#d466ff" stroke="#000000" stroke-width="7.5"/><path d="M192.31572,189.31923c-8.20423,-4.42841 -11.26514,-14.66918 -6.83673,-22.87342c4.42841,-8.20424 34.13857,7.83245 29.71016,16.03669c-4.42841,8.20423 -14.66918,11.26514 -22.87342,6.83673z" fill="#ffc166" stroke="none" stroke-width="0"/><path d="M185.6912,166.05276c4.42841,-8.20423 14.66918,-11.26514 22.87342,-6.83673c8.20423,4.42841 11.26514,14.66918 6.83673,22.87342c-4.42841,8.20424 -34.13857,-7.83245 -29.71016,-16.03669z" data-paper-data="{&quot;index&quot;:null}" fill="#66deff" stroke="none" stroke-width="0"/><path d="M205.66715,161.34361c1.73078,-3.35542 31.7566,-58.83343 31.7566,-58.83343l2.73644,1.47705c0,0 -30.14133,55.75061 -31.7566,58.83343c-0.6578,1.25545 -3.53345,0.0681 -2.73644,-1.47705z" fill="#d466ff" stroke="none" stroke-width="0"/><g fill="#ffc166" stroke="#000000" stroke-width="3.5"><path d="M237.44081,105.71892c-1.97908,-1.06826 -2.71745,-3.53859 -1.6492,-5.51767c1.06826,-1.97908 3.53859,-2.71745 5.51767,-1.6492c1.97908,1.06826 2.71745,3.5386 1.6492,5.51767c-1.06826,1.97908 -3.5386,2.71745 -5.51767,1.6492z"/><path d="M237.44081,105.71893c-1.97908,-1.06826 -2.71745,-3.53859 -1.6492,-5.51767c1.06826,-1.97908 3.5386,-2.71745 5.51767,-1.6492c1.97908,1.06826 2.71745,3.5386 1.6492,5.51767c-1.06826,1.97908 -3.5386,2.71745 -5.51767,1.6492z"/></g></g><path d="M388.0617,170.53727c-2.82288,-0.95529 -2.26733,-6.84063 -2.16173,-13.56391c0.09295,-5.91765 -0.62697,-12.75813 2.16173,-13.64515c2.85629,-0.90851 20.93076,-0.63077 38.87453,-0.62781c17.87195,0.00296 35.6142,-0.27253 38.06149,0.62781c2.85805,1.05144 2.15328,7.40588 2.10777,13.72451c-0.04511,6.2631 0.59354,12.49101 -2.10777,13.48455c-2.75632,1.01377 -20.49465,0.78334 -38.29016,0.77963c-17.82044,-0.00372 -35.69821,0.21785 -38.64585,-0.77963z" fill="#007e91" stroke="#000000" stroke-width="0"/><path d="M383.0617,165.53726c-2.82287,-0.95528 -2.26733,-6.84063 -2.16173,-13.56391c0.09295,-5.91765 -0.62697,-12.75813 2.16173,-13.64515c2.85629,-0.90851 20.93075,-0.63077 38.87452,-0.62781c17.87195,0.00295 35.61421,-0.27253 38.06149,0.62781c2.85804,1.05144 2.15327,7.40588 2.10777,13.72451c-0.04511,6.26311 0.59354,12.49101 -2.10777,13.48454c-2.75632,1.01376 -20.49465,0.78334 -38.29017,0.77964c-17.82044,-0.00372 -35.69821,0.21784 -38.64585,-0.77964z" fill="#29f376" stroke="#000000" stroke-width="0"/><text transform="translate(387.00019,157.25001) scale(0.40037,0.34832)" font-size="40" xml:space="preserve" fill="#ffffff" fill-rule="nonzero" stroke="#ffffff" stroke-width="1" stroke-linecap="butt" stroke-linejoin="miter" stroke-miterlimit="10" stroke-dasharray="" stroke-dashoffset="0" font-family="Sans Serif" font-weight="normal" text-anchor="start" style="mix-blend-mode: normal"><tspan x="0" dy="0">CARRERA</tspan></text><text transform="translate(349.48489,195.01766) scale(0.33192,0.33192)" font-size="40" xml:space="preserve" data-paper-data="{&quot;index&quot;:null}" fill="#007e91" fill-rule="nonzero" stroke="#007e91" stroke-width="7" stroke-linecap="butt" stroke-linejoin="miter" stroke-miterlimit="10" stroke-dasharray="" stroke-dashoffset="0" font-family="Handwriting" font-weight="normal" text-anchor="start" style="mix-blend-mode: normal"><tspan x="0" dy="0">COMO JUGAR</tspan></text><text transform="translate(350.48489,192.51766) scale(0.33192,0.33192)" font-size="40" xml:space="preserve" data-paper-data="{&quot;index&quot;:null}" fill="#ffffff" fill-rule="nonzero" stroke="#ffffff" stroke-width="7" stroke-linecap="butt" stroke-linejoin="miter" stroke-miterlimit="10" stroke-dasharray="" stroke-dashoffset="0" font-family="Handwriting" font-weight="normal" text-anchor="start" style="mix-blend-mode: normal"><tspan x="0" dy="0">COMO JUGAR</tspan></text><text transform="translate(350.25019,218.48753) scale(0.30625,0.30625)" font-size="40" xml:space="preserve" fill="#007e91" fill-rule="nonzero" stroke="none" stroke-width="1" stroke-linecap="butt" stroke-linejoin="miter" stroke-miterlimit="10" stroke-dasharray="" stroke-dashoffset="0" font-family="Sans Serif" font-weight="normal" text-anchor="start" style="mix-blend-mode: normal"><tspan x="0" dy="0">Saltea los obstáculos</tspan><tspan x="0" dy="48px">y llega hasta la meta</tspan><tspan x="0" dy="48px">para clasificarte al</tspan><tspan x="0" dy="48px">siguiente nivel</tspan></text><text transform="translate(349.25019,217.48753) scale(0.30625,0.30625)" font-size="40" xml:space="preserve" fill="#ffffff" fill-rule="nonzero" stroke="none" stroke-width="1" stroke-linecap="butt" stroke-linejoin="miter" stroke-miterlimit="10" stroke-dasharray="" stroke-dashoffset="0" font-family="Sans Serif" font-weight="normal" text-anchor="start" style="mix-blend-mode: normal"><tspan x="0" dy="0">Saltea los obstáculos</tspan><tspan x="0" dy="48px">y llega hasta la meta</tspan><tspan x="0" dy="48px">para clasificarte al</tspan><tspan x="0" dy="48px">siguiente nivel, una</tspan><tspan x="0" dy="48px">jungla te espera</tspan></text></g></g></svg>