<svg version="1.1" xmlns="http://www.w3.org/2000/svg" xmlns:xlink="http://www.w3.org/1999/xlink" width="533" height="377" viewBox="0,0,533,377"><defs><linearGradient x1="240.05403" y1="311.40858" x2="240.05403" y2="348.39516" gradientUnits="userSpaceOnUse" id="color-1"><stop offset="0" stop-color="#ff4af6"/><stop offset="1" stop-color="#b692ff"/></linearGradient><linearGradient x1="411.01554" y1="87.25126" x2="411.01554" y2="112.5811" gradientUnits="userSpaceOnUse" id="color-2"><stop offset="0" stop-color="#ff4af6"/><stop offset="1" stop-color="#b692ff"/></linearGradient></defs><g transform="translate(26.5,8.5)"><g data-paper-data="{&quot;isPaintingLayer&quot;:true}" fill-rule="nonzero" stroke="none" stroke-width="0" stroke-linecap="butt" stroke-linejoin="miter" stroke-miterlimit="10" stroke-dasharray="" stroke-dashoffset="0" style="mix-blend-mode: normal"><path d="M-26.5,368.5v-377h533v377z" fill="none"/><path d="M-5.96247,342.42959v-25.05544c0,0 30.14601,-3.57935 58.78716,-3.57935c20.62558,0 60.79478,3.32747 108.68802,2.95737c23.32202,-0.18024 48.47532,-1.39721 74.09546,-1.31414c26.02302,0.0844 52.5274,-0.914 78.08287,-0.66072c31.65357,0.31373 61.85145,1.91043 87.87566,2.30545c49.93519,0.758 84.50365,1.48453 84.50365,1.48453v23.86231c0,0 -82.62525,11.93117 -139.80446,11.93117c-26.15574,0 -66.48947,-4.57429 -110.65705,-4.29214c-24.44372,0.15615 -47.0976,2.36482 -72.13636,1.99528c-17.93736,-0.26473 -38.5414,4.84994 -55.23952,4.23085c-2.34917,-0.08709 -114.19544,-13.86517 -114.19544,-13.86517z" fill="url(#color-1)"/><path d="M490.31772,108.49565c0,0 -48.83448,6.41665 -54.6165,6.59796c-8.07112,0.25308 -15.37348,-1.25951 -23.25279,-1.36645c-14.2372,-0.19323 -27.23857,2.93942 -35.66974,2.93942c-18.43143,0 -71.84628,-3.85513 -64.79202,-9.86886c11.70951,-9.98232 14.52942,-8.28819 19.47705,-10.68204c8.69154,-4.2053 11.39268,-4.4594 27.48903,-4.97851c8.38877,-0.27052 18.12291,-1.36401 28.32627,-1.57886c8.23768,-0.17345 16.78123,0.51029 25.16962,0.45249c8.25852,-0.05689 16.36656,0.77654 23.8843,0.89998c15.43814,0.25346 28.38648,-2.02532 35.03503,-2.02532c9.23233,0 18.94974,2.45128 18.94974,2.45128v17.15893z" data-paper-data="{&quot;index&quot;:null}" fill="url(#color-2)"/></g></g></svg>